<?xml version="1.0" encoding="utf-8"?>
<!-- Generator: Adobe Illustrator 21.0.2, SVG Export Plug-In . SVG Version: 6.00 Build 0)  -->
<svg version="1.1"
	 id="svg2" inkscape:export-filename="C:\Users\sscerbatiuc\Desktop\Career levels-2\Final\CLevels.png" inkscape:export-xdpi="57.820419" inkscape:export-ydpi="57.820419" inkscape:version="0.91 r13725" sodipodi:docname="CLevels.svg" xmlns:cc="http://creativecommons.org/ns#" xmlns:dc="http://purl.org/dc/elements/1.1/" xmlns:inkscape="http://www.inkscape.org/namespaces/inkscape" xmlns:osb="http://www.openswatchbook.org/uri/2009/osb" xmlns:rdf="http://www.w3.org/1999/02/22-rdf-syntax-ns#" xmlns:sodipodi="http://sodipodi.sourceforge.net/DTD/sodipodi-0.dtd" xmlns:svg="http://www.w3.org/2000/svg"
	 xmlns="http://www.w3.org/2000/svg" xmlns:xlink="http://www.w3.org/1999/xlink" x="0px" y="0px" viewBox="0 0 1162.7 238"
	 style="enable-background:new 0 0 1162.7 238;" xml:space="preserve">
<style type="text/css">
	.st0{opacity:0.8667;fill:#E83600;enable-background:new    ;}
	.st1{fill:#FBD6B1;}
	.st2{fill:#4E2E22;}
	.st3{fill:#EC6180;}
	.st4{fill:#2E2D2D;}
	.st5{fill:#F8F8F8;}
	.st6{fill:#7A7B7C;}
	.st7{fill:#90B39B;}
	.st8{fill:#84572F;}
	.st9{fill:#6E492A;}
	.st10{fill:#5E3E25;}
	.st11{fill:#749B87;}
	.st12{fill:#3F271D;}
	.st13{fill:#8EB29B;}
	.st14{fill:#4C3F3A;}
	.st15{fill:#FBD8B5;}
	.st16{fill:#3C312E;}
	.st17{fill:#D8D7D5;}
	.st18{fill:#EDCBAA;}
	.st19{fill:#F8EF16;}
	.st20{fill:#464648;}
	.st21{fill:#789683;}
	.st22{fill:#2C1913;}
	.st23{clip-path:url(#SVGID_4_);}
	.st24{fill:#3A383A;}
	.st25{font-family:'Arial-BoldMT';}
	.st26{font-size:16.2536px;}
	.st27{fill:url(#path3101_1_);}
	.st28{clip-path:url(#SVGID_6_);}
	.st29{fill:url(#path3133_1_);}
	.st30{clip-path:url(#SVGID_8_);}
	.st31{font-size:111.0577px;}
	.st32{letter-spacing:2;}
	.st33{fill:none;stroke:#000000;stroke-width:0.8664;stroke-opacity:0.2;}
	.st34{fill:#3A383A;fill-opacity:0.6667;stroke:#000000;stroke-width:0.8662;stroke-opacity:0.2;}
	.st35{fill:#3A383A;fill-opacity:0.6667;stroke:#000000;stroke-width:0.8667;stroke-opacity:0.2;}
	.st36{fill:#3A383A;fill-opacity:0.6667;stroke:#000000;stroke-width:0.8902;stroke-opacity:0.2;}
	.st37{fill:#3A383A;fill-opacity:0.6667;stroke:#000000;stroke-width:0.8665;stroke-opacity:0.2;}
	.st38{fill:#3A383A;fill-opacity:0.6667;stroke:#000000;stroke-width:0.8907;stroke-opacity:0.2;}
	.st39{opacity:0.8667;fill:#FF6500;enable-background:new    ;}
</style>
<sodipodi:namedview  bordercolor="#666666" borderopacity="1" gridtolerance="10" guidetolerance="10" id="namedview4" inkscape:current-layer="g10" inkscape:cx="1367.7272" inkscape:cy="1109.7718" inkscape:guide-bbox="true" inkscape:pageopacity="1" inkscape:pageshadow="2" inkscape:window-height="1017" inkscape:window-maximized="1" inkscape:window-width="1920" inkscape:window-x="-8" inkscape:window-y="-8" inkscape:zoom="0.35355339" objecttolerance="10" pagecolor="#ffffff" showgrid="true" showguides="true" units="mm">
	<inkscape:grid  enabled="true" id="grid5839" spacingx="19.5" spacingy="19.6" type="xygrid" visible="false"></inkscape:grid>
	<sodipodi:guide  id="guide6375" orientation="0,2979.9213" position="0,1300.79122199"></sodipodi:guide>
	<sodipodi:guide  id="guide6377" orientation="0,2979.9213" position="0,803.933187455"></sodipodi:guide>
	<sodipodi:guide  id="guide6379" orientation="2104.7244,0" position="1841.69262237,0"></sodipodi:guide>
	<sodipodi:guide  id="guide6381" orientation="2104.7244,0" position="1138.22863746,0"></sodipodi:guide>
	<sodipodi:guide  id="guide8954" orientation="0,1" position="868.85748,1079.045"></sodipodi:guide>
	<sodipodi:guide  id="guide8956" orientation="0,1" position="2086.5,1807.4534"></sodipodi:guide>
	<sodipodi:guide  id="guide8958" orientation="0,1" position="2275.8232,1803.2"></sodipodi:guide>
	<sodipodi:guide  id="guide8960" orientation="0,1" position="2345.5,1776.5"></sodipodi:guide>
	<sodipodi:guide  id="guide8962" orientation="0,1" position="1493.75,1749.25"></sodipodi:guide>
	<sodipodi:guide  id="guide8964" orientation="0,1" position="916.5,1724.8"></sodipodi:guide>
</sodipodi:namedview>
<defs>
	
	
		<inkscape:perspective  id="perspective4983" inkscape:persp3d-origin="1489.9606 : 701.5748 : 1" inkscape:vp_x="0 : 1052.3622 : 1" inkscape:vp_y="0 : 1000 : 0" inkscape:vp_z="2979.9212 : 1052.3622 : 1" sodipodi:type="inkscape:persp3d">
		</inkscape:perspective>
</defs>
<g id="g10" transform="matrix(1.25,0,0,-1.25,0,2104.7244)" inkscape:groupmode="layer" inkscape:label="10520-NMWDEW">
	<g id="g26" transform="matrix(2.3019257,0,0,2.1700634,42.932761,521.90742)">
		<g id="path28_1_" inkscape:connector-curvature="0" sodipodi:nodetypes="cccccc">
			<path class="st0" d="M-214.4,22.7v-87.5c61.9,0,103.1,0,160.9,0l19.7,43.1l-19.7,44.4L-214.4,22.7z"/>
		</g>
	</g>
	<g id="g6073" transform="matrix(1,0,0,1.0000059,-8.5649167,-224.47466)">
	</g>
	<g id="g8291" transform="matrix(0.42880951,0,0,0.42880951,718.07318,1089.2118)">
		<path id="path28-1" inkscape:connector-curvature="0" class="st1" d="M412.7,1251.3c0-32.7-22.6-59.2-52-59.2
			c-29.4,0-54.6,26.5-54.6,59.2c0,32.7,23.9,59.2,53.3,59.2C410.4,1310.5,412.7,1284,412.7,1251.3"/>
		<path id="path30-0" inkscape:connector-curvature="0" class="st2" d="M330.4,1281.3c0,0,42.9-10.5,82.8-2.7
			c-4.1,35.1-35.2,59.6-81.9,43.6c-55.4-19.1-26.9-92.3-13.7-109.6c8.3,16,11,34.4,11,34.4s-10.6-5.1-9.8,7.1c0.6,8.4,10.8,3,10.8,3
			L330.4,1281.3"/>
		<path id="path32-96" inkscape:connector-curvature="0" class="st2" d="M333.9,1294c0,0-28.3,36.8-56.7,16.7
			c-37.6-26.6,19.2-74.8-30.8-89.3c29-21.7,62.5,3.3,49,35.4C275.8,1303.5,318.8,1302.9,333.9,1294"/>
		<path id="path34-8" inkscape:connector-curvature="0" class="st1" d="M472.4,1208c-0.9,0.6-1.7,0.9-2.5,1.1
			c3.9,5.8,8.3,12.9,6.2,13.9c-3,1.4-11.2-13.7-14-18c-0.2-0.2-0.3-0.5-0.4-0.7c-1.7-2.4-2.6-4.9-2.6-4.9l10.8-7.6
			C470,1191.8,481.4,1202,472.4,1208"/>
		<path id="path36-7" inkscape:connector-curvature="0" class="st2" d="M353.5,1251.4c0-4.9-1.7-7.5-3.7-7.5c-2.1,0-3.7,2.7-3.7,7.5
			c0,4.9,1.7,7.5,3.7,7.5S353.5,1256.3,353.5,1251.4"/>
		<path id="path38" inkscape:connector-curvature="0" class="st2" d="M401.3,1251.4c0-4.9-1.7-7.5-3.7-7.5c-2.1,0-3.7,2.7-3.7,7.5
			c0,4.9,1.7,7.5,3.7,7.5C399.6,1258.9,401.3,1256.3,401.3,1251.4"/>
		<path id="path40-7" inkscape:connector-curvature="0" class="st3" d="M358.3,1224.5c0-7.3,6-13.3,13.3-13.3s13.3,6,13.3,13.3
			H358.3"/>
		<path id="path42-2" inkscape:connector-curvature="0" class="st1" d="M347.8,1208.3v-20.6l11-24.9l11,24.9v20.6H347.8"/>
		<path id="path44-9" inkscape:connector-curvature="0" class="st4" d="M347.8,1187.7l-26.5-8.5l4.7-58.1l-9.3-29h81.6l-8.3,29
			l4.5,59.4l-24.6,7.2l-11-24.9L347.8,1187.7"/>
		<path id="path46-0" inkscape:connector-curvature="0" class="st5" d="M369.9,1187.7l4.8-1.4l-15.8-33.9l-15.9,33.8l4.9,1.6
			l11-24.9L369.9,1187.7"/>
		<path id="path48-9" inkscape:connector-curvature="0" class="st5" d="M347.8,1187.7l-4.9-1.6L341,1168l6.8,3.3l7.8-1.3
			L347.8,1187.7"/>
		<path id="path50-4" inkscape:connector-curvature="0" class="st5" d="M369.9,1187.7l4.8-1.4l2-18.3l-6.8,3.3l-7.8-1.3
			L369.9,1187.7"/>
		<path id="path52-5" inkscape:connector-curvature="0" class="st6" d="M362.1,1143.2c0-1.8-1.4-3.2-3.2-3.2c-1.8,0-3.2,1.4-3.2,3.2
			c0,1.8,1.4,3.2,3.2,3.2C360.7,1146.4,362.1,1145,362.1,1143.2"/>
		<path id="path54-4" inkscape:connector-curvature="0" class="st6" d="M362.1,1124c0-1.8-1.4-3.2-3.2-3.2c-1.8,0-3.2,1.4-3.2,3.2
			c0,1.8,1.4,3.2,3.2,3.2C360.7,1127.2,362.1,1125.7,362.1,1124"/>
		<path id="path56-9" inkscape:connector-curvature="0" class="st6" d="M362.1,1104.7c0-1.8-1.4-3.2-3.2-3.2c-1.8,0-3.2,1.4-3.2,3.2
			c0,1.8,1.4,3.2,3.2,3.2C360.7,1107.9,362.1,1106.5,362.1,1104.7"/>
		<path id="path62-0" inkscape:connector-curvature="0" class="st4" d="M379,1176.8c0,0,47.7-54.9,91.8,13.5l-13.6,9.8
			c0,0-26.1-50.8-62.7-19.6L379,1176.8"/>
		<path id="path64-8" inkscape:connector-curvature="0" class="st6" d="M461.2,1180.2c0.4,0.8,0.1,1.7-0.7,2.1
			c-0.8,0.4-1.7,0.1-2.1-0.7c-0.4-0.8-0.1-1.7,0.7-2.1S460.8,1179.4,461.2,1180.2"/>
		<path id="path66-8" inkscape:connector-curvature="0" class="st6" d="M464.3,1184.5c0.4,0.8,0.1,1.7-0.7,2.1
			c-0.8,0.4-1.7,0.1-2.1-0.7c-0.4-0.8-0.1-1.7,0.7-2.1S464,1183.7,464.3,1184.5"/>
		<path id="path68-0" inkscape:connector-curvature="0" class="st6" d="M467.4,1188.7c0.4,0.8,0.1,1.7-0.7,2.1
			c-0.8,0.4-1.7,0.1-2.1-0.7c-0.4-0.8-0.1-1.7,0.7-2.1S467,1187.9,467.4,1188.7"/>
		<path id="path74" inkscape:connector-curvature="0" class="st4" d="M321.4,1179.3c0,0-64.8-33.1-9.1-92.4l12.8,10.8
			c0,0-43.9,34.3-2.5,66L321.4,1179.3"/>
		<path id="path82-3" inkscape:connector-curvature="0" class="st7" d="M477.1,942.6H233.7c-9.5,0-17.3,7.7-17.3,17.3
			c0,9.6,7.8,17.4,17.3,17.4h18.8v-18.6h205.2v18.6h19.4c9.6,0,17.4-7.8,17.4-17.4S486.7,942.6,477.1,942.6"/>
		<path id="path84-5" inkscape:connector-curvature="0" class="st8" d="M470.9,1098.3v-12.2L240,1086v12.2L470.9,1098.3"/>
		<path id="path86-9" inkscape:connector-curvature="0" class="st9" d="M240,1086.1h69.3v12.2H240V1086.1z"/>
		<path id="path88-1" inkscape:connector-curvature="0" class="st8" d="M252.5,958.6h205.2v127.5H252.5V958.6z"/>
		<path id="path90-9" inkscape:connector-curvature="0" class="st9" d="M252.5,958.6h69.4v127.5h-69.4V958.6z"/>
		<path id="path92-0" inkscape:connector-curvature="0" class="st9" d="M457.7,1067.1H321.9v19h135.8V1067.1"/>
		<path id="path94-8" inkscape:connector-curvature="0" class="st10" d="M252.5,1016.9v69.2h69.4v-19l0,0L252.5,1016.9"/>
	</g>
	<g id="g5356" transform="matrix(1.5375633,0,0,1.5375633,-494.54426,-730.59887)">
		<path id="path18-2" inkscape:connector-curvature="0" class="st1" d="M117.2,1194.8c0-12.7-8.7-22.9-20.1-22.9
			S76,1182.2,76,1194.8c0,12.7,9.2,22.9,20.6,22.9C116.4,1217.7,117.2,1207.5,117.2,1194.8"/>
		<path id="path20-4" inkscape:connector-curvature="0" class="st2" d="M85.4,1206.4c0,0,16.6-4.1,32-1.1
			c-1.6,13.6-13.6,23.1-31.7,16.9c-21.4-7.4-10.4-35.7-5.3-42.4c3.2,6.2,4.3,13.3,4.3,13.3s-4.1-2-3.8,2.7c0.2,3.2,4.2,1.1,4.2,1.1
			L85.4,1206.4"/>
		<path id="path22-8" inkscape:connector-curvature="0" class="st2" d="M86.8,1211.3c0,0-10.9,14.2-21.9,6.5
			c-14.6-10.3,7.4-28.9-11.9-34.6c11.2-8.4,24.2,1.3,19,13.7C64.3,1215,80.9,1214.8,86.8,1211.3"/>
		<path id="path24-9" inkscape:connector-curvature="0" class="st2" d="M94.8,1194.9c0-1.9-0.6-2.9-1.4-2.9s-1.4,1-1.4,2.9
			s0.6,2.9,1.4,2.9S94.8,1196.7,94.8,1194.9"/>
		<path id="path26-7" inkscape:connector-curvature="0" class="st2" d="M113.3,1194.9c0-1.9-0.6-2.9-1.4-2.9c-0.8,0-1.4,1-1.4,2.9
			s0.6,2.9,1.4,2.9C112.7,1197.8,113.3,1196.7,113.3,1194.9"/>
		<path id="path28-9" inkscape:connector-curvature="0" class="st3" d="M96.7,1184.4c0-2.8,2.3-5.1,5.1-5.1s5.1,2.3,5.1,5.1H96.7"/>
		<path id="path30-55" inkscape:connector-curvature="0" class="st1" d="M92.2,1178.2v-8l4.3-9.6l4.3,9.6v8H92.2"/>
		<path id="path32-98" inkscape:connector-curvature="0" class="st4" d="M92.2,1170.2l-10.2-0.5l2-25h24.3l1.9,25l-9.5,0.5l-4.3-9.6
			L92.2,1170.2"/>
		<path id="path34-2" inkscape:connector-curvature="0" class="st5" d="M100.7,1170.2l1.9-0.5l-6.1-13.1l-6.2,13.1l1.9,0.6l4.3-9.6
			L100.7,1170.2"/>
		<path id="path36-0" inkscape:connector-curvature="0" class="st5" d="M92.2,1170.2l-1.9-0.1l-1.1-7.5l6,0.8L92.2,1170.2"/>
		<path id="path38-2" inkscape:connector-curvature="0" class="st5" d="M100.7,1170.2l1.9-0.1l1.1-7.5l-6,0.8L100.7,1170.2"/>
		<path id="path40-1" inkscape:connector-curvature="0" class="st6" d="M97.7,1153.3c0-0.7-0.6-1.2-1.2-1.2s-1.2,0.6-1.2,1.2
			c0,0.7,0.6,1.2,1.2,1.2S97.7,1154,97.7,1153.3"/>
		<path id="path42-3" inkscape:connector-curvature="0" class="st6" d="M97.7,1147.7c0-0.7-0.6-1.2-1.2-1.2s-1.2,0.6-1.2,1.2
			c0,0.7,0.6,1.2,1.2,1.2S97.7,1148.4,97.7,1147.7"/>
		<path id="path44-34" inkscape:connector-curvature="0" class="st1" d="M146.5,1206c0.5,0.9-1.3,1.3-1.3,1.3
			c-2.5,0.7-5.1,0.1-5.1,0.1s-0.9,2.6-2,1.6c-0.6-0.6,0.8-2.6,0.8-2.6c-0.7-1.3-2.3-3.1-3.6-4.8l3.7-2.4c1.5,2,2.4,3.3,2.7,3.8
			c0,0,3.5-1.7,3.9-0.6c0.2,0.6-1.3,0.9-1.6,1l0,0l0,0c0.2-0.1,1.7-0.4,1.9,0.3c0.2,0.6-1,0.9-1.4,0.9c-0.1,0-0.1,0-0.1,0s0,0,0.1,0
			c0.4-0.1,1.6-0.2,1.7,0.3c0.1,0.6-1.2,1-1.4,1.1C145,1205.9,146.3,1205.6,146.5,1206"/>
		<path id="path46-00" inkscape:connector-curvature="0" class="st5" d="M136.6,1203.8l0.8,1.1l4.1-3l-0.8-1.1L136.6,1203.8"/>
		<path id="path48-2" inkscape:connector-curvature="0" class="st4" d="M109.5,1162.1l31.9,39l-4.8,3.6l-27.9-34.9L109.5,1162.1"/>
		<path id="path50-2" inkscape:connector-curvature="0" class="st6" d="M138.9,1198.8c0.1,0.3,0,0.7-0.3,0.8c-0.3,0.1-0.7,0-0.8-0.3
			c-0.1-0.3,0-0.7,0.3-0.8C138.4,1198.4,138.8,1198.6,138.9,1198.8"/>
		<path id="path52-54" inkscape:connector-curvature="0" class="st6" d="M140.1,1200.5c0.1,0.3,0,0.7-0.3,0.8
			c-0.3,0.1-0.6,0-0.8-0.3c-0.1-0.3,0-0.7,0.3-0.8C139.6,1200.1,140,1200.2,140.1,1200.5"/>
		<path id="path54-2" inkscape:connector-curvature="0" class="st1" d="M45.6,1206c-0.5,0.9,1.3,1.3,1.3,1.3
			c2.5,0.7,5.1,0.1,5.1,0.1s0.9,2.6,2,1.6c0.6-0.6-0.8-2.6-0.8-2.6c0.7-1.3,2.3-3.1,3.6-4.8l-3.7-2.4c-1.5,2-2.4,3.3-2.7,3.8
			c0,0-3.5-1.7-3.9-0.6c-0.2,0.6,1.3,0.9,1.6,1l0,0l0,0c-0.2-0.1-1.7-0.4-1.9,0.3c-0.2,0.6,1,0.9,1.4,0.9c0.1,0,0.1,0,0.1,0
			s0,0-0.1,0c-0.4-0.1-1.6-0.2-1.7,0.3c-0.1,0.6,1.2,1,1.4,1.1C47.1,1205.9,45.9,1205.6,45.6,1206"/>
		<path id="path56-97" inkscape:connector-curvature="0" class="st11" d="M60.1,1187.9L60.1,1187.9c1.3,2.2,1.4,4.7,1.1,7.5l0,0
			C61.6,1192.6,61.5,1190,60.1,1187.9"/>
		<path id="path58-5" inkscape:connector-curvature="0" class="st12" d="M66.3,1181l-6.2,6.9c1.3,2.2,1.4,4.7,1.1,7.5l9.6-10.9
			C69.6,1183,68.1,1181.8,66.3,1181"/>
		<path id="path60-8" inkscape:connector-curvature="0" class="st5" d="M55.6,1203.8l-0.8,1.1l-4.1-3l0.8-1.1L55.6,1203.8"/>
		<path id="path62-11" inkscape:connector-curvature="0" class="st4" d="M82.7,1162.1l-31.9,39l4.8,3.6l27.9-34.9L82.7,1162.1"/>
		<path id="path64-4" inkscape:connector-curvature="0" class="st6" d="M53.2,1198.8c-0.1,0.3,0,0.7,0.3,0.8c0.3,0.1,0.7,0,0.8-0.3
			c0.1-0.3,0-0.7-0.3-0.8C53.7,1198.4,53.4,1198.6,53.2,1198.8"/>
		<path id="path66-12" inkscape:connector-curvature="0" class="st6" d="M52,1200.5c-0.1,0.3,0,0.7,0.3,0.8c0.3,0.1,0.6,0,0.8-0.3
			c0.1-0.3,0-0.7-0.3-0.8C52.5,1200.1,52.2,1200.2,52,1200.5"/>
	</g>
	<g id="g8677" transform="matrix(1.2077594,0,0,1.2077594,305.58051,-469.91443)">
		<path id="path52-53" inkscape:connector-curvature="0" class="st13" d="M-406.6,1277.7c0-3.1,2.5-5.6,5.6-5.6h49.5
			c3.1,0,5.7,2.5,5.7,5.6l0,0c0,3.1-2.5,5.7-5.7,5.7H-401C-404.1,1283.4-406.6,1280.9-406.6,1277.7L-406.6,1277.7"/>
		<path id="path54-3" inkscape:connector-curvature="0" class="st14" d="M-360.7,1278.8c0,1.3-1.1,2.4-2.4,2.4h-4.4v16.6h-7.3v-20.1
			c0-0.7,0.5-1.2,1.2-1.2h10.4C-361.7,1276.4-360.7,1277.4-360.7,1278.8"/>
		<path id="path56-99" inkscape:connector-curvature="0" class="st15" d="M-362.7,1309.7v-19.3c0-2,1.6-3.6,3.6-3.6s3.6,1.6,3.6,3.6
			v19.3H-362.7"/>
		<path id="path58-2" inkscape:connector-curvature="0" class="st14" d="M-390,1278.8c0,1.3,1.1,2.4,2.4,2.4h4.4v16.6h7.3v-20.1
			c0-0.7-0.5-1.2-1.2-1.2h-10.6C-389,1276.4-390,1277.4-390,1278.8"/>
		<path id="path60-7" inkscape:connector-curvature="0" class="st5" d="M-400.7,1321.4v-21.5c0-1.2,0.9-2.1,2.1-2.1h44.3
			c1.2,0,2.1,0.9,2.1,2.1v21.5H-400.7"/>
		<path id="path62-01" inkscape:connector-curvature="0" class="st16" d="M-374.7,1295.6h7.3v2.1h-7.3
			C-374.7,1297.7-374.7,1295.6-374.7,1295.6z"/>
		<path id="path64-84" inkscape:connector-curvature="0" class="st16" d="M-383.3,1295.6h7.3v2.1h-7.3V1295.6z"/>
		<path id="path66-88" inkscape:connector-curvature="0" class="st17" d="M-385.1,1297.7h-7v19L-385.1,1297.7"/>
		<path id="path68-00" inkscape:connector-curvature="0" class="st15" d="M-399.3,1309.7v-19.3c0-2,1.6-3.6,3.6-3.6s3.6,1.6,3.6,3.6
			v19.3H-399.3"/>
		<path id="path70-8" inkscape:connector-curvature="0" class="st15" d="M-376.4,1359.7c13.4,0,24.3-10.9,24.3-24.3v-14.1h-48.6
			v14.1C-400.7,1348.9-389.8,1359.7-376.4,1359.7"/>
		<path id="path72-77" inkscape:connector-curvature="0" class="st14" d="M-380,1334.3c0.5,0,0.8,0.4,0.8,0.8c0,0.8,0.7,1.5,1.5,1.5
			s1.5-0.7,1.5-1.5c0-0.5,0.4-0.8,0.8-0.8c0.5,0,0.8,0.4,0.8,0.8c0,1.7-1.4,3.1-3.1,3.1s-3.1-1.4-3.1-3.1
			C-380.8,1334.6-380.5,1334.3-380,1334.3L-380,1334.3"/>
		<path id="path74-8" inkscape:connector-curvature="0" class="st14" d="M-360.5,1334.3c0.5,0,0.8,0.4,0.8,0.8
			c0,0.8,0.7,1.5,1.5,1.5c0.8,0,1.5-0.7,1.5-1.5c0-0.5,0.4-0.8,0.8-0.8c0.5,0,0.8,0.4,0.8,0.8c0,1.7-1.4,3.1-3.1,3.1
			s-3.1-1.4-3.1-3.1C-361.3,1334.6-361,1334.3-360.5,1334.3L-360.5,1334.3"/>
		<path id="path76-7" inkscape:connector-curvature="0" class="st14" d="M-373,1333.9c0,0.2,0.2,0.3,0.3,0.3h9.5
			c0.2,0,0.3-0.1,0.3-0.3l0,0l0,0c-0.2-2.6-2.4-4.7-5.1-4.7C-370.6,1329.2-372.8,1331.3-373,1333.9L-373,1333.9L-373,1333.9"/>
		<path id="path78-8" inkscape:connector-curvature="0" class="st14" d="M-357.6,1368.9c-0.1,0-0.3,0-0.3,0c0.2-0.4,0.3-0.8,0.3-1.3
			c0-1.6-1.3-3-3-3h-22.3c-9.8,0-17.8-8-17.8-17.8v-25.5c6.9,0,12.6,5.4,13,12.3v11.3c0,1.1,0.9,1.9,2,1.9h28c6.1,0,11,4.9,11,11
			C-346.6,1364-351.6,1368.9-357.6,1368.9"/>
		<path id="path80-7" inkscape:connector-curvature="0" class="st15" d="M-385.2,1335.1c0,1.9-1.5,3.4-3.4,3.4
			c-1.9,0-3.4-1.5-3.4-3.4s1.5-3.4,3.4-3.4C-386.7,1331.6-385.2,1333.2-385.2,1335.1"/>
		<path id="path82-39" inkscape:connector-curvature="0" class="st14" d="M-363.7,1321.4h-8.5l3-3l-3-15.3l4.3-3.9l4.3,3.9l-3,15.3
			L-363.7,1321.4"/>
		<path id="path84-8" inkscape:connector-curvature="0" class="st18" d="M-362.7,1295.6h7.1v2.1h-7.1V1295.6z"/>
	</g>
	<g id="g4340" transform="matrix(0.16635406,0,0,-0.16635406,549.88896,1698.5949)">
		<path id="path16-0" inkscape:connector-curvature="0" class="st19" d="M-3202.1,447.4c0.3-63.2-98.8-105.7-38.8-184
			c46.3-60.5,127-30.5,146.8,19.1c18.6,46.5-39,103-38.4,163.5L-3202.1,447.4"/>
		<path id="path18-5" inkscape:connector-curvature="0" class="st20" d="M-3183,447c-1-3.3-1.4-7-2.1-10.2
			c-1.8-8.2-4.1-16.4-5.8-24.6c-3.8-18.4-8.1-36.6-9.8-55.3c-1.1-13-2.6-25.9,2-38.4c2.5-6.8,6.5,1.8,7.6,4.4
			c1.7,4.2,3.2,8.3,4.3,12.7c1.3,5,2.1,10.2,2.9,15.4c0.1,2.8,0.5,5.6,1.5,8.1v0.1l0,0c0.1,0.2,0.2,0.4,0.2,0.7c1.3,2.9,5.6,0.9,5-2
			c-0.7-3.1-1.2-6.2-1.7-9.2c0-9.2,3.7-20.5,6.8-27.1c3.8-8,6.6,9.5,7,11.9c0.3,2,0.6,4,0.8,6.1c-0.6,4.4-0.6,8.7,0.9,12.3
			c1.1,2.6,5,1.3,5.1-1.3c0-1.6,0-4.6-0.1-8.1c0.1-0.7,0.3-1.4,0.3-2.2c0.1-4.6,0.9-9,2-13.5c0.9-4,1.9-7.9,3.2-11.7
			c1.9-5.4,4.8-3.5,5.6,1.5c0.7,4.6,1.4,9.1,1.4,13.7c0,8.5-1,17.2-1.6,25.7c-1.2,17.7-2.3,35.4-3.1,53.1c-0.6,12.5-2.3,25-3.4,37.4
			L-3183,447z M-3131.8,478c0,0,10.6-10-0.2-13.2c0,0,11.7-12-0.5-18.7l-16.3,0.3c1.3-18.6,3.5-37.2,4.8-55.8
			c0.8-11.5,1.3-23,2-34.6c0.7-11.4,2.3-23,1.1-34.4c-0.6-6-1-13.9-6.8-17.2c-3.9-2.3-7.2,2.3-8.8,5.2c-2.1,4-3.3,8.7-4.3,13.2
			c-1.9-7.1-5-12.3-10.4-10.8c-6.5,1.7-9,15.5-10.2,20.7c-0.1,0.4-0.2,0.9-0.3,1.3c-0.7-2.7-1.4-5.4-2.4-8.1
			c-2.1-6-4.1-14.2-10.7-16.5c-10.1-3.6-12.3,20.4-12.5,25.4c-1,23.1,4.4,47.1,9.5,69.4c2.6,11.3,5.1,22.6,7.6,33.8
			c0.5,2.4,0.9,5.7,1.6,9l-13.3,0.3c0,0-12.8,7.2-0.4,18.9c0,0-11.6,7.1-0.3,13.9c0,0-11.5,7.6,1,13.9l14.4,0.3l11.1,12.2l18,0.4
			l11.1-12.4l12.1-1C-3135,493.5-3118.4,487.1-3131.8,478"/>
		<path id="path20-40" inkscape:connector-curvature="0" class="st5" d="M-3181.2,178.3L-3181.2,178.3L-3181.2,178.3L-3181.2,178.3"
			/>
		<path id="path22-2" inkscape:connector-curvature="0" class="st5" d="M-3181.7,164.3c0,0,0.1,0,0.1,0.1
			C-3181.6,164.3-3181.7,164.3-3181.7,164.3z M-3178.1,184.1h0.6l-0.4-0.1c-0.6,0-1.6,0-1.5,0.1c-1.6-0.1-0.2-0.1-0.6-0.3
			c-0.9-0.1,0.1,0.1-0.8,0.1c-0.8,0-0.9-0.1-1-0.2c0-0.2,1-0.1,1.6-0.1c0.1,0,0.3,0.1-0.3,0.1c1,0.2,1.9-0.1,2.6,0.1
			c0.6-0.1-0.6-0.1-0.9-0.2c-0.1,0.1-0.9,0-1.3,0c-2.5-0.3,1.8-0.1,1.4-0.4c-1.6,0-2.3-0.4-4-0.2c-0.3-0.1-0.7-0.1-0.5-0.2
			c1.1,0.1,0.9-0.1,1.9,0v-0.1l1.3,0.1c0.8-0.1,1.5-0.2,2-0.3c-0.5-0.1-1.1,0-1.3-0.1c0.6,0.1,1.1,0,1-0.1c-0.4,0.1-1.6,0-1.8-0.1
			c0-0.1,1-0.2,1.3-0.2l0.9,0.1c-0.8-0.1,0.4,0,0.1-0.1c-0.6,0-1.5-0.1-2.3-0.1c-0.3-0.1,0.5-0.1,0.4-0.2l0.7,0.1
			c-0.2-0.2,1.7,0,1.3-0.2l-0.9-0.1c0.1,0,0.5-0.1,0.8,0c-0.6,0-0.5-0.1-0.7-0.2h0.6c-0.4-0.1-1.6-0.2-0.5-0.3
			c-1.4,0.1,0,0.1-0.6,0.2c-1,0.1-0.9-0.1-1.1-0.2c1.5,0,0.1-0.2,0.2-0.3c0.5-0.1,0.8-0.1,1.1-0.1l-1-0.1c1.9,0-0.4-0.2,0.2-0.3
			c0.6,0.1,1.3,0.1,1.6,0c-1.4,0.1-1.7-0.2-2.7-0.1c0.5-0.2,1.8,0.1,2.8,0c-1.1-0.1,0.7-0.2-0.7-0.3c-0.4,0.1-0.9,0-1.5-0.1
			c0.1-0.2,0.6,0,1.1-0.1c-0.2-0.1-1.3-0.2-1.7-0.1c0.3-0.1-1-0.2-0.2-0.3c0.9,0,0.4,0.2,1,0.1c0.1-0.2-2.2-0.1-2.5-0.4
			c-0.5,0.1-2,0-2.5-0.1c0.4-0.2,0.5,0.1,1.6,0l-0.2-0.1c1.5-0.1,2.5,0.3,3.8,0.2l-0.5-0.1c0.4,0,1.2,0.1,1.6,0
			c-1.1,0-0.3-0.2-0.5-0.3c-0.9,0,0.3,0.1-0.4,0.1c-0.2-0.1-1.7-0.2-1.2-0.3c0.6,0.1,1.2,0,1.7,0c0.4-0.1-1.1,0-0.6-0.1h0.5
			c0.2-0.4,0.1-1-2.1-1.4c0.9-0.1,1-0.2,1.6-0.4c-0.3,0.1-0.9,0-1-0.1l1-0.1c0.6-0.1-0.4-0.3-1-0.4h0.8c0.7-0.1-0.6-0.1-0.8-0.2
			l0.7-0.1h-0.7c-0.4-0.1-0.2-0.3,0.9-0.2c-0.2,0-0.4-0.1-0.8,0c0.7-0.1,0.7-0.4,0.3-0.6c-0.3,0.1-0.7,0.1-1.4,0.1
			c-1.3,0,0.2,0-0.5-0.1c0.5,0,0.9-0.1,1.3,0c1.6-0.3,0.3-0.7,0.6-1c-0.2-0.1-0.4-0.1-0.7-0.1c1.3-0.2-0.1-0.5,0.5-0.7
			c-0.5,0.1-2,0-2-0.2c-1-0.1,1.4,0,2.1-0.2c-0.5-0.1-0.6-0.2-0.5-0.2h0.2c-0.5-0.1-0.9-0.2-0.4-0.3h0.1c0.1-0.1,0.7-0.2,0.7-0.2
			c-1,0-0.4-0.2-1.2-0.3c0.1,0,0.2,0,0.4,0h-0.8l0.5-0.1c0.3,0,0.7,0.1,0.9,0.1c0.6-0.2-0.8-0.1-1.2-0.2c-0.6-0.1,0.2-0.1,0.6-0.2
			c0.4,0.1-0.2,0.1,0,0.1c0.7,0.1,0.3-0.1,0.7-0.1c0,0-1-0.1-0.8-0.1c0.1-0.1-0.2-0.3,0.7-0.2c-0.5-0.1-0.4-0.1-0.8-0.2
			c-0.2,0.1-0.4,0.2-1,0.2c-0.1-0.1-0.4-0.2,0-0.2h0.2c-0.2,0,0.1-0.2-0.8-0.1l1.1-0.1c-0.7-0.1-0.6-0.2-0.8-0.3
			c0.9,0,1.9,0.1,2.1-0.1l-0.9-0.2c-0.1-0.1,0.1-0.1,0.7-0.1c0.5-0.3-2.5-0.3-1.7-0.5c1.1,0.1,1.2,0,1.5-0.1c-0.2,0-0.5,0-0.6-0.1
			c-0.5,0,0.8,0.1,0,0.1c-0.7,0-0.4-0.1-0.7-0.1c2.3-0.2,0.6-0.6,1.7-0.9c-1.3,0-0.4-0.1-0.9-0.2c1.4,0-0.2-0.2,0.6-0.3h-1.3
			c0.8-0.2-2-0.3-0.4-0.4c0.4-0.1,1,0,1.2,0.1c1.5-0.1-1.2-0.4,0.4-0.5c-0.5,0-1.4,0-1.9-0.1c0.6-0.1,1.3-0.3,1.5-0.3
			c-0.3-0.1-0.7-0.1-0.2-0.2c0.3,0,0.4,0,0.5,0.1c0.3-0.1-0.2-0.3-0.7-0.4c1-0.1,0.5-0.3,1.1-0.5c-1.3-0.1,0.5-0.3-1.1-0.3
			c0.2,0,0.4,0,0.5,0c-0.5-0.1-1.5-0.1-1.6-0.2h1.1c1.4,0,0.3-0.2,0.9-0.2c-0.9,0.1,0-0.1-0.8-0.1l-0.3-0.1c-0.3-0.1-0.5,0-0.7-0.2
			c-0.1-0.1,1.2,0,1.1,0c0.6-0.1,0.2-0.2,0-0.3c0,0-0.1,0-0.3,0c0.1,0,0.2,0,0.3,0c-0.1,0-0.2-0.1-0.2-0.1s0,0,0.1,0
			s0.1,0.1,0.1,0.1c0.1,0,0.1-0.1,0.1-0.1c0.1,0,0.1,0,0,0c0,0,0.1-0.1,0.2-0.1h0.8c0-0.1-0.9-0.2-1.3-0.2c0.7-0.2,0.1-0.7-0.3-0.8
			c0.2,0,0.5,0,0.2,0c-0.2-0.1-0.9-0.2-0.3-0.2c-0.3-0.1,0.6-0.1,0.7-0.2c0.1,0-0.5,0-0.7,0c1.1-0.2-0.8-0.5,0-0.8
			c0.1,0,0.5,0.1,0.8,0.1c-0.4-0.2-0.8-0.4-1.8-0.6c0.4,0,0.7,0,0.9,0.1c0-0.1-0.2-0.3-1-0.4c-0.4,0.1,0.5,0,0.4,0.1
			c-0.7,0.1-1.5-0.1-1.3-0.2h0.2c0-0.1-0.5-0.1-0.5-0.3c0.5-0.1,0.2,0.1,0.8,0.1c1.3,0,0.8-0.3,1-0.3c-0.3,0-0.5-0.1-0.9-0.1
			c-0.4-0.1,0.8,0,0.7-0.1l-2.6-0.3c0.2,0.1,1.2-0.1,1.7,0c-0.2-0.2-1.7-0.4-2.6-0.5c0.2-0.1-0.3-0.3-0.4-0.4c0.7,0,0,0.1,0.5,0.1
			l0.8-0.1c0.1,0.1,1.3,0,1.8,0.1c-0.5-0.1,0.1-0.4,0.3-0.6c-1.5,0.1-0.7-0.2-2.1-0.3c-0.2-0.2,1.1-0.1,1.4-0.2
			c-0.5-0.2-0.1-0.4-0.3-0.6c0,0,0.2,0,0.3,0c-0.4-0.2,0-0.5-1.2-0.7h0.8c0.5-0.2-1.8-0.1-0.9-0.3l0.7,0.1c-0.7-0.1,0.6-0.3-0.4-0.4
			c0.4,0,0.5,0,0.7,0.1c-0.3-0.1-0.1-0.3-1.1-0.5c0.4,0,0.8,0,1.1,0.1c0.5-0.1-1.2-0.2-0.8-0.3c0.1,0,0.6-0.1,0.7-0.1
			c-0.6-0.1-0.6-0.3-0.8-0.4c0.4,0,0.6-0.1,1.1-0.1c0-0.7,0.2-1.5-1-2.3c1.4-0.1,0.9,0.2,1.8,0.1c-1.2,0-0.3-0.1-0.7-0.4h0.2
			c-0.3-0.1,0.5-0.1,0.1-0.3h-0.3c-0.8-0.1,1.5-0.2,0-0.3l0.8-0.1c-1.3-0.1,0.4-0.2-0.7-0.3h0.2c0.6-0.2-1.4-0.4-0.4-0.4
			c-0.2-0.1-0.5-0.3-1.5-0.4c0.4,0,1,0,1.4,0c-0.5-0.6-0.2-1.2-1.7-1.7h0.6c-1.2-0.3,1.3-0.6-1-0.9l-1-0.1c0.4-0.1,1.1-0.1,1.4-0.1
			c-0.6-0.1-0.2-0.3-1-0.3c0.4,0,0.5,0,0.8,0c0.2-0.1-1.2-0.3-0.9-0.5h0.4c1.7-0.7,3-1.6,0.8-2.2c-0.4-0.2,1.3-0.1,1.2-0.1
			c-1.8-0.6,1.1-1.3-1.7-1.9c-0.7-0.4-3.8-0.6-3.8-0.6c1.1,1.1-0.2,2-1.8,3c0.2,0.4,0.7,0.8,0.2,1.1c0.3,1.4-2.1,2.7-1.1,4.1
			c0.4-0.1,1,0,1.2,0.1h-0.3l0.8,0.1c0.1,0.1-0.9,0.1-1,0c0,0.6,0.3,1.1,0.1,1.6c1.1,0.1,0.1,0.3,1.3,0.3c-0.2,0-0.3,0-0.5,0
			c0.6,0.4,0.6,0.4-0.8,0.7c-1,1.5-0.2,2.9-0.5,4.3c0.2,1.5,1.2,2.9,1.5,4.4c1.8,0.2,1,0.6,2.5,0.8h-0.6c0.8,0.2-0.2,0.3-0.8,0.6
			c0.6,0,0.2,0.1,1.2,0.1c0.9,0.1-1.5,0.2-1,0.3c-0.4,0,0.6,0,0.3,0c1.3,0.4-0.6-0.1-1.6,0.4c0.4,0.7,1.5,1.4,0.8,2
			c-0.1,0,0.8-0.1,0.8,0c-1.7,0,0.5,0.2-0.2,0.3c-0.4,0-0.5-0.1-0.6-0.1c-0.7,0.3,0.3,0.5-0.4,0.8c0.7,0.3-0.8,0.6,0.1,0.7
			c-0.7,0-0.5,0.1-0.9,0.2c2.1,0.2-0.7,0.5,0.7,0.8h-0.4c0.2,0.7-0.3,1.5,0.6,2.2c0.2,0.4-1.6,0.9-0.7,1.3c0.3,0.1,0.7,0,0.9,0.1
			c-0.1,0.1-0.6,0-0.9,0c0.8,0.2-0.2,0.5-0.2,0.8c0.3,0,0.4,0.1,0.9,0.1c-1.4,0.3,0.5,0.7-0.6,1.1c1.8-0.1,1,0.2,1.4,0.3
			c-0.1,0.1-0.6,0.1-0.9,0c0.2,0.2,0.3,0.4-0.2,0.7c0.2,0.1,1.2,0.2,0.9,0.3c-1.2,0.1-0.1,0.3-0.5,0.5c1.1,0,1.9,0.2,1.4,0.3
			l-1.5-0.1c1,0.5-0.7,1.2,1.1,1.8h-0.9c1,0.6-0.1,1.2,1.6,1.8c-0.5,0.2-0.8,0.4-0.8,0.6c0.7,0.2,0.7,0.3,1.9,0.5
			c0.1,0.1-0.6,0.1-0.9,0.1c-0.2,0.3-1.5,0.5-0.1,0.7h-0.7c0.8,0.2,1.7,0.5,0.8,0.8c0.7,0.1,0.9,0.3,1.8,0.2
			c0.2,0.1-1.3,0.1-0.5,0.1l-1.1-0.1c-0.3,0.5,0.3,1,0.8,1.5c-1.3,0.1,0.1,0.5-0.6,0.8c0.7,0.2-0.3,0.5,1.3,0.6h-0.7
			c-0.1,0.2-0.1,0.5-0.5,0.8c-0.2,0.2,0.9,0.2,1.3,0.3h-0.7c0.5,0.1,1.6,0.2,2.4,0.3c-0.5,0.1,0,0.1-0.5,0.2
			c-0.4-0.1-1.2-0.2-2.2-0.3c-0.3,0.2,1.6,0.4,0.4,0.5c-0.3,0.2,0,0.3,1,0.3c-0.3,0-0.6,0.1-1,0c0,0.1,0.1,0.2,0.5,0.3l0.1-0.1
			c0.8,0.1,0.7,0.2,1.8,0.2c-0.3-0.1-0.5-0.1-0.4-0.1c0.8,0,1,0.2,0.3,0.3c-0.8,0.1-1.3-0.1-1.8-0.1l1.8,0.3
			c-0.2-0.1,0.2-0.1,0.9-0.1l-0.5-0.1h0.8c-0.3-0.2,0.5-0.4-0.1-0.6l-0.8,0.1c0-0.1-1.2-0.3-0.2-0.4c0.3,0.1,0.7,0,1.2,0
			c-0.1,0-0.5-0.1-0.3-0.1l1.4,0.1c-1.9-0.1-0.7-0.4-1-0.4h0.3c0.6-0.2-0.8,0-0.8-0.1c0.2-0.1,1.5,0,2.1-0.1c0-0.2-1.1-0.5,0-0.7
			c-0.2-0.2-0.7-0.4-1.4-0.5c0-0.2,1.5,0,0.8-0.1c0.5,0,1,0,1.5,0c-0.6,0,0.1-0.3-1.2-0.2c0.3-0.2,0.4-0.5,0.1-0.7
			c0.1,0.1,1,0.1,1.4,0.1c-0.9-0.1-1.4-0.3-1.1-0.5c-0.9,0-0.9,0.1-1.8,0c-0.1,0-0.6-0.1-0.5-0.1c1,0,2.4,0,2.4-0.2
			c1.5,0.1-0.2,0.3,1.3,0.2c1.2,0.1,1.3,0.4,0.5,0.5c1.3,0.2,0.2-0.1,1.4-0.1c-0.1-0.1-0.7-0.2-0.9-0.4c-0.6,0-0.7,0.1-1.2,0
			c-1.3-0.2,0.9-0.2,1-0.3l0.3,0.1c0.4-0.1-0.4-0.2-0.4-0.3c1.7,0,0.2,0.2,1.2,0.3l1.2-0.1C-3177,184.2-3178.5,184.3-3178.1,184.1"
			/>
		<path id="path24-16" inkscape:connector-curvature="0" class="st5" d="M-3190.6,181.3L-3190.6,181.3c-0.1,0-0.1-0.1-0.2-0.1
			C-3190.8,181.3-3190.7,181.3-3190.6,181.3"/>
		<path id="path26-0" inkscape:connector-curvature="0" class="st5" d="M-3181,176L-3181,176C-3180.7,176-3180.8,176-3181,176"/>
		<path id="path28-0" inkscape:connector-curvature="0" class="st5" d="M-3180.5,181.9l-0.3-0.1l-0.3,0.1H-3180.5"/>
		<path id="path30-1" inkscape:connector-curvature="0" class="st5" d="M-3180.2,175.5c-0.1,0-0.9,0-0.6,0.1
			C-3180.8,175.5-3180.1,175.6-3180.2,175.5"/>
		<path id="path32-71" inkscape:connector-curvature="0" class="st5" d="M-3183.4,172.2L-3183.4,172.2h-1.1H-3183.4"/>
		<path id="path34-85" inkscape:connector-curvature="0" class="st5" d="M-3099.7,215.6c-0.3-0.2-0.1,0,0.2,0.4
			C-3099,216.2-3099.7,215.9-3099.7,215.6"/>
		<path id="path36-4" inkscape:connector-curvature="0" class="st5" d="M-3089.9,202.2l0.1,0.1v-0.1H-3089.9"/>
		<path id="path38-9" inkscape:connector-curvature="0" class="st5" d="M-3098.6,215.4c0-0.1-0.1-0.1-0.1-0.1
			C-3098.7,215.2-3098.7,215.3-3098.6,215.4"/>
		<path id="path40-9" inkscape:connector-curvature="0" class="st5" d="M-3083.5,196.5L-3083.5,196.5c0-0.1,0-0.1-0.1-0.2
			C-3083.6,196.3-3083.6,196.4-3083.5,196.5"/>
		<path id="path42-4" inkscape:connector-curvature="0" class="st5" d="M-3074.8,201.4C-3074.8,201.4-3074.7,201.4-3074.8,201.4
			C-3074.7,201.4-3074.8,201.4-3074.8,201.4L-3074.8,201.4"/>
		<path id="path44-341" inkscape:connector-curvature="0" class="st5" d="M-3074.8,200.8v0.1
			C-3074.8,200.8-3074.9,200.8-3074.8,200.8z M-3060,182c-0.1-0.9-2-3.3-2-3.3c-0.2,1.6-1.8,1.3-3.7,0.9c-0.1,0.4-0.2,1.1-0.8,1
			c-1,1.2-3.7,0.4-4.2,2.2c0.3,0.2,0.6,0.7,0.7,0.9l-0.2-0.2l0.4,0.7c0,0.1-0.6-0.6-0.7-0.8c-0.5,0.4-0.7,1-1.3,1.3
			c0.7,0.9-0.2,0.2,0.6,1.2c-0.2-0.1-0.2-0.2-0.3-0.4c0.1,0.7,0.1,0.8-1.2-0.1c-1.9,0.3-2.5,2-4,2.8c-1.1,1.2-1.6,3-2.7,4.4
			c1,1.5,0.2,1.1,1,2.5l-0.4-0.4c0.3,0.8-0.3,0.1-1-0.2c0.4,0.5,0,0.2,0.8,1c0.5,0.8-1.1-1-0.9-0.5c-0.2-0.3,0.4,0.5,0.2,0.2
			c0.5,1.2-0.3-0.5-1.4-0.9c-0.3,0.8-0.2,2.1-1.1,2.1c0-0.1,0.6,0.6,0.5,0.6c-1.2-1.3,0.1,0.5-0.4,0.1c-0.2-0.3-0.3-0.4-0.3-0.5
			c-0.7-0.3-0.2,0.7-1,0.3c0.3,0.7-1-0.2-0.5,0.6c-0.4-0.6-0.4-0.3-0.7-0.5c1.2,1.7-0.9-0.2-0.2,1l-0.2-0.3
			c-0.5,0.6-1.5,0.8-1.5,2.1c-0.2,0.5-1.8-0.6-1.6,0.5c0.1,0.3,0.5,0.6,0.5,0.7c-0.1,0.1-0.4-0.5-0.6-0.6c0.4,0.8-0.6,0.3-0.8,0.5
			c0.2,0.3,0.2,0.4,0.5,0.8c-1.2-0.8-0.3,0.9-1.3,0.4c1.3,1.3,0.5,0.9,0.6,1.3c-0.1,0-0.4-0.4-0.6-0.6c-0.1,0.3-0.1,0.5-0.7,0.3
			c0,0.3,0.6,1,0.3,0.9c-0.9-0.9-0.3,0.2-0.7,0c0.7,0.8,1.1,1.6,0.7,1.3l-0.9-1.2c0.2,1.1-1.5,0.3-0.8,2.2l-0.6-0.6
			c0.2,1.2-1.1,0.8-0.4,2.5c-0.4-0.2-0.8-0.3-1-0.2c0.3,0.7,0.2,0.7,0.9,1.7c0,0.1-0.5-0.4-0.7-0.6c-0.4,0-1.4-0.7-0.7,0.5l-0.5-0.6
			c0.3,0.7,0.7,1.7-0.1,1.2c0.4,0.6,0.3,0.9,1,1.5c0,0.2-0.9-0.9-0.4-0.2l-0.6-0.9c-0.6,0.2-0.6,0.9-0.7,1.7c-1-0.9-0.3,0.5-1,0.1
			c0.3,0.7-0.6,0.1,0.3,1.4l-0.5-0.6c-0.3,0.1-0.5,0.3-1,0.3c-0.3,0,0.4,0.8,0.6,1.2l-0.5-0.6c0.2,0.5,0.9,1.4,1.3,2
			c-0.4-0.3-0.1,0.1-0.5-0.2c-0.2-0.4-0.6-1.1-1.2-1.9c-0.4-0.1,0.7,1.5-0.1,0.7c-0.3-0.1-0.2,0.2,0.4,1c-0.2-0.3-0.5-0.4-0.7-0.8
			c-0.1,0.1-0.1,0.2,0.1,0.6c0,0,0.1,0.1,0.1,0c0.4,0.6,0.3,0.7,1.1,1.5c-0.1-0.3-0.3-0.4-0.1-0.4c0.5,0.6,0.5,0.9,0,0.4
			c-0.6-0.6-0.7-1.1-1.1-1.4l1,1.7c-0.4-0.5,0.1-0.2,0.5,0.4l-0.2-0.5l0.5,0.6c0-0.4,0.7,0.1,0.4-0.5l-0.6-0.6
			c0.1-0.1-0.5-1.1,0.2-0.4c0.1,0.3,0.5,0.6,0.8,0.9c-0.1-0.1-0.3-0.4-0.1-0.3l0.9,1.1c-1.2-1.5-0.2-0.8-0.3-1l0.2,0.2
			c0.5,0.3-0.5-0.6-0.4-0.7c0.2,0.1,1,1.1,1.5,1.5c0.1-0.2-0.3-1.2,0.6-0.6c0-0.3-0.2-0.8-0.5-1.4c0.1-0.1,0.9,1.1,0.7,0.5
			c0.3,0.4,0.7,0.8,1,1.1c-0.4-0.4,0.3-0.1-0.6-1c0.4,0,0.7-0.1,0.7-0.4c0,0.1,0.6,0.8,0.9,1.1c-0.5-0.7-0.6-1.3-0.3-1.2
			c-0.6-0.7-0.7-0.6-1.2-1.3c-0.1-0.1-0.3-0.5-0.2-0.5c0.6,0.7,1.6,1.8,1.8,1.7c0.9,1.2-0.4,0.1,0.7,1.1c0.7,1,0.5,1.2-0.1,0.7
			c0.7,1.1,0.2,0,1,1c0.1-0.2-0.3-0.7-0.3-1c-0.4-0.5-0.5-0.5-0.8-1c-0.7-1.2,0.8,0.5,0.9,0.5l0.1,0.3c0.4,0.2-0.1-0.5,0-0.5
			c1.1,1.3-0.1,0.3,0.6,1.1l0.9,0.9c0.3,0-0.9-1.1-0.4-0.9l0.4,0.5l-0.1-0.4c-0.4-0.5-1.1-1.2-1.1-1c-1-1.3-0.1-0.3-0.1-0.6
			c-0.6-0.7,0,0.1-0.6-0.6c-0.6-0.6-0.5-0.7-0.5-0.9c0.1-0.1,0.7,0.7,1.2,1.1c0.1,0.1,0.1,0.3-0.3-0.1c0.5,0.9,1.3,1.4,1.7,2
			c0.5,0.3-0.2-0.5-0.4-0.8c-0.1-0.1-0.6-0.7-0.8-0.9c-1.4-2.1,1.3,1.3,1.3,0.8c-1.1-1.2-1.2-2-2.5-3.2c-0.1-0.3-0.3-0.6-0.2-0.5
			c0.7,0.9,0.7,0.6,1.2,1.5l0.1-0.1l0.7,1.1c0.6,0.5,1.2,0.9,1.6,1.3c-0.2-0.5-0.7-0.8-0.8-1.1c0.3,0.5,0.7,0.8,0.8,0.7
			c-0.4-0.2-1-1.2-1.1-1.4c0.1-0.1,0.9,0.6,1,0.8l0.5,0.8c-0.4-0.7,0.3,0.3,0.2,0c-0.4-0.5-0.9-1.2-1.4-1.9
			c-0.1-0.3,0.5,0.3,0.4,0.2l0.3,0.6c0-0.3,1.1,1.2,1,0.8l-0.5-0.7c0.1,0.1,0.4,0.4,0.6,0.6c-0.4-0.5-0.2-0.5-0.3-0.7l0.4,0.4
			c-0.2-0.3-0.9-1.4-0.1-0.6c-1-1-0.1,0.1-0.6-0.3c-0.7-0.7-0.5-0.8-0.6-0.9c0.9,1.1,0.2,0,0.3-0.1c0.4,0.4,0.6,0.5,0.8,0.7
			l-0.6-0.8c1.3,1.4-0.1-0.5,0.3-0.1c0.3,0.5,0.8,1,1.1,1.2c-1-1-1-1.4-1.6-2.1c0.5,0.2,1.1,1.4,1.8,2.1c-0.6-0.9,0.6,0.4-0.2-0.7
			c-0.4-0.2-0.6-0.7-0.9-1.2c0.2,0,0.4,0.5,0.8,0.8c-0.1-0.2-0.7-1.1-1.1-1.3c0.3,0.1-0.5-0.9,0.1-0.4c0.6,0.6,0.1,0.4,0.6,0.9
			c0.3-0.1-1.3-1.7-1.3-2.1c-0.4-0.3-1.3-1.5-1.6-2c0.5,0.1,0.3,0.5,1.1,1.3v-0.2c1.1,1.1,1.4,2.1,2.3,3l-0.3-0.5
			c0.3,0.3,0.7,1,1.1,1.2c-0.7-0.8,0-0.4-0.1-0.6c-0.6-0.7,0.1,0.3-0.3-0.3c-0.1-0.3-1-1.4-0.5-1.1c0.3,0.5,0.8,0.9,1.1,1.3
			c0.3,0.2-0.7-0.8-0.3-0.5l0.3,0.4c0.5-0.2,0.9-0.7-0.3-2.6c0.7,0.6,0.8,0.6,1.4,0.9c-0.3-0.2-0.6-0.7-0.6-0.8l0.8,0.7
			c0.5,0.4,0-0.5-0.3-1l0.5,0.6c0.5,0.4-0.3-0.5-0.4-0.7l0.5,0.5l-0.5-0.6c-0.2-0.4,0.1-0.4,0.8,0.5c-0.1-0.2-0.2-0.4-0.5-0.6
			c0.5,0.4,0.8,0.2,0.7-0.2c-0.3-0.1-0.5-0.4-1-1c-0.8-1,0.2,0.1-0.2-0.5c0.3,0.4,0.7,0.6,0.8,1c1.3,1,0.8-0.2,1.3-0.2
			c-0.1-0.2-0.2-0.3-0.4-0.6c1,0.8,0.4-0.4,0.9-0.2c-0.4-0.4-1.3-1.5-1.2-1.6c-0.6-0.9,1,1,1.5,1.4c-0.3-0.4-0.2-0.6-0.2-0.6
			l0.1,0.1c-0.3-0.5-0.4-0.8,0-0.5v0.1c0.1,0,0.6,0.4,0.6,0.3c-0.6-0.8-0.1-0.4-0.6-1.1c0.1,0.1,0.1,0.1,0.3,0.3l-0.5-0.6l0.4,0.2
			c0.2,0.3,0.4,0.5,0.5,0.7c0.5,0.3-0.5-0.6-0.7-1c-0.3-0.5,0.2,0.1,0.5,0.3c0.2,0.3-0.2-0.1-0.1,0.1c0.4,0.5,0.2,0.1,0.5,0.5
			c0,0-0.6-0.8-0.4-0.7c0.1,0,0.1-0.3,0.7,0.4c-0.3-0.4-0.1-0.4-0.4-0.7c-0.2-0.1-0.4-0.2-0.8-0.6c0-0.1-0.1-0.4,0.2-0.1l0.1,0.2
			c-0.1-0.2,0.2-0.1-0.4-0.7l0.8,0.8c-0.4-0.5-0.3-0.6-0.3-0.8c0.6,0.7,1.2,1.5,1.5,1.5l-0.5-0.8c0-0.1,0.2,0,0.5,0.4
			c0.6,0.2-1.4-2.1-0.7-1.6c0.6,0.9,0.8,0.9,1,1.1c-0.1-0.1-0.3-0.4-0.3-0.5c-0.3-0.4,0.4,0.6-0.1,0.1s-0.2-0.4-0.3-0.6
			c1.7,1.6,0.9,0,1.9,0.6c-0.9-1-0.1-0.4-0.4-0.8c0.9,1,0-0.3,0.6,0.3l-0.9-1c0.7,0.4-1.1-1.7,0.1-0.6c0.4,0.2,0.6,0.8,0.7,1
			c1.1,1-0.5-1.2,0.7,0c-0.3-0.4-1-1.1-1.2-1.5c0.5,0.4,1.1,0.7,1.2,0.9c-0.1-0.3-0.4-0.6,0-0.3c0.2,0.3,0.2,0.3,0.3,0.5
			c0.3,0.1,0.1-0.4-0.1-0.8c0.7,0.7,0.6,0.1,1.1,0.4c-0.7-1,0.6,0.2-0.5-1.1l0.3,0.3c-0.3-0.4-0.9-1.2-0.9-1.3l0.7,0.8
			c0.9,1,0.4,0,0.8,0.5c-0.7-0.6,0.1-0.1-0.4-0.7l-0.1-0.3c-0.1-0.3-0.3-0.4-0.3-0.7c0-0.1,0.8,0.9,0.7,0.8c0.4,0.4,0.3,0.1,0.2-0.2
			c0,0-0.1,0-0.2-0.2c0.1,0.1,0.2,0.1,0.2,0.2c0-0.1,0-0.2,0-0.2l0,0c0,0.1,0,0.1,0,0.2c0.1,0.1,0.1,0,0.2,0l0,0c0,0,0.1,0,0.2,0.1
			l0.5,0.7c0.1,0-0.4-0.9-0.6-1.1c0.7,0.4,0.6-0.4,0.5-0.9c0.1,0.2,0.3,0.4,0.1,0.1c0-0.2-0.4-0.8-0.1-0.4c-0.2-0.3,0.4,0.4,0.6,0.4
			c0.1,0.1-0.5-0.7-0.5-0.5c1,0.8-0.1-0.9,0.7-0.5c0,0.1,0.3,0.4,0.5,0.7c-0.1-0.5-0.2-0.9-0.7-1.8c0.2,0.3,0.5,0.6,0.6,0.8
			c0.1-0.1,0.1-0.4-0.3-1c-0.3-0.2,0.3,0.4,0.2,0.4c-0.6-0.5-0.9-1.2-0.7-1.1l0.1,0.1c0.1-0.1-0.2-0.5-0.1-0.6
			c0.4,0.3,0.1,0.2,0.5,0.6c0.9,1,0.8,0.4,1,0.5c-0.2-0.3-0.3-0.5-0.5-0.7c-0.1-0.3,0.6,0.6,0.6,0.4l-1.4-2.2
			c0.1,0.2,0.9,0.8,1.1,1.3c0.1-0.3-0.8-1.6-1.3-2.3c0.2,0.1,0-0.4,0.1-0.5c0.5,0.5-0.1,0,0.3,0.4l0.6,0.5c-0.1,0.2,0.8,0.9,1.1,1.4
			c-0.2-0.4,0.4-0.3,0.7-0.2c-1.1-1.1-0.3-0.7-1.2-1.8c0-0.3,0.8,0.8,1.1,0.9c-0.2-0.6,0.3-0.4,0.3-0.7c0,0,0.1,0.1,0.2,0.2
			c-0.1-0.4,0.4-0.4-0.2-1.4l0.5,0.6c0.5,0.2-1.1-1.4-0.4-0.9l0.4,0.6c-0.3-0.6,0.6,0.2,0.1-0.7c0.2,0.3,0.3,0.4,0.4,0.6
			c-0.1-0.3,0.2-0.3-0.3-1.1c0.3,0.3,0.5,0.6,0.7,0.9c0.5,0.3-0.7-1-0.2-0.8c0.1,0,0.5,0.4,0.5,0.4c-0.3-0.5-0.1-0.6-0.2-0.9
			c0.3,0.3,0.4,0.4,0.8,0.7c0.6-0.6,1.4-0.9,1.2-2.4c1,0.9,0.4,0.8,1.1,1.4c-0.8-0.9-0.1-0.3-0.2-0.8l0.1,0.1
			c-0.1-0.3,0.5,0.3,0.3-0.1l-0.2-0.2c-0.4-0.7,1.2,1,0.3-0.2l0.6,0.6c-0.8-1.1,0.4,0.2-0.2-0.7l0.1,0.2c0.5,0.3-0.6-1.4,0.1-0.6
			c0-0.3,0-0.6-0.7-1.4c0.3,0.3,0.7,0.8,0.9,1.1c0.1-0.8,0.8-1.1,0.3-2.5l0.4,0.5c-0.5-1.1,1.4,0.5,0.1-1.4l-0.6-0.8
			c0.3,0.2,0.8,0.8,1,1c-0.4-0.5,0.1-0.4-0.4-1c0.3,0.3,0.3,0.4,0.5,0.6c0.3,0-0.5-1.2-0.2-1l0.2,0.4c1.7,0.7,3.3,1,2.4-1
			c-0.1-0.4,0.9,0.9,0.9,0.8C-3061.1,182.9-3058.6,184.5-3060,182"/>
		<path id="path46-25" inkscape:connector-curvature="0" class="st5" d="M-3088.9,217.2c0,0,0,0,0,0.1
			C-3088.9,217.3-3088.9,217.3-3088.9,217.2"/>
		<path id="path48-94" inkscape:connector-curvature="0" class="st5" d="M-3092.7,217.4c0,0,0.1,0.1,0.1,0.2
			C-3092.6,217.6-3092.7,217.5-3092.7,217.4"/>
		<path id="path50-7" inkscape:connector-curvature="0" class="st5" d="M-3091.9,218.6c0-0.1-0.1-0.2-0.2-0.3
			C-3092.1,218.2-3092.1,218.3-3091.9,218.6"/>
		<path id="path52-7" inkscape:connector-curvature="0" class="st5" d="M-3072.7,199.8L-3072.7,199.8
			C-3072.5,200-3072.6,200-3072.7,199.8"/>
		<path id="path54-1" inkscape:connector-curvature="0" class="st5" d="M-3091.7,218.5c0.2,0.2,0.5,0.7,0.6,0.7
			c-0.4-0.5-1.1-1.3-1.5-1.4c-0.1-0.1-0.1-0.1-0.1-0.1c0.2,0.2,0.4,0.5,0.5,0.7C-3091.9,218.3-3091.4,218.9-3091.7,218.5"/>
		<path id="path56-6" inkscape:connector-curvature="0" class="st5" d="M-3099.6,215.3l1.2,1.3
			C-3098.8,215.9-3099.2,215.8-3099.6,215.3"/>
		<path id="path58-8" inkscape:connector-curvature="0" class="st5" d="M-3092.8,217.6c0.1,0.2,0.3,0.4,0.3,0.5
			c0.2,0.2-0.1-0.2-0.1-0.3C-3092.6,217.8-3092.9,217.5-3092.8,217.6"/>
		<path id="path60-6" inkscape:connector-curvature="0" class="st5" d="M-3091.4,218.3c0-0.1-0.1-0.6-0.4-1L-3091.4,218.3"/>
		<path id="path62-4" inkscape:connector-curvature="0" class="st5" d="M-3089.8,218.4l0.4,0.6
			C-3089.3,218.9-3089.4,218.7-3089.8,218.4"/>
		<path id="path64-6" inkscape:connector-curvature="0" class="st5" d="M-3090.1,217.7c-0.2-0.2-0.4-0.3-0.4-0.3
			C-3090.1,218-3090.2,217.7-3090.1,217.7"/>
		<path id="path66-3" inkscape:connector-curvature="0" class="st5" d="M-3090.1,217.7l0.1,0.1
			C-3090.1,217.7-3090.1,217.7-3090.1,217.7"/>
		<path id="path68-2" inkscape:connector-curvature="0" class="st5" d="M-3087.9,217.4c-0.4-0.4-0.2,0-0.2,0
			C-3087.6,218-3088.2,217.1-3087.9,217.4"/>
		<path id="path70-1" inkscape:connector-curvature="0" class="st5" d="M-3087.5,216.7c0-0.1-0.2-0.4-0.4-0.6c0.1,0.1,0,0.1,0,0.1
			L-3087.5,216.7"/>
		<path id="path72-4" inkscape:connector-curvature="0" class="st5" d="M-3077.6,204.1l0.3,0.4l-0.1-0.3L-3077.6,204.1"/>
		<path id="path74-5" inkscape:connector-curvature="0" class="st5" d="M-3072.2,199.7c0-0.1,0.4,0.5,0.4,0.4
			C-3071.8,200-3072.3,199.3-3072.2,199.7"/>
		<path id="path76-4" inkscape:connector-curvature="0" class="st5" d="M-3071.1,195.2L-3071.1,195.2l-0.7-0.8L-3071.1,195.2"/>
		<path id="path78-1" inkscape:connector-curvature="0" class="st5" d="M-3266.8,226.8c-0.2,0.3,0.1,0.1,0.4-0.2
			C-3266.3,226-3266.5,226.7-3266.8,226.8"/>
		<path id="path80-6" inkscape:connector-curvature="0" class="st5" d="M-3280.7,220.2l0.1-0.1h-0.1V220.2"/>
		<path id="path82-5" inkscape:connector-curvature="0" class="st5" d="M-3286.9,215.2L-3286.9,215.2c-0.1,0-0.1,0-0.2,0.1
			C-3287,215.3-3287,215.3-3286.9,215.2"/>
		<path id="path84-3" inkscape:connector-curvature="0" class="st5" d="M-3285.1,204.3C-3285.1,204.2-3285.1,204.2-3285.1,204.3
			C-3284.9,204.1-3285,204.1-3285.1,204.3"/>
		<path id="path86-3" inkscape:connector-curvature="0" class="st5" d="M-3267.1,225.8l-0.1,0.1
			C-3267.2,226-3267.2,226-3267.1,225.8"/>
		<path id="path88-6" inkscape:connector-curvature="0" class="st5" d="M-3265.8,219.7l-0.1,0.1
			C-3265.8,219.8-3265.8,219.7-3265.8,219.7"/>
		<path id="path90-3" inkscape:connector-curvature="0" class="st5" d="M-3264.9,218.8c-0.1,0.1-0.2,0.1-0.3,0.3
			C-3265.2,219.1-3265.1,219.1-3264.9,218.8"/>
		<path id="path92-3" inkscape:connector-curvature="0" class="st5" d="M-3265.7,224.8c0,0,0.1-0.1,0.2-0.2L-3265.7,224.8"/>
		<path id="path94-2" inkscape:connector-curvature="0" class="st5" d="M-3265.6,219.5c-0.1,0.1-0.1,0.1-0.1,0.2
			c0.2-0.3,0.4-0.5,0.6-0.7c0-0.1,0.5-0.8,0.1-0.4c0.2-0.3,0.6-0.6,0.6-0.8C-3264.9,218.3-3265.5,219.2-3265.6,219.5"/>
		<path id="path96-2" inkscape:connector-curvature="0" class="st5" d="M-3283.9,206.1c0,0,0.1,0,0.1-0.1
			C-3283.8,206.1-3283.9,206.1-3283.9,206.1z M-3266.7,220.6c0-0.4-0.1-0.6-0.5-0.6c0.1,0,0.7-0.7,0.9-1.1c-0.6,0.6-1.1,0.9-1.1,0.5
			c-0.6,0.7-0.5,0.7-1.1,1.4c-0.1,0.1-0.4,0.4-0.4,0.3c0.6-0.8,1.5-1.9,1.4-2c1-1.1,0.1,0.4,1-0.8c0.8-0.9,1.1-0.7,0.7-0.1
			c0.9-0.9,0-0.2,0.8-1.1c-0.2,0-0.6,0.4-0.9,0.4c-0.4,0.5-0.4,0.6-0.8,0.9c-1,0.9,0.4-0.9,0.4-1l0.3-0.2c0.2-0.4-0.4,0.2-0.5,0.1
			c1.1-1.3,0.3,0,1-0.8l0.7-1c-0.1-0.3-0.9,1-0.8,0.5l0.4-0.4l-0.4,0.2c-0.4,0.5-1,1.2-0.8,1.2c-1.1,1.2-0.2,0.1-0.6,0.2
			c-0.6,0.7,0.1,0-0.5,0.7c-0.5,0.7-0.6,0.6-0.8,0.7c-0.1-0.1,0.6-0.8,0.9-1.3c0.1-0.1,0.3-0.1-0.1,0.3c0.8-0.6,1.2-1.6,1.7-2
			c0.2-0.5-0.5,0.3-0.7,0.5c0,0.1-0.6,0.7-0.8,1c-1.8,1.8,1-1.5,0.6-1.3c-1,1.3-1.7,1.5-2.7,3c-0.2,0.2-0.5,0.4-0.5,0.3
			c0.8-0.8,0.5-0.7,1.2-1.5l-0.1-0.1l0.9-0.9c0.4-0.7,0.7-1.3,1-1.8c-0.4,0.3-0.6,0.8-0.9,0.9c0.4-0.4,0.6-0.8,0.6-0.9
			c-0.2,0.4-1,1.2-1.2,1.4c-0.1-0.1,0.5-0.9,0.6-1.1l0.7-0.7c-0.6,0.6,0.2-0.4-0.1-0.1c-0.4,0.4-1.1,1.1-1.6,1.7
			c-0.2,0.1,0.2-0.5,0.1-0.4l0.5-0.4c-0.3,0.1,1-1.3,0.6-1.1l-0.6,0.6c0.1-0.1,0.3-0.4,0.5-0.7c-0.4,0.4-0.4,0.3-0.6,0.4l0.4-0.4
			c-0.3,0.2-1.2,1.1-0.5,0.2c-0.8,1.1,0.1,0.1-0.2,0.6c-0.6,0.8-0.7,0.7-0.8,0.7c0.9-1.1-0.1-0.2-0.1-0.3c0.3-0.4,0.4-0.7,0.6-0.9
			l-0.6,0.7c1.2-1.5-0.4,0.2-0.1-0.3c0.4-0.4,0.9-1,1-1.2c-0.8,1.1-1.2,1.2-1.8,2c0.2-0.5,1.2-1.3,1.7-2.1c-0.8,0.8,0.3-0.7-0.7,0.4
			c-0.2,0.4-0.6,0.7-1,1.1c-0.1-0.2,0.4-0.5,0.6-0.9c-0.2,0.1-0.9,0.9-1.1,1.3c0.1-0.3-0.8,0.7-0.4-0.1c0.5-0.7,0.4-0.2,0.8-0.7
			c-0.1-0.2-1.5,1.6-1.8,1.7c-0.2,0.4-1.3,1.6-1.7,1.9c0.1-0.4,0.4-0.3,1.1-1.3l-0.2,0.1c0.9-1.3,1.8-1.7,2.5-2.8l-0.4,0.3
			c0.3-0.3,0.8-0.9,1.1-1.3c-0.7,0.8-0.4,0.1-0.5,0.2c-0.6,0.7,0.2-0.1-0.2,0.4c-0.2,0.1-1.2,1.2-1,0.7c0.5-0.4,0.8-1,1.1-1.3
			c0.2-0.3-0.7,0.8-0.5,0.3l0.4-0.4c-0.2-0.4-0.7-0.7-2.4,0.8c0.5-0.7,0.5-0.9,0.7-1.5c-0.1,0.3-0.6,0.7-0.7,0.8l0.6-0.9
			c0.3-0.6-0.5,0.1-0.9,0.5l0.5-0.6c0.3-0.6-0.5,0.4-0.6,0.5l0.4-0.6l-0.5,0.5c-0.4,0.2-0.4,0,0.4-0.9c-0.2,0.1-0.4,0.3-0.5,0.6
			c0.3-0.6,0.1-0.8-0.3-0.6c-0.1,0.3-0.3,0.6-0.8,1.1c-0.8,0.9,0.1-0.2-0.4,0.3c0.3-0.4,0.5-0.8,0.8-1c0.8-1.4-0.3-0.7-0.4-1.1
			c-0.2,0.1-0.3,0.3-0.5,0.5c0.6-1.1-0.4-0.3-0.3-0.8c-0.3,0.4-1.3,1.5-1.4,1.5c-0.8,0.7,0.9-1.2,1.2-1.7c-0.4,0.3-0.5,0.3-0.5,0.3
			l0.1-0.1c-0.4,0.4-0.7,0.5-0.5,0.1h0.1c0-0.1,0.3-0.7,0.2-0.7c-0.6,0.7-0.4,0.1-1,0.8c0.1-0.1,0.1-0.1,0.2-0.3l-0.5,0.6l0.2-0.5
			c0.2-0.2,0.5-0.5,0.6-0.6c0.2-0.6-0.5,0.5-0.9,0.8c-0.5,0.4,0.1-0.2,0.2-0.5c0.3-0.3-0.1,0.2,0.1,0.1c0.5-0.5,0.1-0.3,0.4-0.6
			c0,0-0.6,0.7-0.6,0.5c0-0.1-0.3,0,0.3-0.7c-0.4,0.3-0.4,0.2-0.6,0.5c-0.1,0.2-0.1,0.4-0.5,0.9c-0.1,0.1-0.4,0.2-0.1-0.1l0.2-0.1
			c-0.2,0.1-0.1-0.2-0.6,0.5l0.6-1c-0.5,0.5-0.5,0.4-0.7,0.4c0.6-0.7,1.3-1.4,1.3-1.7l-0.7,0.6c-0.1,0,0-0.1,0.3-0.6
			c0.1-0.6-1.8,1.7-1.5,1c0.8-0.8,0.8-0.9,0.9-1.2c-0.1,0.1-0.4,0.4-0.4,0.4c-0.3,0.4,0.5-0.5,0.1,0.1c-0.4,0.5-0.4,0.3-0.5,0.4
			c1.3-1.9-0.1-0.9,0.3-1.9c-0.8,1-0.4,0.2-0.7,0.5c0.9-1-0.3,0.1,0.2-0.6l-0.8,1.1c0.3-0.7-1.5,1.4-0.6,0c0.2-0.4,0.6-0.7,0.8-0.9
			c0.8-1.2-1.1,0.7-0.1-0.7c-0.4,0.4-0.9,1.1-1.3,1.4c0.3-0.5,0.6-1.2,0.7-1.4c-0.2,0.1-0.5,0.5-0.3,0c0.2-0.3,0.3-0.3,0.4-0.4
			c0.1-0.4-0.4,0-0.8,0.3c0.6-0.8,0.1-0.6,0.3-1.2c-0.9,0.9,0.1-0.6-0.9,0.7l0.3-0.4c-0.3,0.3-1.1,1.1-1.2,1.1l0.7-0.8
			c0.9-1,0-0.4,0.4-0.9c-0.5,0.8-0.1-0.1-0.6,0.6l-0.3,0.2c-0.3,0.1-0.4,0.4-0.6,0.4c-0.1,0,0.8-1,0.7-0.9c0.3-0.5,0-0.3-0.2-0.2
			c0,0,0,0.1-0.2,0.2c0.1-0.1,0.1-0.2,0.2-0.2c-0.1,0-0.1,0.1-0.2,0.1l0,0c0.1,0,0.1,0,0.2,0c0-0.1,0-0.1,0-0.1l0,0
			c0,0,0-0.1,0.1-0.2l0.6-0.6c0-0.1-0.8,0.5-1,0.8c0.3-0.7-0.5-0.5-0.9-0.3c0.1-0.1,0.3-0.3,0.1-0.1c-0.2,0.1-0.7,0.6-0.4,0.1
			c-0.3,0.2,0.3-0.5,0.3-0.7c0.1-0.1-0.5,0.6-0.4,0.6c0.6-1.1-0.9,0.2-0.6-0.5c0.1,0,0.4-0.4,0.6-0.6c-0.4,0.2-0.8,0.3-1.6,1
			c0.3-0.3,0.5-0.6,0.7-0.7c-0.1-0.1-0.4,0-0.9,0.5c-0.2,0.4,0.3-0.3,0.3-0.3c-0.4,0.6-1,1.1-1,0.9l0.1-0.1
			c-0.1-0.1-0.4,0.3-0.5,0.2c0.2-0.4,0.2-0.1,0.5-0.6c0.8-1.1,0.3-0.9,0.4-1c-0.2,0.2-0.4,0.4-0.6,0.6c-0.3,0.2,0.5-0.6,0.4-0.6
			l-1.9,1.8c0.2-0.1,0.7-1,1.1-1.3c-0.3,0-1.4,1.1-2,1.6c0.1-0.2-0.4,0.1-0.5,0.1c0.4-0.6,0,0.1,0.4-0.3l0.4-0.7
			c0.2,0,0.8-1,1.2-1.3c-0.4,0.3-0.3-0.3-0.3-0.6c-0.9,1.3-0.7,0.4-1.5,1.5c-0.3,0.1,0.6-0.9,0.7-1.2c-0.5,0.3-0.4-0.2-0.7-0.2
			c0,0,0.1-0.1,0.2-0.2c-0.4,0.2-0.4-0.3-1.3,0.5l0.5-0.6c0.2-0.5-1.1,1.3-0.8,0.5l0.5-0.5c-0.5,0.4,0.2-0.6-0.6,0.1
			c0.2-0.3,0.3-0.4,0.5-0.5c-0.3,0.1-0.3-0.1-1,0.5c0.3-0.4,0.5-0.6,0.8-0.8c0.2-0.5-0.9,0.8-0.7,0.4c0-0.1,0.3-0.6,0.3-0.6
			c-0.4,0.4-0.6,0.3-0.8,0.4c0.3-0.4,0.3-0.5,0.6-0.9c-0.6-0.5-1.1-1.2-2.4-0.7c0.8-1.1,0.7-0.6,1.2-1.3c-0.7,0.9-0.3,0.2-0.7,0.3
			l0.1-0.1c-0.2,0.1,0.2-0.5-0.1-0.3l-0.2,0.2c-0.6,0.5,0.8-1.3-0.2-0.2l0.5-0.7c-0.9,1,0.1-0.4-0.7,0.3l0.2-0.2
			c0.2-0.6-1.2,0.9-0.6,0c-0.3,0.1-0.6,0.1-1.2,0.9c0.2-0.3,0.6-0.8,0.9-1.1c-0.8,0-1.1-0.6-2.4,0.2l0.4-0.5c-1,0.7,0.3-1.4-1.4,0.2
			l-0.7,0.7c0.2-0.4,0.6-0.9,0.8-1.2c-0.5,0.5-0.3-0.1-0.9,0.6c0.2-0.3,0.3-0.4,0.5-0.6c0-0.2-1,0.7-0.9,0.4l0.3-0.3
			c0.5-1.8,0.6-3.4-1.3-2.1c-0.4,0.2,0.8-1,0.6-1c-1.6,1-0.4-1.7-2.6,0.1c-0.8,0.3-2.9,2.6-2.9,2.6c1.6-0.2,1.5,1.5,1.3,3.4
			c0.4,0,1.1,0,1,0.6c1.3,0.7,0.8,3.4,2.6,3.6c0.2-0.4,0.6-0.8,0.8-0.9l-0.2,0.3l0.6-0.5c0.1,0-0.5,0.7-0.7,0.8
			c0.4,0.4,1.1,0.4,1.3,1c0.8-0.9,0.3,0.1,1-0.8c-0.1,0.2-0.2,0.2-0.3,0.4c0.7-0.2,0.7-0.2,0.1,1.1c0.5,1.7,2.2,2,3.1,3.2
			c1.3,0.8,3.1,1,4.5,1.7c1.3-1.2,1.1-0.4,2.3-1.4l-0.4,0.4c0.7-0.5,0.1,0.3-0.1,1c0.4-0.5,0.2-0.1,0.8-0.9c0.7-0.6-0.8,1.3-0.4,1
			c-0.2,0.3,0.4-0.5,0.2-0.2c1.1-0.7-0.4,0.4-0.7,1.5c0.8,0.1,2-0.3,2.1,0.7c-0.1,0,0.5-0.7,0.5-0.6c-1,1.4,0.5-0.2,0.1,0.4
			c-0.2,0.3-0.3,0.3-0.5,0.4c-0.2,0.7,0.7,0.1,0.4,0.9c0.7-0.4,0,1,0.7,0.4c-0.5,0.5-0.2,0.5-0.4,0.8c1.5-1.5,0,0.9,1,0l-0.2,0.3
			c0.7,0.3,1,1.2,2.2,1c0.5,0.1-0.3,1.8,0.6,1.4c0.2-0.1,0.5-0.5,0.6-0.6c0.1,0.1-0.4,0.5-0.5,0.7c0.7-0.5,0.3,0.5,0.6,0.6
			c0.2-0.2,0.4-0.2,0.6-0.6c-0.6,1.3,0.9,0.1,0.5,1.1c1-1.5,0.8-0.6,1.1-0.9c0,0.1-0.3,0.5-0.5,0.7c0.3,0,0.5,0,0.4,0.6
			c0.2-0.1,0.9-0.8,0.8-0.5c-0.7,1,0.2,0.3,0.1,0.7c0.6-0.8,1.3-1.4,1.2-0.9l-1,1.1c1-0.4,0.5,1.4,2.2,0.3l-0.5,0.7
			c1.1-0.4,0.9,0.8,2.5-0.1c-0.2,0.5-0.2,0.9,0,1c0.6-0.4,0.7-0.3,1.5-1.2c0.1,0-0.3,0.6-0.5,0.8c0.1,0.4-0.5,1.5,0.5,0.5l-0.5,0.6
			c0.6-0.4,1.5-0.9,1.1-0.1c0.5-0.5,0.8-0.5,1.3-1.2c0.2-0.1-0.8,1-0.2,0.5l-0.8,0.8c0.3,0.6,1,0.4,1.7,0.3c-0.7,1.1,0.5,0.2,0.3,1
			c0.6-0.4,0.2,0.5,1.3-0.6l-0.5,0.6c0.1,0.2,0.4,0.4,0.4,0.9c0,0.3,0.7-0.6,1.1-0.8l-0.5,0.6c0.4-0.2,1.2-1.1,1.7-1.7
			c-0.2,0.5,0.1,0.1-0.1,0.5c-0.3,0.2-0.9,0.8-1.6,1.5c-0.1,0.4,1.3-1,0.7,0c-0.1,0.3,0.2,0.2,0.9-0.6c-0.2,0.2-0.3,0.5-0.6,0.8
			c0.1,0.1,0.2,0,0.5-0.2v-0.1c0.5-0.5,0.6-0.4,1.3-1.3c-0.2,0.2-0.4,0.3-0.4,0.2c0.5-0.6,0.8-0.6,0.4-0.1c-0.5,0.7-0.9,0.9-1.2,1.4
			l1.4-1.2c-0.2,0.1,0-0.3,0.5-0.7l-0.4,0.3l0.5-0.6c-0.4,0.1,0.1-0.7-0.5-0.3l-0.5,0.7c-0.1-0.1-0.9,0.7-0.4-0.1
			c0.2-0.2,0.5-0.5,0.8-0.9c-0.1,0.1-0.4,0.3-0.3,0.2l0.9-1c-1.2,1.4-0.7,0.3-1,0.5l0.2-0.2c0.2-0.6-0.5,0.6-0.6,0.6
			c0.1-0.2,0.9-1.2,1.2-1.7c-0.2-0.1-1.1,0.5-0.6-0.5c-0.3,0.1-0.8,0.3-1.3,0.7c-0.1-0.1,0.9-1.1,0.4-0.7c0.3-0.4,0.6-0.8,0.9-1.2
			C-3266.2,220.3-3266,219.6-3266.7,220.6"/>
		<path id="path98-9" inkscape:connector-curvature="0" class="st5" d="M-3266.6,216.3C-3266.6,216.3-3266.6,216.3-3266.6,216.3
			C-3266.5,216.2-3266.5,216.2-3266.6,216.3"/>
		<path id="path100-5" inkscape:connector-curvature="0" class="st5" d="M-3283.3,205.9L-3283.3,205.9L-3283.3,205.9L-3283.3,205.9"
			/>
		<path id="path102-6" inkscape:connector-curvature="0" class="st5" d="M-3266,225.4c-0.6,0.5-0.7,0.9-1.1,1.4L-3266,225.4"/>
		<path id="path104-6" inkscape:connector-curvature="0" class="st5" d="M-3265.7,219.8c0.2-0.2,0.4-0.4,0.4-0.4
			c0.2-0.3-0.2,0.1-0.2,0.1C-3265.6,219.6-3265.8,220-3265.7,219.8"/>
		<path id="path106-7" inkscape:connector-curvature="0" class="st5" d="M-3266.1,219l0.9-0.6
			C-3265.4,218.4-3265.8,218.6-3266.1,219"/>
		<path id="path108" inkscape:connector-curvature="0" class="st5" d="M-3265.3,216.8l0.5-0.5
			C-3264.9,216.3-3265.1,216.4-3265.3,216.8"/>
		<path id="path110" inkscape:connector-curvature="0" class="st5" d="M-3266.1,217.7c0.5-0.6,0.2-0.3,0.2-0.4
			C-3266.1,217.5-3266.2,217.7-3266.1,217.7"/>
		<path id="path112" inkscape:connector-curvature="0" class="st5" d="M-3265.9,217.3l0.1-0.1
			C-3265.9,217.2-3265.9,217.3-3265.9,217.3"/>
		<path id="path114" inkscape:connector-curvature="0" class="st5" d="M-3266.5,215.4c0.5-0.6-0.3,0.2-0.1-0.2
			C-3266.9,215.7-3266.6,215.4-3266.5,215.4"/>
		<path id="path116" inkscape:connector-curvature="0" class="st5" d="M-3267.2,215c-0.1,0-0.3,0.3-0.5,0.5c0.1-0.1,0.1,0,0.1,0
			L-3267.2,215"/>
		<path id="path118" inkscape:connector-curvature="0" class="st5" d="M-3280.1,207.7l-0.2,0.1l-0.1,0.2L-3280.1,207.7"/>
		<path id="path120" inkscape:connector-curvature="0" class="st5" d="M-3285,203.3c0,0.1-0.6,0.7-0.3,0.5
			C-3285.4,203.8-3284.9,203.3-3285,203.3"/>
		<path id="path122" inkscape:connector-curvature="0" class="st5" d="M-3289.6,203.6L-3289.6,203.6l-0.7,0.8L-3289.6,203.6"/>
		<path id="path124" inkscape:connector-curvature="0" class="st21" d="M-3070.6,1140.8c0,26.1,94.3,47.3,210.5,47.4
			c116.3,0.1,210.6-21,210.6-47c0-26.1-94.3-47.3-210.5-47.4C-2976.3,1093.7-3070.6,1114.8-3070.6,1140.8"/>
		<path id="path126" inkscape:connector-curvature="0" class="st22" d="M-2988.8,981.2l8,115.1c0,0-35.3-26.3-52.3,3.9
			c-23.9,42.6,74.1,19.9,74.1,19.9l2.6-109.8c0,0,110.3,19.7,246.9,2.6l5.3,95.2c0,0-40.1-36.1-53.8,0
			c-18.4,48.3,73.5,16.5,73.5,16.5l11.9-133.8C-2672.7,990.7-2791.4,960.6-2988.8,981.2"/>
		<path id="path128" inkscape:connector-curvature="0" class="st15" d="M-3006.8,743.4c0,0-44.3-386.7,261.8-263.3
			c0,0,97,68.9,101.4,266.4C-2939.2,809.8-3006.8,743.4-3006.8,743.4"/>
		<path id="path130" inkscape:connector-curvature="0" class="st22" d="M-3061.5,359.7c0,0,31.4,230.4,287.3,169.3l37.7,72.5
			c0,0,32-33.4,42.2,1.5c10.3,35-33.5,23.8-33.5,23.8s40.2,97.1,84.3,119.8c0,0,93.3-387.1-64.4-322.5c0,0-13.1-57.7-112.1-59.6
			C-2922.7,362.5-2967.7,458.9-3061.5,359.7"/>
		<path id="path132" inkscape:connector-curvature="0" class="st22" d="M-2924.6,608.7c-0.3,9.6-5.2,17.3-10.7,17.1
			c-5.6-0.2-9.8-8.2-9.5-17.8s5.2-17.3,10.7-17.1C-2928.5,591.1-2924.2,599-2924.6,608.7"/>
		<path id="path134" inkscape:connector-curvature="0" class="st22" d="M-2798.8,611.4c-0.3,9.6-5.2,17.3-10.7,17.1
			c-5.6-0.2-9.8-8.2-9.5-17.8c0.4-9.6,5.2-17.3,10.7-17.1C-2802.7,593.8-2798.5,601.8-2798.8,611.4"/>
		<path id="path136" inkscape:connector-curvature="0" class="st22" d="M-2825.7,666.4c-0.8,15.4-12.2,40.3-55,40.3
			c-43.9,0-43.9-43.1-43.9-43.1S-2867,651.6-2825.7,666.4"/>
		<path id="path138" inkscape:connector-curvature="0" class="st5" d="M-3006.8,743.4l18,237.8c0,0,124,31,316.1,9.6l29.2-244.2
			C-2643.6,746.6-2884.8,783.4-3006.8,743.4"/>
		<path id="path140" inkscape:connector-curvature="0" class="st15" d="M-3158.7,621.2c0,0-1.6-87.7-11-87.7
			c-10.6,0-7.3,32.3-5.2,46.7c-0.8-3.4-3.9-7.3-6.9-6.9c-8.6,1.1-4.9,8.1-4.5,11.4c-0.5-2.7-2.2-8.1-7.1-7c-4.4,1-4.3,5.9-4.8,9
			c-0.5-2.1-3.6-5.4-7.6-4.5c-7.2,1.7,1.1,39.9,1.1,39.9s36.6,355.9,180.4,218l-25.3-34.1C-3086.9,840.5-3139.8,848.9-3158.7,621.2"
			/>
		<path id="path142" inkscape:connector-curvature="0" class="st5" d="M-2998.2,815.8l-5.8-59.3c0,0-23.9,29.7-45.5,49.6l25.3,34.1
			C-3017.9,834.1-3005,823.8-2998.2,815.8"/>
		<path id="path144" inkscape:connector-curvature="0" class="st5" d="M-2644.9,756.3l-4.5,40.7c10.2,4.6,18.6,10.6,25.5,17.7
			l23.8-32.6C-2622.2,760.5-2644.9,756.3-2644.9,756.3"/>
		<path id="path146" inkscape:connector-curvature="0" class="st15" d="M-2600.2,782l-23.8,32.6c60.8,61.5,6.9,201.9,6.9,201.9
			l-10.7,26.9c-0.6,1.9-3.9,13.9,1.8,15.4c2.7,0.7,4.8-0.9,6.3-3.1c0.1,2.5,0.9,5,3.4,5.7c2.4,0.7,4.4-0.7,5.9-2.5
			c0.2,2.3,1.1,4.3,3.4,4.9c2.7,0.7,4.8-0.9,6.3-3.1c0.1,2.5,0.9,5,3.4,5.7c5.3,1.4,8.2-6.2,9.1-8.8l8.9-32.3
			C-2537.4,881-2568.1,813.3-2600.2,782"/>
		<path id="path148" inkscape:connector-curvature="0" class="st22" d="M-2909.6,796.7l-7.5,14.2l10.7,16.5l-19.2,92.8l26.7,39.5
			l29.9-35.4l-16.6-95.3l12.3-17.6l-6.6-11.5L-2909.6,796.7"/>
	</g>
	<g id="g6061" transform="translate(18.549906,-189.14579)">
		<g id="g376-7-9" transform="matrix(3.4520704,0,0,1.4248391,381.06414,563.84349)">
			<g>
				<g>
					<defs>
						<rect id="SVGID_1_" x="-5801.5" y="-511.4" width="11917" height="2030.2"/>
					</defs>
					<clipPath id="SVGID_2_">
						<use xlink:href="#SVGID_1_"  style="overflow:visible;"/>
					</clipPath>
				</g>
			</g>
		</g>
	</g>
	<g id="g4916" transform="matrix(0.75,0,0,0.75,309.06375,383.37566)">
		<g>
			<g>
				<defs>
					<rect id="SVGID_3_" x="585.8" y="3738.1" width="361.5" height="358.1"/>
				</defs>
				<clipPath id="SVGID_4_">
					<use xlink:href="#SVGID_3_"  style="overflow:visible;"/>
				</clipPath>
				<g id="g2997" transform="matrix(1.5934372,0,0,1.5934372,587.24042,1389.5341)" class="st23">
					<g id="g3003" transform="translate(54.3896,102.7524)">
						<path id="path3005" inkscape:connector-curvature="0" class="st24" d="M-540.2,22.7h5.3c1.4,0,2.5-0.5,3.5-1.5
							s1.5-2.1,1.5-3.5v-33.9h-10.2L-540.2,22.7L-540.2,22.7z"/>
					</g>
					<g id="g3007" transform="translate(70.0313,70.2832)">
						<path id="path3009" inkscape:connector-curvature="0" class="st24" d="M-543.3,29.2h9.9c0.1-1.9,0.8-3.4,2.2-4.4
							c1.5-1,3.4-1.5,5.8-1.5c1.8,0,3.3,0.3,4.5,1s1.8,1.6,1.8,2.8c0,1.8-2,3.1-6.1,3.9c-1.8,0.3-3.1,0.6-3.9,0.9
							c-5.2,1.3-8.6,2.8-10.4,4.5c-1.9,1.8-2.9,4.1-2.9,7c0,3.7,1.4,6.8,4.2,9.2c2.9,2.2,6.7,3.4,11.4,3.4c5.1,0,9.1-1.1,12.1-3.4
							c2.8-2.4,4.3-5.6,4.5-9.5h-6.3c-1.9,0-3.3,0.8-4.2,2.5c-0.4,0.4-0.8,0.8-1.2,1.2c-1.2,0.9-2.8,1.3-4.8,1.3
							c-1.9,0-3.4-0.3-4.4-0.9c-0.9-0.6-1.3-1.5-1.3-2.6c0-1.6,2.5-2.9,7.6-3.9c0.6-0.2,1.1-0.3,1.5-0.4c0.4-0.1,0.9-0.1,1.2-0.1
							c5-1.3,8.4-2.7,10.4-4.4c1.8-1.8,2.8-4.1,2.8-7c0-4.3-1.6-7.6-4.7-9.9c-2.9-2.1-7.3-3.2-13.1-3.2c-5.5,0-9.7,1.1-12.4,3.4
							c-2.8,2.2-4.2,5.5-4.2,9.8L-543.3,29.2L-543.3,29.2z"/>
					</g>
					<g id="g3011" transform="translate(126.3945,78.8555)">
						<path id="path3013" inkscape:connector-curvature="0" class="st24" d="M-554.6,27.4c0-3.9,0.7-6.9,2.2-8.9s3.6-3.1,6.3-3.1
							c2.6,0,4.7,1,6.1,3.1c1.4,2,2,5,2,8.9c0,3.5-0.7,6.3-2.2,8.3c-1.6,1.9-3.6,2.9-6.3,2.9c-2.5,0-4.5-1-6-3.1
							C-553.9,33.7-554.6,31-554.6,27.4 M-538,58.1h5c1.4,0,2.5-0.5,3.5-1.5s1.5-2.2,1.5-3.4V24.7c0-6.9-2-11.6-6-14
							s-8.3-3.6-13-3.6c-2.5,0-5,0.4-7.4,1.2c-2.4,0.8-4.4,2.2-5.8,4c-2.8,3.6-4.2,8.5-4.2,14.7c0,6.1,1.4,11,4.2,14.7
							c2.9,3.8,6.7,5.7,11.2,5.7c2.4,0,4.6-0.5,6.4-1.5c1.9-1.2,3.5-2.7,4.7-4.5v16.7H-538z"/>
					</g>
					<g id="g3015" transform="translate(44.3154,41.7793)">
					</g>
					<g id="g3019" transform="translate(55.2329,45.5059)">
					</g>
					<g id="g3023" transform="translate(60.8579,38.8496)">
					</g>
					<g id="g3027" transform="translate(68.6465,38.8496)">
					</g>
					<g id="g3031" transform="translate(79.2891,38.6875)">
					</g>
					<g id="g3035" transform="translate(87.146,43.3125)">
					</g>
					<g id="g3039" transform="translate(90.1992,38.6836)">
					</g>
					<g id="g3043" transform="translate(97.8989,44.1777)">
					</g>
					<g id="g3047" transform="translate(109.0962,41.7793)">
					</g>
					<g id="g3051" transform="translate(120.0137,45.5059)">
					</g>
					<g id="g3055" transform="translate(125.7383,50.1348)">
					</g>
					<g id="g3059" transform="translate(136.7617,47.8965)">
					</g>
					<g id="g3063" transform="translate(141.0801,38.7344)">
					</g>
					<g id="g3067" transform="translate(141.6523,47.9414)">
					</g>
					<g id="g3071" transform="translate(147.46,45.5059)">
					</g>
					<g id="g3075" transform="translate(161.1514,38.6875)">
					</g>
					<g id="g3079" transform="translate(161.7471,41.7793)">
					</g>
				</g>
			</g>
		</g>
		<text transform="matrix(1.0667 0 0 -1.0667 -186.8166 1507.7025)" class="st24 st25 st26">p</text>
		<text transform="matrix(1.0667 0 0 -1.0667 -175.6145 1507.7025)" class="st24 st25 st26">a</text>
		<text transform="matrix(1.0667 0 0 -1.0667 -165.3614 1507.7025)" class="st24 st25 st26">r</text>
		<text transform="matrix(1.0667 0 0 -1.0667 -158.002 1507.7025)" class="st24 st25 st26">t</text>
		<text transform="matrix(1.0667 0 0 -1.0667 -151.6176 1507.7025)" class="st24 st25 st26"> </text>
		<text transform="matrix(1.0667 0 0 -1.0667 -146.1895 1507.7025)" class="st24 st25 st26">o</text>
		<text transform="matrix(1.0667 0 0 -1.0667 -134.9874 1507.7025)" class="st24 st25 st26">f</text>
		<text transform="matrix(1.0667 0 0 -1.0667 -128.602 1507.7025)" class="st24 st25 st26"> </text>
		<text transform="matrix(1.0667 0 0 -1.0667 -123.1728 1507.7025)" class="st24 st25 st26">I</text>
		<text transform="matrix(1.0667 0 0 -1.0667 -117.7447 1507.7025)" class="st24 st25 st26">n</text>
		<text transform="matrix(1.0667 0 0 -1.0667 -106.5437 1507.7025)" class="st24 st25 st26">t</text>
		<text transform="matrix(1.0667 0 0 -1.0667 -100.1582 1507.7025)" class="st24 st25 st26">h</text>
		<text transform="matrix(1.0667 0 0 -1.0667 -88.9562 1507.7025)" class="st24 st25 st26">e</text>
		<text transform="matrix(1.0667 0 0 -1.0667 -78.702 1507.7025)" class="st24 st25 st26">r</text>
		<text transform="matrix(1.0667 0 0 -1.0667 -71.3437 1507.7025)" class="st24 st25 st26">g</text>
		<text transform="matrix(1.0667 0 0 -1.0667 -60.1426 1507.7025)" class="st24 st25 st26">r</text>
		<text transform="matrix(1.0667 0 0 -1.0667 -52.7832 1507.7025)" class="st24 st25 st26">o</text>
		<text transform="matrix(1.0667 0 0 -1.0667 -41.5822 1507.7025)" class="st24 st25 st26">u</text>
		<text transform="matrix(1.0667 0 0 -1.0667 -30.3801 1507.7025)" class="st24 st25 st26">p</text>
		<g id="g3083" transform="matrix(1.5934372,0,0,1.5934372,587.24042,1389.5341)">
			<g id="g3085">
				<g id="g3091">
					<g id="g3093">
						
							<linearGradient id="path3101_1_" gradientUnits="userSpaceOnUse" x1="-475.3717" y1="-1017.8992" x2="-474.3717" y2="-1017.8992" gradientTransform="matrix(60.8157 -60.8157 -60.8157 -60.8157 -33480.3633 -90655.5469)">
							<stop  offset="0" style="stop-color:#E83600"/>
							<stop  offset="1" style="stop-color:#FF6500"/>
						</linearGradient>
						<path id="path3101" inkscape:connector-curvature="0" class="st27" d="M-486.2,131.5h27.3v27.3h-27.3
							C-486.2,158.7-486.2,131.5-486.2,131.5z"/>
					</g>
				</g>
			</g>
		</g>
		<g id="g3103" transform="matrix(1.5934372,0,0,1.5934372,587.24042,1389.5341)">
			<g>
				<g>
					<defs>
						<rect id="SVGID_5_" x="-629" y="-55.6" width="361.5" height="358.1"/>
					</defs>
					<clipPath id="SVGID_6_">
						<use xlink:href="#SVGID_5_"  style="overflow:visible;"/>
					</clipPath>
					<g id="g3105" class="st28">
						<path id="path3111" inkscape:connector-curvature="0" class="st24" d="M-450.5,150.2h-17.4v17.5h17.5
							C-450.5,167.7-450.5,150.2-450.5,150.2z"/>
						<path id="path3113" inkscape:connector-curvature="0" class="st24" d="M-443.6,169.9h-6.4v6.4h6.4V169.9z"/>
					</g>
				</g>
			</g>
		</g>
		<g id="g3115" transform="matrix(1.5934372,0,0,1.5934372,587.24042,1389.5341)">
			<g id="g3117">
				<g id="g3123">
					<g id="g3125">
						
							<linearGradient id="path3133_1_" gradientUnits="userSpaceOnUse" x1="-506.9882" y1="-1007.4531" x2="-505.9882" y2="-1007.4531" gradientTransform="matrix(19.2672 -19.2672 -19.2672 -19.2672 -10085.3037 -29012.8535)">
							<stop  offset="0" style="stop-color:#E83600"/>
							<stop  offset="1" style="stop-color:#FF6500"/>
						</linearGradient>
						<path id="path3133" inkscape:connector-curvature="0" class="st29" d="M-442.8,157.6h8.6v8.6h-8.6V157.6z"/>
					</g>
				</g>
			</g>
		</g>
		<g id="g3135" transform="matrix(1.5934372,0,0,1.5934372,587.24042,1389.5341)">
			<g>
				<g>
					<defs>
						<rect id="SVGID_7_" x="-629" y="-55.6" width="361.5" height="358.1"/>
					</defs>
					<clipPath id="SVGID_8_">
						<use xlink:href="#SVGID_7_"  style="overflow:visible;"/>
					</clipPath>
					<g id="g3137" class="st30">
						<path id="path3143" inkscape:connector-curvature="0" class="st24" d="M-429.3,171.8h-3.7v3.8h3.7V171.8z"/>
					</g>
				</g>
			</g>
		</g>
		<text transform="matrix(1.0667 0 0 -1.0667 -16.4874 1527.5118)" class="st24 st25 st31 st32">c</text>
		<text transform="matrix(1.0667 0 0 -1.0667 53.5751 1527.5118)" class="st24 st25 st31 st32">a</text>
		<text transform="matrix(1.0667 0 0 -1.0667 123.6355 1527.5118)" class="st24 st25 st31 st32">r</text>
		<text transform="matrix(1.0667 0 0 -1.0667 173.9157 1527.5118)" class="st24 st25 st31 st32">e</text>
		<text transform="matrix(1.0667 0 0 -1.0667 243.9772 1527.5118)" class="st24 st25 st31 st32">e</text>
		<text transform="matrix(1.0667 0 0 -1.0667 314.0386 1527.5118)" class="st24 st25 st31 st32">r</text>
		<text transform="matrix(1.0667 0 0 -1.0667 364.3188 1527.5118)" class="st24 st25 st31 st32"> </text>
		<text transform="matrix(1.0667 0 0 -1.0667 401.4105 1527.5118)" class="st24 st25 st31 st32">l</text>
		<text transform="matrix(1.0667 0 0 -1.0667 438.5032 1527.5118)" class="st24 st25 st31 st32">e</text>
		<text transform="matrix(1.0667 0 0 -1.0667 508.5647 1527.5118)" class="st24 st25 st31 st32">v</text>
		<text transform="matrix(1.0667 0 0 -1.0667 578.6262 1527.5118)" class="st24 st25 st31 st32">e</text>
		<text transform="matrix(1.0667 0 0 -1.0667 648.6876 1527.5118)" class="st24 st25 st31 st32">l</text>
		<text transform="matrix(1.0667 0 0 -1.0667 685.7803 1527.5118)" class="st24 st25 st31 st32">s</text>
	</g>
	<path id="path4969" inkscape:connector-curvature="0" class="st33" d="M658.1,1027.5l0.4-456.4"/>
	<path id="path4971" inkscape:connector-curvature="0" class="st34" d="M288.6,1027.3l0.4-456.2"/>
	<path id="path4977" inkscape:connector-curvature="0" class="st35" d="M-81,1027.9l0.4-456.8"/>
	<path id="path4999" inkscape:connector-curvature="0" sodipodi:nodetypes="cc" class="st36" d="M1397,1053.4l0.3-482"/>
	<path id="path5001" inkscape:connector-curvature="0" sodipodi:nodetypes="cc" class="st37" d="M-449.8,1027.5l-0.1-455.9"/>
	<path id="path6555" inkscape:connector-curvature="0" sodipodi:nodetypes="cc" class="st38" d="M1028,1053.7l0.3-482.5"/>
	<g id="g22" transform="matrix(2.30695,0,0,1.1902302,503.06975,55.453878)">
		<g id="path24_1_" inkscape:connector-curvature="0" sodipodi:nodetypes="ccccccc">
			<path class="st39" d="M-252.8,273.7l19.7,78.6l-19.7,81.1h160l19.8-81l-20.1-78.8C-153.8,273.6-194.6,273.6-252.8,273.7z"/>
		</g>
	</g>
	<g id="path20" inkscape:connector-curvature="0" sodipodi:nodetypes="ccccccc">
		<path class="st0" d="M288.3,380.9l46.3,93.8L289,571.1l369.4-0.1l45.6-97.3L658.4,381C523,381.2,416,381.2,288.3,380.9
			L288.3,380.9z"/>
	</g>
	<g id="path16" inkscape:connector-curvature="0" sodipodi:nodetypes="ccccccc">
		<path class="st39" d="M658.4,571.2l45.5-97.3l-45.5-92.8c136,0.1,231.8,0.1,369.7,0.1l49.3,93.6l-49.2,96.3L658.4,571.2z"/>
	</g>
	<g id="path28-5" inkscape:connector-curvature="0" sodipodi:nodetypes="cccccc">
		<path class="st0" d="M1028.2,571.2l49.2-96.3l-49.3-93.6c133.3,0,236.4,0,369.5,0.3v189.7L1028.2,571.2z"/>
	</g>
</g>
</svg>
