<?xml version="1.0"?>
<svg width="280" height="120" xmlns="http://www.w3.org/2000/svg" xmlns:svg="http://www.w3.org/2000/svg">
 <style type="text/css">.st0{opacity:0.8667;fill:#E83600;enable-background:new    ;}
	.st1{fill:#F5F5F5;}
	.st2{fill:#FBD6B1;}
	.st3{fill:#3B393D;}
	.st4{fill:#4F463B;}
	.st5{fill:#52423B;}
	.st6{fill:#EC6180;}
	.st7{fill:#7A7B7C;}
	.st8{fill:#2F2D2F;}
	.st9{fill:#6A5F50;}
	.st10{fill:#BB4620;}
	.st11{fill:#FBC545;}
	.st12{fill:#FDFCD9;}
	.st13{fill:#A8CCB2;}
	.st14{fill:#91A3A8;}
	.st15{fill:#78919C;}
	.st16{fill:#708A94;}
	.st17{fill:#9CADB2;}
	.st18{fill:#4B6B7D;}
	.st19{fill:#C83523;}
	.st20{fill:#BB3122;}
	.st21{fill:#D5DEDF;}
	.st22{fill:#F8F8F8;}
	.st23{fill:#FBD8B5;}
	.st24{fill:#211C1D;}
	.st25{fill:#6E8A97;}
	.st26{fill:#DFDFDD;}
	.st27{fill:#233B4C;}
	.st28{fill:#AEBCBF;}
	.st29{fill:#F9A72C;}</style>
 <g>
  <title>Layer 1</title>
  <g id="g10" transform="matrix(0.7608375495778574,0,0,-0.6586224297767665,-0.9838583378568303,996.8930414153488) ">
   <g id="g9453">
    <g id="svg_1">
     <g id="g58_1_" transform="matrix(-2.3087714,0.00085504563,-0.00081501452,-2.4825087,2349.1847,862.80719) "/>
     <g id="g8966_1_" transform="matrix(1,0,0,0.99999656,0,23.204272) ">
      <g id="g5828_1_" transform="matrix(0.82041123,0,0,0.82041123,347.46807,230.20071) ">
       <g id="g8156_1_" transform="matrix(-0.16675949,0,0,0.16675949,2345.6884,1055.6389) ">
        <path id="path94_1_" class="st1" d="m16014.120441,2511.559039l-4.7,1.7l-3,-24.5l4.9,-0.2l2.8,23"/>
        <g id="g8120_1_">
         <path id="path32-9_1_" class="st2" d="m15920.949255,2536.964971c0,0 -20.7,6.5 -12.8,20.5c7.9,14.1 21.6,-2.9 21.6,-2.9l-8.8,-17.6"/>
         <g id="g8086_1_">
          <g id="g7927_1_">
           <path id="path24-3_1_" class="st2" d="m16062.943902,2472.122183l-21.3,-56.9l-4.4,-63.3c0,0 -22.9,-16.9 -29.6,-8c-7.6,10.2 17.4,15.8 17.4,15.8l0.5,59.4l13.3,58.2l24.1,-5.2"/>
           <path id="path26_1_" class="st2" d="m16100.843902,2458.222183l-20.6,-57.2l-3.4,-60.6c0,0 -22.8,-17.2 -29.5,-8.3c-7.7,10.1 17.2,16 17.2,16l-0.5,56.6l12.6,58.3l24.2,-4.8"/>
           <path id="path28-2_1_" class="st3" d="m16037.243902,2351.822183l-3,-18.1l-3.2,0.5l-0.3,8.9c0,0 -8.2,-8.2 -23.1,-5.8c-23.5,3.9 3.3,20.2 17.5,22.2c0,0 -18,-4 -13.1,-10.4c7.5,-9.8 25.2,2.7 25.2,2.7"/>
           <path id="path30_1_" class="st3" d="m16076.943902,2340.422183l-2.8,-18.1l-3.2,0.5l-0.4,8.9c0,0 -8.1,-8.3 -23.1,-6c-23.5,3.6 3.1,20.2 17.2,22.4c0,0 -18,-4.2 -13,-10.5c7.7,-9.9 25.3,2.8 25.3,2.8"/>
           <path id="path36-2_1_" class="st3" d="m16050.743902,2588.622183c0,0 -17.9,-107.3 -127.6,-54.7l9.6,23.2c0,0 68.7,-47.1 95.2,26.3l22.8,5.2"/>
           <path id="path42_1_" class="st4" d="m15912.843902,2568.322183l15.6,-3.9l-13,-34.4l217.1,-21.7l1.2,-3.3l-230.1,15.9l9.2,47.4"/>
           <path id="path44-3_1_" class="st2" d="m16003.043902,2675.522183c2.2,-40.9 32.2,-72.5 69,-70.5s66.4,36.8 64.2,77.7c-2.2,40.9 -33.8,72.4 -70.6,70.4c-63.8,-3.5 -64.8,-36.8 -62.6,-77.6"/>
           <path id="path46_1_" class="st5" d="m16103.943902,2718.522183c0,0 -52.9,-16.1 -103.3,-9c2.8,44.1 40,76.9 99.4,60c70.6,-20.1 39.8,-113.5 24.5,-136.1c-11.4,19.4 -16.1,42.2 -16.1,42.2s13.6,-5.7 11.7,9.5c-1.3,10.4 -13.7,3 -13.7,3l-2.5,30.4"/>
           <path id="path48-4_1_" class="st5" d="m16106.643902,2724.022183c0,0 32.9,47.9 69.8,24.7c48.8,-30.7 -19,-94.7 44.6,-109.5c-34.8,-29 -78.4,-0.1 -63.7,41c21.4,59.6 -32.3,56 -50.7,43.8"/>
           <path id="path50_1_" class="st5" d="m16015.743902,2676.322183c0.3,-6.1 2.6,-9.3 5.2,-9.1s4.5,3.6 4.1,9.6c-0.3,6.1 -2.6,9.3 -5.2,9.1c-2.5,-0.1 -4.4,-3.6 -4.1,-9.6"/>
           <path id="path52-4_1_" class="st5" d="m16074.143902,2679.422183c0.3,-6.1 2.6,-9.3 5.2,-9.1c2.6,0.1 4.5,3.6 4.1,9.6c-0.3,6.1 -2.6,9.3 -5.2,9.1c-2.5,-0.1 -4.4,-3.5 -4.1,-9.6"/>
           <path id="path54_1_" class="st6" d="m16071.243902,2645.522183c0.5,-9.2 -6.5,-17 -15.7,-17.5s-17,6.5 -17.5,15.7l33.2,1.8"/>
           <path id="path56-2_1_" class="st2" d="m16063.243902,2617.722183l-1.5,-25.7l11.9,-31.9l15.7,30.3l1.5,25.7l-27.6,1.6"/>
           <path id="path58_1_" class="st3" d="m16061.743902,2592.022183l-33.7,-8.6l1.5,-73l-13.9,-35.6l102,-6.1l-8.2,36.9l16.7,71.4l-36.9,13.3l-15.7,-30.3l-11.8,32"/>
           <path id="path60-3_1_" class="st1" d="m16089.243902,2590.322183l5.9,-2.1l-22.4,-41.2l-17.4,43.4l6.2,1.6l11.9,-31.9l15.8,30.2"/>
           <path id="path62-7_1_" class="st1" d="m16061.743902,2592.022183l-6.2,-1.6l-3.8,-22.5l8.8,3.6l9.7,-2.2l-8.5,22.7"/>
           <path id="path64-3_1_" class="st1" d="m16089.243902,2590.322183l6.5,-2.2l0.5,-22.9l-8.3,4.6l-9.9,-1l11.2,21.5"/>
           <path id="path66-6_1_" class="st7" d="m16076.243902,2536.622183c-0.1,-2.2 -2,-3.9 -4.3,-3.8c-2.2,0.1 -3.9,2 -3.8,4.2c0.1,2.2 2,3.9 4.2,3.8s4,-2 3.9,-4.2"/>
           <path id="path72_1_" class="st3" d="m16114.143902,2441.522183l-98,11.3l4.8,21.7l91.5,-5.5l1.7,-27.5"/>
           <path id="path76_1_" class="st8" d="m16018.643902,2463.822183l2.3,10.6l91.5,-5.5l0.2,-3.7l-94,-1.4"/>
           <path id="path80_1_" class="st4" d="m16172.043902,2490.922183l-32.4,1.8l-1.9,-5.3l36.1,0.5l-1.8,3"/>
           <path id="path82_1_" class="st1" d="m16136.143902,2580.022183l-5.7,-87.2c0,0 51.7,-4.1 52.3,-1.4c0.5,2.7 -4.5,90.2 -4.5,90.2l-42.1,-1.6"/>
           <path id="path84_1_" class="st9" d="m15987.943902,2518.722183l16.1,0.2l-4.4,-36.6l137.4,18.5l2,-2.9l-147.9,-27.4l-3.2,48.2"/>
           <path id="path86_1_" class="st10" d="m16180.743902,2426.922183c-0.7,-26.8 -21.4,-46.7 -27.2,-46.6c-5.8,0.2 -25.4,21.1 -24.7,48c0.7,26.8 12.9,48.3 27.3,47.9c14.3,-0.4 25.3,-22.5 24.6,-49.3"/>
           <path id="path88-8_1_" class="st11" d="m16172.043902,2435.122183c-0.6,-20.8 -14.3,-37.8 -18.1,-37.7s-16.6,17.9 -16.1,38.6c0.6,20.8 8.7,37.4 18.1,37.2c9.5,-0.3 16.7,-17.3 16.1,-38.1"/>
           <path id="path90_1_" class="st12" d="m16165.943902,2451.822183c-0.3,-9.8 -8.7,-19.2 -11,-19.1c-2.3,0.1 -10.2,9.8 -10,19.7c0.3,9.8 5.2,17.7 11,17.5c5.8,-0.2 10.2,-8.3 10,-18.1"/>
           <path id="path92_1_" class="st2" d="m16006.643902,2489.522183c0,0 -24.3,0.5 -20.3,18.1c4.1,17.6 24.2,3.7 24.2,3.7l-3.9,-21.8"/>
           <path id="path96_1_" class="st3" d="m16126.243902,2577.022183c0,0 13.8,-112.1 -116.8,-91.3l3.1,28c0,0 89.5,-28.3 95,59.3l18.7,4"/>
           <path id="path98_1_" class="st7" d="m16022.743902,2487.822183c-1.4,0.4 -2.2,1.8 -1.8,3.2s1.8,2.2 3.2,1.8s2.2,-1.8 1.8,-3.2s-1.8,-2.2 -3.2,-1.8"/>
           <path id="path100_1_" class="st7" d="m16014.043902,2488.722183c-1.4,0.4 -2.2,1.8 -1.8,3.2s1.8,2.2 3.2,1.8s2.2,-1.8 1.8,-3.2c-0.4,-1.4 -1.8,-2.2 -3.2,-1.8"/>
           <path id="path106_1_" class="st1" d="m16159.343902,2349.722183c-0.8,0.8 -1.8,1.6 -2.8,2.1c-5.6,3 -12.5,0.9 -15.5,-4.7c-1.7,-3.1 -1.7,-6.7 -0.5,-9.7c-1.7,-0.7 -3.1,-2 -4.1,-3.8c-2.2,-4.1 -0.6,-9.2 3.5,-11.4c1.4,-0.7 2.9,-1 4.4,-1c0.3,-2.7 1.8,-5.2 4.4,-6.5c4.1,-2.2 9.2,-0.6 11.4,3.5c0.2,0.3 0.3,0.6 0.4,0.9c4.5,-1.2 9.4,0.8 11.7,5.1c1.8,3.3 1.5,7.1 -0.3,10.1c0.3,0.4 0.5,0.8 0.8,1.2c2.7,5 0.8,11.2 -4.2,13.9c-3,1.6 -6.3,1.6 -9.2,0.3"/>
          </g>
         </g>
        </g>
       </g>
      </g>
      <path id="path16-04_1_" class="st13" d="m53.378489,1454.509079c-0.1,1.3 -1.2,2.4 -2.5,2.4c-0.3,0 -0.6,-0.1 -0.8,-0.1c-0.5,1.2 -1.7,2.1 -3.2,2.1c-0.2,0 -0.3,0 -0.5,0l0,0c0,2.7 -2.1,4.8 -4.8,4.8s-4.8,-2.1 -4.8,-4.8c-1.9,0 -3.4,-1.5 -3.4,-3.4c0,-0.3 0,-0.7 0.1,-1l19.9,0"/>
      <path id="path18-7_1_" class="st13" d="m14.578489,1441.909079c3.1,0 5.6,-2.2 6.2,-5.1c0.7,0.7 1.7,1.2 2.8,1.2c2.1,0 3.8,-1.6 3.9,-3.7l-19.3,0c-0.1,0.4 -0.1,0.8 -0.1,1.2c0.1,3.5 2.9,6.4 6.5,6.4"/>
      <path id="path20-0_1_" class="st13" d="m32.778489,1413.609079c2.6,0 4.7,-1.8 5.2,-4.3c0.6,0.6 1.4,1 2.4,1c1.8,0 3.2,-1.4 3.3,-3.1l-16.2,0c-0.1,0.3 -0.1,0.7 -0.1,1c0.1,3 2.5,5.4 5.4,5.4"/>
      <path id="path22-0_1_" class="st13" d="m17.878489,1476.509079c2.6,0 4.7,-1.8 5.2,-4.3c0.6,0.6 1.4,1 2.4,1c1.8,0 3.2,-1.4 3.3,-3.1l-16.2,0c-0.1,0.3 -0.1,0.7 -0.1,1c0.1,3.1 2.5,5.4 5.4,5.4"/>
      <path id="path24-2_1_" class="st13" d="m107.078489,1483.709079c2.6,0 4.7,-1.8 5.2,-4.3c0.6,0.6 1.4,1 2.4,1c1.8,0 3.2,-1.4 3.3,-3.1l-16.2,0c-0.1,0.3 -0.1,0.7 -0.1,1c0.1,3 2.4,5.4 5.4,5.4"/>
      <path id="path98-97_1_" class="st13" d="m27.178489,1381.609079c-0.1,1.3 -1.2,2.4 -2.5,2.4c-0.3,0 -0.6,-0.1 -0.8,-0.1c-0.5,1.2 -1.7,2.1 -3.2,2.1c-0.2,0 -0.3,0 -0.5,0l0,0c0,2.7 -2.1,4.8 -4.8,4.8s-4.8,-2.1 -4.8,-4.8c-1.9,0 -3.4,-1.5 -3.4,-3.4c0,-0.3 0,-0.7 0.1,-1l19.9,0"/>
     </g>
     <g id="g6009_1_" transform="matrix(0.99048065,0,0,0.99047583,11.492238,-23.027827) ">
      <path id="path156_1_" class="st14" d="m282.909541,1410.526867c-2.6,0 -4.8,0.8 -4.8,1.8s2.1,1.8 4.8,1.8c2.6,0 4.8,-0.8 4.8,-1.8c-0.1,-1 -2.2,-1.8 -4.8,-1.8"/>
      <g id="g5537_1_" transform="matrix(0.52095683,0,0,0.52095683,1103.0078,485.93562) ">
       <g id="g5479_1_">
        <path id="path42-9_1_" class="st15" d="m-1554.720776,1899.406752c0,-1.3 1,-2.3 2.3,-2.3s2.3,1 2.3,2.3s-1,2.3 -2.3,2.3c-1.3,0 -2.3,-1 -2.3,-2.3"/>
        <path id="path44-93_1_" class="st15" d="m-1585.420776,1937.706752c0,-1.3 1,-2.3 2.3,-2.3s2.3,1 2.3,2.3s-1,2.3 -2.3,2.3s-2.3,-1.1 -2.3,-2.3"/>
        <path id="path50-61_1_" class="st15" d="m-1437.720776,1860.006752c0,-0.6 0.5,-1.1 1.1,-1.1s1.1,0.5 1.1,1.1s-0.5,1.1 -1.1,1.1s-1.1,-0.5 -1.1,-1.1"/>
        <path id="path52-1_1_" class="st15" d="m-1597.520776,1814.306752c0,-0.6 0.5,-1.1 1.1,-1.1s1.1,0.5 1.1,1.1s-0.5,1.1 -1.1,1.1s-1.1,-0.5 -1.1,-1.1"/>
        <path id="path58-0_1_" class="st15" d="m-1670.420776,1731.606752c0,-3 6.3,-5.4 14.2,-5.4c7.8,0 14.2,2.4 14.2,5.4s-6.3,5.4 -14.2,5.4c-7.8,0 -14.2,-2.4 -14.2,-5.4"/>
        <path id="path60-96_1_" class="st15" d="m-1601.220776,1742.406752c0,-1.6 3.3,-2.8 7.4,-2.8s7.4,1.3 7.4,2.8s-3.3,2.8 -7.4,2.8c-4.1,0 -7.4,-1.3 -7.4,-2.8"/>
        <path id="path66-122_1_" class="st15" d="m-1615.120776,1712.406752c0,-4.5 9.6,-8.1 21.4,-8.1s21.4,3.6 21.4,8.1s-9.6,8.1 -21.4,8.1s-21.4,-3.6 -21.4,-8.1"/>
        <path id="path68-34_1_" class="st15" d="m-1631.620776,1768.106752c0,-4.2 8.9,-7.6 19.9,-7.6s19.9,3.4 19.9,7.6s-8.9,7.6 -19.9,7.6s-19.9,-3.4 -19.9,-7.6"/>
        <path id="path72-1_1_" class="st16" d="m-1656.220776,1726.206752c7.8,0 14.2,2.4 14.2,5.4s-6.3,5.4 -14.2,5.4c-7.8,0 -14.2,-2.4 -14.2,-5.4s6.4,-5.4 14.2,-5.4"/>
        <path id="path74-3_1_" class="st16" d="m-1593.820776,1739.606752c4.1,0 7.4,1.3 7.4,2.8s-3.3,2.8 -7.4,2.8s-7.4,-1.3 -7.4,-2.8s3.3,-2.8 7.4,-2.8"/>
        <path id="path80-9_1_" class="st16" d="m-1611.720776,1760.506752c11,0 19.9,3.4 19.9,7.6s-8.9,7.6 -19.9,7.6s-19.9,-3.4 -19.9,-7.6s8.9,-7.6 19.9,-7.6"/>
        <path id="path88-3_1_" class="st17" d="m-1504.120776,1767.506752c18.8,0 34,3.7 34,8.2c0,4.6 -15.2,8.2 -34,8.2s-34,-3.7 -34,-8.2s15.2,-8.2 34,-8.2"/>
        <path id="path90-16_1_" class="st18" d="m-1534.420776,1871.906752c0.4,-22.5 18.9,-40.4 41.4,-40.1c22.5,0.4 40.4,18.9 40.1,41.4c-0.4,22.5 -18.9,40.4 -41.4,40.1c-22.5,-0.4 -40.5,-18.9 -40.1,-41.4"/>
        <path id="path92-45_1_" class="st19" d="m-1455.520776,1852.706752l-2.3,1.6c0,0 -4.2,-2 -5,-6.9l2.2,-1.7c0,0 0.9,5.5 5.1,7"/>
        <path id="path94-10_1_" class="st20" d="m-1460.620776,1845.706752c0,0 4.5,1.8 5.1,7c0,0 -5.2,-1.5 -5.1,-7"/>
        <path id="path96-1_1_" class="st21" d="m-1474.620776,1825.406752c3.4,-1.7 7.3,-2 10.8,-0.8c3.7,1.3 6.7,4.1 8.3,7.7c3.3,7.4 -2.3,13.5 -4.1,15.2c0.7,1.5 1.8,2.6 2.8,3.3c3.8,-3.4 9.2,-11.4 5.2,-20.3c-2.1,-4.7 -6,-8.3 -10.8,-10c-1.8,-0.6 -3.7,-1 -5.6,-1c-2.9,0 -5.8,0.6 -8.6,2l2,3.9"/>
        <path id="path98-06_1_" class="st22" d="m-1523.220776,1836.706752l0.9,5.7c0,0 -2.4,0.1 -6.7,0.7l-0.8,-5.5c2.2,-0.3 4.4,-0.6 6.6,-0.9"/>
        <path id="path100-06_1_" class="st23" d="m-1575.420776,1852.906752c0.1,0.7 1.4,0.5 1.4,0.5c17.4,-4.7 37.7,-9.4 45,-10.3l-0.8,-5.5c-24.4,3.2 -42.3,8.2 -44.7,8.7c0,0 -1,0.2 -1,0.8c0,0.8 0.7,0.7 1.1,0.7c-0.5,0.1 -1.6,0.6 -1.4,1.2c0.2,0.9 1.1,0.7 1.5,0.7l0,0c-0.4,0 -1.4,0.2 -1.3,1c0.1,0.7 1.1,0.8 1.5,0.7c-0.4,0.1 -1.5,0.1 -1.3,1.5"/>
        <path id="path102-3_1_" class="st23" d="m-1523.620776,1841.306752c0,0 3.4,59.8 45.8,38.6c0,0 7.8,-14.9 6.1,-43.2c-35.3,-4.7 -51.9,4.6 -51.9,4.6"/>
        <path id="path104-9_1_" class="st24" d="m-1511.620776,1862.906752c-0.5,-1.6 -1.6,-2.8 -2.6,-2.5s-1.3,1.8 -0.9,3.5c0.5,1.6 1.6,2.8 2.6,2.5c0.9,-0.3 1.3,-1.8 0.9,-3.5"/>
        <path id="path106-91_1_" class="st24" d="m-1490.720776,1857.006752c-0.5,-1.6 -1.6,-2.8 -2.6,-2.5s-1.3,1.8 -0.9,3.5c0.5,1.6 1.6,2.8 2.6,2.5c0.9,-0.3 1.3,-1.9 0.9,-3.5"/>
        <path id="path108-2_1_" class="st24" d="m-1506.420776,1908.006752c0,0 -32.7,-35.1 29.2,-42.1l-1.5,-9.6c0,0 5.8,2.5 5.6,-2.7c-0.3,-5.3 -5.6,-1.1 -5.6,-1.1s1.2,-12 7.3,-15.8c-0.2,-0.4 22.2,39.5 3.9,37c0,0 3.7,13.1 -8.4,20c-13,7.4 -29.7,-8.3 -30.5,14.3"/>
        <path id="path110-0_1_" class="st25" d="m-1465.020776,1890.206752l3.3,2c-2.9,4.6 -6.8,8.6 -11.3,11.6l-2.1,-3.2c4,-2.6 7.5,-6.2 10.1,-10.4zm3,-6.2l3.6,1.3c-0.6,1.6 -1.2,3.1 -2,4.6l-3.4,-1.8c0.7,-1.3 1.3,-2.7 1.8,-4.1"/>
        <path id="path112-5_1_" class="st19" d="m-1471.620776,1836.706752c0,0 -30.5,-5 -52,4.6c0,0 -1.6,0.8 -1.2,2.1c0.3,1.1 1.5,1.2 1.5,1.2s18.2,-8.4 53,-5.5c0,0 0.6,-0.3 0.3,-1.4c-0.3,-0.9 -1.6,-1 -1.6,-1"/>
        <path id="path114-8_1_" class="st23" d="m-1462.820776,1868.706752l0,0l0,0"/>
        <path id="path116-5_1_" class="st23" d="m-1463.220776,1867.106752c0,0 0.1,0 0,0c0.1,0 0,0 0,0"/>
        <path id="path118-8_1_" class="st6" d="m-1512.520776,1853.606752c0,0 9.6,-1.1 15.2,-3.8c0,0 -0.6,-7.9 -9.5,-5.9c-8.9,1.9 -5.7,9.7 -5.7,9.7"/>
        <path id="path120-9_1_" class="st24" d="m-1478.020776,1804.806752l-1.5,-12.9l2,-17c0,0 -17.9,-6.7 -14,1c3.7,7.1 10.9,2.2 10.9,2.2l-3.8,12.9l-0.1,10.2c0,0 -19.1,-1.5 -35.3,2.9l-0.7,-8.4l3.1,-16.4c0,0 -17.2,-6.7 -12.9,1.5c2.4,4.5 9,2.1 9,2.1l-3.5,12.3l-0.4,13.8l47.2,-4.2"/>
        <path id="path122-8_1_" class="st22" d="m-1523.620776,1841.306752l-1.5,-32.4c0,0 19.4,-5.4 47.2,-4.1l6.4,32c-0.1,-0.1 -32.2,-3.5 -52.1,4.5"/>
        <path id="path124-3_1_" class="st26" d="m-1509.620776,1808.406752l4.6,4.2l-4.6,18.6l1.7,2.1l-0.7,1.5l-3.8,0.7l-1.1,-1.7l1.2,-2.2l-2.3,-18.8l5,-4.4"/>
        <path id="path126-9_1_" class="st24" d="m-1512.320776,1835.606752l-1.1,-1.7l1.2,-2.2l-3.4,-18.4l4.9,-4.5l4.6,4.2l-3.5,18.2l1.7,2.1l-0.7,1.5l-3.7,0.8"/>
        <path id="path128-8_1_" class="st23" d="m-1472.820776,1830.806752c8.4,-15.1 -0.1,-19.1 -13,-28.5c0,0 -1.1,-1 -0.6,-1.5c0.7,-0.6 1.5,0.1 1.8,0.5c-0.3,-0.3 -0.9,-1.1 -0.3,-1.6s1.3,0.2 1.6,0.5l0,0c-0.2,-0.3 -0.8,-1.3 -0.2,-1.9c0.5,-0.4 1,-0.1 1.3,0.3c0,0.1 0.1,0.1 0.1,0.1l-0.1,-0.1c-0.3,-0.4 -0.5,-0.9 -0.1,-1.3s1.6,0.6 1.6,0.6c1.9,1.8 29.6,15.6 9.1,38.9l-1.2,-6"/>
        <path id="path130-1_1_" class="st22" d="m-1472.820776,1830.806752l1.2,5.9c1.9,-2.2 3.4,-4.3 4.5,-6.3l-4.3,-2.3c-0.4,0.9 -0.9,1.8 -1.4,2.7"/>
        <path id="path132-5_1_" class="st27" d="m-1456.720776,1844.206752l0,0c-0.3,0.5 -0.7,1 -1,1.4l0,0c0.3,-0.4 0.7,-0.9 1,-1.4"/>
        <path id="path134-0_1_" class="st28" d="m-1456.720776,1844.206752l3.5,2.5c-0.4,0.6 -0.8,1.1 -1.1,1.6l-3.4,-2.6c0.3,-0.5 0.7,-1 1,-1.5"/>
        <path id="path136-2_1_" class="st27" d="m-1454.620776,1839.006752l0,0c-0.1,0.6 -0.3,1.2 -0.5,1.7l0,0c0.3,-0.5 0.4,-1.1 0.5,-1.7"/>
        <path id="path138-2_1_" class="st28" d="m-1454.620776,1839.006752l4.3,0.4c-0.1,0.7 -0.3,1.4 -0.5,2.1l-4.2,-0.7c0.2,-0.6 0.3,-1.2 0.4,-1.8"/>
        <path id="path140-9_1_" class="st27" d="m-1455.020776,1833.506752c0.2,0.5 0.3,1.1 0.4,1.6l0,0c-0.1,-0.5 -0.2,-1.1 -0.4,-1.6l0,0"/>
        <path id="path142-7_1_" class="st28" d="m-1450.820776,1832.406752c0.2,0.7 0.4,1.4 0.5,2.1l-4.3,0.6c-0.1,-0.5 -0.2,-1.1 -0.4,-1.6l4.2,-1.1"/>
        <path id="path144-2_1_" class="st27" d="m-1458.420776,1827.906752c0.5,0.5 0.9,0.9 1.3,1.5l0,0c-0.5,-0.5 -0.9,-1 -1.3,-1.5l0,0"/>
        <path id="path146-9_1_" class="st28" d="m-1454.520776,1825.906752c0.4,0.4 0.7,0.8 1,1.3l-3.7,2.2c-0.4,-0.5 -0.8,-1 -1.3,-1.5l4,-2"/>
        <path id="path148-2_1_" class="st27" d="m-1462.220776,1825.306752c0.4,0.2 0.9,0.5 1.3,0.7l0,0c-0.4,-0.3 -0.8,-0.5 -1.3,-0.7l0,0"/>
        <path id="path150_1_" class="st28" d="m-1460.620776,1821.206752c0.5,0.2 0.9,0.5 1.4,0.7l-1.6,4c-0.4,-0.3 -0.9,-0.5 -1.3,-0.7l1.5,-4"/>
        <path id="path152_1_" class="st27" d="m-1471.120776,1824.106752l0,0c-0.4,0.1 -0.8,0.2 -1.2,0.3l0,0c0.4,-0.1 0.8,-0.2 1.2,-0.3"/>
        <path id="path154_1_" class="st28" d="m-1471.220776,1819.806752l0.2,4.3c-0.4,0.1 -0.8,0.2 -1.2,0.3l-0.4,-4.4c0.4,-0.1 0.9,-0.2 1.4,-0.2"/>
        <path id="path158_1_" class="st24" d="m-1574.320776,1777.906752c1.4,0 2.5,1.1 2.5,2.5l0,122.5c0,1.4 -1.1,2.5 -2.5,2.5s-2.5,-1.1 -2.5,-2.5l0,-122.5c0.1,-1.4 1.2,-2.5 2.5,-2.5"/>
        <path id="path160_1_" class="st23" d="m-1578.820776,1852.306752c0,-0.7 1.1,-1.2 2.5,-1.2s2.6,0.5 2.6,1.1c0,0.7 -1.1,1.2 -2.5,1.2c-1.4,0.1 -2.6,-0.4 -2.6,-1.1"/>
        <path id="path162_1_" class="st23" d="m-1578.820776,1850.606752c0,-0.7 1.1,-1.2 2.5,-1.2s2.6,0.5 2.6,1.1c0,0.7 -1.1,1.2 -2.5,1.2c-1.4,0.1 -2.6,-0.4 -2.6,-1.1"/>
        <path id="path164_1_" class="st23" d="m-1578.620776,1848.906752c0,-0.7 1.1,-1.2 2.5,-1.2s2.6,0.5 2.6,1.1c0,0.7 -1.1,1.2 -2.5,1.2c-1.4,0.1 -2.6,-0.5 -2.6,-1.1"/>
        <path id="path166_1_" class="st23" d="m-1578.420776,1847.206752c0,-0.7 1.1,-1.2 2.6,-1.2c1.4,0 2.6,0.5 2.6,1.1c0,0.7 -1.1,1.2 -2.5,1.2c-1.5,0 -2.7,-0.5 -2.7,-1.1"/>
        <path id="path168_1_" class="st23" d="m-1569.120776,1851.906752c0,0 -0.7,4.9 -5.7,4.3c0,0 -1.5,0 -1.4,-1c0.2,-1.7 3.9,-0.6 4.4,-2.5l2.7,-0.8"/>
        <path id="path170_1_" class="st19" d="m-1635.720776,1859.206752c20.5,-7.6 40.9,7.6 61.4,0c0,14.1 0,28.2 0,42.3c-20.5,7.6 -40.9,-7.6 -61.4,0c0,-14 0,-28.2 0,-42.3"/>
       </g>
       <g id="g5533_1_" transform="matrix(-1,0,0,1,4384.7638,0) ">
        <path id="path172_1_" class="st29" d="m5994.720776,1879.706752l2,0l0.4,-2l-2,0l-0.4,2zm-3.9,0l0.4,-2l-2.7,0l0.7,-3.9l2.7,0l0.5,-3l3.9,0l-0.5,3l2,0l0.5,-3l3.9,0l-0.5,3l3.3,0l-0.7,3.9l-3.3,0l-0.4,2l3.3,0l-0.7,3.9l-3.3,0l-0.5,3l-3.9,0l0.5,-3l-2,0l-0.5,3l-3.9,0l0.5,-3l-2.7,0l0.7,-3.9l2.7,0"/>
        <path id="path174_1_" class="st29" d="m5985.820776,1886.906752c-1.7,0.8 -3,1.3 -5.1,3.8l-5.2,0l0,-16.5l-2.7,0l0,-3.9l11.7,0l0,3.9l-2.9,0l0,10.8l2.9,-1.4l1.3,3.3"/>
       </g>
      </g>
     </g>
    </g>
   </g>
  </g>
 </g>
</svg>