<?xml version="1.0"?>
<svg width="280" height="120" xmlns="http://www.w3.org/2000/svg" xmlns:svg="http://www.w3.org/2000/svg">
 <style type="text/css">.st0{opacity:0.8667;fill:#E83600;enable-background:new    ;}
	.st1{fill:#734D38;}
	.st2{fill:#56392B;}
	.st3{fill:#F5F5F5;}
	.st4{fill:#37261E;}
	.st5{fill:#FADAAC;}
	.st6{fill:#3A1E16;}
	.st7{fill:#D3942E;}
	.st8{fill:#D7E8DA;}
	.st9{fill:#F8F8F8;}
	.st10{fill:#9BBFA6;}
	.st11{fill:#EEEDED;}
	.st12{fill:#2E2D2D;}
	.st13{fill:#FBD8B5;}
	.st14{fill:#FBD6B1;}
	.st15{fill:#7A7B7C;}
	.st16{fill:#4C3F3A;}
	.st17{fill:#98BDA4;}
	.st18{fill:#90B49E;}
	.st19{fill:#2A2928;}
	.st20{fill:#52423B;}
	.st21{fill:#EC6180;}</style>
 <g>
  <title>Layer 1</title>
  <g id="g10" transform="matrix(0.773176909890733,0,0,-0.4819856978256354,-1.7980286460273378,799.5457961668668) ">
   <g id="g50" transform="matrix(-2.3107707,0.0007915626,-0.00080716634,-2.2740946,1426.0534,1316.711) "/>
   <g id="g4202" transform="matrix(0.11997945,0,0,-0.11997937,931.11721,1358.4663) ">
    <path id="path16-03" class="st1" d="m-7199.561872,-2051.489869l2.4,240.8l-314.2,7.6l-1.3,-241.7l313.1,-6.7zm4.9,479l-315.5,-2.7l-1,-181.2l314.4,-12.2l2.1,196.1zm-362,157.6l47.4,0l-0.5,-106.4l315.6,-9.5l1.2,115.9l51.5,0l-11.8,-904.7c0.5,-17.2 0.5,-34.4 0.1,-51.6c3.1,-1.2 4.2,-2.3 -0.1,-3c-0.7,-33.8 -2.6,-67.7 -3.9,-101.4c-1.2,-4.1 -3.3,-1.8 -5.5,-1.9c0.1,7.5 1.2,13.9 -1,19.1c0,1.7 -4.4,-1.7 -6.5,0c0,1.7 0,5.1 0,6.8c-3.3,1.7 -6.5,-1.7 -9.8,0s-1.1,8.5 -3.3,10.2c-2.2,5.1 -3.3,-3.4 -3.3,-8.5c-2.2,1.7 0,-3.4 -2.2,-3.4c-4.4,0 -8.7,0 -12,6.8c-1.1,1.7 -4.4,0 -6.5,0c0,20.4 -0.1,42.4 4.2,62.8c0.5,2.7 0.8,5.4 1,8.3c-39.6,-0.5 -79.4,-0.3 -119.2,0.1c-28,0.6 -53.9,0.2 -83.5,1.9c-28.4,1.9 -55.9,5.8 -77.7,4.8c-4,0.6 -2.9,2.1 -2.8,3.9c7.9,1 21.9,-0.5 30.3,0.9c3,-0.2 -2.8,3.4 0.3,4.9c3,-0.2 9.1,-0.5 12.1,-0.6c3.3,2.3 -2.6,5 0.7,7.3c3.4,2.2 15.5,-0.4 18.7,1c9.4,0.9 -5.9,2.9 -15,3.7c3.5,1.4 -6.4,0.5 -6.2,2c-0.3,3.2 1.4,6.6 13.6,8c3.1,0.6 0.4,3.3 0.6,4.9c18.8,-1.6 35,-2.6 54.8,-2.8c19.3,-0.4 38.7,-1.2 57.2,-2.8c31,-2.4 68.4,1.2 99,-1.4c4.7,-0.4 11.1,0.3 17,0.5c0.2,3.4 0.6,6.7 1.2,9.8c0.6,2.9 -0.6,7 -0.7,10.5l-0.1,0l1.6,218.2l-312.7,22.7c0,0 -2.5,-118.9 -2.7,-120.6c0,0 -0.7,-0.9 -1,-3.8c-0.1,-1 -0.7,-0.9 -1.3,-0.9c0.6,0 0.6,0 1.2,-0.1c-1.3,-0.9 -0.3,-2.9 -1,-3.8c0.6,0 0.6,0 1.2,-0.1c-1.4,-1.8 -0.4,-3.9 -1.2,-5.8c0.6,0 0.6,0 1.2,-0.1c-0.1,-1 -0.2,-1.9 0.4,-2c0.6,0 0.6,0 1.2,-0.1c0.5,-1 -0.9,-2.9 0.3,-2.9c-0.6,0 -0.6,0 -1.2,0.1c-0.4,-3.9 -0.1,-6.8 0.2,-9.8c1.6,-7.9 -0.7,-17.5 -2.8,-26c-0.1,-1 -1.4,-1.8 -2.5,-0.8l-0.3,-2.9c-0.2,-1.9 -1.9,-0.8 -2.1,-2.7c-2.3,-7.6 -3.1,-15.3 -3.8,-23l-0.9,-11.4l-0.6,-5.6c-0.1,-0.9 -0.2,-1.8 -0.4,-2.6c-0.1,-0.4 -0.1,-0.8 -0.2,-1c0,-0.1 -0.1,-0.3 -0.1,-0.3c0,0.7 -0.1,1.4 -0.4,2.1c0.3,-1.8 0.1,-2.7 0,-1.9c-0.1,0.2 -0.2,0.5 -0.2,0.9l-0.4,2.3c-0.2,1.6 -0.2,3.3 0.3,5.1c-0.6,0 -1.8,0.1 -1.7,1.1c-0.1,5.7 1.8,12.4 -0.3,15.4c-0.5,1 -2.2,2.1 -1.9,5l-0.3,-2.9c-0.6,0 -1.8,0.1 -1.8,0.1c-0.2,3.9 -0.3,8.8 -0.5,12.7c0,0 -1.2,0.1 -1.8,0.1l0.2,1.9c-4,2.2 -4.5,-8.4 -5.6,-13.2c-0.6,0 -1.8,0.1 -2.4,0.2l0.2,1.9l-1.2,0.1c-0.6,-5.8 -1.1,-10.6 -1.6,-16.4c0.1,1 0.3,2.9 0.4,3.9c-0.6,0 -1.2,0.1 -1.1,1c-0.4,-3.9 -0.2,-8.7 -1.8,-12.5c-0.7,-0.9 -2.4,0.1 -2.8,3.1c0.3,2.9 0.4,4.9 0.7,7.8l-1.2,0.1c-0.2,-1.9 0.1,-4.9 -0.6,-6.8c-0.7,-0.9 -1.6,2.1 -2.3,1.1c-0.1,-1 -0.2,-2 -0.9,-2.9c0.3,2.9 1.2,6.8 0.9,9.7c-0.5,1 -1,2 -2.2,2.1c1.1,4.8 -0.3,8.8 -3,11.9c-0.8,0.8 -0.4,3.7 0,6.3c-1.2,16.5 1.8,33.6 -0.7,49.2c-0.5,1 -0.9,4.5 -1.4,5.5c-0.7,5.9 0,9.5 0.6,17.4l7.4,777.8"/>
    <path id="path18-22" class="st2" d="m-7466.561872,-1566.989869c-8.9,10.8 -11.7,23.8 -0.1,23.8s22.2,-15.8 27.6,-31.5l-21.6,-0.2c-1.4,2.2 -3.3,4.8 -5.9,7.9"/>
    <path id="path20-99" class="st2" d="m-7247.161872,-1571.189869c-10.9,8.8 -16.3,21 -5,23.3c11.2,2.3 24.7,-10.8 33.2,-24.9l-26.1,-0.2c-0.6,0.6 -1.3,1.2 -2.1,1.8"/>
    <path id="path22-5" class="st3" d="m-7640.861872,-1600.089869c-44.6,4.3 -59.9,11.1 -59.9,11.1l7.5,112.2l118.8,-7.5l-4.7,-116c0,0.2 -17.1,-4 -61.7,0.2"/>
    <path id="path24-38" class="st4" d="m-7702.661872,-1584.489869c0,0 -4.1,-56.1 55.2,-62.4c59.2,-6.2 67.5,38.9 70.5,60.2l-2.2,0.6c0,0 -4.7,-65.2 -67.6,-56.7c-58.1,7.8 -53.3,58.3 -53.3,58.3l-2.6,0"/>
    <path id="path26-2" class="st1" d="m-7579.161872,-1600.089869c0,0 4.8,27.1 4.7,35.2c-0.2,11.5 -8.4,11.8 -10.9,2.8c-2.5,-9 -0.5,-17.8 -6.4,-17.7c-5.8,0.2 -0.3,21 -4.4,22.5c-4.1,1.5 -8,-11.2 -13.1,-11.3c-5.1,-0.1 -2.4,17.5 -11.6,23.7c-5.7,3.9 -16.5,2 -20.6,-11.7c-4.1,-13.7 -1.1,-20.2 -8.3,-19.6c-7.2,0.6 -2.9,30.2 -8.9,32s-1.7,-29 -10.3,-29c-8.6,0 -7.6,39.3 -16,40s-20,-12.7 -17.7,-55.7c0,0 1.9,5.8 58.3,0.9c57.7,-5 65.2,-12.1 65.2,-12.1"/>
    <path id="path28-8" class="st2" d="m-7640.861872,-1600.089869c-44.6,4.3 -61.8,11.1 -61.8,11.1l0,0.1c0.3,0.7 6,7.2 58.3,2.7c57.7,-5 65.2,-14 65.2,-14s-17.1,-4.1 -61.7,0.1"/>
    <path id="path30-4" class="st4" d="m-7693.261872,-1588.789869c0,0 38.3,-11.9 103.1,-10.3c0,0 -38.3,13.3 -103.1,10.3"/>
    <path id="path32-6" class="st1" d="m-7576.661872,-1536.489869l-78.6,4.4l0.4,43.5l79.9,-7.6l-1.7,-40.3"/>
    <path id="path34-7" class="st5" d="m-7671.561872,-1788.389869c-13.5,94.4 5.6,158.3 11.1,158.3c5.2,0 5.3,-3.9 4.7,-5.7c1.1,3.1 1.8,5.4 5.2,5.4c2.9,0 5.3,-2.9 4.5,-5.6c1.2,2.7 2.3,4.3 5.4,4.3c3.8,-0.8 4.6,-2.2 3.9,-4.2c-0.1,-0.3 -0.3,-0.6 -0.4,-0.9c0.2,0.3 0.3,0.6 0.4,0.9c1.1,2.6 2.9,4.4 6,4.4c7.2,0 1.5,-14.9 1.3,-17.4c0,0 -13.7,-76.6 -1.7,-138.1c8.4,-43.3 23.6,-69.2 60,-81.5l-6.1,-38.9c-58,17.6 -86,61.2 -94.3,119"/>
    <path id="path36-20" class="st5" d="m-7636.661872,-1635.789869c-0.1,-0.3 -0.2,-0.6 -0.4,-0.9c0.1,0.3 0.3,0.6 0.4,0.9"/>
    <path id="path38-45" class="st3" d="m-7520.061872,-1915.689869c-21.6,0.5 -40.6,3.4 -57.1,8.4l6.1,38.9c14.3,-4.8 32,-7.5 53.8,-8.3l-2.8,-39"/>
    <path id="path40-3" class="st6" d="m-7220.961872,-1697.789869l-18.6,110.5c0,0 45.4,-5.1 10.3,20.7c-36.4,26.8 -35.8,4.8 -35.8,4.8l5.6,-110.7c0,0 -79.8,14.9 -201.7,-3.8l-3.8,88.6c0,0 58.6,-30.5 13.6,22.1c-30.1,35.2 -31.9,2.2 -31.9,2.2l-19.3,-142.2c-0.1,-0.1 105.2,-15.6 281.6,7.8"/>
    <path id="path42-43" class="st5" d="m-7200.261872,-1949.389869c0,0 -16.8,-364 -232.5,-207.9c0,0 -81.1,63.8 -90,240.7c263.3,64 322.5,-32.8 322.5,-32.8"/>
    <path id="path44-47" class="st6" d="m-7343.161872,-2400.389869c24,156 -82.4,70.5 -157.5,163.5c-44.4,55 -13.5,105.8 -12,108c-101.9,6 -10,212.2 -10,212.2s173.6,36 262,17.8c24,-51.6 15,-117.6 15,-117.6s-25.9,21.1 -34.2,-3.1c-10.8,-31.4 23.7,-31.2 23.7,-31.2l-28.5,-75.2c81.1,-113.9 -58.5,-274.4 -58.5,-274.4"/>
    <path id="path46-6" class="st3" d="m-7200.261872,-1949.389869l-20.8,251.6c0,0 -110.2,16.2 -281.7,-7.8l-20,-211c0,-0.1 212.2,0 322.5,-32.8"/>
    <path id="path48-48" class="st7" d="m-7129.461872,-2400.189869l61.3,-29.6l16.8,35.9c0,0 -17.9,13 -6.6,34c14.5,26.8 33.7,58.7 33.7,58.7s6.2,12.9 -3.4,17.7c-9.6,4.9 -17.2,-7.8 -17.2,-7.8s-22.4,-49.8 -27.6,-59.9c-5.3,-10.1 -15.8,-23 -36.2,-10.7l-20.8,-38.3"/>
    <path id="path50-6" class="st5" d="m-7037.461872,-2311.589869c0,0 10.6,-3.7 7.5,-12.4c-2,-3.7 -7.1,-1 -7.1,-1s5.9,-4.1 4,-8.8c-2.8,-4.3 -6.6,-3.3 -9.3,-3.2c1.9,-1.3 7.2,-1.7 5.6,-7.1c-2.6,-4.9 -6.6,-4.7 -9.1,-4.8c2.4,-0.1 4.4,-8.8 -6,-7.9c-45,14.7 -25.9,55.6 -17.7,75.3c54.2,158.3 -10.8,230 -90.8,306.1l29.3,29.2c191.6,-131.6 93.6,-365.4 93.6,-365.4"/>
    <path id="path52-55" class="st3" d="m-7204.861872,-1945.789869l-2.8,51.1c30.2,-15.4 55.5,-33.8 76.6,-51.6l-29.3,-29.2c-24.4,20.6 -44.5,29.7 -44.5,29.7"/>
    <path id="path54-0" class="st3" d="m-7129.461872,-2400.189869l-10.4,-29.6l51.3,-29.1l20.4,29.1l-61.3,29.6"/>
    <path id="path56-21" class="st2" d="m-7088.061872,-2459.489869c0,0 5.4,5.8 7,9.4c2.2,5.1 -1,8.3 -4.7,5.8c-3.7,-2.5 -4.8,-7 -7.3,-5.8s3.3,9.8 1.8,11.3s-3.3,-4.5 -5.5,-3.5c-2.3,1 0,9.4 -2.8,14c-1.7,2.9 -6.8,4.3 -11.3,-1s-4.5,-8.8 -7.5,-7s4.8,14 2.5,16s-6.5,-12.5 -10.3,-10.8s4.5,19 1,21s-12.4,0 -15.9,-19.6c0,0 0.9,-5.2 25.1,-17.4c24.4,-12.3 27.9,-12.4 27.9,-12.4"/>
   </g>
   <g id="g5524" transform="matrix(1.6672601,0,0,1.6672589,-934.91527,-854.90455) ">
    <path id="path122-6" class="st8" d="m719.482127,1370.92761c0,0.9 -0.8,1.7 -1.7,1.7l-0.1,0c-0.1,0.7 -0.8,1.2 -1.5,1.2c-0.8,0 -1.5,-0.7 -1.5,-1.5c-1,-0.1 -1.8,-0.9 -1.8,-1.9s0.7,-1.8 1.7,-1.9c0.3,-0.6 1,-0.9 1.7,-0.9c1,0 1.9,0.8 1.9,1.8c0.7,0.1 1.3,0.7 1.3,1.5"/>
    <g id="g9416">
     <path id="path30-3" class="st9" d="m715.382127,1401.22761c2,4.9 0.1,8.9 -2.4,11.7c4.9,-0.2 7.6,1.2 8.3,2.1c2.1,-2.9 3.4,-8.2 1.9,-11.6c-1.2,-1.2 -5.3,-3.1 -7.8,-2.2"/>
     <path id="path32-8" class="st10" d="m713.882127,1412.92761c-0.1,0 -0.3,0 -0.4,0c0.1,0 0.2,0 0.4,0c1.7,0 3.2,0.2 4.3,0.5l0,0c-1.2,-0.3 -2.6,-0.5 -4.3,-0.5"/>
     <path id="path34-71" class="st11" d="m716.082127,1401.12761c-0.2,0 -0.5,0.1 -0.7,0.2l0,0c0.6,1.4 0.8,2.8 0.8,4.1c0,3.1 -1.5,5.6 -3.2,7.6c0.1,0 0.3,0 0.4,0c0.1,0 0.3,0 0.4,0c1.7,0 3.2,0.2 4.3,0.5c1.9,-2.3 3.3,-5.3 3.1,-7.9c-0.6,-1.4 -2.9,-3.8 -5.1,-4.5"/>
     <path id="path36-6" class="st9" d="m714.682127,1400.72761c-0.3,5.3 -3.7,8 -7.2,9.5c4.5,2 6.4,4.4 6.6,5.5c3.1,-1.7 6.6,-5.9 6.7,-9.7c-0.6,-1.6 -3.5,-5 -6.1,-5.3"/>
     <path id="path40-5" class="st12" d="m727.482127,1402.12761l1.1,-4.7l-1.2,-0.2l-1,4.7l1.1,0.2l0,0zm0,-5.9l2.4,0.5l-1.8,6.7l-2,-0.7l-1.4,6.5l-13,-3.2l4.1,-18.8l13.2,2.2l-1.5,6.8"/>
     <path id="path42-6" class="st13" d="m727.782127,1400.72761c0.1,0 0.1,0 0,0c0.1,0 0.1,0 0,0"/>
     <path id="path56-92" class="st14" d="m773.882127,1410.92761c0,0 2.1,1.9 0.4,3.1c-1.7,1.2 -2.4,-1.5 -2.4,-1.5l2,-1.6"/>
     <path id="path58-1" class="st9" d="m771.482127,1412.12761l0.4,0.5l2.5,-1.5l-0.4,-0.6l-2.5,1.6"/>
     <path id="path60-75" class="st12" d="m756.382127,1407.12761c0,0 9.9,-10.2 17.8,3.6l-2.8,1.8c0,0 -4.5,-10.2 -12,-4.5l-3,-0.9"/>
     <path id="path62-12" class="st15" d="m772.382127,1408.72761c0.1,0.2 0,0.3 -0.2,0.4s-0.3,0 -0.4,-0.2c-0.1,-0.2 0,-0.3 0.2,-0.4c0.2,0 0.4,0 0.4,0.2"/>
     <path id="path64-69" class="st15" d="m772.982127,1409.62761c0.1,0.2 0,0.3 -0.2,0.4s-0.3,0 -0.4,-0.2c-0.1,-0.2 0,-0.3 0.2,-0.4s0.3,0 0.4,0.2"/>
     <path id="path66-30" class="st15" d="m773.582127,1410.42761c0.1,0.2 0,0.3 -0.2,0.4s-0.3,0 -0.4,-0.2c-0.1,-0.2 0,-0.3 0.2,-0.4c0.1,0 0.3,0.1 0.4,0.2"/>
     <path id="path68-7" class="st14" d="m761.882127,1425.52761c1.7,-6.2 -1.2,-12.3 -6.8,-13.8c-5.5,-1.5 -11.6,2.2 -13.3,8.4c-1.7,6.2 1.5,12.4 7,13.9c9.7,2.5 11.4,-2.3 13.1,-8.5"/>
     <path id="path70-7" class="st16" d="m744.882127,1426.92761c0,0 8.6,0.2 15.7,3.7c-2.6,6.4 -9.7,9.4 -17.7,4c-9.5,-6.4 -0.3,-18.8 3,-21.4c0.7,3.4 0.3,7 0.3,7s-1.7,-1.5 -2.2,0.8c-0.3,1.6 1.9,1.1 1.9,1.1l-1,4.8"/>
     <path id="path72-2" class="st16" d="m744.882127,1429.52761c0,0 -7.2,5.5 -11.5,0.2c-5.7,-6.9 7.4,-13.1 -1.2,-18.4c6.6,-2.6 11.6,3.8 7.4,9.2c-6.1,7.8 2,9.9 5.3,9"/>
     <path id="path74-2" class="st14" d="m750.282127,1413.42761l0,-4l2.2,-4.9l2.1,4.9l0,4l-4.3,0"/>
     <path id="path76-2" class="st12" d="m750.282127,1409.42761l-5.2,-1.7l0.9,-11.4l-1.8,-5.7l15.9,0l-1.6,5.7l0.9,11.6l-4.8,1.4l-2.1,-4.9l-2.2,5"/>
     <path id="path78-0" class="st9" d="m754.582127,1409.42761l0.9,-0.3l-3.1,-6.6l-3.1,6.6l1,0.3l2.2,-4.9l2.1,4.9"/>
     <path id="path80-3" class="st9" d="m750.282127,1409.42761l-1,-0.3l-0.4,-3.5l1.3,0.6l1.5,-0.2l-1.4,3.4"/>
     <path id="path82-58" class="st9" d="m754.582127,1409.42761l0.9,-0.3l0.4,-3.6l-1.3,0.6l-1.5,-0.3l1.5,3.6"/>
     <path id="path84-30" class="st15" d="m753.082127,1400.72761c0,-0.3 -0.3,-0.6 -0.6,-0.6s-0.6,0.3 -0.6,0.6c0,0.3 0.3,0.6 0.6,0.6c0.3,0.1 0.6,-0.2 0.6,-0.6"/>
     <path id="path86-6" class="st15" d="m753.082127,1397.02761c0,-0.3 -0.3,-0.6 -0.6,-0.6s-0.6,0.3 -0.6,0.6c0,0.3 0.3,0.6 0.6,0.6c0.3,0 0.6,-0.3 0.6,-0.6"/>
     <path id="path88-4" class="st15" d="m753.082127,1393.22761c0,-0.3 -0.3,-0.6 -0.6,-0.6s-0.6,0.3 -0.6,0.6c0,0.3 0.3,0.6 0.6,0.6c0.4,0 0.6,-0.2 0.6,-0.6"/>
     <path id="path90-32" class="st14" d="m729.682127,1398.72761c0,0 -2.8,0 -2.4,2.1c0.4,2.1 2.8,0.5 2.8,0.5l-0.4,-2.6"/>
     <path id="path92-4" class="st9" d="m730.682127,1401.22761l-0.6,0.2l-0.4,-2.8l0.7,0l0.3,2.6"/>
     <path id="path94-1" class="st12" d="m748.182127,1408.22761c0,0 -2.4,-12.4 -18.1,-10l0.3,3.3c0,0 10.7,-3 14.8,6.3l3,0.4"/>
     <path id="path96-5" class="st15" d="m732.782127,1398.32761c-0.2,0 -0.3,0.2 -0.2,0.4c0,0.2 0.2,0.3 0.4,0.2c0.2,0 0.3,-0.2 0.2,-0.4c-0.1,-0.1 -0.3,-0.2 -0.4,-0.2"/>
     <path id="path98-0" class="st15" d="m731.682127,1398.42761c-0.2,0 -0.3,0.2 -0.2,0.4c0,0.2 0.2,0.3 0.4,0.2c0.2,0 0.3,-0.2 0.2,-0.4c-0.1,-0.1 -0.2,-0.2 -0.4,-0.2"/>
     <path id="path100-10" class="st15" d="m730.682127,1398.52761c-0.2,0 -0.3,0.2 -0.2,0.4c0,0.2 0.2,0.3 0.4,0.2c0.2,0 0.3,-0.2 0.2,-0.4c-0.1,-0.1 -0.2,-0.2 -0.4,-0.2"/>
     <path id="path102-8" class="st17" d="m751.182127,1365.12761c-11,0 -19.8,1.1 -19.8,2.6c0,1.4 9,2.6 20.2,2.7c0.1,0 0.2,0 0.3,0c11,0 19.8,-1.1 19.8,-2.6c0,-1.4 -9,-2.6 -20.2,-2.7c0,0 -0.2,0 -0.3,0"/>
     <path id="path104-1" class="st14" d="m745.982127,1389.22761l-1.4,-8.5l-8.8,-1.2c0,0 -2.2,-4 -0.6,-4.9c1.8,-1 2.1,3.1 2.1,3.1l9.5,0.2l3.4,10.5l-4.2,0.8"/>
     <path id="path106-9" class="st12" d="m735.782127,1379.62761l-2.8,-0.9l0.1,-0.4l1.6,0.1c0,0 -1.3,-1.6 -0.6,-3.9c1.1,-3.6 3.1,1 3.2,3.2c0,0 -0.2,-2.9 -1.4,-2.3c-1.7,1.1 -0.1,4.2 -0.1,4.2"/>
     <path id="path108-4" class="st14" d="m753.882127,1389.62761l6,-10.7l3,-8.9c0,0 4.2,-1.9 4.9,-0.2c0.8,1.9 -3.3,1.9 -3.3,1.9l-2.2,8.2l-3.4,9.7l-5,0"/>
     <path id="path110-3" class="st12" d="m762.882127,1370.02761l1.1,-2.7l0.5,0.2l-0.3,1.4c0,0 1.6,-1 3.8,-0.1c3.5,1.4 -1.2,3 -3.5,2.9c0,0 3,0 2.4,-1.2c-0.8,-1.8 -4,-0.5 -4,-0.5"/>
     <path id="path112-7" class="st12" d="m760.682127,1385.72761l-16.2,-0.9l1.1,6l13.5,0l1.6,-5.1"/>
     <path id="path114-6" class="st18" d="m745.282127,1389.02761l0.3,1.7l0,0l-0.3,-1.7l0,0"/>
     <path id="path116-7" class="st18" d="m759.282127,1390.22761l-0.2,0.5l0,0l0.2,-0.5l0,0"/>
     <path id="path118-7" class="st19" d="m745.282127,1389.02761l0.3,1.7l13.5,0l0.2,-0.5l-14,-1.2"/>
     <path id="path120-2" class="st8" d="m727.582127,1369.32761c0,0.9 -0.7,1.6 -1.6,1.6c-0.1,0 -0.1,0 -0.2,0c-0.3,0.3 -0.7,0.5 -1.1,0.5c-0.9,0 -1.6,-0.7 -1.6,-1.6c0,-0.3 0.1,-0.6 0.3,-0.9c-0.2,-0.2 -0.3,-0.5 -0.3,-0.7c0,-0.7 0.5,-1.2 1.2,-1.2c0.2,0 0.4,0 0.5,0.1c0.2,-0.2 0.5,-0.3 0.8,-0.3c0.7,0 1.3,0.6 1.3,1.3c0.4,0.2 0.7,0.7 0.7,1.2"/>
     <path id="path764-2" class="st20" d="m750.782127,1423.12761c0,-1 -0.3,-1.6 -0.8,-1.6c-0.4,0 -0.8,0.6 -0.8,1.6s0.3,1.6 0.8,1.6c0.5,-0.1 0.8,-0.6 0.8,-1.6"/>
     <path id="path766-8-0" class="st20" d="m758.882127,1424.52761c0,-1 -0.3,-1.6 -0.8,-1.6c-0.4,0 -0.8,0.6 -0.8,1.6s0.3,1.6 0.8,1.6c0.4,0 0.8,-0.6 0.8,-1.6"/>
     <path id="path768-6" class="st21" d="m750.582127,1417.82761c-0.2,-0.6 0.8,-1.5 2.3,-2c1.5,-0.4 2.8,-0.3 3,0.4l-5.3,1.6"/>
    </g>
   </g>
  </g>
 </g>
</svg>