<?xml version="1.0"?>
<svg width="280" height="160" xmlns="http://www.w3.org/2000/svg" xmlns:svg="http://www.w3.org/2000/svg">
 <style type="text/css">.st0{opacity:0.8667;fill:#FF6500;enable-background:new    ;}
	.st1{fill:#8BAE9A;}
	.st2{fill:#BB4620;}
	.st3{fill:#FBDE58;}
	.st4{fill:#AC8551;}
	.st5{fill:#F5F5F5;}
	.st6{fill:#4C4D4E;}
	.st7{fill:#806341;}
	.st8{fill:#5E6061;}
	.st9{fill:#373737;}
	.st10{fill:#545557;}
	.st11{fill:#454547;}
	.st12{fill:#323131;}
	.st13{fill:#907046;}
	.st14{fill:#F8F8F8;}
	.st15{fill:#FBD8B5;}
	.st16{fill:#8BAD9A;}
	.st17{fill:#DFDFDD;}
	.st18{fill:#E3C1A0;}
	.st19{fill:#43251E;}
	.st20{fill:#89B498;}
	.st21{fill:#81A991;}
	.st22{fill:#876943;}
	.st23{fill:#553224;}
	.st24{fill:#FBD6B1;}
	.st25{fill:#EC6180;}
	.st26{fill:#2E2D2D;}
	.st27{fill:#7A7B7C;}</style>
 <g>
  <title>Layer 1</title>
  <g id="g10" transform="matrix(0.8003705790645199,0,0,-0.7250845575826801,-14.052318728782222,1223.9883335545198) ">
   <g id="g46" transform="matrix(-2.3112921,0.00076329835,-0.00081560719,-2.2153257,964.29873,862.9567) "/>
   <g id="g4882" transform="matrix(-0.57000255,0.00047356195,0.00047356195,0.57000255,1165.5016,197.50555) ">
    <g id="g4253" transform="matrix(0.19744443,0,0,-0.19744443,372.69836,1706.6111) ">
     <path id="path16-9" class="st1" d="m6141.52795,-3802.79404c0,21 -20.4,38 -45.5,38l-671.6,0c-25.1,0 -45.5,-17 -45.5,-38s20.3,-38 45.5,-38l671.6,0c25.1,-0.1 45.5,17 45.5,38"/>
     <path id="path18-12" class="st2" d="m5437.22795,-4278.29404c0,20.2 14.6,36.6 34.8,36.6c20.2,0 34.8,-16.4 34.9,-36.6c0,-25.4 -30.6,-36.2 -23.4,-60.3c-25,10.8 -46.3,31.9 -46.3,60.3"/>
     <path id="path20-3" class="st3" d="m5453.72795,-4270.79404c0,12.6 10.2,22.9 22.8,22.9c12.6,0 22.9,-10.2 22.9,-22.8s-10.2,-22.9 -22.8,-22.9c-12.7,-0.1 -22.9,10.2 -22.9,22.8"/>
     <path id="path22-9" class="st4" d="m5632.52795,-4284.99404l-156.7,11.7l0.7,9.7l156.4,-9.1l-0.4,-12.3"/>
     <path id="path24-7" class="st2" d="m5477.32795,-4257.69404c7.3,-0.5 16.4,-5.7 15.9,-12.2s-10.3,-10.3 -17.6,-9.7c-7.3,0.5 -12.3,5.4 -11.8,11.9c0.6,6.5 6.2,10.5 13.5,10"/>
     <path id="path26-00" class="st4" d="m5825.52795,-3929.09404c0,-62.4 -50.6,-112.9 -112.9,-112.9l-22.1,0c-62.4,0 -112.9,50.6 -112.9,112.9l0,128.2l248,0l0,-128.2"/>
     <path id="path28-3" class="st5" d="m5467.62795,-4146.89404c-0.4,-0.3 -37.7,-35.5 -19.6,-80l7.2,2.9c-16.1,39.6 17.4,71 17.7,71.4l-5.3,5.7"/>
     <path id="path30-54" class="st6" d="m5519.02795,-4150.69404l-55,47.8l-23.4,-26.9l55,-47.8l23.4,26.9"/>
     <path id="path32-0" class="st7" d="m5806.92795,-3929.09404c0,-62.4 -50.6,-112.9 -112.9,-112.9l-22.1,0c-62.4,0 -112.9,50.6 -112.9,112.9l0,128.2l248,0l0,-128.2"/>
     <path id="path34-6" class="st8" d="m5976.82795,-4021.99404c0,0 -426.3,355.6 -539.8,89.7c-113.5,-265.9 419.9,-357.8 419.9,-357.8l119.9,268.1"/>
     <path id="path36-68" class="st6" d="m5976.82795,-4021.99404c47.5,-29.7 -71.6,-284.6 -119.9,-268.1c-51.8,17.8 70.2,299.2 119.9,268.1"/>
     <path id="path38-21" class="st9" d="m5967.12795,-4042.89404c36.7,-13.1 -66,-233.2 -100.8,-225.3c-29.3,6.7 64.1,238.5 100.8,225.3"/>
     <path id="path40-14" class="st10" d="m5584.32795,-3833.59404c-43.8,0 -83.6,-13 -114.1,-46c4.1,0.2 8.2,0.2 12.4,0.2c118,0 271.5,-64.9 437.2,-182.7c9.9,14.5 19.9,26.3 29.1,33.7c-1,1 -1.4,2.2 -0.9,3.5c0.7,1.9 2,2.7 4.1,2.7c0.5,0 1.1,-0.1 1.8,-0.2c-2,1 -4,2.2 -3.7,4.5c0.3,1.8 3.4,3.1 5.7,3.1c0.2,0 0.5,0 0.7,0c0.2,-0.1 0.4,-0.1 0.6,-0.1c-0.2,0.1 -0.4,0.1 -0.6,0.1c-1.9,0.5 -4,2.9 -3.7,4.7c0.3,1.9 2.4,2.6 4.5,2.6c0.4,0 0.9,0 1.3,-0.1c-0.2,0.1 -0.4,0.3 -0.6,0.5c-0.4,0.2 -0.7,0.5 -1,0.8c-58.8,45.4 -235.8,172.7 -372.8,172.7"/>
     <path id="path42-66" class="st11" d="m5948.92795,-4028.29404c-9.3,-7.4 -19.2,-19.2 -29.1,-33.7c4.1,-2.9 8.3,-5.9 12.4,-8.9c11.8,17.4 23,28.6 31.7,28.6c1.1,0 2.1,-0.2 3.2,-0.5c4.5,-1.6 6.9,-6.3 7.6,-13.3c3.9,-1.8 8.1,-3.8 12.6,-6.2c0.7,7.5 0.7,14.3 0,20.1c-14.3,6.2 -24.5,8.1 -25.9,8.4c-3.8,0.9 -10,2.8 -12.5,5.5"/>
     <path id="path44-86" class="st12" d="m5963.92795,-4042.29404c-8.7,0 -19.9,-11.2 -31.7,-28.6l0,0c6.9,10.2 13.7,18.3 19.8,23.2l0,0c5.8,-1.7 13.5,-4.4 22.7,-8.5c-0.7,7 -3.1,11.7 -7.6,13.3c-1,0.4 -2.1,0.6 -3.2,0.6"/>
     <path id="path46-64" class="st4" d="m5716.72795,-3929.09404c0,-62.4 -50.6,-112.9 -112.9,-112.9l-22.1,0c-62.4,0 -112.9,50.6 -112.9,112.9l0,128.2l248,0l0,-128.2"/>
     <path id="path48-55" class="st13" d="m5694.92795,-3929.09404c0,-62.4 -50.6,-112.9 -112.9,-112.9l-22.1,0c-62.4,0 -112.9,50.6 -112.9,112.9l0,128.2l248,0l0,-128.2"/>
     <path id="path50-0" class="st14" d="m6123.62795,-4216.29404l-29.3,-2.9c-1.3,17.5 -3.7,33.3 -7.1,47.6l29,2.7c3.5,-14.4 6,-30.2 7.4,-47.4"/>
     <path id="path52-91" class="st15" d="m5956.62795,-4014.69404c0.2,0 0.4,-0.1 0.6,-0.1c-0.2,0 -0.4,0 -0.6,0.1"/>
     <path id="path54-9" class="st15" d="m6087.32795,-4171.49404c-28.2,120 -121.5,136.7 -126,137.7c-5,1.2 -15,4.4 -13.3,9c0.9,2.3 2.7,3 5.9,2.5c-2,1 -4,2.2 -3.7,4.5c0.3,2 4.1,3.3 6.4,3c0.2,-0.1 0.4,-0.1 0.6,-0.1c-0.2,0.1 -0.4,0.1 -0.6,0.1c-1.9,0.5 -4,2.9 -3.7,4.7c0.3,2.4 3.7,2.9 6.1,2.5c-2,1 -3.4,2.3 -3,4.5c0.7,4.7 9.6,1.7 14.8,-0.2c4.8,-1.7 113.7,-28.2 145.5,-165.6l-29,-2.6"/>
     <path id="path56-62" class="st14" d="m6142.12795,-4224.59404l-229.5,-94.9c-14.8,36.4 -40,59.7 -51.7,69.1c3.4,47.6 56.6,175 91.2,202.7c30,-8.8 111.4,-43.8 190,-176.9"/>
     <path id="path58-36" class="st14" d="m6142.12795,-4224.59404l-229.5,-94.9c-14.8,36.4 -40,59.7 -51.7,69.1c3.4,47.6 56.6,175 91.2,202.7c30,-8.8 111.4,-43.8 190,-176.9"/>
     <path id="path60-9" class="st16" d="m6064.52795,-4112.59404c3.4,-5.9 6.6,-12.2 9.5,-18.9l0,0c-2.9,6.7 -6.1,13 -9.5,18.9c0.1,0 0.1,0 0,0"/>
     <path id="path62-8" class="st17" d="m6108.92795,-4169.49404l-3.2,-0.3c4.9,-6.5 9.8,-13.4 14.7,-20.7c-0.2,1.3 -0.4,2.5 -0.6,3.8c-3.6,6 -7.2,11.7 -10.9,17.2"/>
     <path id="path64-2" class="st18" d="m6064.62795,-4112.69404c3.4,-5.9 6.5,-12.2 9.5,-18.9c10.4,-11.2 20.9,-23.9 31.6,-38.2l3.2,0.3c-15,22.6 -30,41.4 -44.3,56.8"/>
     <path id="path66-0" class="st17" d="m6074.12795,-4131.49404l0,0c15.1,-16.4 30.7,-35.9 46.4,-58.9l0,0c-4.9,7.2 -9.8,14.1 -14.7,20.7l0,0c-10.8,14.2 -21.4,26.9 -31.7,38.2c0,-0.1 0,0 0,0"/>
     <path id="path68-8" class="st19" d="m6037.52795,-4229.79404l1.4,13.2l-13.3,9.5l10.6,115.9l-31.8,33.6l-28.1,-33.6l32.8,-121.1l-4.1,-17.3l8.6,-6.9l23.9,6.7"/>
     <path id="path70-4" class="st15" d="m5617.22795,-4296.19404c-4,3.9 -10.8,10.4 -6.8,13.2c1.9,1.3 3.7,0.7 5.4,-0.7c-1.5,2 -2.5,5.1 -0.5,6.5c1.7,1.2 5.2,0.2 6.2,-1.6c-1.6,1.7 -2.4,6.3 -0.5,7.5c1.9,1.3 3.9,0.1 5.7,-1.3c-1.9,2.7 -2.1,4.6 -0.4,6.4c3.4,3.6 10.7,-3.9 14,-7.9s74,-98.6 225.3,-35.8l10.6,-27.4c-166.6,-66.9 -254.9,37.2 -259,41.1"/>
     <path id="path72-9" class="st14" d="m5912.52795,-4319.39404c-12.7,-8 -24.8,-13.8 -36.3,-17.8l-10.6,27.4c18.3,7.7 23.4,11.2 35.9,18l11,-27.6"/>
     <path id="path74-7" class="st15" d="m5912.52795,-4319.39404c0,0 70.8,-256.6 233.4,-100c0,0 43.9,68.5 -3.8,194.9c-165.7,-23.4 -229.6,-94.9 -229.6,-94.9"/>
     <path id="path76-6" class="st19" d="m5975.72795,-4569.69404c0,0 -59.9,159.4 147.6,188.2l-5.6,51.2c0,0 28,-11.1 25.6,13.7c-2.4,24.8 -26.5,4.5 -26.5,4.5s3.1,61.8 25.3,87.5c-1.7,1.5 150.9,-216.4 41.6,-221c0,0 2.4,-50 -59.9,-76.4c-64.6,-27.5 -121.6,43.3 -148.1,-47.7"/>
     <path id="path78-5" class="st19" d="m6064.32795,-4344.39404c2.6,-6.2 7.4,-10.1 10.6,-8.8c3.2,1.4 3.7,7.6 1.1,13.8s-7.4,10.1 -10.6,8.8c-3.2,-1.5 -3.7,-7.6 -1.1,-13.8"/>
     <path id="path80-60" class="st19" d="m5960.82795,-4392.19404c2.6,-6.2 7.4,-10.1 10.6,-8.8c3.2,1.4 3.7,7.6 1.1,13.8s-7.4,10.1 -10.6,8.8c-3.3,-1.4 -3.8,-7.6 -1.1,-13.8"/>
     <path id="path82-6" class="st19" d="m6043.72795,-4326.39404c0,0 -31.1,-24.5 -78.2,-35.1c0,0 -16.2,37.2 19.6,54.8c39.9,19.6 58.6,-19.7 58.6,-19.7"/>
     <path id="path84-59" class="st12" d="m5862.92795,-4251.99404c2.7,-2.3 6,-5.2 9.6,-8.7l0,0c-3.6,3.5 -6.9,6.4 -9.6,8.7"/>
     <path id="path86-4" class="st17" d="m5952.02795,-4047.69404c-34.5,-27.7 -87.8,-155.1 -91.2,-202.7c0.6,-0.5 1.3,-1.1 2,-1.7c2.7,-2.3 6,-5.2 9.6,-8.7c0.2,28.9 6.9,133.2 89.8,209.6c-3.8,1.5 -7.3,2.7 -10.2,3.5l0,0"/>
     <path id="path88-65" class="st7" d="m5605.92795,-3976.09404c0,19.3 -15.7,35 -35,35s-35,-15.7 -35,-35c0,-19.3 15.7,-35 35,-35s35,15.7 35,35"/>
     <path id="path90-0" class="st6" d="m5570.92795,-4021.19404c-19.8,0 -35.8,16 -35.8,35.8c0,19.8 16,35.8 35.8,35.8s35.8,-16 35.8,-35.8c-0.1,-19.8 -16.1,-35.8 -35.8,-35.8"/>
    </g>
   </g>
   <g id="g4271" transform="matrix(0.11972873,0,0,-0.11972873,533.21749,1040.4929) ">
    <path id="path16-2" class="st20" d="m-3418.11599,-3660.35247l-671.6,0c-25.1,0 -45.5,-17 -45.5,-38s20.4,-38 45.5,-38l22.5,0l0,40l378.7,0l0,-40l270.5,0c25.1,0 45.5,17 45.5,38c-0.1,21 -20.5,38 -45.6,38"/>
    <path id="path18-8" class="st2" d="m-4077.21599,-4161.15247c0.3,20.2 15.2,36.4 35.4,36.1c20.2,-0.3 34.6,-16.9 34.3,-37.1c-0.4,-25.4 -31.1,-35.7 -24.4,-60c-24.8,11.1 -45.8,32.5 -45.3,61"/>
    <path id="path20-7" class="st3" d="m-4060.71599,-4153.95247c0.2,12.6 10.6,22.7 23.2,22.5c12.6,-0.2 22.7,-10.6 22.5,-23.2c-0.2,-12.6 -10.6,-22.7 -23.2,-22.5c-12.6,0.2 -22.7,10.5 -22.5,23.2"/>
    <path id="path22-42" class="st4" d="m-3884.11599,-4184.75247l-154.6,28l1.7,9.6l154.6,-25.5l-1.7,-12.1"/>
    <path id="path24-98" class="st2" d="m-4035.61599,-4141.35247c7.2,-1.3 15.7,-7.3 14.6,-13.8c-1.2,-6.5 -11.3,-9.1 -18.5,-7.9c-7.2,1.3 -11.7,6.6 -10.5,13.1c1.1,6.4 7.2,9.9 14.4,8.6"/>
    <path id="path26-57" class="st4" d="m-3688.61599,-3824.65247c0,-62.4 -50.6,-112.9 -112.9,-112.9l-22.1,0c-62.4,0 -112.9,50.6 -112.9,112.9l0,128.2l248,0l0,-128.2"/>
    <path id="path28-83" class="st5" d="m-4046.51599,-4042.45247c-0.4,-0.3 -37.7,-35.5 -19.6,-80l7.2,2.9c-16.1,39.6 17.4,71 17.7,71.4l-5.3,5.7"/>
    <path id="path30-03" class="st6" d="m-3995.11599,-4046.25247l-55,47.8l-23.4,-26.9l55,-47.8l23.4,26.9"/>
    <path id="path32-70" class="st7" d="m-3707.21599,-3824.65247c0,-62.4 -50.6,-112.9 -112.9,-112.9l-22.1,0c-62.4,0 -112.9,50.6 -112.9,112.9l0,128.2l248,0l0,-128.2"/>
    <path id="path34-1" class="st8" d="m-3537.31599,-3917.55247c0,0 -426.3,355.6 -539.8,89.7c-113.5,-265.9 419.9,-357.8 419.9,-357.8l119.9,268.1"/>
    <path id="path36-1" class="st6" d="m-3537.31599,-3917.55247c47.5,-29.7 -71.6,-284.6 -119.9,-268c-51.8,17.7 70.2,299.1 119.9,268"/>
    <path id="path38-96" class="st9" d="m-3547.01599,-3938.45247c36.7,-13.1 -66,-233.2 -100.8,-225.3c-29.3,6.7 64.1,238.5 100.8,225.3"/>
    <path id="path40-8" class="st21" d="m-3537.31599,-3917.45247l0,0l0,0m0,-0.1l0,0l0,0m0.1,0l0,0l0,0m0,0c0,0 0,-0.1 0,0l0,0m0,-0.1c0.1,0 0.1,0 0,0c0.1,0 0.1,0 0,0m0.1,0l0,0l0,0m0,0l0,0l0,0m0.1,0c0,-0.1 0,-0.1 0,0c0,-0.1 0,-0.1 0,0m0,-0.1c3.4,-2.2 5.9,-5.7 7.7,-10.1c-1.7,4.4 -4.3,7.9 -7.7,10.1m7.7,-10.1l0,0l0,0m0,-0.1l0,0c0.1,0 0,0 0,0m0.1,0c0,0 0,-0.1 0,0c0,-0.1 0,0 0,0m0,-0.1l0,0l0,0m0,-0.1l0,0l0,0"/>
    <path id="path42-63" class="st10" d="m-3797.41599,-3758.85247l0,-65.8c0,-4 -0.2,-8 -0.6,-11.9c64.5,-30.1 133,-70.7 203.7,-121c17.4,25.4 34.8,42.4 48.7,42.4c3,0 5.8,-0.8 8.3,-2.4l0,0l0,0l0,0l0,0l0,0c-3.2,2.7 -128.3,106.3 -260.1,158.7"/>
    <path id="path44-2" class="st11" d="m-3545.61599,-3915.15247c-13.9,0 -31.3,-17 -48.7,-42.4c4.1,-2.9 8.3,-5.9 12.4,-8.9c11.8,17.4 23,28.6 31.7,28.6c1.1,0 2.1,-0.2 3.2,-0.5c10.9,-3.9 9.5,-26 1.3,-54.9c3.3,-2.5 6.7,-5.1 10,-7.7c8.9,30.8 12.3,57.6 6.5,72.9l0,0l0,0.1l0,0l0,0l0,0l0,0l0,0l0,0l0,0l0,0c-1.7,4.4 -4.3,7.9 -7.7,10.1l0,0c0,0 0,0 -0.1,0l0,0l0,0l0,0l0,0l0,0l0,0l0,0l0,0l0,0l0,0l0,0l0,0c-2.9,1.9 -5.7,2.7 -8.6,2.7"/>
    <path id="path46-9" class="st12" d="m-3550.21599,-3937.85247c-8.7,0 -19.9,-11.2 -31.7,-28.6c12,-8.7 24.1,-17.7 36.2,-26.9c8.2,28.9 9.6,51 -1.3,54.9c-1,0.4 -2.1,0.6 -3.2,0.6"/>
    <path id="path48-23" class="st4" d="m-3797.41599,-3824.65247c0,-62.4 -50.6,-112.9 -112.9,-112.9l-22.1,0c-62.4,0 -112.9,50.6 -112.9,112.9l0,128.2l248,0l0,-128.2"/>
    <path id="path50-40" class="st13" d="m-3819.21599,-3824.65247c0,-62.4 -50.6,-112.9 -112.9,-112.9l-22.1,0c-62.4,0 -112.9,50.6 -112.9,112.9l0,128.2l248,0l0,-128.2"/>
    <path id="path52-96" class="st22" d="m-3943.21599,-3836.65247c-19.3,0 -35,-15.7 -35,-35s15.7,-35 35,-35s35,15.7 35,35s-15.7,35 -35,35"/>
    <path id="path54-024" class="st6" d="m-3943.21599,-3916.75247c-19.8,0 -35.8,16 -35.8,35.8s16,35.8 35.8,35.8s35.8,-16 35.8,-35.8s-16,-35.8 -35.8,-35.8"/>
    <path id="path56-0" class="st23" d="m-3313.91599,-4486.75247c0,0 92.9,-75.3 152.1,-7.9c78.4,89.1 -92.9,175.8 23.8,242.2c-85.7,36.9 -154.6,-45.8 -101.6,-118.1c77.1,-105.1 -31,-129.4 -74.3,-116.2"/>
    <path id="path58-59" class="st24" d="m-3536.71599,-4426.95247c-19.6,81.9 21.1,161.9 94.9,179.5c73.7,17.6 152.6,-33.7 172.2,-115.7c19.6,-81.9 -24.3,-162.6 -98.1,-180.3c-128,-30.6 -149.4,34.5 -169,116.5"/>
    <path id="path60-02" class="st23" d="m-3312.61599,-4452.75247c0,0 -122.4,0.5 -217.7,-43c31.4,-85.4 132.6,-128.1 239.8,-59.8c127.4,81.1 12.1,247.2 -31.4,282.8c-11.2,-45 -7.1,-92.8 -7.1,-92.8s23.5,19.2 28.7,-11.8c3.5,-21.4 -25.2,-13.9 -25.2,-13.9l12.9,-61.5"/>
    <path id="path62-04" class="st23" d="m-3391.41599,-4392.55247c-2.9,12.2 -0.3,19.8 4.8,21c5.1,1.2 10.9,-4.4 13.8,-16.6c2.9,-12.2 0.3,-19.8 -4.8,-21s-10.8,4.5 -13.8,16.6"/>
    <path id="path64-9" class="st23" d="m-3511.21599,-4421.15247c-2.9,12.2 -0.3,19.8 4.8,21s10.9,-4.4 13.8,-16.6c2.9,-12.2 0.3,-19.8 -4.8,-21s-10.9,4.4 -13.8,16.6"/>
    <path id="path66-5" class="st25" d="m-3419.71599,-4327.95247c-4.4,18.4 -22.9,29.7 -41.3,25.3c-18.4,-4.4 -29.7,-22.9 -25.3,-41.3l66.6,16"/>
    <path id="path68-26" class="st24" d="m-3433.01599,-4289.45247l-32.9,41.5l-17.5,67.9l62.1,-32.6l32.9,-41.5l-44.6,-35.3"/>
    <path id="path70-9" class="st26" d="m-3383.11599,-4158.65247l-38.2,-54l-62.1,32.6l17.5,-67.9l-67,-25.3l-83.4,125l-36,10.5c7.3,48 49.3,148.8 81.4,185.8l75.1,-77.2l112.7,-129.5"/>
    <path id="path72-23" class="st14" d="m-3421.31599,-4212.65247l7.5,10.6l-86.2,43.1l21.8,-93.6l12.4,4.7l-17.5,67.9l62,-32.7"/>
    <path id="path74-4" class="st14" d="m-3465.81599,-4247.95247l-12.4,-4.7l-32.8,33.5l19,4.2l13.8,15.1l12.4,-48.1"/>
    <path id="path76-1" class="st14" d="m-3421.31599,-4212.65247l7.5,10.6l-25.2,40.1l-8.5,-17.6l-17.9,-9.9l44.1,-23.2"/>
    <path id="path78-4" class="st27" d="m-3508.21599,-4135.25247c-2.8,3.6 -8,4.2 -11.6,1.4s-4.2,-8 -1.4,-11.6s8,-4.2 11.6,-1.3c3.6,2.7 4.2,7.9 1.4,11.5"/>
    <path id="path80-0" class="st27" d="m-3544.51599,-4085.05247c-4,2.1 -9,0.5 -11.1,-3.5s-0.5,-9 3.5,-11.1c4.1,-2.1 9,-0.5 11.1,3.5s0.5,9 -3.5,11.1"/>
    <path id="path82-9" class="st27" d="m-3586.51599,-4048.75247c-4.1,2.1 -9,0.5 -11.1,-3.5c-2.1,-4 -0.5,-9 3.5,-11.1s9,-0.5 11.1,3.5c2.1,4 0.5,9 -3.5,11.1"/>
    <path id="path84-6" class="st24" d="m-3548.71599,-3938.55247c0,0 -40,17.1 -46.3,-14.6c-6.4,-31.7 36.7,-23.8 36.7,-23.8l9.6,38.4"/>
    <path id="path86-96" class="st14" d="m-3549.61599,-3980.75247l-10,1.6l5.5,44.7l10.4,-1.5l-5.9,-44.8"/>
    <path id="path88" class="st26" d="m-3383.11599,-4158.65247c0,0 78.5,203.8 -164.9,224.7l-7,-49.9c0,0 171.5,2 140.2,-138.7l31.7,-36.1"/>
    <path id="path90-53" class="st27" d="m-3528.21599,-3971.55247c-2.5,-0.1 -4.5,-2.2 -4.5,-4.7c0.1,-2.5 2.2,-4.5 4.8,-4.5c2.5,0.1 4.5,2.2 4.5,4.7c-0.1,2.5 -2.2,4.5 -4.8,4.5"/>
    <path id="path92-06" class="st27" d="m-3543.71599,-3969.25247c-2.5,-0.1 -4.5,-2.2 -4.5,-4.7c0.1,-2.5 2.2,-4.5 4.7,-4.5c2.5,0.1 4.5,2.2 4.5,4.7s-2.1,4.5 -4.7,4.5"/>
    <path id="path94-0" class="st24" d="m-3877.51599,-4210.35247c0,0 -42.5,9.3 -29.2,38.8c13.2,29.5 45.2,-3.4 45.2,-3.4l-16,-35.4"/>
    <path id="path96-29" class="st14" d="m-3853.71599,-4175.45247l-9.1,4.5l-21.5,-39.6l9.3,-4.8l21.3,39.9"/>
    <path id="path98-36" class="st26" d="m-3532.91599,-4273.25247c0,0 -155.7,-55.3 -346.7,58.6l23.2,44.7c0,0 149.1,-108.6 301.3,-64.8l22.2,-38.5"/>
    <path id="path100-0" class="st27" d="m-3840.51599,-4195.25247c-2,1.5 -2.4,4.4 -0.9,6.5c1.6,2 4.4,2.4 6.5,0.9c2,-1.5 2.4,-4.4 0.9,-6.5c-1.6,-2 -4.4,-2.4 -6.5,-0.9"/>
    <path id="path102-88" class="st27" d="m-3854.41599,-4188.05247c-2,1.5 -2.4,4.4 -0.9,6.5c1.5,2 4.4,2.4 6.5,0.9c2,-1.5 2.4,-4.4 0.9,-6.5c-1.6,-2.1 -4.5,-2.5 -6.5,-0.9"/>
   </g>
  </g>
 </g>
</svg>