<?xml version="1.0"?>
<svg width="280" height="120" xmlns="http://www.w3.org/2000/svg" xmlns:svg="http://www.w3.org/2000/svg">
 <style type="text/css">.st0{opacity:0.8667;fill:#FF6500;enable-background:new    ;}
	.st1{fill:#44281E;}
	.st2{fill:#36221A;}
	.st3{fill:#FBD8B5;}
	.st4{fill:#F8F8F8;}
	.st5{fill:#DEDDDB;}
	.st6{fill:#799887;}
	.st7{fill:#3A383A;}
	.st8{fill:#52423B;}
	.st9{fill:#FBD6B1;}
	.st10{fill:#2E2D2D;}
	.st11{fill:#7A7B7C;}
	.st12{fill:#EC6180;}
	.st13{fill:#81A992;}
	.st14{fill:#2A2928;}</style>
 <g>
  <title>Layer 1</title>
  <g id="g10" transform="matrix(0.7687352985677646,0,0,-0.405894113725222,-0.41101344584873567,634.5197667077639) ">
   <g id="g9240">
    <g id="svg_1">
     <g id="path56_1_"/>
     <g id="g6074_1_" transform="matrix(1.0240894,0,0,1.0240863,-34.434237,-2.664874) ">
      <g id="g5862_1_" transform="matrix(0.94880496,0,0,0.94880496,73.238377,58.277975) ">
       <path id="path16-8_1_" class="st1" d="m2.9,1497.9c0,-5.9 -5,-10.8 -11.1,-10.7l-2.8,0c-0.5,0 -1,-0.4 -1,-0.9l-0.1,-8c0,-1 0.8,-1.8 1.9,-1.8c1,0 1.9,0.8 1.9,1.8l0,3.5c9.2,-0.1 16.7,7.2 16.8,16.1l-5.6,0"/>
       <path id="path18-1_1_" class="st2" d="m4.8,1487.7c-0.9,1.7 -2.1,3.2 -3.6,4.5c-1,-1.6 -2.4,-2.9 -4.1,-3.7c1.4,-1.2 2.6,-2.7 3.3,-4.5c1.6,1 3.1,2.2 4.4,3.7"/>
       <path id="path20-1_1_" class="st3" d="m-1.2,1539c10.5,0 19.1,-8.3 19.1,-18.6l0,-10.8l-38.2,0l0,10.8c0,10.3 8.6,18.6 19.1,18.6"/>
       <path id="path22-4_1_" class="st1" d="m-9.3,1491.6c6.1,0 11.1,-4.8 11.1,-10.8l0,-2.7c0,-0.5 0.4,-0.9 1,-0.9l8.2,0c1,0 1.9,0.8 1.9,1.8s-0.8,1.8 -1.9,1.8l-3.7,0c0,9 -7.5,16.2 -16.7,16.2l0,-5.4"/>
       <path id="path24-8_1_" class="st4" d="m-20.3,1509.6l0,-16.6c0,-0.9 0.7,-1.6 1.7,-1.6l34.9,0c0.9,0 1.7,0.7 1.7,1.6l0,16.5l-38.3,0.1"/>
       <path id="path26-5_1_" class="st1" d="m1.1,1509.6l6.7,0l-2.4,-2.3l2.4,-11.7l-3.4,-3l-3.4,3l2.4,11.7l-2.3,2.3"/>
       <path id="path28-7_1_" class="st4" d="m17.9,1504.1l2.3,0l0,5.5l-2.3,0l0,-5.5z"/>
       <path id="path30-34_1_" class="st1" d="m-4,1519.4c0.4,0 0.6,0.3 0.6,0.6c0,0.6 0.5,1.1 1.2,1.1c0.6,0 1.2,-0.5 1.2,-1.1c0,-0.3 0.3,-0.6 0.6,-0.6c0.4,0 0.6,0.3 0.6,0.6c0,1.3 -1.1,2.4 -2.5,2.4s-2.5,-1.1 -2.5,-2.4c0.1,-0.3 0.4,-0.6 0.8,-0.6l0,0"/>
       <path id="path32-4_1_" class="st1" d="m11.3,1519.4c0.4,0 0.6,0.3 0.6,0.6c0,0.6 0.5,1.1 1.2,1.1c0.6,0 1.2,-0.5 1.2,-1.1c0,-0.3 0.3,-0.6 0.6,-0.6c0.4,0 0.6,0.3 0.6,0.6c0,1.3 -1.1,2.4 -2.5,2.4s-2.5,-1.1 -2.5,-2.4c0.2,-0.3 0.5,-0.6 0.8,-0.6l0,0"/>
       <path id="path34-78_1_" class="st1" d="m1.5,1519.2c0,0.1 0.1,0.2 0.3,0.2l7.4,0c0.1,0 0.2,-0.1 0.3,-0.2l0,0l0,0c-0.2,-2 -1.9,-3.6 -4,-3.6s-3.9,1.5 -4,3.6l0,0l0,0"/>
       <path id="path36-41_1_" class="st3" d="m-21,1509.6l0,-5.5c-6.2,0 -11.2,-4.9 -11.2,-10.9c0,-1.5 -1.3,-2.7 -2.8,-2.7s-2.8,1.2 -2.8,2.7c-0.1,9 7.5,16.4 16.8,16.4"/>
       <path id="path38-7_1_" class="st3" d="m20.2,1504.1l0,5.5c6.2,0 11.2,4.9 11.2,10.9c0,1.5 1.3,2.7 2.8,2.7s2.8,-1.2 2.8,-2.7c0.1,-9.1 -7.5,-16.4 -16.8,-16.4"/>
       <path id="path40-42_1_" class="st5" d="m-20.3,1504.1l4.3,0l-4.3,-2.5l0,2.5"/>
       <path id="path42-1_1_" class="st4" d="m-21,1504.1l0.8,0l0,5.5l-0.8,0l0,-5.5z"/>
       <path id="path44-7_1_" class="st5" d="m17.9,1509.6l1.5,-5.5l-1.5,0l0,5.5"/>
       <path id="path46-29_1_" class="st1" d="m13.6,1546c-0.1,0 -0.2,0 -0.3,0c0.1,-0.3 0.2,-0.6 0.2,-1c0,-1.3 -1,-2.3 -2.3,-2.3l-17.5,0c-7.7,0 -14,-6.1 -14,-13.6l0,-19.6c5.5,0 9.9,4.2 10.2,9.4l0,8.7c0,0.8 0.7,1.5 1.5,1.5c0,0 22,0 22.1,0c4.8,0 8.7,3.8 8.7,8.4c0.1,4.8 -3.8,8.5 -8.6,8.5"/>
       <path id="path48-53_1_" class="st3" d="m-8.1,1519.9c0,1.5 -1.2,2.6 -2.7,2.6s-2.7,-1.2 -2.7,-2.6c0,-1.5 1.2,-2.6 2.7,-2.6s2.7,1.1 2.7,2.6"/>
       <path id="path50-48_1_" class="st2" d="m-7.1,1491.4c1,-0.2 2,-0.6 2.9,-1l10.8,0c0.2,0.3 0.4,0.7 0.5,1l-14.2,0"/>
       <path id="path52-545_1_" class="st6" d="m-33.9,1462.7c0.1,8.7 7.3,15.8 16.3,15.9c0.7,0 0.7,1 0,1c-4.6,0 -9,-1.8 -12.2,-4.9s-5,-7.5 -5.1,-11.9c-0.1,-0.7 0.9,-0.7 1,-0.1l0,0"/>
       <path id="path54-39_1_" class="st6" d="m-22.3,1475.8c-3.9,-1.4 -7,-4.2 -8.6,-8c-0.2,-0.6 0.7,-0.8 1,-0.3c1.4,3.4 4.3,6.1 7.9,7.3c0.6,0.3 0.4,1.2 -0.3,1l0,0"/>
       <path id="path56-93_1_" class="st6" d="m-22,1482c-7,-1.5 -12.7,-6.6 -15,-13.3c-0.2,-0.6 0.8,-0.9 1,-0.3c2.1,6.3 7.6,11.1 14.2,12.6c0.7,0.2 0.4,1.2 -0.2,1l0,0"/>
      </g>
      <path id="path58-4_1_" class="st7" d="m129.9,1490.8l-4,4c-0.3,0.3 -0.7,0.5 -1.1,0.5s-0.8,-0.1 -1,-0.4c-0.1,-0.1 -0.2,-0.1 -0.2,-0.2l-3.8,-3.9c-0.5,-0.5 -0.6,-1.1 -0.4,-1.7c0.3,-0.6 0.9,-1.1 1.6,-1.1c0.4,0 0.8,0.2 1.1,0.5l1.2,1.2l0,-15.4l-24.7,0c-0.4,0 -0.8,-0.1 -1.1,-0.4c-0.4,-0.3 -0.6,-0.7 -0.6,-1.2l0,-14.7l-28.2,0c-0.4,0 -0.8,-0.1 -1.1,-0.4c-0.4,-0.3 -0.6,-0.7 -0.6,-1.2l0,-14.7l-29,0c-0.4,0 -0.8,-0.1 -1.1,-0.4c-0.4,-0.3 -0.6,-0.7 -0.6,-1.2l0,-12.8l3.2,0l0,11.1l29.1,0c0.9,0 1.6,0.8 1.6,1.6l0,14.7l28.2,0c0.9,0 1.6,0.8 1.6,1.6l0,14.7l24.5,0c0.9,0 1.6,0.8 1.6,1.6l0,17l1.2,-1.2c0.3,-0.3 0.7,-0.5 1.1,-0.5l0,0c0.6,0 1.3,0.5 1.5,1.1c0.6,0.7 0.4,1.3 0,1.8"/>
     </g>
     <g id="g6376_1_" transform="matrix(1,0,0,0.94962059,0,68.825455) ">
      <path id="path28-92_1_" class="st8" d="m235.2,1398.5l5.4,7.7c0.4,0.6 1,0.9 1.6,0.9c0.5,0 1,-0.3 1.4,-0.7c0.1,-0.1 0.2,-0.3 0.3,-0.4l5.3,-7.4c0.6,-0.9 0.8,-2.1 0.5,-3.3c-0.4,-1.2 -1.2,-2.1 -2.1,-2.1c-0.6,0 -1.1,0.3 -1.5,0.9l-1.6,2.3l0,-31.5l33.8,0c0.6,0 1.1,-0.3 1.5,-0.8c0.5,-0.6 0.8,-1.4 0.8,-2.4l0,-30.2l38.9,0c0.6,0 1.1,-0.3 1.5,-0.8c0.5,-0.6 0.8,-1.4 0.8,-2.4l0,-30.2l40,0c0.6,0 1.1,-0.3 1.5,-0.8c0.5,-0.6 0.8,-1.4 0.8,-2.4l0,-26.5l-4.5,0l0,23.4l-40,0c-1.2,0 -2.2,1.4 -2.2,3.1l0,30.2l-38.9,0c-1.2,0 -2.2,1.4 -2.2,3.1l0,30.2l-33.8,0c-1.2,0 -2.2,1.4 -2.2,3.1l0,34.6l-1.6,-2.3c-0.4,-0.6 -1,-0.9 -1.5,-0.9l0,0c-0.9,0 -1.8,0.9 -2.1,2.1c-0.7,1.4 -0.5,2.6 0.1,3.5"/>
      <g id="g6339_1_">
       <g id="g5752_1_" transform="matrix(1.5432537,0,0,1.5432537,-1022.9695,-778.68056) ">
        <path id="path30-7_1_" class="st9" d="m838.4,1430.647082c0,0 -1.5,2.1 0.2,2.9c1.8,0.8 1.9,-1.8 1.9,-1.8l-2.1,-1.1"/>
        <path id="path32-74_1_" class="st4" d="m840.9,1431.247082l-0.2,0.6l-2.5,-0.9l0.2,-0.6l2.5,0.9"/>
        <path id="path34-79_1_" class="st10" d="m853.5,1424.047082c0,0 -10.8,-7.4 -15.3,6.5l2.8,1.1c0,0 2.2,-10 10,-6.2l2.5,-1.4"/>
        <path id="path36-21_1_" class="st11" d="m839,1429.247082c0,0.1 0.1,0.3 0.2,0.3c0.1,0 0.3,-0.1 0.3,-0.2s-0.1,-0.3 -0.2,-0.3c-0.1,-0.1 -0.2,0 -0.3,0.2"/>
        <path id="path38-49_1_" class="st11" d="m838.7,1430.047082c0,0.1 0.1,0.3 0.2,0.3c0.1,0 0.3,-0.1 0.3,-0.2s-0.1,-0.3 -0.2,-0.3c-0.1,0 -0.3,0.1 -0.3,0.2"/>
        <path id="path40-43_1_" class="st9" d="m850.3,1438.447082c-1.2,-5.7 1.8,-11.2 7,-12.3c5.2,-1.1 10.6,2.7 11.7,8.4c1.2,5.7 -2.1,11.3 -7.2,12.3c-8.9,1.9 -10.3,-2.6 -11.5,-8.4"/>
        <path id="path42-65_1_" class="st8" d="m865.9,1440.747082c0,0 -8.5,-0.3 -15.3,2.5c2,6 8.9,9.2 16.6,4.7c9.1,-5.4 1.4,-17.2 -1.5,-19.8c-0.9,3.1 -0.7,6.4 -0.7,6.4s1.7,-1.3 2,0.9c0.2,1.5 -1.8,0.9 -1.8,0.9l0.7,4.4"/>
        <path id="path44-6_1_" class="st8" d="m865.7,1443.147082c0,0 6.3,5.4 10.6,0.9c5.7,-6 -6.1,-12.4 2.2,-16.8c-5.9,-2.8 -10.9,2.8 -7.3,8c5.1,7.4 -2.5,8.9 -5.5,7.9"/>
        <path id="path46-7_1_" class="st8" d="m860.5,1436.347082c-0.2,-0.9 0,-1.4 0.4,-1.5s0.7,0.3 0.9,1.2c0.2,0.9 0,1.4 -0.4,1.5c-0.3,0.1 -0.7,-0.3 -0.9,-1.2"/>
        <path id="path48-0_1_" class="st8" d="m852.1,1438.147082c-0.2,-0.9 0,-1.4 0.4,-1.5s0.7,0.3 0.9,1.2c0.2,0.9 0,1.4 -0.4,1.5c-0.3,0 -0.7,-0.4 -0.9,-1.2"/>
        <path id="path50-24_1_" class="st12" d="m858.7,1431.847082c-0.3,-1.3 -1.5,-2.1 -2.8,-1.9s-2.1,1.5 -1.9,2.8l4.7,-0.9"/>
        <path id="path52-9_1_" class="st9" d="m860.2,1428.547082l-0.7,-3.6l-2.8,-4l-1,4.8l0.7,3.6l3.8,-0.8"/>
        <path id="path54-02_1_" class="st10" d="m859.4,1424.947082l4.4,-2.4l-2.9,-10.1l0.6,-5.4l-14.3,2.9l2.5,4.8l1.4,10.6l4.6,0.4l1,-4.8l2.7,4"/>
        <path id="path56-28_1_" class="st4" d="m855.6,1425.747082l-0.9,-0.1l1.6,-6.5l4,5.4l-0.8,0.5l-2.8,-4l-1.1,4.7"/>
        <path id="path58-6_1_" class="st4" d="m859.4,1424.947082l0.8,-0.5l-0.3,-3.3l-1.1,0.8l-1.4,0.1l2,2.9"/>
        <path id="path60-11_1_" class="st4" d="m855.6,1425.747082l-0.9,-0.1l-1,-3.1l1.3,0.3l1.3,-0.5l-0.7,3.4"/>
        <path id="path62-6_1_" class="st11" d="m855.3,1417.647082c-0.1,-0.3 0.1,-0.6 0.4,-0.7c0.3,-0.1 0.6,0.1 0.7,0.4c0.1,0.3 -0.1,0.6 -0.4,0.7c-0.3,0.1 -0.6,-0.1 -0.7,-0.4"/>
        <path id="path64-698_1_" class="st11" d="m854.6,1414.247082c-0.1,-0.3 0.1,-0.6 0.4,-0.7c0.3,-0.1 0.6,0.1 0.7,0.4c0.1,0.3 -0.1,0.6 -0.4,0.7c-0.3,0.1 -0.6,-0.1 -0.7,-0.4"/>
        <path id="path66-2_1_" class="st11" d="m853.9,1410.847082c-0.1,-0.3 0.1,-0.6 0.4,-0.7c0.3,-0.1 0.6,0.1 0.7,0.4c0.1,0.3 -0.1,0.6 -0.4,0.7s-0.6,-0.1 -0.7,-0.4"/>
        <path id="path68-3_1_" class="st9" d="m875.7,1415.447082c0,0 2.6,0.4 1.8,2.2c-0.7,1.8 -2.6,0 -2.6,0l0.8,-2.2"/>
        <path id="path70-3_1_" class="st4" d="m874.5,1417.547082l0.6,0.3l0.8,-2.5l-0.6,-0.1l-0.8,2.3"/>
        <path id="path72-3_1_" class="st10" d="m861.2,1423.447082c0,0 0.4,-13 14.3,-8.5l-0.8,2.9c0,0 -8.9,-4.5 -10.9,4.6l-2.6,1"/>
        <path id="path74-20_1_" class="st11" d="m873.9,1414.847082c0.1,0.1 0.2,0.2 0.1,0.4c-0.1,0.1 -0.2,0.2 -0.4,0.1c-0.1,-0.1 -0.2,-0.2 -0.1,-0.4c0.1,-0.1 0.3,-0.1 0.4,-0.1"/>
        <path id="path76-41_1_" class="st11" d="m874.8,1415.147082c0.1,0.1 0.2,0.2 0.1,0.4c-0.1,0.1 -0.2,0.2 -0.4,0.1c-0.1,-0.1 -0.2,-0.2 -0.1,-0.4c0.1,-0.1 0.3,-0.2 0.4,-0.1"/>
        <path id="path78-3_1_" class="st9" d="m859.6,1405.547082l0.5,-7.9l7.9,-1.8c0,0 1.7,-3.9 0.2,-4.5c-1.7,-0.8 -1.7,3 -1.7,3l-8.7,1l-2.2,9.9l4,0.3"/>
        <path id="path80-8_1_" class="st10" d="m868,1395.847082l2.5,-1l-0.1,-0.4l-1.5,0.3c0,0 1.1,-1.5 0.2,-3.6c-1.3,-3.2 -2.8,1.1 -2.6,3.2c0,0 0,-2.7 1.1,-2.2c1.7,0.7 0.4,3.7 0.4,3.7"/>
        <path id="path82-8_1_" class="st9" d="m852.4,1407.247082l-7.9,-8l-4.9,-7.1c0,0 -4.2,-0.6 -4.4,1c-0.3,1.9 3.4,0.9 3.4,0.9l4,6.7l5.5,7.7l4.3,-1.2"/>
        <path id="path84-39_1_" class="st10" d="m839.5,1392.147082l-1.6,-2.1l-0.4,0.3l0.6,1.2c0,0 -1.6,-0.5 -3.4,0.9c-2.8,2.1 1.8,2.4 3.8,1.7c0,0 -2.6,0.7 -2.4,-0.4c0.3,-2 3.4,-1.6 3.4,-1.6"/>
        <path id="path86-33_1_" class="st10" d="m845.7,1405.447082l14.4,-3.8l0.1,5.6l-12.2,2.5l-2.3,-4.3"/>
        <path id="path88-63_1_" class="st13" d="m860.2,1405.647082l0,1.6l0,-1.6l0,0m-12.4,3.7l0.2,0.4l0,0l-0.2,-0.4l0,0"/>
        <path id="path90-5_1_" class="st14" d="m860.2,1405.647082l0,1.6l-12.2,2.5l-0.2,-0.4l12.4,-3.7"/>
        <path id="path92-43_1_" class="st4" d="m896.8,1359.947082l0,0c0.2,0 0.4,0.2 0.4,0.4c0,0 0,0.4 -0.1,1.2c0,0.2 -0.2,0.4 -0.4,0.3c-0.2,0 -0.4,-0.2 -0.3,-0.4c0.1,-0.7 0.1,-1.1 0.1,-1.1c0,-0.2 0.1,-0.4 0.3,-0.4"/>
        <path id="path94-4_1_" class="st4" d="m879.5,1388.647082c0.1,0 0.3,0.1 0.3,0.2c0.1,0.2 0,0.4 -0.1,0.5c-0.7,0.4 -1.3,0.7 -2,1.1c-0.2,0.1 -0.4,0 -0.5,-0.2s0,-0.4 0.2,-0.5c0.7,-0.3 1.3,-0.7 2.1,-1.1c-0.1,0 -0.1,0 0,0l0,0zm3.7,-2.5c0.1,0 0.2,0.1 0.3,0.1c0.1,0.2 0.1,0.4 -0.1,0.5c-0.6,0.5 -1.2,0.9 -1.9,1.3c-0.2,0.1 -0.4,0.1 -0.5,-0.1s-0.1,-0.4 0.1,-0.5c0.6,-0.4 1.2,-0.8 1.8,-1.3c0.2,0.1 0.3,0 0.3,0l0,0zm3.4,-2.9c0.1,0 0.2,0 0.3,0.1s0.1,0.4 0,0.5c-0.5,0.5 -1.1,1.1 -1.7,1.6c-0.2,0.1 -0.4,0.1 -0.5,0c-0.1,-0.2 -0.1,-0.4 0,-0.5c0.6,-0.5 1.1,-1 1.6,-1.5c0.1,-0.2 0.2,-0.2 0.3,-0.2l0,0zm3,-3.4c0.1,0 0.2,0 0.2,0.1c0.2,0.1 0.2,0.4 0.1,0.5c-0.5,0.6 -0.9,1.2 -1.4,1.8c-0.1,0.2 -0.4,0.2 -0.5,0c-0.2,-0.1 -0.2,-0.4 0,-0.5c0.5,-0.6 1,-1.1 1.4,-1.7c-0.1,-0.2 0,-0.2 0.2,-0.2l0,0zm2.4,-3.8c0.1,0 0.1,0 0.2,0c0.2,0.1 0.2,0.3 0.1,0.5c-0.4,0.7 -0.8,1.3 -1.2,1.9c-0.1,0.2 -0.3,0.2 -0.5,0.1s-0.2,-0.3 -0.1,-0.5c0.4,-0.6 0.8,-1.3 1.2,-1.9c0.1,0 0.2,-0.1 0.3,-0.1zm2,-4.1l0,0c0.3,0.1 0.4,0.3 0.3,0.5c-0.3,0.7 -0.6,1.4 -0.9,2.1c-0.1,0.2 -0.3,0.3 -0.5,0.2c-0.2,-0.1 -0.3,-0.3 -0.2,-0.5c0.3,-0.7 0.6,-1.3 0.9,-2c0.1,-0.2 0.2,-0.2 0.4,-0.3l0,0zm1.5,-4.2l0,0c0.3,0.1 0.4,0.3 0.4,0.5c-0.2,0.7 -0.4,1.5 -0.7,2.2c-0.1,0.2 -0.3,0.3 -0.5,0.2c-0.2,-0.1 -0.3,-0.3 -0.2,-0.5c0.2,-0.7 0.5,-1.4 0.7,-2.1c-0.1,-0.2 0.1,-0.3 0.3,-0.3l0,0zm1,-4.4l0,0c0.3,0 0.4,0.2 0.4,0.4c-0.1,0.7 -0.3,1.5 -0.4,2.2c0,0.2 -0.2,0.3 -0.5,0.3c-0.2,0 -0.3,-0.2 -0.3,-0.5c0.2,-0.7 0.3,-1.5 0.4,-2.2c0,-0.1 0.2,-0.2 0.4,-0.2"/>
        <path id="path96-56_1_" class="st4" d="m875.4,1390.647082c0.1,0 0.3,0.1 0.4,0.2c0.1,0.2 0,0.4 -0.2,0.5c-0.4,0.1 -0.7,0.3 -1.1,0.4c-0.2,0.1 -0.4,0 -0.5,-0.2s0,-0.4 0.2,-0.5c0.3,-0.1 0.7,-0.3 1,-0.4c0.1,0 0.2,0 0.2,0"/>
       </g>
      </g>
     </g>
    </g>
   </g>
  </g>
 </g>
</svg>