<?xml version="1.0" encoding="utf-8"?>
<!-- Generator: Adobe Illustrator 21.0.2, SVG Export Plug-In . SVG Version: 6.00 Build 0)  -->
<svg version="1.1"
	 id="svg2" inkscape:export-filename="C:\Users\sscerbatiuc\Desktop\Career levels-2\Final\CLevels.png" inkscape:export-xdpi="57.820419" inkscape:export-ydpi="57.820419" inkscape:version="0.91 r13725" sodipodi:docname="CLevels.svg" xmlns:cc="http://creativecommons.org/ns#" xmlns:dc="http://purl.org/dc/elements/1.1/" xmlns:inkscape="http://www.inkscape.org/namespaces/inkscape" xmlns:osb="http://www.openswatchbook.org/uri/2009/osb" xmlns:rdf="http://www.w3.org/1999/02/22-rdf-syntax-ns#" xmlns:sodipodi="http://sodipodi.sourceforge.net/DTD/sodipodi-0.dtd" xmlns:svg="http://www.w3.org/2000/svg"
	 xmlns="http://www.w3.org/2000/svg" xmlns:xlink="http://www.w3.org/1999/xlink" x="0px" y="0px" viewBox="0 0 1153.3 238"
	 style="enable-background:new 0 0 1153.3 238;" xml:space="preserve">
<style type="text/css">
	.st0{fill:#FBD6B1;}
	.st1{fill:#4E2E22;}
	.st2{fill:#EC6180;}
	.st3{fill:#2E2D2D;}
	.st4{fill:#F8F8F8;}
	.st5{fill:#7A7B7C;}
	.st6{fill:#90B39B;}
	.st7{fill:#84572F;}
	.st8{fill:#6E492A;}
	.st9{fill:#5E3E25;}
	.st10{fill:#F8EF16;}
	.st11{fill:#464648;}
	.st12{fill:#789683;}
	.st13{fill:#2C1913;}
	.st14{fill:#FBD8B5;}
	.st15{clip-path:url(#SVGID_2_);}
	.st16{fill:#3A383A;}
	.st17{font-family:'Arial-BoldMT';}
	.st18{font-size:16.2536px;}
	.st19{fill:url(#path3101_1_);}
	.st20{clip-path:url(#SVGID_4_);}
	.st21{fill:url(#path3133_1_);}
	.st22{clip-path:url(#SVGID_6_);}
	.st23{font-size:111.0577px;}
	.st24{letter-spacing:2.2;}
</style>
<sodipodi:namedview  bordercolor="#666666" borderopacity="1" gridtolerance="10" guidetolerance="10" id="namedview4" inkscape:current-layer="g10" inkscape:cx="1367.7272" inkscape:cy="1109.7718" inkscape:guide-bbox="true" inkscape:pageopacity="1" inkscape:pageshadow="2" inkscape:window-height="1017" inkscape:window-maximized="1" inkscape:window-width="1920" inkscape:window-x="-8" inkscape:window-y="-8" inkscape:zoom="0.35355339" objecttolerance="10" pagecolor="#ffffff" showgrid="true" showguides="true" units="mm">
	<inkscape:grid  enabled="true" id="grid5839" spacingx="19.5" spacingy="19.6" type="xygrid" visible="false"></inkscape:grid>
	<sodipodi:guide  id="guide6375" orientation="0,2979.9213" position="0,1300.79122199"></sodipodi:guide>
	<sodipodi:guide  id="guide6377" orientation="0,2979.9213" position="0,803.933187455"></sodipodi:guide>
	<sodipodi:guide  id="guide6379" orientation="2104.7244,0" position="1841.69262237,0"></sodipodi:guide>
	<sodipodi:guide  id="guide6381" orientation="2104.7244,0" position="1138.22863746,0"></sodipodi:guide>
	<sodipodi:guide  id="guide8954" orientation="0,1" position="868.85748,1079.045"></sodipodi:guide>
	<sodipodi:guide  id="guide8956" orientation="0,1" position="2086.5,1807.4534"></sodipodi:guide>
	<sodipodi:guide  id="guide8958" orientation="0,1" position="2275.8232,1803.2"></sodipodi:guide>
	<sodipodi:guide  id="guide8960" orientation="0,1" position="2345.5,1776.5"></sodipodi:guide>
	<sodipodi:guide  id="guide8962" orientation="0,1" position="1493.75,1749.25"></sodipodi:guide>
	<sodipodi:guide  id="guide8964" orientation="0,1" position="916.5,1724.8"></sodipodi:guide>
</sodipodi:namedview>
<defs>
	
	
		<inkscape:perspective  id="perspective4983" inkscape:persp3d-origin="1489.9606 : 701.5748 : 1" inkscape:vp_x="0 : 1052.3622 : 1" inkscape:vp_y="0 : 1000 : 0" inkscape:vp_z="2979.9212 : 1052.3622 : 1" sodipodi:type="inkscape:persp3d">
		</inkscape:perspective>
</defs>
<g id="g10" transform="matrix(1.25,0,0,-1.25,0,2104.7244)" inkscape:groupmode="layer" inkscape:label="10520-NMWDEW">
	<g id="g8291" transform="matrix(0.42880951,0,0,0.42880951,718.07318,1089.2118)">
		<path id="path28-1" inkscape:connector-curvature="0" class="st0" d="M395.2,1251.3c0-32.7-22.6-59.2-52-59.2
			s-54.6,26.5-54.6,59.2c0,32.7,23.9,59.2,53.3,59.2C392.9,1310.5,395.2,1284,395.2,1251.3"/>
		<path id="path30-0" inkscape:connector-curvature="0" class="st1" d="M312.9,1281.3c0,0,42.9-10.5,82.8-2.7
			c-4.1,35.1-35.2,59.6-81.9,43.6c-55.4-19.1-26.9-92.3-13.7-109.6c8.3,16,11,34.4,11,34.4s-10.6-5.1-9.8,7.1c0.6,8.4,10.8,3,10.8,3
			L312.9,1281.3"/>
		<path id="path32-96" inkscape:connector-curvature="0" class="st1" d="M316.4,1294c0,0-28.3,36.8-56.7,16.7
			c-37.6-26.6,19.2-74.8-30.8-89.3c29-21.7,62.5,3.3,49,35.4C258.3,1303.5,301.3,1302.9,316.4,1294"/>
		<path id="path34-8" inkscape:connector-curvature="0" class="st0" d="M454.9,1208c-0.9,0.6-1.7,0.9-2.5,1.1
			c3.9,5.8,8.3,12.9,6.2,13.9c-3,1.4-11.2-13.7-14-18c-0.2-0.2-0.3-0.5-0.4-0.7c-1.7-2.4-2.6-4.9-2.6-4.9l10.8-7.6
			C452.5,1191.8,463.9,1202,454.9,1208"/>
		<path id="path36-7" inkscape:connector-curvature="0" class="st1" d="M336,1251.4c0-4.9-1.7-7.5-3.7-7.5c-2.1,0-3.7,2.7-3.7,7.5
			c0,4.9,1.7,7.5,3.7,7.5S336,1256.3,336,1251.4"/>
		<path id="path38" inkscape:connector-curvature="0" class="st1" d="M383.8,1251.4c0-4.9-1.7-7.5-3.7-7.5c-2.1,0-3.7,2.7-3.7,7.5
			c0,4.9,1.7,7.5,3.7,7.5C382.1,1258.9,383.8,1256.3,383.8,1251.4"/>
		<path id="path40-7" inkscape:connector-curvature="0" class="st2" d="M340.8,1224.5c0-7.3,6-13.3,13.3-13.3
			c7.3,0,13.3,6,13.3,13.3H340.8"/>
		<path id="path42-2" inkscape:connector-curvature="0" class="st0" d="M330.3,1208.3v-20.6l11-24.9l11,24.9v20.6H330.3"/>
		<path id="path44-9" inkscape:connector-curvature="0" class="st3" d="M330.3,1187.7l-26.5-8.5l4.7-58.1l-9.3-29h81.6l-8.3,29
			l4.5,59.4l-24.6,7.2l-11-24.9L330.3,1187.7"/>
		<path id="path46-0" inkscape:connector-curvature="0" class="st4" d="M352.4,1187.7l4.8-1.4l-15.8-33.9l-15.9,33.8l4.9,1.6
			l11-24.9L352.4,1187.7"/>
		<path id="path48-9" inkscape:connector-curvature="0" class="st4" d="M330.3,1187.7l-4.9-1.6l-1.9-18.1l6.8,3.3l7.8-1.3
			L330.3,1187.7"/>
		<path id="path50-4" inkscape:connector-curvature="0" class="st4" d="M352.4,1187.7l4.8-1.4l2-18.3l-6.8,3.3l-7.8-1.3
			L352.4,1187.7"/>
		<path id="path52-5" inkscape:connector-curvature="0" class="st5" d="M344.6,1143.2c0-1.8-1.4-3.2-3.2-3.2s-3.2,1.4-3.2,3.2
			c0,1.8,1.4,3.2,3.2,3.2S344.6,1145,344.6,1143.2"/>
		<path id="path54-4" inkscape:connector-curvature="0" class="st5" d="M344.6,1124c0-1.8-1.4-3.2-3.2-3.2s-3.2,1.4-3.2,3.2
			c0,1.8,1.4,3.2,3.2,3.2S344.6,1125.7,344.6,1124"/>
		<path id="path56-9" inkscape:connector-curvature="0" class="st5" d="M344.6,1104.7c0-1.8-1.4-3.2-3.2-3.2s-3.2,1.4-3.2,3.2
			c0,1.8,1.4,3.2,3.2,3.2S344.6,1106.5,344.6,1104.7"/>
		<path id="path62-0" inkscape:connector-curvature="0" class="st3" d="M361.5,1176.8c0,0,47.7-54.9,91.8,13.5l-13.6,9.8
			c0,0-26.1-50.8-62.7-19.6L361.5,1176.8"/>
		<path id="path64-8" inkscape:connector-curvature="0" class="st5" d="M443.7,1180.2c0.4,0.8,0.1,1.7-0.7,2.1
			c-0.8,0.4-1.7,0.1-2.1-0.7c-0.4-0.8-0.1-1.7,0.7-2.1S443.3,1179.4,443.7,1180.2"/>
		<path id="path66-8" inkscape:connector-curvature="0" class="st5" d="M446.8,1184.5c0.4,0.8,0.1,1.7-0.7,2.1
			c-0.8,0.4-1.7,0.1-2.1-0.7c-0.4-0.8-0.1-1.7,0.7-2.1S446.5,1183.7,446.8,1184.5"/>
		<path id="path68-0" inkscape:connector-curvature="0" class="st5" d="M449.9,1188.7c0.4,0.8,0.1,1.7-0.7,2.1
			c-0.8,0.4-1.7,0.1-2.1-0.7c-0.4-0.8-0.1-1.7,0.7-2.1S449.5,1187.9,449.9,1188.7"/>
		<path id="path74" inkscape:connector-curvature="0" class="st3" d="M303.9,1179.3c0,0-64.8-33.1-9.1-92.4l12.8,10.8
			c0,0-43.9,34.3-2.5,66L303.9,1179.3"/>
		<path id="path82-3" inkscape:connector-curvature="0" class="st6" d="M459.6,942.6H216.2c-9.5,0-17.3,7.7-17.3,17.3
			c0,9.6,7.8,17.4,17.3,17.4H235v-18.6h205.2v18.6h19.4c9.6,0,17.4-7.8,17.4-17.4S469.2,942.6,459.6,942.6"/>
		<path id="path84-5" inkscape:connector-curvature="0" class="st7" d="M453.4,1098.3v-12.2l-230.9-0.1v12.2L453.4,1098.3"/>
		<path id="path86-9" inkscape:connector-curvature="0" class="st8" d="M222.5,1086.1h69.3v12.2h-69.3V1086.1z"/>
		<path id="path88-1" inkscape:connector-curvature="0" class="st7" d="M235,958.6h205.2v127.5H235V958.6z"/>
		<path id="path90-9" inkscape:connector-curvature="0" class="st8" d="M235,958.6h69.4v127.5H235V958.6z"/>
		<path id="path92-0" inkscape:connector-curvature="0" class="st8" d="M440.2,1067.1H304.4v19h135.8V1067.1"/>
		<path id="path94-8" inkscape:connector-curvature="0" class="st9" d="M235,1016.9v69.2h69.4v-19l0,0L235,1016.9"/>
	</g>
	<g id="g4340" transform="matrix(0.16635406,0,0,-0.16635406,549.88896,1698.5949)">
		<path id="path16-0" inkscape:connector-curvature="0" class="st10" d="M-3247.4,447.4c0.3-63.2-98.8-105.7-38.8-184
			c46.3-60.5,127-30.5,146.8,19.1c18.6,46.5-39,103-38.4,163.5L-3247.4,447.4"/>
		<path id="path18-5" inkscape:connector-curvature="0" class="st11" d="M-3228.3,447c-1-3.3-1.4-7-2.1-10.2
			c-1.8-8.2-4.1-16.4-5.8-24.6c-3.8-18.4-8.1-36.6-9.8-55.3c-1.1-13-2.6-25.9,2-38.4c2.5-6.8,6.5,1.8,7.6,4.4
			c1.7,4.2,3.2,8.3,4.3,12.7c1.3,5,2.1,10.2,2.9,15.4c0.1,2.8,0.5,5.6,1.5,8.1v0.1l0,0c0.1,0.2,0.2,0.4,0.2,0.7c1.3,2.9,5.6,0.9,5-2
			c-0.7-3.1-1.2-6.2-1.7-9.2c0-9.2,3.7-20.5,6.8-27.1c3.8-8,6.6,9.5,7,11.9c0.3,2,0.6,4,0.8,6.1c-0.6,4.4-0.6,8.7,0.9,12.3
			c1.1,2.6,5,1.3,5.1-1.3c0-1.6,0-4.6-0.1-8.1c0.1-0.7,0.3-1.4,0.3-2.2c0.1-4.6,0.9-9,2-13.5c0.9-4,1.9-7.9,3.2-11.7
			c1.9-5.4,4.8-3.5,5.6,1.5c0.7,4.6,1.4,9.1,1.4,13.7c0,8.5-1,17.2-1.6,25.7c-1.2,17.7-2.3,35.4-3.1,53.1c-0.6,12.5-2.3,25-3.4,37.4
			L-3228.3,447z M-3177.1,478c0,0,10.6-10-0.2-13.2c0,0,11.7-12-0.5-18.7l-16.3,0.3c1.3-18.6,3.5-37.2,4.8-55.8
			c0.8-11.5,1.3-23,2-34.6c0.7-11.4,2.3-23,1.1-34.4c-0.6-6-1-13.9-6.8-17.2c-3.9-2.3-7.2,2.3-8.8,5.2c-2.1,4-3.3,8.7-4.3,13.2
			c-1.9-7.1-5-12.3-10.4-10.8c-6.5,1.7-9,15.5-10.2,20.7c-0.1,0.4-0.2,0.9-0.3,1.3c-0.7-2.7-1.4-5.4-2.4-8.1
			c-2.1-6-4.1-14.2-10.7-16.5c-10.1-3.6-12.3,20.4-12.5,25.4c-1,23.1,4.4,47.1,9.5,69.4c2.6,11.3,5.1,22.6,7.6,33.8
			c0.5,2.4,0.9,5.7,1.6,9l-13.3,0.3c0,0-12.8,7.2-0.4,18.9c0,0-11.6,7.1-0.3,13.9c0,0-11.5,7.6,1,13.9l14.4,0.3l11.1,12.2l18,0.4
			l11.1-12.4l12.1-1C-3180.3,493.5-3163.7,487.1-3177.1,478"/>
		<path id="path20-40" inkscape:connector-curvature="0" class="st4" d="M-3226.5,178.3L-3226.5,178.3L-3226.5,178.3L-3226.5,178.3"
			/>
		<path id="path22-2" inkscape:connector-curvature="0" class="st4" d="M-3227,164.3c0,0,0.1,0,0.1,0.1
			C-3226.9,164.3-3227,164.3-3227,164.3z M-3223.4,184.1h0.6l-0.4-0.1c-0.6,0-1.6,0-1.5,0.1c-1.6-0.1-0.2-0.1-0.6-0.3
			c-0.9-0.1,0.1,0.1-0.8,0.1c-0.8,0-0.9-0.1-1-0.2c0-0.2,1-0.1,1.6-0.1c0.1,0,0.3,0.1-0.3,0.1c1,0.2,1.9-0.1,2.6,0.1
			c0.6-0.1-0.6-0.1-0.9-0.2c-0.1,0.1-0.9,0-1.3,0c-2.5-0.3,1.8-0.1,1.4-0.4c-1.6,0-2.3-0.4-4-0.2c-0.3-0.1-0.7-0.1-0.5-0.2
			c1.1,0.1,0.9-0.1,1.9,0v-0.1l1.3,0.1c0.8-0.1,1.5-0.2,2-0.3c-0.5-0.1-1.1,0-1.3-0.1c0.6,0.1,1.1,0,1-0.1c-0.4,0.1-1.6,0-1.8-0.1
			c0-0.1,1-0.2,1.3-0.2l0.9,0.1c-0.8-0.1,0.4,0,0.1-0.1c-0.6,0-1.5-0.1-2.3-0.1c-0.3-0.1,0.5-0.1,0.4-0.2l0.7,0.1
			c-0.2-0.2,1.7,0,1.3-0.2l-0.9-0.1c0.1,0,0.5-0.1,0.8,0c-0.6,0-0.5-0.1-0.7-0.2h0.6c-0.4-0.1-1.6-0.2-0.5-0.3
			c-1.4,0.1,0,0.1-0.6,0.2c-1,0.1-0.9-0.1-1.1-0.2c1.5,0,0.1-0.2,0.2-0.3c0.5-0.1,0.8-0.1,1.1-0.1l-1-0.1c1.9,0-0.4-0.2,0.2-0.3
			c0.6,0.1,1.3,0.1,1.6,0c-1.4,0.1-1.7-0.2-2.7-0.1c0.5-0.2,1.8,0.1,2.8,0c-1.1-0.1,0.7-0.2-0.7-0.3c-0.4,0.1-0.9,0-1.5-0.1
			c0.1-0.2,0.6,0,1.1-0.1c-0.2-0.1-1.3-0.2-1.7-0.1c0.3-0.1-1-0.2-0.2-0.3c0.9,0,0.4,0.2,1,0.1c0.1-0.2-2.2-0.1-2.5-0.4
			c-0.5,0.1-2,0-2.5-0.1c0.4-0.2,0.5,0.1,1.6,0l-0.2-0.1c1.5-0.1,2.5,0.3,3.8,0.2l-0.5-0.1c0.4,0,1.2,0.1,1.6,0
			c-1.1,0-0.3-0.2-0.5-0.3c-0.9,0,0.3,0.1-0.4,0.1c-0.2-0.1-1.7-0.2-1.2-0.3c0.6,0.1,1.2,0,1.7,0c0.4-0.1-1.1,0-0.6-0.1h0.5
			c0.2-0.4,0.1-1-2.1-1.4c0.9-0.1,1-0.2,1.6-0.4c-0.3,0.1-0.9,0-1-0.1l1-0.1c0.6-0.1-0.4-0.3-1-0.4h0.8c0.7-0.1-0.6-0.1-0.8-0.2
			l0.7-0.1h-0.7c-0.4-0.1-0.2-0.3,0.9-0.2c-0.2,0-0.4-0.1-0.8,0c0.7-0.1,0.7-0.4,0.3-0.6c-0.3,0.1-0.7,0.1-1.4,0.1
			c-1.3,0,0.2,0-0.5-0.1c0.5,0,0.9-0.1,1.3,0c1.6-0.3,0.3-0.7,0.6-1c-0.2-0.1-0.4-0.1-0.7-0.1c1.3-0.2-0.1-0.5,0.5-0.7
			c-0.5,0.1-2,0-2-0.2c-1-0.1,1.4,0,2.1-0.2c-0.5-0.1-0.6-0.2-0.5-0.2h0.2c-0.5-0.1-0.9-0.2-0.4-0.3h0.1c0.1-0.1,0.7-0.2,0.7-0.2
			c-1,0-0.4-0.2-1.2-0.3c0.1,0,0.2,0,0.4,0h-0.8l0.5-0.1c0.3,0,0.7,0.1,0.9,0.1c0.6-0.2-0.8-0.1-1.2-0.2c-0.6-0.1,0.2-0.1,0.6-0.2
			c0.4,0.1-0.2,0.1,0,0.1c0.7,0.1,0.3-0.1,0.7-0.1c0,0-1-0.1-0.8-0.1c0.1-0.1-0.2-0.3,0.7-0.2c-0.5-0.1-0.4-0.1-0.8-0.2
			c-0.2,0.1-0.4,0.2-1,0.2c-0.1-0.1-0.4-0.2,0-0.2h0.2c-0.2,0,0.1-0.2-0.8-0.1l1.1-0.1c-0.7-0.1-0.6-0.2-0.8-0.3
			c0.9,0,1.9,0.1,2.1-0.1l-0.9-0.2c-0.1-0.1,0.1-0.1,0.7-0.1c0.5-0.3-2.5-0.3-1.7-0.5c1.1,0.1,1.2,0,1.5-0.1c-0.2,0-0.5,0-0.6-0.1
			c-0.5,0,0.8,0.1,0,0.1c-0.7,0-0.4-0.1-0.7-0.1c2.3-0.2,0.6-0.6,1.7-0.9c-1.3,0-0.4-0.1-0.9-0.2c1.4,0-0.2-0.2,0.6-0.3h-1.3
			c0.8-0.2-2-0.3-0.4-0.4c0.4-0.1,1,0,1.2,0.1c1.5-0.1-1.2-0.4,0.4-0.5c-0.5,0-1.4,0-1.9-0.1c0.6-0.1,1.3-0.3,1.5-0.3
			c-0.3-0.1-0.7-0.1-0.2-0.2c0.3,0,0.4,0,0.5,0.1c0.3-0.1-0.2-0.3-0.7-0.4c1-0.1,0.5-0.3,1.1-0.5c-1.3-0.1,0.5-0.3-1.1-0.3
			c0.2,0,0.4,0,0.5,0c-0.5-0.1-1.5-0.1-1.6-0.2h1.1c1.4,0,0.3-0.2,0.9-0.2c-0.9,0.1,0-0.1-0.8-0.1l-0.3-0.1c-0.3-0.1-0.5,0-0.7-0.2
			c-0.1-0.1,1.2,0,1.1,0c0.6-0.1,0.2-0.2,0-0.3c0,0-0.1,0-0.3,0c0.1,0,0.2,0,0.3,0c-0.1,0-0.2-0.1-0.2-0.1s0,0,0.1,0
			c0.1,0,0.1,0.1,0.1,0.1c0.1,0,0.1-0.1,0.1-0.1c0.1,0,0.1,0,0,0c0,0,0.1-0.1,0.2-0.1h0.8c0-0.1-0.9-0.2-1.3-0.2
			c0.7-0.2,0.1-0.7-0.3-0.8c0.2,0,0.5,0,0.2,0c-0.2-0.1-0.9-0.2-0.3-0.2c-0.3-0.1,0.6-0.1,0.7-0.2c0.1,0-0.5,0-0.7,0
			c1.1-0.2-0.8-0.5,0-0.8c0.1,0,0.5,0.1,0.8,0.1c-0.4-0.2-0.8-0.4-1.8-0.6c0.4,0,0.7,0,0.9,0.1c0-0.1-0.2-0.3-1-0.4
			c-0.4,0.1,0.5,0,0.4,0.1c-0.7,0.1-1.5-0.1-1.3-0.2h0.2c0-0.1-0.5-0.1-0.5-0.3c0.5-0.1,0.2,0.1,0.8,0.1c1.3,0,0.8-0.3,1-0.3
			c-0.3,0-0.5-0.1-0.9-0.1c-0.4-0.1,0.8,0,0.7-0.1l-2.6-0.3c0.2,0.1,1.2-0.1,1.7,0c-0.2-0.2-1.7-0.4-2.6-0.5
			c0.2-0.1-0.3-0.3-0.4-0.4c0.7,0,0,0.1,0.5,0.1l0.8-0.1c0.1,0.1,1.3,0,1.8,0.1c-0.5-0.1,0.1-0.4,0.3-0.6c-1.5,0.1-0.7-0.2-2.1-0.3
			c-0.2-0.2,1.1-0.1,1.4-0.2c-0.5-0.2-0.1-0.4-0.3-0.6c0,0,0.2,0,0.3,0c-0.4-0.2,0-0.5-1.2-0.7h0.8c0.5-0.2-1.8-0.1-0.9-0.3l0.7,0.1
			c-0.7-0.1,0.6-0.3-0.4-0.4c0.4,0,0.5,0,0.7,0.1c-0.3-0.1-0.1-0.3-1.1-0.5c0.4,0,0.8,0,1.1,0.1c0.5-0.1-1.2-0.2-0.8-0.3
			c0.1,0,0.6-0.1,0.7-0.1c-0.6-0.1-0.6-0.3-0.8-0.4c0.4,0,0.6-0.1,1.1-0.1c0-0.7,0.2-1.5-1-2.3c1.4-0.1,0.9,0.2,1.8,0.1
			c-1.2,0-0.3-0.1-0.7-0.4h0.2c-0.3-0.1,0.5-0.1,0.1-0.3h-0.3c-0.8-0.1,1.5-0.2,0-0.3l0.8-0.1c-1.3-0.1,0.4-0.2-0.7-0.3h0.2
			c0.6-0.2-1.4-0.4-0.4-0.4c-0.2-0.1-0.5-0.3-1.5-0.4c0.4,0,1,0,1.4,0c-0.5-0.6-0.2-1.2-1.7-1.7h0.6c-1.2-0.3,1.3-0.6-1-0.9l-1-0.1
			c0.4-0.1,1.1-0.1,1.4-0.1c-0.6-0.1-0.2-0.3-1-0.3c0.4,0,0.5,0,0.8,0c0.2-0.1-1.2-0.3-0.9-0.5h0.4c1.7-0.7,3-1.6,0.8-2.2
			c-0.4-0.2,1.3-0.1,1.2-0.1c-1.8-0.6,1.1-1.3-1.7-1.9c-0.7-0.4-3.8-0.6-3.8-0.6c1.1,1.1-0.2,2-1.8,3c0.2,0.4,0.7,0.8,0.2,1.1
			c0.3,1.4-2.1,2.7-1.1,4.1c0.4-0.1,1,0,1.2,0.1h-0.3l0.8,0.1c0.1,0.1-0.9,0.1-1,0c0,0.6,0.3,1.1,0.1,1.6c1.1,0.1,0.1,0.3,1.3,0.3
			c-0.2,0-0.3,0-0.5,0c0.6,0.4,0.6,0.4-0.8,0.7c-1,1.5-0.2,2.9-0.5,4.3c0.2,1.5,1.2,2.9,1.5,4.4c1.8,0.2,1,0.6,2.5,0.8h-0.6
			c0.8,0.2-0.2,0.3-0.8,0.6c0.6,0,0.2,0.1,1.2,0.1c0.9,0.1-1.5,0.2-1,0.3c-0.4,0,0.6,0,0.3,0c1.3,0.4-0.6-0.1-1.6,0.4
			c0.4,0.7,1.5,1.4,0.8,2c-0.1,0,0.8-0.1,0.8,0c-1.7,0,0.5,0.2-0.2,0.3c-0.4,0-0.5-0.1-0.6-0.1c-0.7,0.3,0.3,0.5-0.4,0.8
			c0.7,0.3-0.8,0.6,0.1,0.7c-0.7,0-0.5,0.1-0.9,0.2c2.1,0.2-0.7,0.5,0.7,0.8h-0.4c0.2,0.7-0.3,1.5,0.6,2.2c0.2,0.4-1.6,0.9-0.7,1.3
			c0.3,0.1,0.7,0,0.9,0.1c-0.1,0.1-0.6,0-0.9,0c0.8,0.2-0.2,0.5-0.2,0.8c0.3,0,0.4,0.1,0.9,0.1c-1.4,0.3,0.5,0.7-0.6,1.1
			c1.8-0.1,1,0.2,1.4,0.3c-0.1,0.1-0.6,0.1-0.9,0c0.2,0.2,0.3,0.4-0.2,0.7c0.2,0.1,1.2,0.2,0.9,0.3c-1.2,0.1-0.1,0.3-0.5,0.5
			c1.1,0,1.9,0.2,1.4,0.3l-1.5-0.1c1,0.5-0.7,1.2,1.1,1.8h-0.9c1,0.6-0.1,1.2,1.6,1.8c-0.5,0.2-0.8,0.4-0.8,0.6
			c0.7,0.2,0.7,0.3,1.9,0.5c0.1,0.1-0.6,0.1-0.9,0.1c-0.2,0.3-1.5,0.5-0.1,0.7h-0.7c0.8,0.2,1.7,0.5,0.8,0.8
			c0.7,0.1,0.9,0.3,1.8,0.2c0.2,0.1-1.3,0.1-0.5,0.1l-1.1-0.1c-0.3,0.5,0.3,1,0.8,1.5c-1.3,0.1,0.1,0.5-0.6,0.8
			c0.7,0.2-0.3,0.5,1.3,0.6h-0.7c-0.1,0.2-0.1,0.5-0.5,0.8c-0.2,0.2,0.9,0.2,1.3,0.3h-0.7c0.5,0.1,1.6,0.2,2.4,0.3
			c-0.5,0.1,0,0.1-0.5,0.2c-0.4-0.1-1.2-0.2-2.2-0.3c-0.3,0.2,1.6,0.4,0.4,0.5c-0.3,0.2,0,0.3,1,0.3c-0.3,0-0.6,0.1-1,0
			c0,0.1,0.1,0.2,0.5,0.3l0.1-0.1c0.8,0.1,0.7,0.2,1.8,0.2c-0.3-0.1-0.5-0.1-0.4-0.1c0.8,0,1,0.2,0.3,0.3c-0.8,0.1-1.3-0.1-1.8-0.1
			l1.8,0.3c-0.2-0.1,0.2-0.1,0.9-0.1l-0.5-0.1h0.8c-0.3-0.2,0.5-0.4-0.1-0.6l-0.8,0.1c0-0.1-1.2-0.3-0.2-0.4c0.3,0.1,0.7,0,1.2,0
			c-0.1,0-0.5-0.1-0.3-0.1l1.4,0.1c-1.9-0.1-0.7-0.4-1-0.4h0.3c0.6-0.2-0.8,0-0.8-0.1c0.2-0.1,1.5,0,2.1-0.1c0-0.2-1.1-0.5,0-0.7
			c-0.2-0.2-0.7-0.4-1.4-0.5c0-0.2,1.5,0,0.8-0.1c0.5,0,1,0,1.5,0c-0.6,0,0.1-0.3-1.2-0.2c0.3-0.2,0.4-0.5,0.1-0.7
			c0.1,0.1,1,0.1,1.4,0.1c-0.9-0.1-1.4-0.3-1.1-0.5c-0.9,0-0.9,0.1-1.8,0c-0.1,0-0.6-0.1-0.5-0.1c1,0,2.4,0,2.4-0.2
			c1.5,0.1-0.2,0.3,1.3,0.2c1.2,0.1,1.3,0.4,0.5,0.5c1.3,0.2,0.2-0.1,1.4-0.1c-0.1-0.1-0.7-0.2-0.9-0.4c-0.6,0-0.7,0.1-1.2,0
			c-1.3-0.2,0.9-0.2,1-0.3l0.3,0.1c0.4-0.1-0.4-0.2-0.4-0.3c1.7,0,0.2,0.2,1.2,0.3l1.2-0.1C-3222.3,184.2-3223.8,184.3-3223.4,184.1
			"/>
		<path id="path24-16" inkscape:connector-curvature="0" class="st4" d="M-3235.9,181.3L-3235.9,181.3c-0.1,0-0.1-0.1-0.2-0.1
			C-3236.1,181.3-3236,181.3-3235.9,181.3"/>
		<path id="path26-0" inkscape:connector-curvature="0" class="st4" d="M-3226.3,176L-3226.3,176C-3226,176-3226.1,176-3226.3,176"
			/>
		<path id="path28-0" inkscape:connector-curvature="0" class="st4" d="M-3225.8,181.9l-0.3-0.1l-0.3,0.1H-3225.8"/>
		<path id="path30-1" inkscape:connector-curvature="0" class="st4" d="M-3225.5,175.5c-0.1,0-0.9,0-0.6,0.1
			C-3226.1,175.5-3225.4,175.6-3225.5,175.5"/>
		<path id="path32-71" inkscape:connector-curvature="0" class="st4" d="M-3228.7,172.2L-3228.7,172.2h-1.1H-3228.7"/>
		<path id="path34-85" inkscape:connector-curvature="0" class="st4" d="M-3145,215.6c-0.3-0.2-0.1,0,0.2,0.4
			C-3144.3,216.2-3145,215.9-3145,215.6"/>
		<path id="path36-4" inkscape:connector-curvature="0" class="st4" d="M-3135.2,202.2l0.1,0.1v-0.1H-3135.2"/>
		<path id="path38-9" inkscape:connector-curvature="0" class="st4" d="M-3143.9,215.4c0-0.1-0.1-0.1-0.1-0.1
			C-3144,215.2-3144,215.3-3143.9,215.4"/>
		<path id="path40-9" inkscape:connector-curvature="0" class="st4" d="M-3128.8,196.5L-3128.8,196.5c0-0.1,0-0.1-0.1-0.2
			C-3128.9,196.3-3128.9,196.4-3128.8,196.5"/>
		<path id="path42-4" inkscape:connector-curvature="0" class="st4" d="M-3120.1,201.4C-3120.1,201.4-3120,201.4-3120.1,201.4
			C-3120,201.4-3120.1,201.4-3120.1,201.4L-3120.1,201.4"/>
		<path id="path44-341" inkscape:connector-curvature="0" class="st4" d="M-3120.1,200.8v0.1
			C-3120.1,200.8-3120.2,200.8-3120.1,200.8z M-3105.3,182c-0.1-0.9-2-3.3-2-3.3c-0.2,1.6-1.8,1.3-3.7,0.9c-0.1,0.4-0.2,1.1-0.8,1
			c-1,1.2-3.7,0.4-4.2,2.2c0.3,0.2,0.6,0.7,0.7,0.9l-0.2-0.2l0.4,0.7c0,0.1-0.6-0.6-0.7-0.8c-0.5,0.4-0.7,1-1.3,1.3
			c0.7,0.9-0.2,0.2,0.6,1.2c-0.2-0.1-0.2-0.2-0.3-0.4c0.1,0.7,0.1,0.8-1.2-0.1c-1.9,0.3-2.5,2-4,2.8c-1.1,1.2-1.6,3-2.7,4.4
			c1,1.5,0.2,1.1,1,2.5l-0.4-0.4c0.3,0.8-0.3,0.1-1-0.2c0.4,0.5,0,0.2,0.8,1c0.5,0.8-1.1-1-0.9-0.5c-0.2-0.3,0.4,0.5,0.2,0.2
			c0.5,1.2-0.3-0.5-1.4-0.9c-0.3,0.8-0.2,2.1-1.1,2.1c0-0.1,0.6,0.6,0.5,0.6c-1.2-1.3,0.1,0.5-0.4,0.1c-0.2-0.3-0.3-0.4-0.3-0.5
			c-0.7-0.3-0.2,0.7-1,0.3c0.3,0.7-1-0.2-0.5,0.6c-0.4-0.6-0.4-0.3-0.7-0.5c1.2,1.7-0.9-0.2-0.2,1l-0.2-0.3
			c-0.5,0.6-1.5,0.8-1.5,2.1c-0.2,0.5-1.8-0.6-1.6,0.5c0.1,0.3,0.5,0.6,0.5,0.7c-0.1,0.1-0.4-0.5-0.6-0.6c0.4,0.8-0.6,0.3-0.8,0.5
			c0.2,0.3,0.2,0.4,0.5,0.8c-1.2-0.8-0.3,0.9-1.3,0.4c1.3,1.3,0.5,0.9,0.6,1.3c-0.1,0-0.4-0.4-0.6-0.6c-0.1,0.3-0.1,0.5-0.7,0.3
			c0,0.3,0.6,1,0.3,0.9c-0.9-0.9-0.3,0.2-0.7,0c0.7,0.8,1.1,1.6,0.7,1.3l-0.9-1.2c0.2,1.1-1.5,0.3-0.8,2.2l-0.6-0.6
			c0.2,1.2-1.1,0.8-0.4,2.5c-0.4-0.2-0.8-0.3-1-0.2c0.3,0.7,0.2,0.7,0.9,1.7c0,0.1-0.5-0.4-0.7-0.6c-0.4,0-1.4-0.7-0.7,0.5l-0.5-0.6
			c0.3,0.7,0.7,1.7-0.1,1.2c0.4,0.6,0.3,0.9,1,1.5c0,0.2-0.9-0.9-0.4-0.2l-0.6-0.9c-0.6,0.2-0.6,0.9-0.7,1.7c-1-0.9-0.3,0.5-1,0.1
			c0.3,0.7-0.6,0.1,0.3,1.4l-0.5-0.6c-0.3,0.1-0.5,0.3-1,0.3c-0.3,0,0.4,0.8,0.6,1.2l-0.5-0.6c0.2,0.5,0.9,1.4,1.3,2
			c-0.4-0.3-0.1,0.1-0.5-0.2c-0.2-0.4-0.6-1.1-1.2-1.9c-0.4-0.1,0.7,1.5-0.1,0.7c-0.3-0.1-0.2,0.2,0.4,1c-0.2-0.3-0.5-0.4-0.7-0.8
			c-0.1,0.1-0.1,0.2,0.1,0.6c0,0,0.1,0.1,0.1,0c0.4,0.6,0.3,0.7,1.1,1.5c-0.1-0.3-0.3-0.4-0.1-0.4c0.5,0.6,0.5,0.9,0,0.4
			c-0.6-0.6-0.7-1.1-1.1-1.4l1,1.7c-0.4-0.5,0.1-0.2,0.5,0.4l-0.2-0.5l0.5,0.6c0-0.4,0.7,0.1,0.4-0.5l-0.6-0.6
			c0.1-0.1-0.5-1.1,0.2-0.4c0.1,0.3,0.5,0.6,0.8,0.9c-0.1-0.1-0.3-0.4-0.1-0.3l0.9,1.1c-1.2-1.5-0.2-0.8-0.3-1l0.2,0.2
			c0.5,0.3-0.5-0.6-0.4-0.7c0.2,0.1,1,1.1,1.5,1.5c0.1-0.2-0.3-1.2,0.6-0.6c0-0.3-0.2-0.8-0.5-1.4c0.1-0.1,0.9,1.1,0.7,0.5
			c0.3,0.4,0.7,0.8,1,1.1c-0.4-0.4,0.3-0.1-0.6-1c0.4,0,0.7-0.1,0.7-0.4c0,0.1,0.6,0.8,0.9,1.1c-0.5-0.7-0.6-1.3-0.3-1.2
			c-0.6-0.7-0.7-0.6-1.2-1.3c-0.1-0.1-0.3-0.5-0.2-0.5c0.6,0.7,1.6,1.8,1.8,1.7c0.9,1.2-0.4,0.1,0.7,1.1c0.7,1,0.5,1.2-0.1,0.7
			c0.7,1.1,0.2,0,1,1c0.1-0.2-0.3-0.7-0.3-1c-0.4-0.5-0.5-0.5-0.8-1c-0.7-1.2,0.8,0.5,0.9,0.5l0.1,0.3c0.4,0.2-0.1-0.5,0-0.5
			c1.1,1.3-0.1,0.3,0.6,1.1l0.9,0.9c0.3,0-0.9-1.1-0.4-0.9l0.4,0.5l-0.1-0.4c-0.4-0.5-1.1-1.2-1.1-1c-1-1.3-0.1-0.3-0.1-0.6
			c-0.6-0.7,0,0.1-0.6-0.6c-0.6-0.6-0.5-0.7-0.5-0.9c0.1-0.1,0.7,0.7,1.2,1.1c0.1,0.1,0.1,0.3-0.3-0.1c0.5,0.9,1.3,1.4,1.7,2
			c0.5,0.3-0.2-0.5-0.4-0.8c-0.1-0.1-0.6-0.7-0.8-0.9c-1.4-2.1,1.3,1.3,1.3,0.8c-1.1-1.2-1.2-2-2.5-3.2c-0.1-0.3-0.3-0.6-0.2-0.5
			c0.7,0.9,0.7,0.6,1.2,1.5l0.1-0.1l0.7,1.1c0.6,0.5,1.2,0.9,1.6,1.3c-0.2-0.5-0.7-0.8-0.8-1.1c0.3,0.5,0.7,0.8,0.8,0.7
			c-0.4-0.2-1-1.2-1.1-1.4c0.1-0.1,0.9,0.6,1,0.8l0.5,0.8c-0.4-0.7,0.3,0.3,0.2,0c-0.4-0.5-0.9-1.2-1.4-1.9
			c-0.1-0.3,0.5,0.3,0.4,0.2l0.3,0.6c0-0.3,1.1,1.2,1,0.8l-0.5-0.7c0.1,0.1,0.4,0.4,0.6,0.6c-0.4-0.5-0.2-0.5-0.3-0.7l0.4,0.4
			c-0.2-0.3-0.9-1.4-0.1-0.6c-1-1-0.1,0.1-0.6-0.3c-0.7-0.7-0.5-0.8-0.6-0.9c0.9,1.1,0.2,0,0.3-0.1c0.4,0.4,0.6,0.5,0.8,0.7
			l-0.6-0.8c1.3,1.4-0.1-0.5,0.3-0.1c0.3,0.5,0.8,1,1.1,1.2c-1-1-1-1.4-1.6-2.1c0.5,0.2,1.1,1.4,1.8,2.1c-0.6-0.9,0.6,0.4-0.2-0.7
			c-0.4-0.2-0.6-0.7-0.9-1.2c0.2,0,0.4,0.5,0.8,0.8c-0.1-0.2-0.7-1.1-1.1-1.3c0.3,0.1-0.5-0.9,0.1-0.4c0.6,0.6,0.1,0.4,0.6,0.9
			c0.3-0.1-1.3-1.7-1.3-2.1c-0.4-0.3-1.3-1.5-1.6-2c0.5,0.1,0.3,0.5,1.1,1.3v-0.2c1.1,1.1,1.4,2.1,2.3,3l-0.3-0.5
			c0.3,0.3,0.7,1,1.1,1.2c-0.7-0.8,0-0.4-0.1-0.6c-0.6-0.7,0.1,0.3-0.3-0.3c-0.1-0.3-1-1.4-0.5-1.1c0.3,0.5,0.8,0.9,1.1,1.3
			c0.3,0.2-0.7-0.8-0.3-0.5l0.3,0.4c0.5-0.2,0.9-0.7-0.3-2.6c0.7,0.6,0.8,0.6,1.4,0.9c-0.3-0.2-0.6-0.7-0.6-0.8l0.8,0.7
			c0.5,0.4,0-0.5-0.3-1l0.5,0.6c0.5,0.4-0.3-0.5-0.4-0.7l0.5,0.5l-0.5-0.6c-0.2-0.4,0.1-0.4,0.8,0.5c-0.1-0.2-0.2-0.4-0.5-0.6
			c0.5,0.4,0.8,0.2,0.7-0.2c-0.3-0.1-0.5-0.4-1-1c-0.8-1,0.2,0.1-0.2-0.5c0.3,0.4,0.7,0.6,0.8,1c1.3,1,0.8-0.2,1.3-0.2
			c-0.1-0.2-0.2-0.3-0.4-0.6c1,0.8,0.4-0.4,0.9-0.2c-0.4-0.4-1.3-1.5-1.2-1.6c-0.6-0.9,1,1,1.5,1.4c-0.3-0.4-0.2-0.6-0.2-0.6
			l0.1,0.1c-0.3-0.5-0.4-0.8,0-0.5v0.1c0.1,0,0.6,0.4,0.6,0.3c-0.6-0.8-0.1-0.4-0.6-1.1c0.1,0.1,0.1,0.1,0.3,0.3l-0.5-0.6l0.4,0.2
			c0.2,0.3,0.4,0.5,0.5,0.7c0.5,0.3-0.5-0.6-0.7-1c-0.3-0.5,0.2,0.1,0.5,0.3c0.2,0.3-0.2-0.1-0.1,0.1c0.4,0.5,0.2,0.1,0.5,0.5
			c0,0-0.6-0.8-0.4-0.7c0.1,0,0.1-0.3,0.7,0.4c-0.3-0.4-0.1-0.4-0.4-0.7c-0.2-0.1-0.4-0.2-0.8-0.6c0-0.1-0.1-0.4,0.2-0.1l0.1,0.2
			c-0.1-0.2,0.2-0.1-0.4-0.7l0.8,0.8c-0.4-0.5-0.3-0.6-0.3-0.8c0.6,0.7,1.2,1.5,1.5,1.5l-0.5-0.8c0-0.1,0.2,0,0.5,0.4
			c0.6,0.2-1.4-2.1-0.7-1.6c0.6,0.9,0.8,0.9,1,1.1c-0.1-0.1-0.3-0.4-0.3-0.5c-0.3-0.4,0.4,0.6-0.1,0.1s-0.2-0.4-0.3-0.6
			c1.7,1.6,0.9,0,1.9,0.6c-0.9-1-0.1-0.4-0.4-0.8c0.9,1,0-0.3,0.6,0.3l-0.9-1c0.7,0.4-1.1-1.7,0.1-0.6c0.4,0.2,0.6,0.8,0.7,1
			c1.1,1-0.5-1.2,0.7,0c-0.3-0.4-1-1.1-1.2-1.5c0.5,0.4,1.1,0.7,1.2,0.9c-0.1-0.3-0.4-0.6,0-0.3c0.2,0.3,0.2,0.3,0.3,0.5
			c0.3,0.1,0.1-0.4-0.1-0.8c0.7,0.7,0.6,0.1,1.1,0.4c-0.7-1,0.6,0.2-0.5-1.1l0.3,0.3c-0.3-0.4-0.9-1.2-0.9-1.3l0.7,0.8
			c0.9,1,0.4,0,0.8,0.5c-0.7-0.6,0.1-0.1-0.4-0.7l-0.1-0.3c-0.1-0.3-0.3-0.4-0.3-0.7c0-0.1,0.8,0.9,0.7,0.8c0.4,0.4,0.3,0.1,0.2-0.2
			c0,0-0.1,0-0.2-0.2c0.1,0.1,0.2,0.1,0.2,0.2c0-0.1,0-0.2,0-0.2l0,0c0,0.1,0,0.1,0,0.2c0.1,0.1,0.1,0,0.2,0l0,0c0,0,0.1,0,0.2,0.1
			l0.5,0.7c0.1,0-0.4-0.9-0.6-1.1c0.7,0.4,0.6-0.4,0.5-0.9c0.1,0.2,0.3,0.4,0.1,0.1c0-0.2-0.4-0.8-0.1-0.4c-0.2-0.3,0.4,0.4,0.6,0.4
			c0.1,0.1-0.5-0.7-0.5-0.5c1,0.8-0.1-0.9,0.7-0.5c0,0.1,0.3,0.4,0.5,0.7c-0.1-0.5-0.2-0.9-0.7-1.8c0.2,0.3,0.5,0.6,0.6,0.8
			c0.1-0.1,0.1-0.4-0.3-1c-0.3-0.2,0.3,0.4,0.2,0.4c-0.6-0.5-0.9-1.2-0.7-1.1l0.1,0.1c0.1-0.1-0.2-0.5-0.1-0.6
			c0.4,0.3,0.1,0.2,0.5,0.6c0.9,1,0.8,0.4,1,0.5c-0.2-0.3-0.3-0.5-0.5-0.7c-0.1-0.3,0.6,0.6,0.6,0.4l-1.4-2.2
			c0.1,0.2,0.9,0.8,1.1,1.3c0.1-0.3-0.8-1.6-1.3-2.3c0.2,0.1,0-0.4,0.1-0.5c0.5,0.5-0.1,0,0.3,0.4l0.6,0.5c-0.1,0.2,0.8,0.9,1.1,1.4
			c-0.2-0.4,0.4-0.3,0.7-0.2c-1.1-1.1-0.3-0.7-1.2-1.8c0-0.3,0.8,0.8,1.1,0.9c-0.2-0.6,0.3-0.4,0.3-0.7c0,0,0.1,0.1,0.2,0.2
			c-0.1-0.4,0.4-0.4-0.2-1.4l0.5,0.6c0.5,0.2-1.1-1.4-0.4-0.9l0.4,0.6c-0.3-0.6,0.6,0.2,0.1-0.7c0.2,0.3,0.3,0.4,0.4,0.6
			c-0.1-0.3,0.2-0.3-0.3-1.1c0.3,0.3,0.5,0.6,0.7,0.9c0.5,0.3-0.7-1-0.2-0.8c0.1,0,0.5,0.4,0.5,0.4c-0.3-0.5-0.1-0.6-0.2-0.9
			c0.3,0.3,0.4,0.4,0.8,0.7c0.6-0.6,1.4-0.9,1.2-2.4c1,0.9,0.4,0.8,1.1,1.4c-0.8-0.9-0.1-0.3-0.2-0.8l0.1,0.1
			c-0.1-0.3,0.5,0.3,0.3-0.1l-0.2-0.2c-0.4-0.7,1.2,1,0.3-0.2l0.6,0.6c-0.8-1.1,0.4,0.2-0.2-0.7l0.1,0.2c0.5,0.3-0.6-1.4,0.1-0.6
			c0-0.3,0-0.6-0.7-1.4c0.3,0.3,0.7,0.8,0.9,1.1c0.1-0.8,0.8-1.1,0.3-2.5l0.4,0.5c-0.5-1.1,1.4,0.5,0.1-1.4l-0.6-0.8
			c0.3,0.2,0.8,0.8,1,1c-0.4-0.5,0.1-0.4-0.4-1c0.3,0.3,0.3,0.4,0.5,0.6c0.3,0-0.5-1.2-0.2-1l0.2,0.4c1.7,0.7,3.3,1,2.4-1
			c-0.1-0.4,0.9,0.9,0.9,0.8C-3106.4,182.9-3103.9,184.5-3105.3,182"/>
		<path id="path46-25" inkscape:connector-curvature="0" class="st4" d="M-3134.2,217.2c0,0,0,0,0,0.1
			C-3134.2,217.3-3134.2,217.3-3134.2,217.2"/>
		<path id="path48-94" inkscape:connector-curvature="0" class="st4" d="M-3138,217.4c0,0,0.1,0.1,0.1,0.2
			C-3137.9,217.6-3138,217.5-3138,217.4"/>
		<path id="path50-7" inkscape:connector-curvature="0" class="st4" d="M-3137.2,218.6c0-0.1-0.1-0.2-0.2-0.3
			C-3137.4,218.2-3137.4,218.3-3137.2,218.6"/>
		<path id="path52-7" inkscape:connector-curvature="0" class="st4" d="M-3118,199.8L-3118,199.8C-3117.8,200-3117.9,200-3118,199.8
			"/>
		<path id="path54-1" inkscape:connector-curvature="0" class="st4" d="M-3137,218.5c0.2,0.2,0.5,0.7,0.6,0.7
			c-0.4-0.5-1.1-1.3-1.5-1.4c-0.1-0.1-0.1-0.1-0.1-0.1c0.2,0.2,0.4,0.5,0.5,0.7C-3137.2,218.3-3136.7,218.9-3137,218.5"/>
		<path id="path56-6" inkscape:connector-curvature="0" class="st4" d="M-3144.9,215.3l1.2,1.3
			C-3144.1,215.9-3144.5,215.8-3144.9,215.3"/>
		<path id="path58-8" inkscape:connector-curvature="0" class="st4" d="M-3138.1,217.6c0.1,0.2,0.3,0.4,0.3,0.5
			c0.2,0.2-0.1-0.2-0.1-0.3C-3137.9,217.8-3138.2,217.5-3138.1,217.6"/>
		<path id="path60-6" inkscape:connector-curvature="0" class="st4" d="M-3136.7,218.3c0-0.1-0.1-0.6-0.4-1L-3136.7,218.3"/>
		<path id="path62-4" inkscape:connector-curvature="0" class="st4" d="M-3135.1,218.4l0.4,0.6
			C-3134.6,218.9-3134.7,218.7-3135.1,218.4"/>
		<path id="path64-6" inkscape:connector-curvature="0" class="st4" d="M-3135.4,217.7c-0.2-0.2-0.4-0.3-0.4-0.3
			C-3135.4,218-3135.5,217.7-3135.4,217.7"/>
		<path id="path66-3" inkscape:connector-curvature="0" class="st4" d="M-3135.4,217.7l0.1,0.1
			C-3135.4,217.7-3135.4,217.7-3135.4,217.7"/>
		<path id="path68-2" inkscape:connector-curvature="0" class="st4" d="M-3133.2,217.4c-0.4-0.4-0.2,0-0.2,0
			C-3132.9,218-3133.5,217.1-3133.2,217.4"/>
		<path id="path70-1" inkscape:connector-curvature="0" class="st4" d="M-3132.8,216.7c0-0.1-0.2-0.4-0.4-0.6c0.1,0.1,0,0.1,0,0.1
			L-3132.8,216.7"/>
		<path id="path72-4" inkscape:connector-curvature="0" class="st4" d="M-3122.9,204.1l0.3,0.4l-0.1-0.3L-3122.9,204.1"/>
		<path id="path74-5" inkscape:connector-curvature="0" class="st4" d="M-3117.5,199.7c0-0.1,0.4,0.5,0.4,0.4
			C-3117.1,200-3117.6,199.3-3117.5,199.7"/>
		<path id="path76-4" inkscape:connector-curvature="0" class="st4" d="M-3116.4,195.2L-3116.4,195.2l-0.7-0.8L-3116.4,195.2"/>
		<path id="path78-1" inkscape:connector-curvature="0" class="st4" d="M-3312.1,226.8c-0.2,0.3,0.1,0.1,0.4-0.2
			C-3311.6,226-3311.8,226.7-3312.1,226.8"/>
		<path id="path80-6" inkscape:connector-curvature="0" class="st4" d="M-3326,220.2l0.1-0.1h-0.1V220.2"/>
		<path id="path82-5" inkscape:connector-curvature="0" class="st4" d="M-3332.2,215.2L-3332.2,215.2c-0.1,0-0.1,0-0.2,0.1
			C-3332.3,215.3-3332.3,215.3-3332.2,215.2"/>
		<path id="path84-3" inkscape:connector-curvature="0" class="st4" d="M-3330.4,204.3C-3330.4,204.2-3330.4,204.2-3330.4,204.3
			C-3330.2,204.1-3330.3,204.1-3330.4,204.3"/>
		<path id="path86-3" inkscape:connector-curvature="0" class="st4" d="M-3312.4,225.8l-0.1,0.1
			C-3312.5,226-3312.5,226-3312.4,225.8"/>
		<path id="path88-6" inkscape:connector-curvature="0" class="st4" d="M-3311.1,219.7l-0.1,0.1
			C-3311.1,219.8-3311.1,219.7-3311.1,219.7"/>
		<path id="path90-3" inkscape:connector-curvature="0" class="st4" d="M-3310.2,218.8c-0.1,0.1-0.2,0.1-0.3,0.3
			C-3310.5,219.1-3310.4,219.1-3310.2,218.8"/>
		<path id="path92-3" inkscape:connector-curvature="0" class="st4" d="M-3311,224.8c0,0,0.1-0.1,0.2-0.2L-3311,224.8"/>
		<path id="path94-2" inkscape:connector-curvature="0" class="st4" d="M-3310.9,219.5c-0.1,0.1-0.1,0.1-0.1,0.2
			c0.2-0.3,0.4-0.5,0.6-0.7c0-0.1,0.5-0.8,0.1-0.4c0.2-0.3,0.6-0.6,0.6-0.8C-3310.2,218.3-3310.8,219.2-3310.9,219.5"/>
		<path id="path96-2" inkscape:connector-curvature="0" class="st4" d="M-3329.2,206.1c0,0,0.1,0,0.1-0.1
			C-3329.1,206.1-3329.2,206.1-3329.2,206.1z M-3312,220.6c0-0.4-0.1-0.6-0.5-0.6c0.1,0,0.7-0.7,0.9-1.1c-0.6,0.6-1.1,0.9-1.1,0.5
			c-0.6,0.7-0.5,0.7-1.1,1.4c-0.1,0.1-0.4,0.4-0.4,0.3c0.6-0.8,1.5-1.9,1.4-2c1-1.1,0.1,0.4,1-0.8c0.8-0.9,1.1-0.7,0.7-0.1
			c0.9-0.9,0-0.2,0.8-1.1c-0.2,0-0.6,0.4-0.9,0.4c-0.4,0.5-0.4,0.6-0.8,0.9c-1,0.9,0.4-0.9,0.4-1l0.3-0.2c0.2-0.4-0.4,0.2-0.5,0.1
			c1.1-1.3,0.3,0,1-0.8l0.7-1c-0.1-0.3-0.9,1-0.8,0.5l0.4-0.4l-0.4,0.2c-0.4,0.5-1,1.2-0.8,1.2c-1.1,1.2-0.2,0.1-0.6,0.2
			c-0.6,0.7,0.1,0-0.5,0.7c-0.5,0.7-0.6,0.6-0.8,0.7c-0.1-0.1,0.6-0.8,0.9-1.3c0.1-0.1,0.3-0.1-0.1,0.3c0.8-0.6,1.2-1.6,1.7-2
			c0.2-0.5-0.5,0.3-0.7,0.5c0,0.1-0.6,0.7-0.8,1c-1.8,1.8,1-1.5,0.6-1.3c-1,1.3-1.7,1.5-2.7,3c-0.2,0.2-0.5,0.4-0.5,0.3
			c0.8-0.8,0.5-0.7,1.2-1.5l-0.1-0.1l0.9-0.9c0.4-0.7,0.7-1.3,1-1.8c-0.4,0.3-0.6,0.8-0.9,0.9c0.4-0.4,0.6-0.8,0.6-0.9
			c-0.2,0.4-1,1.2-1.2,1.4c-0.1-0.1,0.5-0.9,0.6-1.1l0.7-0.7c-0.6,0.6,0.2-0.4-0.1-0.1c-0.4,0.4-1.1,1.1-1.6,1.7
			c-0.2,0.1,0.2-0.5,0.1-0.4l0.5-0.4c-0.3,0.1,1-1.3,0.6-1.1l-0.6,0.6c0.1-0.1,0.3-0.4,0.5-0.7c-0.4,0.4-0.4,0.3-0.6,0.4l0.4-0.4
			c-0.3,0.2-1.2,1.1-0.5,0.2c-0.8,1.1,0.1,0.1-0.2,0.6c-0.6,0.8-0.7,0.7-0.8,0.7c0.9-1.1-0.1-0.2-0.1-0.3c0.3-0.4,0.4-0.7,0.6-0.9
			l-0.6,0.7c1.2-1.5-0.4,0.2-0.1-0.3c0.4-0.4,0.9-1,1-1.2c-0.8,1.1-1.2,1.2-1.8,2c0.2-0.5,1.2-1.3,1.7-2.1c-0.8,0.8,0.3-0.7-0.7,0.4
			c-0.2,0.4-0.6,0.7-1,1.1c-0.1-0.2,0.4-0.5,0.6-0.9c-0.2,0.1-0.9,0.9-1.1,1.3c0.1-0.3-0.8,0.7-0.4-0.1c0.5-0.7,0.4-0.2,0.8-0.7
			c-0.1-0.2-1.5,1.6-1.8,1.7c-0.2,0.4-1.3,1.6-1.7,1.9c0.1-0.4,0.4-0.3,1.1-1.3l-0.2,0.1c0.9-1.3,1.8-1.7,2.5-2.8l-0.4,0.3
			c0.3-0.3,0.8-0.9,1.1-1.3c-0.7,0.8-0.4,0.1-0.5,0.2c-0.6,0.7,0.2-0.1-0.2,0.4c-0.2,0.1-1.2,1.2-1,0.7c0.5-0.4,0.8-1,1.1-1.3
			c0.2-0.3-0.7,0.8-0.5,0.3l0.4-0.4c-0.2-0.4-0.7-0.7-2.4,0.8c0.5-0.7,0.5-0.9,0.7-1.5c-0.1,0.3-0.6,0.7-0.7,0.8l0.6-0.9
			c0.3-0.6-0.5,0.1-0.9,0.5l0.5-0.6c0.3-0.6-0.5,0.4-0.6,0.5l0.4-0.6l-0.5,0.5c-0.4,0.2-0.4,0,0.4-0.9c-0.2,0.1-0.4,0.3-0.5,0.6
			c0.3-0.6,0.1-0.8-0.3-0.6c-0.1,0.3-0.3,0.6-0.8,1.1c-0.8,0.9,0.1-0.2-0.4,0.3c0.3-0.4,0.5-0.8,0.8-1c0.8-1.4-0.3-0.7-0.4-1.1
			c-0.2,0.1-0.3,0.3-0.5,0.5c0.6-1.1-0.4-0.3-0.3-0.8c-0.3,0.4-1.3,1.5-1.4,1.5c-0.8,0.7,0.9-1.2,1.2-1.7c-0.4,0.3-0.5,0.3-0.5,0.3
			l0.1-0.1c-0.4,0.4-0.7,0.5-0.5,0.1h0.1c0-0.1,0.3-0.7,0.2-0.7c-0.6,0.7-0.4,0.1-1,0.8c0.1-0.1,0.1-0.1,0.2-0.3l-0.5,0.6l0.2-0.5
			c0.2-0.2,0.5-0.5,0.6-0.6c0.2-0.6-0.5,0.5-0.9,0.8c-0.5,0.4,0.1-0.2,0.2-0.5c0.3-0.3-0.1,0.2,0.1,0.1c0.5-0.5,0.1-0.3,0.4-0.6
			c0,0-0.6,0.7-0.6,0.5c0-0.1-0.3,0,0.3-0.7c-0.4,0.3-0.4,0.2-0.6,0.5c-0.1,0.2-0.1,0.4-0.5,0.9c-0.1,0.1-0.4,0.2-0.1-0.1l0.2-0.1
			c-0.2,0.1-0.1-0.2-0.6,0.5l0.6-1c-0.5,0.5-0.5,0.4-0.7,0.4c0.6-0.7,1.3-1.4,1.3-1.7l-0.7,0.6c-0.1,0,0-0.1,0.3-0.6
			c0.1-0.6-1.8,1.7-1.5,1c0.8-0.8,0.8-0.9,0.9-1.2c-0.1,0.1-0.4,0.4-0.4,0.4c-0.3,0.4,0.5-0.5,0.1,0.1c-0.4,0.5-0.4,0.3-0.5,0.4
			c1.3-1.9-0.1-0.9,0.3-1.9c-0.8,1-0.4,0.2-0.7,0.5c0.9-1-0.3,0.1,0.2-0.6l-0.8,1.1c0.3-0.7-1.5,1.4-0.6,0c0.2-0.4,0.6-0.7,0.8-0.9
			c0.8-1.2-1.1,0.7-0.1-0.7c-0.4,0.4-0.9,1.1-1.3,1.4c0.3-0.5,0.6-1.2,0.7-1.4c-0.2,0.1-0.5,0.5-0.3,0c0.2-0.3,0.3-0.3,0.4-0.4
			c0.1-0.4-0.4,0-0.8,0.3c0.6-0.8,0.1-0.6,0.3-1.2c-0.9,0.9,0.1-0.6-0.9,0.7l0.3-0.4c-0.3,0.3-1.1,1.1-1.2,1.1l0.7-0.8
			c0.9-1,0-0.4,0.4-0.9c-0.5,0.8-0.1-0.1-0.6,0.6l-0.3,0.2c-0.3,0.1-0.4,0.4-0.6,0.4c-0.1,0,0.8-1,0.7-0.9c0.3-0.5,0-0.3-0.2-0.2
			c0,0,0,0.1-0.2,0.2c0.1-0.1,0.1-0.2,0.2-0.2c-0.1,0-0.1,0.1-0.2,0.1l0,0c0.1,0,0.1,0,0.2,0c0-0.1,0-0.1,0-0.1l0,0
			c0,0,0-0.1,0.1-0.2l0.6-0.6c0-0.1-0.8,0.5-1,0.8c0.3-0.7-0.5-0.5-0.9-0.3c0.1-0.1,0.3-0.3,0.1-0.1c-0.2,0.1-0.7,0.6-0.4,0.1
			c-0.3,0.2,0.3-0.5,0.3-0.7c0.1-0.1-0.5,0.6-0.4,0.6c0.6-1.1-0.9,0.2-0.6-0.5c0.1,0,0.4-0.4,0.6-0.6c-0.4,0.2-0.8,0.3-1.6,1
			c0.3-0.3,0.5-0.6,0.7-0.7c-0.1-0.1-0.4,0-0.9,0.5c-0.2,0.4,0.3-0.3,0.3-0.3c-0.4,0.6-1,1.1-1,0.9l0.1-0.1
			c-0.1-0.1-0.4,0.3-0.5,0.2c0.2-0.4,0.2-0.1,0.5-0.6c0.8-1.1,0.3-0.9,0.4-1c-0.2,0.2-0.4,0.4-0.6,0.6c-0.3,0.2,0.5-0.6,0.4-0.6
			l-1.9,1.8c0.2-0.1,0.7-1,1.1-1.3c-0.3,0-1.4,1.1-2,1.6c0.1-0.2-0.4,0.1-0.5,0.1c0.4-0.6,0,0.1,0.4-0.3l0.4-0.7
			c0.2,0,0.8-1,1.2-1.3c-0.4,0.3-0.3-0.3-0.3-0.6c-0.9,1.3-0.7,0.4-1.5,1.5c-0.3,0.1,0.6-0.9,0.7-1.2c-0.5,0.3-0.4-0.2-0.7-0.2
			c0,0,0.1-0.1,0.2-0.2c-0.4,0.2-0.4-0.3-1.3,0.5l0.5-0.6c0.2-0.5-1.1,1.3-0.8,0.5l0.5-0.5c-0.5,0.4,0.2-0.6-0.6,0.1
			c0.2-0.3,0.3-0.4,0.5-0.5c-0.3,0.1-0.3-0.1-1,0.5c0.3-0.4,0.5-0.6,0.8-0.8c0.2-0.5-0.9,0.8-0.7,0.4c0-0.1,0.3-0.6,0.3-0.6
			c-0.4,0.4-0.6,0.3-0.8,0.4c0.3-0.4,0.3-0.5,0.6-0.9c-0.6-0.5-1.1-1.2-2.4-0.7c0.8-1.1,0.7-0.6,1.2-1.3c-0.7,0.9-0.3,0.2-0.7,0.3
			l0.1-0.1c-0.2,0.1,0.2-0.5-0.1-0.3l-0.2,0.2c-0.6,0.5,0.8-1.3-0.2-0.2l0.5-0.7c-0.9,1,0.1-0.4-0.7,0.3l0.2-0.2
			c0.2-0.6-1.2,0.9-0.6,0c-0.3,0.1-0.6,0.1-1.2,0.9c0.2-0.3,0.6-0.8,0.9-1.1c-0.8,0-1.1-0.6-2.4,0.2l0.4-0.5c-1,0.7,0.3-1.4-1.4,0.2
			l-0.7,0.7c0.2-0.4,0.6-0.9,0.8-1.2c-0.5,0.5-0.3-0.1-0.9,0.6c0.2-0.3,0.3-0.4,0.5-0.6c0-0.2-1,0.7-0.9,0.4l0.3-0.3
			c0.5-1.8,0.6-3.4-1.3-2.1c-0.4,0.2,0.8-1,0.6-1c-1.6,1-0.4-1.7-2.6,0.1c-0.8,0.3-2.9,2.6-2.9,2.6c1.6-0.2,1.5,1.5,1.3,3.4
			c0.4,0,1.1,0,1,0.6c1.3,0.7,0.8,3.4,2.6,3.6c0.2-0.4,0.6-0.8,0.8-0.9l-0.2,0.3l0.6-0.5c0.1,0-0.5,0.7-0.7,0.8
			c0.4,0.4,1.1,0.4,1.3,1c0.8-0.9,0.3,0.1,1-0.8c-0.1,0.2-0.2,0.2-0.3,0.4c0.7-0.2,0.7-0.2,0.1,1.1c0.5,1.7,2.2,2,3.1,3.2
			c1.3,0.8,3.1,1,4.5,1.7c1.3-1.2,1.1-0.4,2.3-1.4l-0.4,0.4c0.7-0.5,0.1,0.3-0.1,1c0.4-0.5,0.2-0.1,0.8-0.9c0.7-0.6-0.8,1.3-0.4,1
			c-0.2,0.3,0.4-0.5,0.2-0.2c1.1-0.7-0.4,0.4-0.7,1.5c0.8,0.1,2-0.3,2.1,0.7c-0.1,0,0.5-0.7,0.5-0.6c-1,1.4,0.5-0.2,0.1,0.4
			c-0.2,0.3-0.3,0.3-0.5,0.4c-0.2,0.7,0.7,0.1,0.4,0.9c0.7-0.4,0,1,0.7,0.4c-0.5,0.5-0.2,0.5-0.4,0.8c1.5-1.5,0,0.9,1,0l-0.2,0.3
			c0.7,0.3,1,1.2,2.2,1c0.5,0.1-0.3,1.8,0.6,1.4c0.2-0.1,0.5-0.5,0.6-0.6c0.1,0.1-0.4,0.5-0.5,0.7c0.7-0.5,0.3,0.5,0.6,0.6
			c0.2-0.2,0.4-0.2,0.6-0.6c-0.6,1.3,0.9,0.1,0.5,1.1c1-1.5,0.8-0.6,1.1-0.9c0,0.1-0.3,0.5-0.5,0.7c0.3,0,0.5,0,0.4,0.6
			c0.2-0.1,0.9-0.8,0.8-0.5c-0.7,1,0.2,0.3,0.1,0.7c0.6-0.8,1.3-1.4,1.2-0.9l-1,1.1c1-0.4,0.5,1.4,2.2,0.3l-0.5,0.7
			c1.1-0.4,0.9,0.8,2.5-0.1c-0.2,0.5-0.2,0.9,0,1c0.6-0.4,0.7-0.3,1.5-1.2c0.1,0-0.3,0.6-0.5,0.8c0.1,0.4-0.5,1.5,0.5,0.5l-0.5,0.6
			c0.6-0.4,1.5-0.9,1.1-0.1c0.5-0.5,0.8-0.5,1.3-1.2c0.2-0.1-0.8,1-0.2,0.5l-0.8,0.8c0.3,0.6,1,0.4,1.7,0.3c-0.7,1.1,0.5,0.2,0.3,1
			c0.6-0.4,0.2,0.5,1.3-0.6l-0.5,0.6c0.1,0.2,0.4,0.4,0.4,0.9c0,0.3,0.7-0.6,1.1-0.8l-0.5,0.6c0.4-0.2,1.2-1.1,1.7-1.7
			c-0.2,0.5,0.1,0.1-0.1,0.5c-0.3,0.2-0.9,0.8-1.6,1.5c-0.1,0.4,1.3-1,0.7,0c-0.1,0.3,0.2,0.2,0.9-0.6c-0.2,0.2-0.3,0.5-0.6,0.8
			c0.1,0.1,0.2,0,0.5-0.2v-0.1c0.5-0.5,0.6-0.4,1.3-1.3c-0.2,0.2-0.4,0.3-0.4,0.2c0.5-0.6,0.8-0.6,0.4-0.1c-0.5,0.7-0.9,0.9-1.2,1.4
			l1.4-1.2c-0.2,0.1,0-0.3,0.5-0.7l-0.4,0.3l0.5-0.6c-0.4,0.1,0.1-0.7-0.5-0.3l-0.5,0.7c-0.1-0.1-0.9,0.7-0.4-0.1
			c0.2-0.2,0.5-0.5,0.8-0.9c-0.1,0.1-0.4,0.3-0.3,0.2l0.9-1c-1.2,1.4-0.7,0.3-1,0.5l0.2-0.2c0.2-0.6-0.5,0.6-0.6,0.6
			c0.1-0.2,0.9-1.2,1.2-1.7c-0.2-0.1-1.1,0.5-0.6-0.5c-0.3,0.1-0.8,0.3-1.3,0.7c-0.1-0.1,0.9-1.1,0.4-0.7c0.3-0.4,0.6-0.8,0.9-1.2
			C-3311.5,220.3-3311.3,219.6-3312,220.6"/>
		<path id="path98-9" inkscape:connector-curvature="0" class="st4" d="M-3311.9,216.3c0,0,0,0,0.1,0
			C-3311.8,216.2-3311.8,216.2-3311.9,216.3"/>
		<path id="path100-5" inkscape:connector-curvature="0" class="st4" d="M-3328.6,205.9L-3328.6,205.9L-3328.6,205.9L-3328.6,205.9"
			/>
		<path id="path102-6" inkscape:connector-curvature="0" class="st4" d="M-3311.3,225.4c-0.6,0.5-0.7,0.9-1.1,1.4L-3311.3,225.4"/>
		<path id="path104-6" inkscape:connector-curvature="0" class="st4" d="M-3311,219.8c0.2-0.2,0.4-0.4,0.4-0.4
			c0.2-0.3-0.2,0.1-0.2,0.1C-3310.9,219.6-3311.1,220-3311,219.8"/>
		<path id="path106-7" inkscape:connector-curvature="0" class="st4" d="M-3311.4,219l0.9-0.6
			C-3310.7,218.4-3311.1,218.6-3311.4,219"/>
		<path id="path108" inkscape:connector-curvature="0" class="st4" d="M-3310.6,216.8l0.5-0.5
			C-3310.2,216.3-3310.4,216.4-3310.6,216.8"/>
		<path id="path110" inkscape:connector-curvature="0" class="st4" d="M-3311.4,217.7c0.5-0.6,0.2-0.3,0.2-0.4
			C-3311.4,217.5-3311.5,217.7-3311.4,217.7"/>
		<path id="path112" inkscape:connector-curvature="0" class="st4" d="M-3311.2,217.3l0.1-0.1
			C-3311.2,217.2-3311.2,217.3-3311.2,217.3"/>
		<path id="path114" inkscape:connector-curvature="0" class="st4" d="M-3311.8,215.4c0.5-0.6-0.3,0.2-0.1-0.2
			C-3312.2,215.7-3311.9,215.4-3311.8,215.4"/>
		<path id="path116" inkscape:connector-curvature="0" class="st4" d="M-3312.5,215c-0.1,0-0.3,0.3-0.5,0.5c0.1-0.1,0.1,0,0.1,0
			L-3312.5,215"/>
		<path id="path118" inkscape:connector-curvature="0" class="st4" d="M-3325.4,207.7l-0.2,0.1l-0.1,0.2L-3325.4,207.7"/>
		<path id="path120" inkscape:connector-curvature="0" class="st4" d="M-3330.3,203.3c0,0.1-0.6,0.7-0.3,0.5
			C-3330.7,203.8-3330.2,203.3-3330.3,203.3"/>
		<path id="path122" inkscape:connector-curvature="0" class="st4" d="M-3334.9,203.6L-3334.9,203.6l-0.7,0.8L-3334.9,203.6"/>
		<path id="path124" inkscape:connector-curvature="0" class="st12" d="M-3115.9,1140.8c0,26.1,94.3,47.3,210.5,47.4
			c116.3,0.1,210.6-21,210.6-47c0-26.1-94.3-47.3-210.5-47.4C-3021.6,1093.7-3115.9,1114.8-3115.9,1140.8"/>
		<path id="path126" inkscape:connector-curvature="0" class="st13" d="M-3034.1,981.2l8,115.1c0,0-35.3-26.3-52.3,3.9
			c-23.9,42.6,74.1,19.9,74.1,19.9l2.6-109.8c0,0,110.3,19.7,246.9,2.6l5.3,95.2c0,0-40.1-36.1-53.8,0
			c-18.4,48.3,73.5,16.5,73.5,16.5l11.9-133.8C-2718,990.7-2836.7,960.6-3034.1,981.2"/>
		<path id="path128" inkscape:connector-curvature="0" class="st14" d="M-3052.1,743.4c0,0-44.3-386.7,261.8-263.3
			c0,0,97,68.9,101.4,266.4C-2984.5,809.8-3052.1,743.4-3052.1,743.4"/>
		<path id="path130" inkscape:connector-curvature="0" class="st13" d="M-3106.8,359.7c0,0,31.4,230.4,287.3,169.3l37.7,72.5
			c0,0,32-33.4,42.2,1.5c10.3,35-33.5,23.8-33.5,23.8s40.2,97.1,84.3,119.8c0,0,93.3-387.1-64.4-322.5c0,0-13.1-57.7-112.1-59.6
			C-2968,362.5-3013,458.9-3106.8,359.7"/>
		<path id="path132" inkscape:connector-curvature="0" class="st13" d="M-2969.9,608.7c-0.3,9.6-5.2,17.3-10.7,17.1
			c-5.6-0.2-9.8-8.2-9.5-17.8s5.2-17.3,10.7-17.1C-2973.8,591.1-2969.5,599-2969.9,608.7"/>
		<path id="path134" inkscape:connector-curvature="0" class="st13" d="M-2844.1,611.4c-0.3,9.6-5.2,17.3-10.7,17.1
			c-5.6-0.2-9.8-8.2-9.5-17.8c0.4-9.6,5.2-17.3,10.7-17.1C-2848,593.8-2843.8,601.8-2844.1,611.4"/>
		<path id="path136" inkscape:connector-curvature="0" class="st13" d="M-2871,666.4c-0.8,15.4-12.2,40.3-55,40.3
			c-43.9,0-43.9-43.1-43.9-43.1S-2912.3,651.6-2871,666.4"/>
		<path id="path138" inkscape:connector-curvature="0" class="st4" d="M-3052.1,743.4l18,237.8c0,0,124,31,316.1,9.6l29.2-244.2
			C-2688.9,746.6-2930.1,783.4-3052.1,743.4"/>
		<path id="path140" inkscape:connector-curvature="0" class="st14" d="M-3204,621.2c0,0-1.6-87.7-11-87.7
			c-10.6,0-7.3,32.3-5.2,46.7c-0.8-3.4-3.9-7.3-6.9-6.9c-8.6,1.1-4.9,8.1-4.5,11.4c-0.5-2.7-2.2-8.1-7.1-7c-4.4,1-4.3,5.9-4.8,9
			c-0.5-2.1-3.6-5.4-7.6-4.5c-7.2,1.7,1.1,39.9,1.1,39.9s36.6,355.9,180.4,218l-25.3-34.1C-3132.2,840.5-3185.1,848.9-3204,621.2"/>
		<path id="path142" inkscape:connector-curvature="0" class="st4" d="M-3043.5,815.8l-5.8-59.3c0,0-23.9,29.7-45.5,49.6l25.3,34.1
			C-3063.2,834.1-3050.3,823.8-3043.5,815.8"/>
		<path id="path144" inkscape:connector-curvature="0" class="st4" d="M-2690.2,756.3l-4.5,40.7c10.2,4.6,18.6,10.6,25.5,17.7
			l23.8-32.6C-2667.5,760.5-2690.2,756.3-2690.2,756.3"/>
		<path id="path146" inkscape:connector-curvature="0" class="st14" d="M-2645.5,782l-23.8,32.6c60.8,61.5,6.9,201.9,6.9,201.9
			l-10.7,26.9c-0.6,1.9-3.9,13.9,1.8,15.4c2.7,0.7,4.8-0.9,6.3-3.1c0.1,2.5,0.9,5,3.4,5.7c2.4,0.7,4.4-0.7,5.9-2.5
			c0.2,2.3,1.1,4.3,3.4,4.9c2.7,0.7,4.8-0.9,6.3-3.1c0.1,2.5,0.9,5,3.4,5.7c5.3,1.4,8.2-6.2,9.1-8.8l8.9-32.3
			C-2582.7,881-2613.4,813.3-2645.5,782"/>
		<path id="path148" inkscape:connector-curvature="0" class="st13" d="M-2954.9,796.7l-7.5,14.2l10.7,16.5l-19.2,92.8l26.7,39.5
			l29.9-35.4l-16.6-95.3l12.3-17.6l-6.6-11.5L-2954.9,796.7"/>
	</g>
	<g id="g4916" transform="matrix(0.75,0,0,0.75,309.06375,383.37566)">
		<g>
			<g>
				<defs>
					<rect id="SVGID_1_" x="573.8" y="3738.1" width="330.6" height="358.1"/>
				</defs>
				<clipPath id="SVGID_2_">
					<use xlink:href="#SVGID_1_"  style="overflow:visible;"/>
				</clipPath>
				<g id="g2997" transform="matrix(1.5934372,0,0,1.5934372,587.24042,1389.5341)" class="st15">
					<g id="g3003" transform="translate(54.3896,102.7524)">
						<path id="path3005" inkscape:connector-curvature="0" class="st16" d="M-550.2,22.7h4.8c1.2,0,2.3-0.5,3.2-1.5
							c0.9-1,1.3-2.1,1.3-3.5v-33.9h-9.3V22.7z"/>
					</g>
					<g id="g3007" transform="translate(70.0313,70.2832)">
						<path id="path3009" inkscape:connector-curvature="0" class="st16" d="M-554.4,29.2h9.1c0.1-1.9,0.8-3.4,2-4.4
							c1.3-1,3.1-1.5,5.3-1.5c1.6,0,3,0.3,4.1,1c1.1,0.7,1.6,1.6,1.6,2.8c0,1.8-1.9,3.1-5.6,3.9c-1.6,0.3-2.8,0.6-3.6,0.9
							c-4.7,1.3-7.9,2.8-9.5,4.5c-1.8,1.8-2.7,4.1-2.7,7c0,3.7,1.3,6.8,3.9,9.2c2.7,2.2,6.1,3.4,10.4,3.4c4.6,0,8.3-1.1,11.1-3.4
							c2.6-2.4,4-5.6,4.1-9.5h-5.7c-1.7,0-3,0.8-3.9,2.5c-0.4,0.4-0.7,0.8-1.1,1.2c-1.1,0.9-2.5,1.3-4.4,1.3c-1.8,0-3.1-0.3-4-0.9
							c-0.8-0.6-1.2-1.5-1.2-2.6c0-1.6,2.3-2.9,6.9-3.9c0.5-0.2,1-0.3,1.4-0.4c0.4-0.1,0.8-0.1,1.1-0.1c4.5-1.3,7.7-2.7,9.5-4.4
							c1.7-1.8,2.5-4.1,2.5-7c0-4.3-1.4-7.6-4.3-9.9c-2.7-2.1-6.7-3.2-12-3.2c-5.1,0-8.9,1.1-11.3,3.4c-2.6,2.2-3.9,5.5-3.9,9.8v0.3
							H-554.4z"/>
					</g>
					<g id="g3011" transform="translate(126.3945,78.8555)">
						<path id="path3013" inkscape:connector-curvature="0" class="st16" d="M-569.6,27.4c0-3.9,0.7-6.9,2-8.9
							c1.3-2,3.2-3.1,5.7-3.1c2.4,0,4.3,1,5.6,3.1c1.2,2,1.9,5,1.9,8.9c0,3.5-0.7,6.3-2,8.3c-1.4,1.9-3.3,2.9-5.7,2.9
							c-2.3,0-4.1-1-5.5-3.1C-568.9,33.7-569.6,31-569.6,27.4 M-554.4,58.1h4.5c1.2,0,2.3-0.5,3.2-1.5c0.9-1,1.3-2.2,1.3-3.4V24.7
							c0-6.9-1.8-11.6-5.5-14s-7.6-3.6-11.9-3.6c-2.3,0-4.6,0.4-6.8,1.2c-2.2,0.8-4,2.2-5.3,4c-2.6,3.6-3.9,8.5-3.9,14.7
							c0,6.1,1.3,11,3.9,14.7c2.7,3.8,6.1,5.7,10.3,5.7c2.2,0,4.2-0.5,5.9-1.5c1.8-1.2,3.2-2.7,4.3-4.5V58.1z"/>
					</g>
					<g id="g3015" transform="translate(44.3154,41.7793)">
					</g>
					<g id="g3019" transform="translate(55.2329,45.5059)">
					</g>
					<g id="g3023" transform="translate(60.8579,38.8496)">
					</g>
					<g id="g3027" transform="translate(68.6465,38.8496)">
					</g>
					<g id="g3031" transform="translate(79.2891,38.6875)">
					</g>
					<g id="g3035" transform="translate(87.146,43.3125)">
					</g>
					<g id="g3039" transform="translate(90.1992,38.6836)">
					</g>
					<g id="g3043" transform="translate(97.8989,44.1777)">
					</g>
					<g id="g3047" transform="translate(109.0962,41.7793)">
					</g>
					<g id="g3051" transform="translate(120.0137,45.5059)">
					</g>
					<g id="g3055" transform="translate(125.7383,50.1348)">
					</g>
					<g id="g3059" transform="translate(136.7617,47.8965)">
					</g>
					<g id="g3063" transform="translate(141.0801,38.7344)">
					</g>
					<g id="g3067" transform="translate(141.6523,47.9414)">
					</g>
					<g id="g3071" transform="translate(147.46,45.5059)">
					</g>
					<g id="g3075" transform="translate(161.1514,38.6875)">
					</g>
					<g id="g3079" transform="translate(161.7471,41.7793)">
					</g>
				</g>
			</g>
		</g>
		<text transform="matrix(0.9753 0 0 -1.0667 -202.8065 1507.7025)" class="st16 st17 st18">p</text>
		<text transform="matrix(0.9753 0 0 -1.0667 -192.5638 1507.7025)" class="st16 st17 st18">a</text>
		<text transform="matrix(0.9753 0 0 -1.0667 -183.1898 1507.7025)" class="st16 st17 st18">r</text>
		<text transform="matrix(0.9753 0 0 -1.0667 -176.4607 1507.7025)" class="st16 st17 st18">t</text>
		<text transform="matrix(0.9753 0 0 -1.0667 -170.6232 1507.7025)" class="st16 st17 st18"> </text>
		<text transform="matrix(0.9753 0 0 -1.0667 -165.6607 1507.7025)" class="st16 st17 st18">o</text>
		<text transform="matrix(0.9753 0 0 -1.0667 -155.419 1507.7025)" class="st16 st17 st18">f</text>
		<text transform="matrix(0.9753 0 0 -1.0667 -149.5805 1507.7025)" class="st16 st17 st18"> </text>
		<text transform="matrix(0.9753 0 0 -1.0667 -144.6169 1507.7025)" class="st16 st17 st18">I</text>
		<text transform="matrix(0.9753 0 0 -1.0667 -139.6534 1507.7025)" class="st16 st17 st18">n</text>
		<text transform="matrix(0.9753 0 0 -1.0667 -129.4128 1507.7025)" class="st16 st17 st18">t</text>
		<text transform="matrix(0.9753 0 0 -1.0667 -123.5742 1507.7025)" class="st16 st17 st18">h</text>
		<text transform="matrix(0.9753 0 0 -1.0667 -113.3315 1507.7025)" class="st16 st17 st18">e</text>
		<text transform="matrix(0.9753 0 0 -1.0667 -103.9565 1507.7025)" class="st16 st17 st18">r</text>
		<text transform="matrix(0.9753 0 0 -1.0667 -97.2284 1507.7025)" class="st16 st17 st18">g</text>
		<text transform="matrix(0.9753 0 0 -1.0667 -86.9877 1507.7025)" class="st16 st17 st18">r</text>
		<text transform="matrix(0.9753 0 0 -1.0667 -80.2586 1507.7025)" class="st16 st17 st18">o</text>
		<text transform="matrix(0.9753 0 0 -1.0667 -70.0169 1507.7025)" class="st16 st17 st18">u</text>
		<text transform="matrix(0.9753 0 0 -1.0667 -59.7752 1507.7025)" class="st16 st17 st18">p</text>
		<g id="g3083" transform="matrix(1.5934372,0,0,1.5934372,587.24042,1389.5341)">
			<g id="g3085">
				<g id="g3091">
					<g id="g3093">
						
							<linearGradient id="path3101_1_" gradientUnits="userSpaceOnUse" x1="-481.7081" y1="-1017.8589" x2="-480.7509" y2="-1017.8589" gradientTransform="matrix(60.8157 -60.8157 -60.8157 -60.8157 -33103.1641 -91039.0469)">
							<stop  offset="0" style="stop-color:#E83600"/>
							<stop  offset="1" style="stop-color:#FF6500"/>
						</linearGradient>
						<path id="path3101" inkscape:connector-curvature="0" class="st19" d="M-496.2,131.5h24.9v27.3h-24.9
							C-496.2,158.7-496.2,131.5-496.2,131.5z"/>
					</g>
				</g>
			</g>
		</g>
		<g id="g3103" transform="matrix(1.5934372,0,0,1.5934372,587.24042,1389.5341)">
			<g>
				<g>
					<defs>
						<rect id="SVGID_3_" x="-626.8" y="-55.6" width="330.6" height="358.1"/>
					</defs>
					<clipPath id="SVGID_4_">
						<use xlink:href="#SVGID_3_"  style="overflow:visible;"/>
					</clipPath>
					<g id="g3105" class="st20">
						<path id="path3111" inkscape:connector-curvature="0" class="st16" d="M-463.5,150.2h-16v17.5h16
							C-463.5,167.7-463.5,150.2-463.5,150.2z"/>
						<path id="path3113" inkscape:connector-curvature="0" class="st16" d="M-457.2,169.9h-5.9v6.4h5.9V169.9z"/>
					</g>
				</g>
			</g>
		</g>
		<g id="g3115" transform="matrix(1.5934372,0,0,1.5934372,587.24042,1389.5341)">
			<g id="g3117">
				<g id="g3123">
					<g id="g3125">
						
							<linearGradient id="path3133_1_" gradientUnits="userSpaceOnUse" x1="-513.4871" y1="-1007.252" x2="-512.5299" y2="-1007.252" gradientTransform="matrix(19.2672 -19.2672 -19.2672 -19.2672 -9970.1104 -29134.3535)">
							<stop  offset="0" style="stop-color:#E83600"/>
							<stop  offset="1" style="stop-color:#FF6500"/>
						</linearGradient>
						<path id="path3133" inkscape:connector-curvature="0" class="st21" d="M-456.5,157.6h7.9v8.6h-7.9V157.6z"/>
					</g>
				</g>
			</g>
		</g>
		<g id="g3135" transform="matrix(1.5934372,0,0,1.5934372,587.24042,1389.5341)">
			<g>
				<g>
					<defs>
						<rect id="SVGID_5_" x="-626.8" y="-55.6" width="330.6" height="358.1"/>
					</defs>
					<clipPath id="SVGID_6_">
						<use xlink:href="#SVGID_5_"  style="overflow:visible;"/>
					</clipPath>
					<g id="g3137" class="st22">
						<path id="path3143" inkscape:connector-curvature="0" class="st16" d="M-444.1,171.8h-3.4v3.8h3.4V171.8z"/>
					</g>
				</g>
			</g>
		</g>
		<text transform="matrix(0.9753 0 0 -1.0667 -47.0732 1527.5118)" class="st16 st17 st23 st24">c</text>
		<text transform="matrix(0.9753 0 0 -1.0667 16.9852 1527.5118)" class="st16 st17 st23 st24">a</text>
		<text transform="matrix(0.9753 0 0 -1.0667 81.0425 1527.5118)" class="st16 st17 st23 st24">r</text>
		<text transform="matrix(0.9753 0 0 -1.0667 127.0154 1527.5118)" class="st16 st17 st23 st24">e</text>
		<text transform="matrix(0.9753 0 0 -1.0667 191.0716 1527.5118)" class="st16 st17 st23 st24">e</text>
		<text transform="matrix(0.9753 0 0 -1.0667 255.1289 1527.5118)" class="st16 st17 st23 st24">r</text>
		<text transform="matrix(0.9753 0 0 -1.0667 301.1008 1527.5118)" class="st16 st17 st23 st24"> </text>
		<text transform="matrix(0.9753 0 0 -1.0667 335.0133 1527.5118)" class="st16 st17 st23 st24">l</text>
		<text transform="matrix(0.9753 0 0 -1.0667 368.9279 1527.5118)" class="st16 st17 st23 st24">e</text>
		<text transform="matrix(0.9753 0 0 -1.0667 432.9852 1527.5118)" class="st16 st17 st23 st24">v</text>
		<text transform="matrix(0.9753 0 0 -1.0667 497.0435 1527.5118)" class="st16 st17 st23 st24">e</text>
		<text transform="matrix(0.9753 0 0 -1.0667 561.1008 1527.5118)" class="st16 st17 st23 st24">l</text>
		<text transform="matrix(0.9753 0 0 -1.0667 595.0154 1527.5118)" class="st16 st17 st23 st24">s</text>
	</g>
</g>
</svg>
