<?xml version="1.0"?>
<svg width="1353.3" height="630" xmlns="http://www.w3.org/2000/svg" xmlns:svg="http://www.w3.org/2000/svg" xmlns:xlink="http://www.w3.org/1999/xlink">
 <style type="text/css">.st0{fill:#FBD6B1;}
	.st1{fill:#4E2E22;}
	.st2{fill:#EC6180;}
	.st3{fill:#2E2D2D;}
	.st4{fill:#F8F8F8;}
	.st5{fill:#7A7B7C;}
	.st6{fill:#90B39B;}
	.st7{fill:#84572F;}
	.st8{fill:#6E492A;}
	.st9{fill:#5E3E25;}
	.st10{fill:#F8EF16;}
	.st11{fill:#464648;}
	.st12{fill:#789683;}
	.st13{fill:#2C1913;}
	.st14{fill:#FBD8B5;}
	.st15{clip-path:url(#SVGID_2_);}
	.st16{fill:#3A383A;}
	.st17{font-family:&#x27;Arial-BoldMT';}
	.st18{font-size:16.2536px;}
	.st19{fill:url(#path3101_1_);}
	.st20{clip-path:url(#SVGID_4_);}
	.st21{fill:url(#path3133_1_);}
	.st22{clip-path:url(#SVGID_6_);}
	.st23{font-size:111.0577px;}
	.st24{letter-spacing:2.2;}</style>
 <g stroke="null">
  <title>Layer 1</title>
  <g transform="matrix(1.4466209961723244,0,0,-3.410052563054665,61.01275998523806,6277.857598662156) " id="g10" stroke="null">
   <g transform="matrix(0.42880951,0,0,0.42880951,718.07318,1089.2118) " id="g8291" stroke="null">
    <path d="m318.51781,1631.85061c0,-32.7 -22.60001,-59.2 -52,-59.2s-54.6,26.5 -54.6,59.2c0,32.7 23.9,59.2 53.29999,59.2c51,0 53.30001,-26.5 53.30001,-59.2" class="st0" id="path28-1" stroke="null"/>
    <path d="m236.21779,1661.85061c0,0 42.90001,-10.5 82.80002,-2.7c-4.10001,35.1 -35.2,59.6 -81.9,43.6c-55.40002,-19.1 -26.90002,-92.3 -13.7,-109.6c8.3,16 11,34.4 11,34.4s-10.6,-5.1 -9.8,7.1c0.59998,8.4 10.8,3 10.8,3l0.8,24.2" class="st1" id="path30-0" stroke="null"/>
    <path d="m239.71779,1674.55061c0,0 -28.3,36.8 -56.69998,16.7c-37.6,-26.6 19.19999,-74.8 -30.80001,-89.3c29,-21.7 62.5,3.3 49,35.4c-19.59999,46.7 23.40001,46.1 38.5,37.2" class="st1" id="path32-96" stroke="null"/>
    <path d="m378.2178,1588.55061c-0.89999,0.6 -1.69999,0.9 -2.5,1.1c3.9,5.8 8.30001,12.9 6.2,13.9c-3,1.4 -11.2,-13.7 -14,-18c-0.2,-0.2 -0.3,-0.5 -0.39999,-0.7c-1.7,-2.4 -2.60001,-4.9 -2.60001,-4.9l10.8,-7.6c0.10001,0 11.5,10.2 2.5,16.2" class="st0" id="path34-8" stroke="null"/>
    <path d="m259.31781,1631.95061c0,-4.9 -1.7,-7.5 -3.7,-7.5c-2.1,0 -3.7,2.7 -3.7,7.5c0,4.9 1.7,7.5 3.7,7.5s3.7,-2.6 3.7,-7.5" class="st1" id="path36-7" stroke="null"/>
    <path d="m307.1178,1631.95061c0,-4.9 -1.7,-7.5 -3.7,-7.5c-2.10001,0 -3.7,2.7 -3.7,7.5c0,4.9 1.7,7.5 3.7,7.5c2,0 3.7,-2.6 3.7,-7.5" class="st1" id="path38" stroke="null"/>
    <path d="m264.1178,1605.05061c0,-7.3 6,-13.3 13.3,-13.3c7.3,0 13.3,6 13.3,13.3l-26.6,0" class="st2" id="path40-7" stroke="null"/>
    <path d="m253.6178,1588.85061l0,-20.6l11,-24.9l11,24.9l0,20.6l-22,0" class="st0" id="path42-2" stroke="null"/>
    <path d="m253.6178,1568.25061l-26.5,-8.5l4.69999,-58.1l-9.3,-29l81.60001,0l-8.30001,29l4.5,59.4l-24.6,7.2l-11,-24.9l-11.1,24.9" class="st3" id="path44-9" stroke="null"/>
    <path d="m275.7178,1568.25061l4.80001,-1.4l-15.80001,-33.9l-15.89999,33.8l4.89999,1.6l11,-24.9l11,24.8" class="st4" id="path46-0" stroke="null"/>
    <path d="m253.6178,1568.25061l-4.90001,-1.6l-1.89999,-18.1l6.80001,3.3l7.79999,-1.3l-7.8,17.7" class="st4" id="path48-9" stroke="null"/>
    <path d="m275.7178,1568.25061l4.80001,-1.4l2,-18.3l-6.80001,3.3l-7.8,-1.3l7.8,17.7" class="st4" id="path50-4" stroke="null"/>
    <path d="m267.9178,1523.75061c0,-1.8 -1.39999,-3.2 -3.2,-3.2s-3.19999,1.4 -3.19999,3.2c0,1.8 1.39999,3.2 3.19999,3.2s3.2,-1.4 3.2,-3.2" class="st5" id="path52-5" stroke="null"/>
    <path d="m267.9178,1504.55061c0,-1.8 -1.39999,-3.2 -3.2,-3.2s-3.19999,1.4 -3.19999,3.2c0,1.8 1.39999,3.2 3.19999,3.2s3.2,-1.5 3.2,-3.2" class="st5" id="path54-4" stroke="null"/>
    <path d="m267.9178,1485.25061c0,-1.8 -1.39999,-3.2 -3.2,-3.2s-3.19999,1.4 -3.19999,3.2c0,1.8 1.39999,3.2 3.19999,3.2s3.2,-1.4 3.2,-3.2" class="st5" id="path56-9" stroke="null"/>
    <path d="m284.81781,1557.35061c0,0 47.7,-54.9 91.8,13.5l-13.6,9.8c0,0 -26.10001,-50.8 -62.7,-19.6l-15.5,-3.7" class="st3" id="path62-0" stroke="null"/>
    <path d="m367.01781,1560.75061c0.39999,0.8 0.1,1.7 -0.7,2.1c-0.8,0.4 -1.7,0.1 -2.10001,-0.7c-0.39999,-0.8 -0.1,-1.7 0.7,-2.1s1.7,-0.1 2.10001,0.7" class="st5" id="path64-8" stroke="null"/>
    <path d="m370.1178,1565.05061c0.39999,0.8 0.1,1.7 -0.7,2.1c-0.8,0.4 -1.7,0.1 -2.10001,-0.7c-0.39999,-0.8 -0.1,-1.7 0.7,-2.1s1.8,-0.1 2.10001,0.7" class="st5" id="path66-8" stroke="null"/>
    <path d="m373.2178,1569.25061c0.4,0.8 0.10001,1.7 -0.69999,2.1c-0.80001,0.4 -1.7,0.1 -2.10001,-0.7c-0.39999,-0.8 -0.10001,-1.7 0.7,-2.1s1.69999,-0.1 2.1,0.7" class="st5" id="path68-0" stroke="null"/>
    <path d="m227.21779,1559.85061c0,0 -64.79999,-33.1 -9.09998,-92.4l12.8,10.8c0,0 -43.9,34.3 -2.5,66l-1.2,15.6" class="st3" id="path74" stroke="null"/>
    <path d="m382.9178,1323.15061l-243.4,0c-9.5,0 -17.3,7.7 -17.3,17.3c0,9.6 7.8,17.4 17.3,17.4l18.8,0l0,-18.6l205.19999,0l0,18.6l19.4,0c9.6,0 17.4,-7.8 17.4,-17.4s-7.8,-17.3 -17.4,-17.3" class="st6" id="path82-3" stroke="null"/>
    <path d="m376.7178,1478.85061l0,-12.2l-230.9,-0.1l0,12.2l230.9,0.1" class="st7" id="path84-5" stroke="null"/>
    <path d="m145.81779,1466.65061l69.30001,0l0,12.2l-69.30001,0l0,-12.2z" class="st8" id="path86-9" stroke="null"/>
    <path d="m158.31779,1339.15061l205.2,0l0,127.5l-205.2,0l0,-127.5z" class="st7" id="path88-1" stroke="null"/>
    <path d="m158.31779,1339.15061l69.4,0l0,127.5l-69.4,0l0,-127.5z" class="st8" id="path90-9" stroke="null"/>
    <path d="m363.51781,1447.65061l-135.80001,0l0,19l135.80001,0l0,-19" class="st8" id="path92-0" stroke="null"/>
    <path d="m158.31779,1397.45061l0,69.2l69.4,0l0,-19l0,0l-69.4,-50.2" class="st9" id="path94-8" stroke="null"/>
   </g>
   <g transform="matrix(0.16635406,0,0,-0.16635406,549.88896,1698.5949) " id="g4340" stroke="null">
    <path d="m-3445.06309,-533.54225c0.3,-63.2 -98.8,-105.7 -38.8,-184c46.3,-60.5 127,-30.5 146.8,19.1c18.6,46.5 -39,103 -38.4,163.49999l-69.6,1.40001" class="st10" id="path16-0" stroke="null"/>
    <path d="m-3425.96309,-533.94226c-1,-3.29999 -1.4,-7 -2.1,-10.2c-1.8,-8.2 -4.1,-16.39999 -5.8,-24.6c-3.8,-18.4 -8.1,-36.6 -9.8,-55.3c-1.1,-13 -2.6,-25.9 2,-38.4c2.5,-6.8 6.5,1.8 7.6,4.4c1.7,4.2 3.2,8.3 4.3,12.7c1.3,5 2.1,10.2 2.9,15.4c0.1,2.8 0.5,5.6 1.5,8.1l0,0.1l0,0c0.1,0.2 0.2,0.4 0.2,0.7c1.3,2.9 5.6,0.9 5,-2c-0.7,-3.1 -1.2,-6.2 -1.7,-9.2c0,-9.2 3.7,-20.5 6.8,-27.1c3.8,-8 6.6,9.5 7,11.9c0.3,2 0.6,4 0.8,6.1c-0.6,4.4 -0.6,8.7 0.9,12.3c1.1,2.6 5,1.3 5.1,-1.3c0,-1.6 0,-4.6 -0.1,-8.1c0.1,-0.7 0.3,-1.4 0.3,-2.2c0.1,-4.6 0.9,-9 2,-13.5c0.9,-4 1.9,-7.9 3.2,-11.7c1.9,-5.4 4.8,-3.5 5.6,1.5c0.7,4.6 1.4,9.1 1.4,13.7c0,8.5 -1,17.2 -1.6,25.7c-1.2,17.7 -2.3,35.4 -3.1,53.1c-0.6,12.5 -2.3,25 -3.4,37.4l-29,0.5zm51.2,31c0,0 10.6,-10 -0.2,-13.2c0,0 11.7,-12 -0.5,-18.7l-16.3,0.3c1.3,-18.6 3.5,-37.2 4.8,-55.8c0.8,-11.5 1.3,-23 2,-34.6c0.7,-11.4 2.3,-23 1.1,-34.4c-0.6,-6 -1,-13.9 -6.8,-17.2c-3.9,-2.3 -7.2,2.3 -8.8,5.2c-2.1,4 -3.3,8.7 -4.3,13.2c-1.9,-7.1 -5,-12.3 -10.4,-10.8c-6.5,1.7 -9,15.5 -10.2,20.7c-0.1,0.4 -0.2,0.9 -0.3,1.3c-0.7,-2.7 -1.4,-5.4 -2.4,-8.1c-2.1,-6 -4.1,-14.2 -10.7,-16.5c-10.1,-3.6 -12.3,20.4 -12.5,25.4c-1,23.1 4.4,47.1 9.5,69.4c2.6,11.3 5.1,22.6 7.6,33.8c0.5,2.4 0.9,5.7 1.6,9l-13.3,0.3c0,0 -12.8,7.2 -0.4,18.9c0,0 -11.6,7.1 -0.3,13.9c0,0 -11.5,7.6 1,13.9l14.4,0.30001l11.1,12.19999l18,0.40001l11.1,-12.40001l12.1,-1c-0.1,0 16.5,-6.4 3.1,-15.5" class="st11" id="path18-5" stroke="null"/>
    <path d="m-3424.16309,-802.64225l0,0l0,0l0,0" class="st4" id="path20-40" stroke="null"/>
    <path d="m-3424.66309,-816.64225c0,0 0.1,0 0.1,0.1c0,-0.1 -0.1,-0.1 -0.1,-0.1zm3.6,19.8l0.6,0l-0.4,-0.1c-0.6,0 -1.6,0 -1.5,0.1c-1.6,-0.1 -0.2,-0.1 -0.6,-0.3c-0.9,-0.1 0.1,0.1 -0.8,0.1c-0.8,0 -0.9,-0.1 -1,-0.2c0,-0.2 1,-0.1 1.6,-0.1c0.1,0 0.3,0.1 -0.3,0.1c1,0.2 1.9,-0.1 2.6,0.1c0.6,-0.1 -0.6,-0.1 -0.9,-0.2c-0.1,0.1 -0.9,0 -1.3,0c-2.5,-0.3 1.8,-0.1 1.4,-0.4c-1.6,0 -2.3,-0.4 -4,-0.2c-0.3,-0.1 -0.7,-0.1 -0.5,-0.2c1.1,0.1 0.9,-0.1 1.9,0l0,-0.1l1.3,0.1c0.8,-0.1 1.5,-0.2 2,-0.3c-0.5,-0.1 -1.1,0 -1.3,-0.1c0.6,0.1 1.1,0 1,-0.1c-0.4,0.1 -1.6,0 -1.8,-0.1c0,-0.1 1,-0.2 1.3,-0.2l0.9,0.1c-0.8,-0.1 0.4,0 0.1,-0.1c-0.6,0 -1.5,-0.1 -2.3,-0.1c-0.3,-0.1 0.5,-0.1 0.4,-0.2l0.7,0.1c-0.2,-0.2 1.7,0 1.3,-0.2l-0.9,-0.1c0.1,0 0.5,-0.1 0.8,0c-0.6,0 -0.5,-0.1 -0.7,-0.2l0.6,0c-0.4,-0.1 -1.6,-0.2 -0.5,-0.3c-1.4,0.1 0,0.1 -0.6,0.2c-1,0.1 -0.9,-0.1 -1.1,-0.2c1.5,0 0.1,-0.2 0.2,-0.3c0.5,-0.1 0.8,-0.1 1.1,-0.1l-1,-0.1c1.9,0 -0.4,-0.2 0.2,-0.3c0.6,0.1 1.3,0.1 1.6,0c-1.4,0.1 -1.7,-0.2 -2.7,-0.1c0.5,-0.2 1.8,0.1 2.8,0c-1.1,-0.1 0.7,-0.2 -0.7,-0.3c-0.4,0.1 -0.9,0 -1.5,-0.1c0.1,-0.2 0.6,0 1.1,-0.1c-0.2,-0.1 -1.3,-0.2 -1.7,-0.1c0.3,-0.1 -1,-0.2 -0.2,-0.3c0.9,0 0.4,0.2 1,0.1c0.1,-0.2 -2.2,-0.1 -2.5,-0.4c-0.5,0.1 -2,0 -2.5,-0.1c0.4,-0.2 0.5,0.1 1.6,0l-0.2,-0.1c1.5,-0.1 2.5,0.3 3.8,0.2l-0.5,-0.1c0.4,0 1.2,0.1 1.6,0c-1.1,0 -0.3,-0.2 -0.5,-0.3c-0.9,0 0.3,0.1 -0.4,0.1c-0.2,-0.1 -1.7,-0.2 -1.2,-0.3c0.6,0.1 1.2,0 1.7,0c0.4,-0.1 -1.1,0 -0.6,-0.1l0.5,0c0.2,-0.4 0.1,-1 -2.1,-1.4c0.9,-0.1 1,-0.2 1.6,-0.4c-0.3,0.1 -0.9,0 -1,-0.1l1,-0.1c0.6,-0.1 -0.4,-0.3 -1,-0.4l0.8,0c0.7,-0.1 -0.6,-0.1 -0.8,-0.2l0.7,-0.1l-0.7,0c-0.4,-0.1 -0.2,-0.3 0.9,-0.2c-0.2,0 -0.4,-0.1 -0.8,0c0.7,-0.1 0.7,-0.4 0.3,-0.6c-0.3,0.1 -0.7,0.1 -1.4,0.1c-1.3,0 0.2,0 -0.5,-0.1c0.5,0 0.9,-0.1 1.3,0c1.6,-0.3 0.3,-0.7 0.6,-1c-0.2,-0.1 -0.4,-0.1 -0.7,-0.1c1.3,-0.2 -0.1,-0.5 0.5,-0.7c-0.5,0.1 -2,0 -2,-0.2c-1,-0.1 1.4,0 2.1,-0.2c-0.5,-0.1 -0.6,-0.2 -0.5,-0.2l0.2,0c-0.5,-0.1 -0.9,-0.2 -0.4,-0.3l0.1,0c0.1,-0.1 0.7,-0.2 0.7,-0.2c-1,0 -0.4,-0.2 -1.2,-0.3c0.1,0 0.2,0 0.4,0l-0.8,0l0.5,-0.1c0.3,0 0.7,0.1 0.9,0.1c0.6,-0.2 -0.8,-0.1 -1.2,-0.2c-0.6,-0.1 0.2,-0.1 0.6,-0.2c0.4,0.1 -0.2,0.1 0,0.1c0.7,0.1 0.3,-0.1 0.7,-0.1c0,0 -1,-0.1 -0.8,-0.1c0.1,-0.1 -0.2,-0.3 0.7,-0.2c-0.5,-0.1 -0.4,-0.1 -0.8,-0.2c-0.2,0.1 -0.4,0.2 -1,0.2c-0.1,-0.1 -0.4,-0.2 0,-0.2l0.2,0c-0.2,0 0.1,-0.2 -0.8,-0.1l1.1,-0.1c-0.7,-0.1 -0.6,-0.2 -0.8,-0.3c0.9,0 1.9,0.1 2.1,-0.1l-0.9,-0.2c-0.1,-0.1 0.1,-0.1 0.7,-0.1c0.5,-0.3 -2.5,-0.3 -1.7,-0.5c1.1,0.1 1.2,0 1.5,-0.1c-0.2,0 -0.5,0 -0.6,-0.1c-0.5,0 0.8,0.1 0,0.1c-0.7,0 -0.4,-0.1 -0.7,-0.1c2.3,-0.2 0.6,-0.6 1.7,-0.9c-1.3,0 -0.4,-0.1 -0.9,-0.2c1.4,0 -0.2,-0.2 0.6,-0.3l-1.3,0c0.8,-0.2 -2,-0.3 -0.4,-0.4c0.4,-0.1 1,0 1.2,0.1c1.5,-0.1 -1.2,-0.4 0.4,-0.5c-0.5,0 -1.4,0 -1.9,-0.1c0.6,-0.1 1.3,-0.3 1.5,-0.3c-0.3,-0.1 -0.7,-0.1 -0.2,-0.2c0.3,0 0.4,0 0.5,0.1c0.3,-0.1 -0.2,-0.3 -0.7,-0.4c1,-0.1 0.5,-0.3 1.1,-0.5c-1.3,-0.1 0.5,-0.3 -1.1,-0.3c0.2,0 0.4,0 0.5,0c-0.5,-0.1 -1.5,-0.1 -1.6,-0.2l1.1,0c1.4,0 0.3,-0.2 0.9,-0.2c-0.9,0.1 0,-0.1 -0.8,-0.1l-0.3,-0.1c-0.3,-0.1 -0.5,0 -0.7,-0.2c-0.1,-0.1 1.2,0 1.1,0c0.6,-0.1 0.2,-0.2 0,-0.3c0,0 -0.1,0 -0.3,0c0.1,0 0.2,0 0.3,0c-0.1,0 -0.2,-0.1 -0.2,-0.1s0,0 0.1,0c0.1,0 0.1,0.1 0.1,0.1c0.1,0 0.1,-0.1 0.1,-0.1c0.1,0 0.1,0 0,0c0,0 0.1,-0.1 0.2,-0.1l0.8,0c0,-0.1 -0.9,-0.2 -1.3,-0.2c0.7,-0.2 0.1,-0.7 -0.3,-0.8c0.2,0 0.5,0 0.2,0c-0.2,-0.1 -0.9,-0.2 -0.3,-0.2c-0.3,-0.1 0.6,-0.1 0.7,-0.2c0.1,0 -0.5,0 -0.7,0c1.1,-0.2 -0.8,-0.5 0,-0.8c0.1,0 0.5,0.1 0.8,0.1c-0.4,-0.2 -0.8,-0.4 -1.8,-0.6c0.4,0 0.7,0 0.9,0.1c0,-0.1 -0.2,-0.3 -1,-0.4c-0.4,0.1 0.5,0 0.4,0.1c-0.7,0.1 -1.5,-0.1 -1.3,-0.2l0.2,0c0,-0.1 -0.5,-0.1 -0.5,-0.3c0.5,-0.1 0.2,0.1 0.8,0.1c1.3,0 0.8,-0.3 1,-0.3c-0.3,0 -0.5,-0.1 -0.9,-0.1c-0.4,-0.1 0.8,0 0.7,-0.1l-2.6,-0.3c0.2,0.1 1.2,-0.1 1.7,0c-0.2,-0.2 -1.7,-0.4 -2.6,-0.5c0.2,-0.1 -0.3,-0.3 -0.4,-0.4c0.7,0 0,0.1 0.5,0.1l0.8,-0.1c0.1,0.1 1.3,0 1.8,0.1c-0.5,-0.1 0.1,-0.4 0.3,-0.6c-1.5,0.1 -0.7,-0.2 -2.1,-0.3c-0.2,-0.2 1.1,-0.1 1.4,-0.2c-0.5,-0.2 -0.1,-0.4 -0.3,-0.6c0,0 0.2,0 0.3,0c-0.4,-0.2 0,-0.5 -1.2,-0.7l0.8,0c0.5,-0.2 -1.8,-0.1 -0.9,-0.3l0.7,0.1c-0.7,-0.1 0.6,-0.3 -0.4,-0.4c0.4,0 0.5,0 0.7,0.1c-0.3,-0.1 -0.1,-0.3 -1.1,-0.5c0.4,0 0.8,0 1.1,0.1c0.5,-0.1 -1.2,-0.2 -0.8,-0.3c0.1,0 0.6,-0.1 0.7,-0.1c-0.6,-0.1 -0.6,-0.3 -0.8,-0.4c0.4,0 0.6,-0.1 1.1,-0.1c0,-0.7 0.2,-1.5 -1,-2.3c1.4,-0.1 0.9,0.2 1.8,0.1c-1.2,0 -0.3,-0.1 -0.7,-0.4l0.2,0c-0.3,-0.1 0.5,-0.1 0.1,-0.3l-0.3,0c-0.8,-0.1 1.5,-0.2 0,-0.3l0.8,-0.1c-1.3,-0.1 0.4,-0.2 -0.7,-0.3l0.2,0c0.6,-0.2 -1.4,-0.4 -0.4,-0.4c-0.2,-0.1 -0.5,-0.3 -1.5,-0.4c0.4,0 1,0 1.4,0c-0.5,-0.6 -0.2,-1.2 -1.7,-1.7l0.6,0c-1.2,-0.3 1.3,-0.6 -1,-0.9l-1,-0.1c0.4,-0.1 1.1,-0.1 1.4,-0.1c-0.6,-0.1 -0.2,-0.3 -1,-0.3c0.4,0 0.5,0 0.8,0c0.2,-0.1 -1.2,-0.3 -0.9,-0.5l0.4,0c1.7,-0.7 3,-1.6 0.8,-2.2c-0.4,-0.2 1.3,-0.1 1.2,-0.1c-1.8,-0.6 1.1,-1.3 -1.7,-1.9c-0.7,-0.4 -3.8,-0.6 -3.8,-0.6c1.1,1.1 -0.2,2 -1.8,3c0.2,0.4 0.7,0.8 0.2,1.1c0.3,1.4 -2.1,2.7 -1.1,4.1c0.4,-0.1 1,0 1.2,0.1l-0.3,0l0.8,0.1c0.1,0.1 -0.9,0.1 -1,0c0,0.6 0.3,1.1 0.1,1.6c1.1,0.1 0.1,0.3 1.3,0.3c-0.2,0 -0.3,0 -0.5,0c0.6,0.4 0.6,0.4 -0.8,0.7c-1,1.5 -0.2,2.9 -0.5,4.3c0.2,1.5 1.2,2.9 1.5,4.4c1.8,0.2 1,0.6 2.5,0.8l-0.6,0c0.8,0.2 -0.2,0.3 -0.8,0.6c0.6,0 0.2,0.1 1.2,0.1c0.9,0.1 -1.5,0.2 -1,0.3c-0.4,0 0.6,0 0.3,0c1.3,0.4 -0.6,-0.1 -1.6,0.4c0.4,0.7 1.5,1.4 0.8,2c-0.1,0 0.8,-0.1 0.8,0c-1.7,0 0.5,0.2 -0.2,0.3c-0.4,0 -0.5,-0.1 -0.6,-0.1c-0.7,0.3 0.3,0.5 -0.4,0.8c0.7,0.3 -0.8,0.6 0.1,0.7c-0.7,0 -0.5,0.1 -0.9,0.2c2.1,0.2 -0.7,0.5 0.7,0.8l-0.4,0c0.2,0.7 -0.3,1.5 0.6,2.2c0.2,0.4 -1.6,0.9 -0.7,1.3c0.3,0.1 0.7,0 0.9,0.1c-0.1,0.1 -0.6,0 -0.9,0c0.8,0.2 -0.2,0.5 -0.2,0.8c0.3,0 0.4,0.1 0.9,0.1c-1.4,0.3 0.5,0.7 -0.6,1.1c1.8,-0.1 1,0.2 1.4,0.3c-0.1,0.1 -0.6,0.1 -0.9,0c0.2,0.2 0.3,0.4 -0.2,0.7c0.2,0.1 1.2,0.2 0.9,0.3c-1.2,0.1 -0.1,0.3 -0.5,0.5c1.1,0 1.9,0.2 1.4,0.3l-1.5,-0.1c1,0.5 -0.7,1.2 1.1,1.8l-0.9,0c1,0.6 -0.1,1.2 1.6,1.8c-0.5,0.2 -0.8,0.4 -0.8,0.6c0.7,0.2 0.7,0.3 1.9,0.5c0.1,0.1 -0.6,0.1 -0.9,0.1c-0.2,0.3 -1.5,0.5 -0.1,0.7l-0.7,0c0.8,0.2 1.7,0.5 0.8,0.8c0.7,0.1 0.9,0.3 1.8,0.2c0.2,0.1 -1.3,0.1 -0.5,0.1l-1.1,-0.1c-0.3,0.5 0.3,1 0.8,1.5c-1.3,0.1 0.1,0.5 -0.6,0.8c0.7,0.2 -0.3,0.5 1.3,0.6l-0.7,0c-0.1,0.2 -0.1,0.5 -0.5,0.8c-0.2,0.2 0.9,0.2 1.3,0.3l-0.7,0c0.5,0.1 1.6,0.2 2.4,0.3c-0.5,0.1 0,0.1 -0.5,0.2c-0.4,-0.1 -1.2,-0.2 -2.2,-0.3c-0.3,0.2 1.6,0.4 0.4,0.5c-0.3,0.2 0,0.3 1,0.3c-0.3,0 -0.6,0.1 -1,0c0,0.1 0.1,0.2 0.5,0.3l0.1,-0.1c0.8,0.1 0.7,0.2 1.8,0.2c-0.3,-0.1 -0.5,-0.1 -0.4,-0.1c0.8,0 1,0.2 0.3,0.3c-0.8,0.1 -1.3,-0.1 -1.8,-0.1l1.8,0.3c-0.2,-0.1 0.2,-0.1 0.9,-0.1l-0.5,-0.1l0.8,0c-0.3,-0.2 0.5,-0.4 -0.1,-0.6l-0.8,0.1c0,-0.1 -1.2,-0.3 -0.2,-0.4c0.3,0.1 0.7,0 1.2,0c-0.1,0 -0.5,-0.1 -0.3,-0.1l1.4,0.1c-1.9,-0.1 -0.7,-0.4 -1,-0.4l0.3,0c0.6,-0.2 -0.8,0 -0.8,-0.1c0.2,-0.1 1.5,0 2.1,-0.1c0,-0.2 -1.1,-0.5 0,-0.7c-0.2,-0.2 -0.7,-0.4 -1.4,-0.5c0,-0.2 1.5,0 0.8,-0.1c0.5,0 1,0 1.5,0c-0.6,0 0.1,-0.3 -1.2,-0.2c0.3,-0.2 0.4,-0.5 0.1,-0.7c0.1,0.1 1,0.1 1.4,0.1c-0.9,-0.1 -1.4,-0.3 -1.1,-0.5c-0.9,0 -0.9,0.1 -1.8,0c-0.1,0 -0.6,-0.1 -0.5,-0.1c1,0 2.4,0 2.4,-0.2c1.5,0.1 -0.2,0.3 1.3,0.2c1.2,0.1 1.3,0.4 0.5,0.5c1.3,0.2 0.2,-0.1 1.4,-0.1c-0.1,-0.1 -0.7,-0.2 -0.9,-0.4c-0.6,0 -0.7,0.1 -1.2,0c-1.3,-0.2 0.9,-0.2 1,-0.3l0.3,0.1c0.4,-0.1 -0.4,-0.2 -0.4,-0.3c1.7,0 0.2,0.2 1.2,0.3l1.2,-0.1c0.3,0.5 -1.2,0.6 -0.8,0.4" class="st4" id="path22-2" stroke="null"/>
    <path d="m-3433.56309,-799.64225l0,0c-0.1,0 -0.1,-0.1 -0.2,-0.1c0,0.1 0.1,0.1 0.2,0.1" class="st4" id="path24-16" stroke="null"/>
    <path d="m-3423.96309,-804.94226l0,0c0.3,0 0.2,0 0,0" class="st4" id="path26-0" stroke="null"/>
    <path d="m-3423.46309,-799.04225l-0.3,-0.1l-0.3,0.1l0.6,0" class="st4" id="path28-0" stroke="null"/>
    <path d="m-3423.16309,-805.44226c-0.1,0 -0.9,0 -0.6,0.1c0,-0.1 0.7,0 0.6,-0.1" class="st4" id="path30-1" stroke="null"/>
    <path d="m-3426.36309,-808.74226l0,0l-1.1,0l1.1,0" class="st4" id="path32-71" stroke="null"/>
    <path d="m-3342.66309,-765.34225c-0.3,-0.2 -0.1,0 0.2,0.4c0.5,0.2 -0.2,-0.1 -0.2,-0.4" class="st4" id="path34-85" stroke="null"/>
    <path d="m-3332.86309,-778.74226l0.1,0.1l0,-0.1l-0.1,0" class="st4" id="path36-4" stroke="null"/>
    <path d="m-3341.56309,-765.54225c0,-0.1 -0.1,-0.1 -0.1,-0.1c0,-0.1 0,0 0.1,0.1" class="st4" id="path38-9" stroke="null"/>
    <path d="m-3326.46309,-784.44226l0,0c0,-0.09999 0,-0.09999 -0.1,-0.19999c0,0 0,0.1 0.1,0.19999" class="st4" id="path40-9" stroke="null"/>
    <path d="m-3317.76309,-779.54225c0,0 0.1,0 0,0c0.1,0 0,0 0,0l0,0" class="st4" id="path42-4" stroke="null"/>
    <path d="m-3317.76309,-780.14225l0,0.1c0,-0.1 -0.1,-0.1 0,-0.1zm14.8,-18.80001c-0.1,-0.9 -2,-3.3 -2,-3.3c-0.2,1.6 -1.8,1.3 -3.7,0.9c-0.1,0.4 -0.2,1.1 -0.8,1c-1,1.2 -3.7,0.4 -4.2,2.2c0.3,0.2 0.6,0.7 0.7,0.9l-0.2,-0.2l0.4,0.7c0,0.1 -0.6,-0.6 -0.7,-0.8c-0.5,0.4 -0.7,1 -1.3,1.3c0.7,0.9 -0.2,0.2 0.6,1.2c-0.2,-0.1 -0.2,-0.2 -0.3,-0.4c0.1,0.7 0.1,0.8 -1.2,-0.1c-1.9,0.3 -2.5,2 -4,2.8c-1.1,1.2 -1.6,3 -2.7,4.4c1,1.5 0.2,1.1 1,2.5l-0.4,-0.4c0.3,0.8 -0.3,0.1 -1,-0.2c0.4,0.5 0,0.2 0.8,1c0.5,0.80001 -1.1,-1 -0.9,-0.5c-0.2,-0.3 0.4,0.5 0.2,0.2c0.5,1.2 -0.3,-0.5 -1.4,-0.9c-0.3,0.8 -0.2,2.1 -1.1,2.1c0,-0.1 0.6,0.6 0.5,0.6c-1.2,-1.3 0.1,0.5 -0.4,0.1c-0.2,-0.3 -0.3,-0.4 -0.3,-0.5c-0.7,-0.3 -0.2,0.7 -1,0.3c0.3,0.7 -1,-0.2 -0.5,0.6c-0.4,-0.6 -0.4,-0.3 -0.7,-0.5c1.2,1.7 -0.9,-0.2 -0.2,1l-0.2,-0.3c-0.5,0.6 -1.5,0.8 -1.5,2.1c-0.2,0.5 -1.8,-0.6 -1.6,0.5c0.1,0.3 0.5,0.6 0.5,0.7c-0.1,0.1 -0.4,-0.5 -0.6,-0.6c0.4,0.8 -0.6,0.3 -0.8,0.5c0.2,0.3 0.2,0.4 0.5,0.8c-1.2,-0.8 -0.3,0.9 -1.3,0.4c1.3,1.3 0.5,0.9 0.6,1.3c-0.1,0 -0.4,-0.4 -0.6,-0.6c-0.1,0.3 -0.1,0.5 -0.7,0.3c0,0.30001 0.6,1 0.3,0.9c-0.9,-0.9 -0.3,0.2 -0.7,0c0.7,0.80001 1.1,1.6 0.7,1.30001l-0.9,-1.2c0.2,1.1 -1.5,0.3 -0.8,2.2l-0.6,-0.6c0.2,1.2 -1.1,0.8 -0.4,2.5c-0.4,-0.2 -0.8,-0.3 -1,-0.2c0.3,0.7 0.2,0.7 0.9,1.7c0,0.1 -0.5,-0.4 -0.7,-0.6c-0.4,0 -1.4,-0.7 -0.7,0.5l-0.5,-0.6c0.3,0.7 0.7,1.7 -0.1,1.2c0.4,0.6 0.3,0.9 1,1.5c0,0.2 -0.9,-0.9 -0.4,-0.2l-0.6,-0.9c-0.6,0.2 -0.6,0.9 -0.7,1.7c-1,-0.9 -0.3,0.5 -1,0.1c0.3,0.7 -0.6,0.09999 0.3,1.4l-0.5,-0.6c-0.3,0.1 -0.5,0.3 -1,0.3c-0.3,0 0.4,0.8 0.6,1.2l-0.5,-0.6c0.2,0.5 0.9,1.4 1.3,2c-0.4,-0.3 -0.1,0.1 -0.5,-0.2c-0.2,-0.4 -0.6,-1.1 -1.2,-1.9c-0.4,-0.1 0.7,1.5 -0.1,0.7c-0.3,-0.1 -0.2,0.2 0.4,1c-0.2,-0.3 -0.5,-0.4 -0.7,-0.8c-0.1,0.1 -0.1,0.2 0.1,0.6c0,0 0.1,0.1 0.1,0c0.4,0.6 0.3,0.7 1.1,1.5c-0.1,-0.3 -0.3,-0.4 -0.1,-0.4c0.5,0.6 0.5,0.9 0,0.4c-0.6,-0.6 -0.7,-1.1 -1.1,-1.4l1,1.7c-0.4,-0.5 0.1,-0.2 0.5,0.4l-0.2,-0.5l0.5,0.6c0,-0.4 0.7,0.1 0.4,-0.5l-0.6,-0.6c0.1,-0.1 -0.5,-1.1 0.2,-0.4c0.1,0.3 0.5,0.6 0.8,0.9c-0.1,-0.1 -0.3,-0.4 -0.1,-0.3l0.9,1.1c-1.2,-1.5 -0.2,-0.8 -0.3,-1l0.2,0.2c0.5,0.3 -0.5,-0.6 -0.4,-0.7c0.2,0.1 1,1.1 1.5,1.5c0.1,-0.2 -0.3,-1.2 0.6,-0.6c0,-0.3 -0.2,-0.8 -0.5,-1.4c0.1,-0.1 0.9,1.1 0.7,0.5c0.3,0.4 0.7,0.8 1,1.1c-0.4,-0.4 0.3,-0.1 -0.6,-1c0.4,0 0.7,-0.1 0.7,-0.4c0,0.09999 0.6,0.79999 0.9,1.09999c-0.5,-0.7 -0.6,-1.3 -0.3,-1.2c-0.6,-0.7 -0.7,-0.6 -1.2,-1.3c-0.1,-0.09999 -0.3,-0.5 -0.2,-0.5c0.6,0.7 1.6,1.8 1.8,1.7c0.9,1.20001 -0.4,0.1 0.7,1.1c0.7,1 0.5,1.2 -0.1,0.7c0.7,1.1 0.2,0 1,1c0.1,-0.2 -0.3,-0.7 -0.3,-1c-0.4,-0.5 -0.5,-0.5 -0.8,-1c-0.7,-1.2 0.8,0.5 0.9,0.5l0.1,0.3c0.4,0.2 -0.1,-0.5 0,-0.5c1.1,1.3 -0.1,0.3 0.6,1.1l0.9,0.9c0.3,0 -0.9,-1.1 -0.4,-0.9l0.4,0.5l-0.1,-0.4c-0.4,-0.5 -1.1,-1.2 -1.1,-1c-1,-1.3 -0.1,-0.3 -0.1,-0.6c-0.6,-0.7 0,0.1 -0.6,-0.6c-0.6,-0.6 -0.5,-0.7 -0.5,-0.9c0.1,-0.1 0.7,0.7 1.2,1.1c0.1,0.1 0.1,0.3 -0.3,-0.1c0.5,0.9 1.3,1.4 1.7,2c0.5,0.3 -0.2,-0.5 -0.4,-0.8c-0.1,-0.1 -0.6,-0.7 -0.8,-0.9c-1.4,-2.1 1.3,1.3 1.3,0.8c-1.1,-1.2 -1.2,-2 -2.5,-3.2c-0.1,-0.3 -0.3,-0.6 -0.2,-0.5c0.7,0.9 0.7,0.6 1.2,1.5l0.1,-0.1l0.7,1.1c0.6,0.5 1.2,0.9 1.6,1.3c-0.2,-0.5 -0.7,-0.8 -0.8,-1.1c0.3,0.5 0.7,0.8 0.8,0.7c-0.4,-0.2 -1,-1.2 -1.1,-1.4c0.1,-0.1 0.9,0.6 1,0.8l0.5,0.8c-0.4,-0.7 0.3,0.3 0.2,0c-0.4,-0.5 -0.9,-1.2 -1.4,-1.9c-0.1,-0.3 0.5,0.3 0.4,0.2l0.3,0.6c0,-0.3 1.1,1.2 1,0.8l-0.5,-0.7c0.1,0.1 0.4,0.4 0.6,0.6c-0.4,-0.5 -0.2,-0.5 -0.3,-0.7l0.4,0.4c-0.2,-0.3 -0.9,-1.4 -0.1,-0.6c-1,-1 -0.1,0.1 -0.6,-0.3c-0.7,-0.7 -0.5,-0.8 -0.6,-0.9c0.9,1.1 0.2,0 0.3,-0.1c0.4,0.4 0.6,0.5 0.8,0.7l-0.6,-0.8c1.3,1.4 -0.1,-0.5 0.3,-0.1c0.3,0.5 0.8,1 1.1,1.2c-1,-1 -1,-1.4 -1.6,-2.1c0.5,0.2 1.1,1.4 1.8,2.1c-0.6,-0.9 0.6,0.4 -0.2,-0.7c-0.4,-0.2 -0.6,-0.7 -0.9,-1.2c0.2,0 0.4,0.5 0.8,0.8c-0.1,-0.2 -0.7,-1.1 -1.1,-1.3c0.3,0.1 -0.5,-0.9 0.1,-0.4c0.6,0.6 0.1,0.4 0.6,0.9c0.3,-0.1 -1.3,-1.7 -1.3,-2.1c-0.4,-0.3 -1.3,-1.5 -1.6,-2c0.5,0.1 0.3,0.5 1.1,1.30001l0,-0.2c1.1,1.1 1.4,2.1 2.3,3l-0.3,-0.5c0.3,0.3 0.7,1 1.1,1.2c-0.7,-0.8 0,-0.4 -0.1,-0.6c-0.6,-0.7 0.1,0.3 -0.3,-0.3c-0.1,-0.3 -1,-1.4 -0.5,-1.1c0.3,0.5 0.8,0.9 1.1,1.3c0.3,0.2 -0.7,-0.8 -0.3,-0.5l0.3,0.4c0.5,-0.2 0.9,-0.7 -0.3,-2.6c0.7,0.6 0.8,0.6 1.4,0.9c-0.3,-0.2 -0.6,-0.7 -0.6,-0.8l0.8,0.7c0.5,0.4 0,-0.5 -0.3,-1l0.5,0.6c0.5,0.4 -0.3,-0.5 -0.4,-0.7l0.5,0.5l-0.5,-0.6c-0.2,-0.4 0.1,-0.4 0.8,0.5c-0.1,-0.2 -0.2,-0.4 -0.5,-0.6c0.5,0.4 0.8,0.2 0.7,-0.2c-0.3,-0.1 -0.5,-0.4 -1,-1c-0.8,-1 0.2,0.1 -0.2,-0.5c0.3,0.4 0.7,0.6 0.8,1c1.3,1 0.8,-0.2 1.3,-0.2c-0.1,-0.2 -0.2,-0.3 -0.4,-0.6c1,0.8 0.4,-0.4 0.9,-0.2c-0.4,-0.4 -1.3,-1.5 -1.2,-1.6c-0.6,-0.9 1,1 1.5,1.4c-0.3,-0.4 -0.2,-0.6 -0.2,-0.6l0.1,0.1c-0.3,-0.5 -0.4,-0.8 0,-0.5l0,0.1c0.1,0 0.6,0.4 0.6,0.3c-0.6,-0.8 -0.1,-0.4 -0.6,-1.1c0.1,0.1 0.1,0.1 0.3,0.3l-0.5,-0.6l0.4,0.2c0.2,0.3 0.4,0.5 0.5,0.7c0.5,0.3 -0.5,-0.6 -0.7,-1c-0.3,-0.5 0.2,0.1 0.5,0.3c0.2,0.3 -0.2,-0.1 -0.1,0.1c0.4,0.5 0.2,0.1 0.5,0.5c0,0 -0.6,-0.8 -0.4,-0.7c0.1,0 0.1,-0.3 0.7,0.4c-0.3,-0.4 -0.1,-0.4 -0.4,-0.7c-0.2,-0.1 -0.4,-0.2 -0.8,-0.6c0,-0.1 -0.1,-0.4 0.2,-0.1l0.1,0.2c-0.1,-0.2 0.2,-0.1 -0.4,-0.7l0.8,0.8c-0.4,-0.5 -0.3,-0.6 -0.3,-0.8c0.6,0.7 1.2,1.5 1.5,1.5l-0.5,-0.8c0,-0.1 0.2,0 0.5,0.4c0.6,0.2 -1.4,-2.1 -0.7,-1.6c0.6,0.9 0.8,0.9 1,1.1c-0.1,-0.1 -0.3,-0.4 -0.3,-0.5c-0.3,-0.4 0.4,0.6 -0.1,0.1s-0.2,-0.4 -0.3,-0.6c1.7,1.6 0.9,0 1.9,0.6c-0.9,-1 -0.1,-0.4 -0.4,-0.8c0.9,1 0,-0.3 0.6,0.3l-0.9,-1c0.7,0.4 -1.1,-1.7 0.1,-0.6c0.4,0.2 0.6,0.8 0.7,1c1.1,1 -0.5,-1.2 0.7,0c-0.3,-0.4 -1,-1.1 -1.2,-1.5c0.5,0.4 1.1,0.7 1.2,0.9c-0.1,-0.3 -0.4,-0.6 0,-0.3c0.2,0.3 0.2,0.3 0.3,0.5c0.3,0.1 0.1,-0.4 -0.1,-0.8c0.7,0.7 0.6,0.1 1.1,0.4c-0.7,-1 0.6,0.2 -0.5,-1.1l0.3,0.3c-0.3,-0.4 -0.9,-1.2 -0.9,-1.3l0.7,0.8c0.9,1 0.4,0 0.8,0.5c-0.7,-0.6 0.1,-0.1 -0.4,-0.7l-0.1,-0.3c-0.1,-0.3 -0.3,-0.4 -0.3,-0.7c0,-0.1 0.8,0.9 0.7,0.8c0.4,0.4 0.3,0.1 0.2,-0.2c0,0 -0.1,0 -0.2,-0.2c0.1,0.1 0.2,0.1 0.2,0.2c0,-0.1 0,-0.2 0,-0.2l0,0c0,0.1 0,0.1 0,0.2c0.1,0.1 0.1,0 0.2,0l0,0c0,0 0.1,0 0.2,0.1l0.5,0.7c0.1,0 -0.4,-0.9 -0.6,-1.1c0.7,0.4 0.6,-0.4 0.5,-0.9c0.1,0.2 0.3,0.4 0.1,0.1c0,-0.2 -0.4,-0.8 -0.1,-0.4c-0.2,-0.3 0.4,0.4 0.6,0.4c0.1,0.1 -0.5,-0.7 -0.5,-0.5c1,0.8 -0.1,-0.9 0.7,-0.5c0,0.1 0.3,0.4 0.5,0.7c-0.1,-0.5 -0.2,-0.9 -0.7,-1.8c0.2,0.3 0.5,0.6 0.6,0.8c0.1,-0.1 0.1,-0.4 -0.3,-1c-0.3,-0.2 0.3,0.4 0.2,0.4c-0.6,-0.5 -0.9,-1.2 -0.7,-1.1l0.1,0.1c0.1,-0.1 -0.2,-0.5 -0.1,-0.6c0.4,0.3 0.1,0.2 0.5,0.6c0.9,1 0.8,0.4 1,0.5c-0.2,-0.3 -0.3,-0.5 -0.5,-0.7c-0.1,-0.3 0.6,0.6 0.6,0.4l-1.4,-2.2c0.1,0.2 0.9,0.8 1.1,1.3c0.1,-0.3 -0.8,-1.6 -1.3,-2.3c0.2,0.1 0,-0.4 0.1,-0.5c0.5,0.5 -0.1,0 0.3,0.4l0.6,0.5c-0.1,0.2 0.8,0.9 1.1,1.4c-0.2,-0.4 0.4,-0.3 0.7,-0.2c-1.1,-1.1 -0.3,-0.7 -1.2,-1.8c0,-0.3 0.8,0.8 1.1,0.9c-0.2,-0.6 0.3,-0.4 0.3,-0.7c0,0 0.1,0.1 0.2,0.2c-0.1,-0.4 0.4,-0.4 -0.2,-1.4l0.5,0.6c0.5,0.2 -1.1,-1.4 -0.4,-0.9l0.4,0.6c-0.3,-0.6 0.6,0.2 0.1,-0.7c0.2,0.3 0.3,0.4 0.4,0.6c-0.1,-0.3 0.2,-0.3 -0.3,-1.1c0.3,0.3 0.5,0.6 0.7,0.9c0.5,0.3 -0.7,-1 -0.2,-0.8c0.1,0 0.5,0.4 0.5,0.4c-0.3,-0.5 -0.1,-0.6 -0.2,-0.9c0.3,0.3 0.4,0.4 0.8,0.7c0.6,-0.6 1.4,-0.9 1.2,-2.4c1,0.9 0.4,0.8 1.1,1.4c-0.8,-0.9 -0.1,-0.3 -0.2,-0.8l0.1,0.1c-0.1,-0.3 0.5,0.3 0.3,-0.1l-0.2,-0.2c-0.4,-0.7 1.2,1 0.3,-0.2l0.6,0.6c-0.8,-1.1 0.4,0.2 -0.2,-0.7l0.1,0.2c0.5,0.3 -0.6,-1.4 0.1,-0.6c0,-0.3 0,-0.6 -0.7,-1.4c0.3,0.3 0.7,0.8 0.9,1.1c0.1,-0.8 0.8,-1.1 0.3,-2.5l0.4,0.5c-0.5,-1.1 1.4,0.5 0.1,-1.4l-0.6,-0.8c0.3,0.2 0.8,0.8 1,1c-0.4,-0.5 0.1,-0.4 -0.4,-1c0.3,0.3 0.3,0.4 0.5,0.6c0.3,0 -0.5,-1.2 -0.2,-1l0.2,0.4c1.7,0.7 3.3,1 2.4,-1c-0.1,-0.4 0.9,0.9 0.9,0.8c-1,-2.5 1.5,-0.9 0.1,-3.4" class="st4" id="path44-341" stroke="null"/>
    <path d="m-3331.86309,-763.74225c0,0 0,0 0,0.09999c0,0 0,0 0,-0.09999" class="st4" id="path46-25" stroke="null"/>
    <path d="m-3335.66309,-763.54225c0,0 0.1,0.09999 0.1,0.2c0,0 -0.1,-0.1 -0.1,-0.2" class="st4" id="path48-94" stroke="null"/>
    <path d="m-3334.86309,-762.34225c0,-0.1 -0.1,-0.2 -0.2,-0.3c0,-0.1 0,0 0.2,0.3" class="st4" id="path50-7" stroke="null"/>
    <path d="m-3315.66309,-781.14225l0,0c0.2,0.19999 0.1,0.19999 0,0" class="st4" id="path52-7" stroke="null"/>
    <path d="m-3334.66309,-762.44226c0.2,0.20001 0.5,0.70001 0.6,0.70001c-0.4,-0.5 -1.1,-1.3 -1.5,-1.40001c-0.1,-0.09999 -0.1,-0.09999 -0.1,-0.09999c0.2,0.2 0.4,0.5 0.5,0.7c0.3,-0.1 0.8,0.5 0.5,0.09999" class="st4" id="path54-1" stroke="null"/>
    <path d="m-3342.56309,-765.64226l1.2,1.3c-0.4,-0.7 -0.8,-0.8 -1.2,-1.3" class="st4" id="path56-6" stroke="null"/>
    <path d="m-3335.76309,-763.34225c0.1,0.2 0.3,0.4 0.3,0.5c0.2,0.2 -0.1,-0.2 -0.1,-0.3c0,0 -0.3,-0.3 -0.2,-0.2" class="st4" id="path58-8" stroke="null"/>
    <path d="m-3334.36309,-762.64226c0,-0.09999 -0.1,-0.59999 -0.4,-1l0.4,1" class="st4" id="path60-6" stroke="null"/>
    <path d="m-3332.76309,-762.54225l0.4,0.59999c0.1,-0.09999 0,-0.29999 -0.4,-0.59999" class="st4" id="path62-4" stroke="null"/>
    <path d="m-3333.06309,-763.24225c-0.2,-0.20001 -0.4,-0.3 -0.4,-0.3c0.4,0.59999 0.3,0.3 0.4,0.3" class="st4" id="path64-6" stroke="null"/>
    <path d="m-3333.06309,-763.24225l0.1,0.09999c-0.1,-0.09999 -0.1,-0.09999 -0.1,-0.09999" class="st4" id="path66-3" stroke="null"/>
    <path d="m-3330.86309,-763.54225c-0.4,-0.40001 -0.2,0 -0.2,0c0.5,0.59999 -0.1,-0.3 0.2,0" class="st4" id="path68-2" stroke="null"/>
    <path d="m-3330.46309,-764.24225c0,-0.1 -0.2,-0.40001 -0.4,-0.6c0.1,0.1 0,0.1 0,0.1l0.4,0.5" class="st4" id="path70-1" stroke="null"/>
    <path d="m-3320.56309,-776.84226l0.3,0.4l-0.1,-0.3l-0.2,-0.1" class="st4" id="path72-4" stroke="null"/>
    <path d="m-3315.16309,-781.24226c0,-0.1 0.4,0.5 0.4,0.4c0,-0.1 -0.5,-0.8 -0.4,-0.4" class="st4" id="path74-5" stroke="null"/>
    <path d="m-3314.06309,-785.74226l0,0l-0.7,-0.8l0.7,0.8" class="st4" id="path76-4" stroke="null"/>
    <path d="m-3509.76309,-754.14226c-0.2,0.3 0.1,0.1 0.4,-0.2c0.1,-0.6 -0.1,0.1 -0.4,0.2" class="st4" id="path78-1" stroke="null"/>
    <path d="m-3523.66309,-760.74225l0.1,-0.1l-0.1,0l0,0.1" class="st4" id="path80-6" stroke="null"/>
    <path d="m-3529.86309,-765.74225l0,0c-0.1,0 -0.1,0 -0.2,0.09999c0.1,0 0.1,0 0.2,-0.09999" class="st4" id="path82-5" stroke="null"/>
    <path d="m-3528.06309,-776.64225c0,-0.1 0,-0.1 0,0c0.2,-0.2 0.1,-0.2 0,0" class="st4" id="path84-3" stroke="null"/>
    <path d="m-3510.06309,-755.14226l-0.1,0.1c0,0.1 0,0.1 0.1,-0.1" class="st4" id="path86-3" stroke="null"/>
    <path d="m-3508.76309,-761.24225l-0.1,0.09999c0.1,0 0.1,-0.09999 0.1,-0.09999" class="st4" id="path88-6" stroke="null"/>
    <path d="m-3507.86309,-762.14226c-0.1,0.1 -0.2,0.1 -0.3,0.3c0,0 0.1,0 0.3,-0.3" class="st4" id="path90-3" stroke="null"/>
    <path d="m-3508.66309,-756.14226c0,0 0.1,-0.09999 0.2,-0.2l-0.2,0.2" class="st4" id="path92-3" stroke="null"/>
    <path d="m-3508.56309,-761.44226c-0.1,0.1 -0.1,0.1 -0.1,0.20001c0.2,-0.3 0.4,-0.5 0.6,-0.70001c0,-0.09999 0.5,-0.79999 0.1,-0.4c0.2,-0.3 0.6,-0.6 0.6,-0.8c-0.5,0.5 -1.1,1.40001 -1.2,1.7" class="st4" id="path94-2" stroke="null"/>
    <path d="m-3526.86309,-774.84226c0,0 0.1,0 0.1,-0.1c0,0.1 -0.1,0.1 -0.1,0.1zm17.2,14.5c0,-0.4 -0.1,-0.6 -0.5,-0.6c0.1,0 0.7,-0.7 0.9,-1.09999c-0.6,0.59999 -1.1,0.9 -1.1,0.5c-0.6,0.7 -0.5,0.7 -1.1,1.4c-0.1,0.1 -0.4,0.4 -0.4,0.3c0.6,-0.8 1.5,-1.9 1.4,-2c1,-1.1 0.1,0.4 1,-0.8c0.8,-0.9 1.1,-0.7 0.7,-0.1c0.9,-0.9 0,-0.2 0.8,-1.1c-0.2,0 -0.6,0.4 -0.9,0.4c-0.4,0.5 -0.4,0.6 -0.8,0.9c-1,0.9 0.4,-0.9 0.4,-1l0.3,-0.2c0.2,-0.4 -0.4,0.2 -0.5,0.1c1.1,-1.3 0.3,0 1,-0.8l0.7,-1c-0.1,-0.3 -0.9,1 -0.8,0.5l0.4,-0.4l-0.4,0.2c-0.4,0.5 -1,1.2 -0.8,1.2c-1.1,1.2 -0.2,0.1 -0.6,0.2c-0.6,0.7 0.1,0 -0.5,0.7c-0.5,0.7 -0.6,0.6 -0.8,0.7c-0.1,-0.1 0.6,-0.8 0.9,-1.3c0.1,-0.1 0.3,-0.1 -0.1,0.3c0.8,-0.6 1.2,-1.6 1.7,-2c0.2,-0.5 -0.5,0.3 -0.7,0.5c0,0.1 -0.6,0.7 -0.8,1c-1.8,1.8 1,-1.5 0.6,-1.3c-1,1.3 -1.7,1.5 -2.7,3c-0.2,0.2 -0.5,0.4 -0.5,0.3c0.8,-0.8 0.5,-0.7 1.2,-1.5l-0.1,-0.1l0.9,-0.9c0.4,-0.7 0.7,-1.3 1,-1.8c-0.4,0.3 -0.6,0.8 -0.9,0.9c0.4,-0.4 0.6,-0.8 0.6,-0.9c-0.2,0.4 -1,1.2 -1.2,1.4c-0.1,-0.1 0.5,-0.9 0.6,-1.1l0.7,-0.7c-0.6,0.6 0.2,-0.4 -0.1,-0.1c-0.4,0.4 -1.1,1.1 -1.6,1.7c-0.2,0.1 0.2,-0.5 0.1,-0.4l0.5,-0.4c-0.3,0.1 1,-1.3 0.6,-1.1l-0.6,0.6c0.1,-0.1 0.3,-0.4 0.5,-0.7c-0.4,0.4 -0.4,0.3 -0.6,0.4l0.4,-0.4c-0.3,0.2 -1.2,1.1 -0.5,0.2c-0.8,1.1 0.1,0.1 -0.2,0.6c-0.6,0.8 -0.7,0.7 -0.8,0.7c0.9,-1.1 -0.1,-0.2 -0.1,-0.3c0.3,-0.4 0.4,-0.7 0.6,-0.9l-0.6,0.7c1.2,-1.5 -0.4,0.2 -0.1,-0.3c0.4,-0.4 0.9,-1 1,-1.2c-0.8,1.1 -1.2,1.2 -1.8,2c0.2,-0.5 1.2,-1.3 1.7,-2.1c-0.8,0.8 0.3,-0.7 -0.7,0.4c-0.2,0.4 -0.6,0.7 -1,1.1c-0.1,-0.2 0.4,-0.5 0.6,-0.9c-0.2,0.1 -0.9,0.9 -1.1,1.3c0.1,-0.3 -0.8,0.7 -0.4,-0.1c0.5,-0.7 0.4,-0.2 0.8,-0.7c-0.1,-0.2 -1.5,1.6 -1.8,1.7c-0.2,0.4 -1.3,1.6 -1.7,1.9c0.1,-0.4 0.4,-0.3 1.1,-1.3l-0.2,0.1c0.9,-1.3 1.8,-1.7 2.5,-2.8l-0.4,0.3c0.3,-0.3 0.8,-0.9 1.1,-1.3c-0.7,0.8 -0.4,0.1 -0.5,0.2c-0.6,0.7 0.2,-0.1 -0.2,0.4c-0.2,0.1 -1.2,1.2 -1,0.7c0.5,-0.4 0.8,-1 1.1,-1.3c0.2,-0.3 -0.7,0.8 -0.5,0.3l0.4,-0.4c-0.2,-0.4 -0.7,-0.7 -2.4,0.8c0.5,-0.7 0.5,-0.9 0.7,-1.5c-0.1,0.3 -0.6,0.7 -0.7,0.8l0.6,-0.9c0.3,-0.6 -0.5,0.1 -0.9,0.5l0.5,-0.6c0.3,-0.6 -0.5,0.4 -0.6,0.5l0.4,-0.6l-0.5,0.5c-0.4,0.2 -0.4,0 0.4,-0.9c-0.2,0.1 -0.4,0.3 -0.5,0.6c0.3,-0.6 0.1,-0.8 -0.3,-0.6c-0.1,0.3 -0.3,0.6 -0.8,1.1c-0.8,0.9 0.1,-0.2 -0.4,0.3c0.3,-0.4 0.5,-0.8 0.8,-1c0.8,-1.4 -0.3,-0.7 -0.4,-1.1c-0.2,0.1 -0.3,0.3 -0.5,0.5c0.6,-1.1 -0.4,-0.3 -0.3,-0.8c-0.3,0.4 -1.3,1.5 -1.4,1.5c-0.8,0.7 0.9,-1.2 1.2,-1.7c-0.4,0.3 -0.5,0.3 -0.5,0.3l0.1,-0.1c-0.4,0.4 -0.7,0.5 -0.5,0.1l0.1,0c0,-0.1 0.3,-0.7 0.2,-0.7c-0.6,0.7 -0.4,0.1 -1,0.8c0.1,-0.1 0.1,-0.1 0.2,-0.3l-0.5,0.6l0.2,-0.5c0.2,-0.2 0.5,-0.5 0.6,-0.6c0.2,-0.6 -0.5,0.5 -0.9,0.8c-0.5,0.4 0.1,-0.2 0.2,-0.5c0.3,-0.3 -0.1,0.2 0.1,0.1c0.5,-0.5 0.1,-0.3 0.4,-0.6c0,0 -0.6,0.7 -0.6,0.5c0,-0.1 -0.3,0 0.3,-0.7c-0.4,0.3 -0.4,0.2 -0.6,0.5c-0.1,0.2 -0.1,0.4 -0.5,0.9c-0.1,0.1 -0.4,0.2 -0.1,-0.1l0.2,-0.1c-0.2,0.1 -0.1,-0.2 -0.6,0.5l0.6,-1c-0.5,0.5 -0.5,0.4 -0.7,0.4c0.6,-0.7 1.3,-1.4 1.3,-1.7l-0.7,0.6c-0.1,0 0,-0.1 0.3,-0.6c0.1,-0.6 -1.8,1.7 -1.5,1c0.8,-0.8 0.8,-0.9 0.9,-1.2c-0.1,0.1 -0.4,0.4 -0.4,0.4c-0.3,0.4 0.5,-0.5 0.1,0.1c-0.4,0.5 -0.4,0.3 -0.5,0.4c1.3,-1.9 -0.1,-0.9 0.3,-1.9c-0.8,1 -0.4,0.2 -0.7,0.5c0.9,-1 -0.3,0.1 0.2,-0.6l-0.8,1.1c0.3,-0.7 -1.5,1.4 -0.6,0c0.2,-0.4 0.6,-0.7 0.8,-0.9c0.8,-1.2 -1.1,0.7 -0.1,-0.7c-0.4,0.4 -0.9,1.1 -1.3,1.4c0.3,-0.5 0.6,-1.2 0.7,-1.4c-0.2,0.1 -0.5,0.5 -0.3,0c0.2,-0.3 0.3,-0.3 0.4,-0.4c0.1,-0.4 -0.4,0 -0.8,0.3c0.6,-0.8 0.1,-0.6 0.3,-1.2c-0.9,0.9 0.1,-0.6 -0.9,0.7l0.3,-0.4c-0.3,0.3 -1.1,1.1 -1.2,1.1l0.7,-0.8c0.9,-1 0,-0.4 0.4,-0.9c-0.5,0.8 -0.1,-0.1 -0.6,0.6l-0.3,0.2c-0.3,0.1 -0.4,0.4 -0.6,0.4c-0.1,0 0.8,-1 0.7,-0.9c0.3,-0.5 0,-0.3 -0.2,-0.2c0,0 0,0.1 -0.2,0.2c0.1,-0.1 0.1,-0.2 0.2,-0.2c-0.1,0 -0.1,0.1 -0.2,0.1l0,0c0.1,0 0.1,0 0.2,0c0,-0.1 0,-0.1 0,-0.1l0,0c0,0 0,-0.1 0.1,-0.2l0.6,-0.6c0,-0.1 -0.8,0.5 -1,0.8c0.3,-0.7 -0.5,-0.5 -0.9,-0.3c0.1,-0.1 0.3,-0.3 0.1,-0.1c-0.2,0.1 -0.7,0.6 -0.4,0.1c-0.3,0.2 0.3,-0.5 0.3,-0.7c0.1,-0.1 -0.5,0.6 -0.4,0.6c0.6,-1.1 -0.9,0.2 -0.6,-0.5c0.1,0 0.4,-0.4 0.6,-0.6c-0.4,0.2 -0.8,0.3 -1.6,1c0.3,-0.3 0.5,-0.6 0.7,-0.7c-0.1,-0.1 -0.4,0 -0.9,0.5c-0.2,0.4 0.3,-0.3 0.3,-0.3c-0.4,0.6 -1,1.1 -1,0.9l0.1,-0.1c-0.1,-0.1 -0.4,0.3 -0.5,0.2c0.2,-0.4 0.2,-0.1 0.5,-0.6c0.8,-1.1 0.3,-0.9 0.4,-1c-0.2,0.2 -0.4,0.4 -0.6,0.6c-0.3,0.2 0.5,-0.6 0.4,-0.6l-1.9,1.8c0.2,-0.1 0.7,-1 1.1,-1.3c-0.3,0 -1.4,1.1 -2,1.6c0.1,-0.2 -0.4,0.1 -0.5,0.1c0.4,-0.6 0,0.1 0.4,-0.3l0.4,-0.7c0.2,0 0.8,-1 1.2,-1.3c-0.4,0.3 -0.3,-0.3 -0.3,-0.6c-0.9,1.3 -0.7,0.4 -1.5,1.5c-0.3,0.1 0.6,-0.9 0.7,-1.2c-0.5,0.3 -0.4,-0.2 -0.7,-0.2c0,0 0.1,-0.1 0.2,-0.2c-0.4,0.2 -0.4,-0.3 -1.3,0.5l0.5,-0.6c0.2,-0.5 -1.1,1.3 -0.8,0.5l0.5,-0.5c-0.5,0.4 0.2,-0.6 -0.6,0.1c0.2,-0.3 0.3,-0.4 0.5,-0.5c-0.3,0.1 -0.3,-0.1 -1,0.5c0.3,-0.4 0.5,-0.6 0.8,-0.8c0.2,-0.5 -0.9,0.8 -0.7,0.4c0,-0.1 0.3,-0.6 0.3,-0.6c-0.4,0.4 -0.6,0.3 -0.8,0.4c0.3,-0.4 0.3,-0.5 0.6,-0.9c-0.6,-0.5 -1.1,-1.2 -2.4,-0.7c0.8,-1.1 0.7,-0.6 1.2,-1.3c-0.7,0.9 -0.3,0.2 -0.7,0.3l0.1,-0.1c-0.2,0.1 0.2,-0.5 -0.1,-0.3l-0.2,0.2c-0.6,0.5 0.8,-1.3 -0.2,-0.2l0.5,-0.7c-0.9,1 0.1,-0.4 -0.7,0.3l0.2,-0.2c0.2,-0.6 -1.2,0.9 -0.6,0c-0.3,0.1 -0.6,0.1 -1.2,0.9c0.2,-0.3 0.6,-0.8 0.9,-1.1c-0.8,0 -1.1,-0.6 -2.4,0.2l0.4,-0.5c-1,0.7 0.3,-1.4 -1.4,0.2l-0.7,0.7c0.2,-0.4 0.6,-0.9 0.8,-1.2c-0.5,0.5 -0.3,-0.1 -0.9,0.6c0.2,-0.3 0.3,-0.4 0.5,-0.6c0,-0.2 -1,0.7 -0.9,0.4l0.3,-0.3c0.5,-1.8 0.6,-3.4 -1.3,-2.1c-0.4,0.2 0.8,-1 0.6,-1c-1.6,1 -0.4,-1.7 -2.6,0.1c-0.8,0.3 -2.9,2.6 -2.9,2.6c1.6,-0.2 1.5,1.5 1.3,3.4c0.4,0 1.1,0 1,0.6c1.3,0.7 0.8,3.4 2.6,3.6c0.2,-0.4 0.6,-0.8 0.8,-0.9l-0.2,0.3l0.6,-0.5c0.1,0 -0.5,0.7 -0.7,0.8c0.4,0.4 1.1,0.4 1.3,1c0.8,-0.9 0.3,0.1 1,-0.8c-0.1,0.2 -0.2,0.2 -0.3,0.4c0.7,-0.2 0.7,-0.2 0.1,1.1c0.5,1.7 2.2,2 3.1,3.2c1.3,0.8 3.1,1 4.5,1.7c1.3,-1.2 1.1,-0.4 2.3,-1.4l-0.4,0.4c0.7,-0.5 0.1,0.3 -0.1,1c0.4,-0.5 0.2,-0.1 0.8,-0.9c0.7,-0.6 -0.8,1.3 -0.4,1c-0.2,0.3 0.4,-0.5 0.2,-0.2c1.1,-0.7 -0.4,0.4 -0.7,1.5c0.8,0.1 2,-0.3 2.1,0.7c-0.1,0 0.5,-0.7 0.5,-0.6c-1,1.4 0.5,-0.2 0.1,0.4c-0.2,0.3 -0.3,0.3 -0.5,0.4c-0.2,0.7 0.7,0.1 0.4,0.9c0.7,-0.4 0,1 0.7,0.4c-0.5,0.5 -0.2,0.5 -0.4,0.8c1.5,-1.5 0,0.9 1,0l-0.2,0.3c0.7,0.3 1,1.2 2.2,1c0.5,0.1 -0.3,1.8 0.6,1.4c0.2,-0.1 0.5,-0.5 0.6,-0.6c0.1,0.1 -0.4,0.5 -0.5,0.7c0.7,-0.5 0.3,0.5 0.6,0.6c0.2,-0.2 0.4,-0.2 0.6,-0.6c-0.6,1.3 0.9,0.1 0.5,1.1c1,-1.5 0.8,-0.6 1.1,-0.9c0,0.1 -0.3,0.5 -0.5,0.7c0.3,0 0.5,0 0.4,0.6c0.2,-0.1 0.9,-0.8 0.8,-0.5c-0.7,1 0.2,0.3 0.1,0.7c0.6,-0.8 1.3,-1.4 1.2,-0.9l-1,1.1c1,-0.4 0.5,1.4 2.2,0.3l-0.5,0.7c1.1,-0.4 0.9,0.8 2.5,-0.1c-0.2,0.5 -0.2,0.9 0,1c0.6,-0.4 0.7,-0.3 1.5,-1.2c0.1,0 -0.3,0.6 -0.5,0.8c0.1,0.4 -0.5,1.5 0.5,0.5l-0.5,0.6c0.6,-0.4 1.5,-0.9 1.1,-0.1c0.5,-0.5 0.8,-0.5 1.3,-1.2c0.2,-0.1 -0.8,1 -0.2,0.5l-0.8,0.8c0.3,0.6 1,0.4 1.7,0.3c-0.7,1.1 0.5,0.2 0.3,1c0.6,-0.4 0.2,0.5 1.3,-0.6l-0.5,0.6c0.1,0.2 0.4,0.4 0.4,0.9c0,0.3 0.7,-0.6 1.1,-0.8l-0.5,0.6c0.4,-0.2 1.2,-1.1 1.7,-1.7c-0.2,0.5 0.1,0.1 -0.1,0.5c-0.3,0.2 -0.9,0.8 -1.6,1.5c-0.1,0.4 1.3,-1 0.7,0c-0.1,0.3 0.2,0.2 0.9,-0.6c-0.2,0.2 -0.3,0.5 -0.6,0.8c0.1,0.1 0.2,0 0.5,-0.2l0,-0.1c0.5,-0.5 0.6,-0.4 1.3,-1.3c-0.2,0.2 -0.4,0.3 -0.4,0.2c0.5,-0.6 0.8,-0.6 0.4,-0.1c-0.5,0.7 -0.9,0.9 -1.2,1.4l1.4,-1.2c-0.2,0.1 0,-0.3 0.5,-0.7l-0.4,0.3l0.5,-0.6c-0.4,0.1 0.1,-0.7 -0.5,-0.3l-0.5,0.7c-0.1,-0.1 -0.9,0.7 -0.4,-0.1c0.2,-0.2 0.5,-0.5 0.8,-0.9c-0.1,0.1 -0.4,0.3 -0.3,0.2l0.9,-1c-1.2,1.4 -0.7,0.3 -1,0.5l0.2,-0.2c0.2,-0.6 -0.5,0.6 -0.6,0.6c0.1,-0.2 0.9,-1.2 1.2,-1.7c-0.2,-0.1 -1.1,0.5 -0.6,-0.5c-0.3,0.1 -0.8,0.3 -1.3,0.7c-0.1,-0.1 0.9,-1.1 0.4,-0.7c0.3,-0.4 0.6,-0.8 0.9,-1.2c-1.1,0.4 -0.9,-0.3 -1.6,0.7" class="st4" id="path96-2" stroke="null"/>
    <path d="m-3509.56309,-764.64226c0,0 0,0 0.1,0c0,-0.09999 0,-0.09999 -0.1,0" class="st4" id="path98-9" stroke="null"/>
    <path d="m-3526.26309,-775.04225l0,0l0,0l0,0" class="st4" id="path100-5" stroke="null"/>
    <path d="m-3508.96309,-755.54225c-0.6,0.5 -0.7,0.9 -1.1,1.4l1.1,-1.4" class="st4" id="path102-6" stroke="null"/>
    <path d="m-3508.66309,-761.14226c0.2,-0.2 0.4,-0.4 0.4,-0.4c0.2,-0.3 -0.2,0.1 -0.2,0.1c-0.1,0.1 -0.3,0.5 -0.2,0.3" class="st4" id="path104-6" stroke="null"/>
    <path d="m-3509.06309,-761.94226l0.9,-0.59999c-0.2,0 -0.6,0.2 -0.9,0.59999" class="st4" id="path106-7" stroke="null"/>
    <path d="m-3508.26309,-764.14226l0.5,-0.5c-0.1,0 -0.3,0.1 -0.5,0.5" class="st4" id="path108" stroke="null"/>
    <path d="m-3509.06309,-763.24225c0.5,-0.6 0.2,-0.3 0.2,-0.40001c-0.2,0.2 -0.3,0.40001 -0.2,0.40001" class="st4" id="path110" stroke="null"/>
    <path d="m-3508.86309,-763.64226l0.1,-0.09999c-0.1,0 -0.1,0.09999 -0.1,0.09999" class="st4" id="path112" stroke="null"/>
    <path d="m-3509.46309,-765.54225c0.5,-0.6 -0.3,0.2 -0.1,-0.2c-0.3,0.5 0,0.2 0.1,0.2" class="st4" id="path114" stroke="null"/>
    <path d="m-3510.16309,-765.94226c-0.1,0 -0.3,0.3 -0.5,0.5c0.1,-0.09999 0.1,0 0.1,0l0.4,-0.5" class="st4" id="path116" stroke="null"/>
    <path d="m-3523.06309,-773.24226l-0.2,0.1l-0.1,0.2l0.3,-0.3" class="st4" id="path118" stroke="null"/>
    <path d="m-3527.96309,-777.64225c0,0.1 -0.6,0.69999 -0.3,0.5c-0.1,0 0.4,-0.5 0.3,-0.5" class="st4" id="path120" stroke="null"/>
    <path d="m-3532.56309,-777.34226l0,0l-0.7,0.80001l0.7,-0.80001" class="st4" id="path122" stroke="null"/>
    <path d="m-3313.56309,159.85774c0,26.10001 94.3,47.3 210.5,47.4c116.3,0.1 210.6,-21 210.6,-47c0,-26.1 -94.3,-47.29999 -210.5,-47.4c-116.3,-0.1 -210.6,21 -210.6,47" class="st12" id="path124" stroke="null"/>
    <path d="m-3231.76309,0.25774l8,115.1c0,0 -35.3,-26.29999 -52.3,3.9c-23.9,42.6 74.1,19.9 74.1,19.9l2.6,-109.8c0,0 110.3,19.70001 246.9,2.60001l5.3,95.2c0,0 -40.1,-36.1 -53.8,0c-18.4,48.3 73.5,16.5 73.5,16.5l11.9,-133.80001c-0.1,-0.1 -118.8,-30.2 -316.2,-9.6" class="st13" id="path126" stroke="null"/>
    <path d="m-3249.76309,-237.54225c0,0 -44.3,-386.7 261.8,-263.30001c0,0 97,68.9 101.4,266.4c-295.6,63.3 -363.2,-3.1 -363.2,-3.1" class="st14" id="path128" stroke="null"/>
    <path d="m-3304.46309,-621.24225c0,0 31.4,230.39999 287.3,169.3l37.7,72.5c0,0 32,-33.4 42.2,1.5c10.3,35 -33.5,23.8 -33.5,23.8s40.2,97.1 84.3,119.8c0,0 93.3,-387.1 -64.4,-322.5c0,0 -13.1,-57.7 -112.1,-59.6c-102.7,-2 -147.7,94.4 -241.5,-4.8" class="st13" id="path130" stroke="null"/>
    <path d="m-3167.56309,-372.24225c-0.3,9.6 -5.2,17.3 -10.7,17.1c-5.6,-0.2 -9.8,-8.2 -9.5,-17.8s5.2,-17.3 10.7,-17.1c5.6,0.2 9.9,8.1 9.5,17.8" class="st13" id="path132" stroke="null"/>
    <path d="m-3041.76309,-369.54225c-0.3,9.6 -5.2,17.3 -10.7,17.1c-5.6,-0.2 -9.8,-8.2 -9.5,-17.8c0.4,-9.60001 5.2,-17.3 10.7,-17.1c5.6,0.2 9.8,8.2 9.5,17.8" class="st13" id="path134" stroke="null"/>
    <path d="m-3068.66309,-314.54225c-0.8,15.39999 -12.2,40.3 -55,40.3c-43.9,0 -43.9,-43.10001 -43.9,-43.10001s57.6,-12 98.9,2.80001" class="st13" id="path136" stroke="null"/>
    <path d="m-3249.76309,-237.54225l18,237.8c0,0 124,31 316.1,9.6l29.2,-244.2c-0.1,0 -241.3,36.8 -363.3,-3.2" class="st4" id="path138" stroke="null"/>
    <path d="m-3401.66309,-359.74225c0,0 -1.6,-87.7 -11,-87.7c-10.6,0 -7.3,32.3 -5.2,46.7c-0.8,-3.4 -3.9,-7.3 -6.9,-6.9c-8.6,1.1 -4.9,8.1 -4.5,11.4c-0.5,-2.7 -2.2,-8.1 -7.1,-7c-4.4,1 -4.3,5.9 -4.8,9c-0.5,-2.1 -3.6,-5.4 -7.6,-4.5c-7.2,1.7 1.1,39.89999 1.1,39.89999s36.6,355.90001 180.4,218l-25.3,-34.1c-37.3,34.5 -90.2,42.9 -109.1,-184.8" class="st14" id="path140" stroke="null"/>
    <path d="m-3241.16309,-165.14226l-5.8,-59.3c0,0 -23.9,29.7 -45.5,49.6l25.3,34.10001c6.3,-6.10001 19.2,-16.4 26,-24.4" class="st4" id="path142" stroke="null"/>
    <path d="m-2887.86309,-224.64226l-4.5,40.7c10.2,4.6 18.6,10.6 25.5,17.7l23.8,-32.6c-22.1,-21.6 -44.8,-25.8 -44.8,-25.8" class="st4" id="path144" stroke="null"/>
    <path d="m-2843.16309,-198.94225l-23.8,32.6c60.8,61.5 6.9,201.9 6.9,201.9l-10.7,26.9c-0.6,1.89999 -3.9,13.89999 1.8,15.39999c2.7,0.70001 4.8,-0.89999 6.3,-3.1c0.1,2.5 0.9,5 3.4,5.70001c2.4,0.7 4.4,-0.70001 5.9,-2.5c0.2,2.29999 1.1,4.29999 3.4,4.89999c2.7,0.70001 4.8,-0.89999 6.3,-3.1c0.1,2.5 0.9,5 3.4,5.70001c5.3,1.39999 8.2,-6.20001 9.1,-8.8l8.9,-32.3c41.9,-144.3 11.2,-212 -20.9,-243.3" class="st14" id="path146" stroke="null"/>
    <path d="m-3152.56309,-184.24225l-7.5,14.2l10.7,16.5l-19.2,92.79999l26.7,39.5l29.9,-35.4l-16.6,-95.3l12.3,-17.6l-6.6,-11.5l-29.7,-3.2" class="st13" id="path148" stroke="null"/>
   </g>
   <g transform="matrix(0.75,0,0,0.75,309.06375,383.37566) " id="g4916" stroke="null">
    <g id="svg_1" stroke="null">
     <g id="svg_2" stroke="null">
      <defs transform="translate(0,2.2737367544323206e-13) translate(0,-5.684341886080802e-14) ">
       <rect height="358.1" width="330.6" y="3738.1" x="573.8" id="SVGID_1_" stroke="null"/>
      </defs>
      <clipPath transform="translate(0,2.2737367544323206e-13) translate(0,-5.684341886080802e-14) " id="SVGID_2_">
       <use id="svg_3" xlink:href="#SVGID_1_" stroke="null"/>
      </clipPath>
      <g class="st15" transform="matrix(1.5934372,0,0,1.5934372,587.24042,1389.5341) " id="g2997" stroke="null">
       <g id="g3003" stroke="null">
        <path d="m-523.32497,261.99891l4.8,0c1.2,0 2.3,-0.5 3.2,-1.5c0.9,-1 1.3,-2.1 1.3,-3.5l0,-33.9l-9.3,0l0,38.9z" class="st16" id="path3005" stroke="null"/>
       </g>
       <g id="g3007" stroke="null">
        <path d="m-511.88327,236.02971l9.1,0c0.1,-1.9 0.8,-3.4 2,-4.4c1.3,-1 3.1,-1.5 5.3,-1.5c1.6,0 3,0.3 4.1,1c1.1,0.7 1.6,1.6 1.6,2.8c0,1.8 -1.9,3.1 -5.6,3.9c-1.6,0.3 -2.8,0.6 -3.6,0.9c-4.7,1.3 -7.9,2.8 -9.5,4.5c-1.8,1.8 -2.7,4.1 -2.7,7c0,3.7 1.3,6.8 3.9,9.2c2.7,2.2 6.1,3.4 10.4,3.4c4.6,0 8.3,-1.1 11.1,-3.4c2.6,-2.4 4,-5.6 4.1,-9.5l-5.7,0c-1.7,0 -3,0.8 -3.9,2.5c-0.4,0.4 -0.7,0.8 -1.1,1.2c-1.1,0.9 -2.5,1.3 -4.4,1.3c-1.8,0 -3.1,-0.3 -4,-0.9c-0.8,-0.6 -1.2,-1.5 -1.2,-2.6c0,-1.6 2.3,-2.9 6.9,-3.9c0.5,-0.2 1,-0.3 1.4,-0.4c0.4,-0.1 0.8,-0.1 1.1,-0.1c4.5,-1.3 7.7,-2.7 9.5,-4.4c1.7,-1.8 2.5,-4.1 2.5,-7c0,-4.3 -1.4,-7.6 -4.3,-9.9c-2.7,-2.1 -6.7,-3.2 -12,-3.2c-5.1,0 -8.9,1.1 -11.3,3.4c-2.6,2.2 -3.9,5.5 -3.9,9.8l0,0.3l0.2,0z" class="st16" id="path3009" stroke="null"/>
       </g>
       <g id="g3011" stroke="null">
        <path d="m-470.72007,242.80201c0,-3.9 0.7,-6.9 2,-8.9c1.3,-2 3.2,-3.1 5.7,-3.1c2.4,0 4.3,1 5.6,3.1c1.2,2 1.9,5 1.9,8.9c0,3.5 -0.7,6.3 -2,8.3c-1.4,1.9 -3.3,2.9 -5.7,2.9c-2.3,0 -4.1,-1 -5.5,-3.1c-1.3,-1.8 -2,-4.5 -2,-8.1m15.2,30.7l4.5,0c1.2,0 2.3,-0.5 3.2,-1.5c0.9,-1 1.3,-2.2 1.3,-3.4l0,-28.5c0,-6.9 -1.8,-11.6 -5.5,-14s-7.6,-3.6 -11.9,-3.6c-2.3,0 -4.6,0.4 -6.8,1.2c-2.2,0.8 -4,2.2 -5.3,4c-2.6,3.6 -3.9,8.5 -3.9,14.7c0,6.1 1.3,11 3.9,14.7c2.7,3.8 6.1,5.7 10.3,5.7c2.2,0 4.2,-0.5 5.9,-1.5c1.8,-1.2 3.2,-2.7 4.3,-4.5l0,16.7z" class="st16" id="path3013" stroke="null"/>
       </g>
       <g id="g3015" stroke="null"/>
       <g id="g3019" stroke="null"/>
       <g id="g3023" stroke="null"/>
       <g id="g3027" stroke="null"/>
       <g id="g3031" stroke="null"/>
       <g id="g3035" stroke="null"/>
       <g id="g3039" stroke="null"/>
       <g id="g3043" stroke="null"/>
       <g id="g3047" stroke="null"/>
       <g id="g3051" stroke="null"/>
       <g id="g3055" stroke="null"/>
       <g id="g3059" stroke="null"/>
       <g id="g3063" stroke="null"/>
       <g id="g3067" stroke="null"/>
       <g id="g3071" stroke="null"/>
       <g id="g3075" stroke="null"/>
       <g id="g3079" stroke="null"/>
      </g>
     </g>
    </g>
    <text id="svg_4" class="st16 st17 st18" transform="matrix(0.9752999999999998,0,0,-1.0667,-202.8065,1507.7025000000003) " y="-203.97327" x="-44.95308" stroke="null">p</text>
    <text id="svg_5" class="st16 st17 st18" transform="matrix(0.9752999999999998,0,0,-1.0667,-192.5638,1507.7025000000003) " y="-203.97327" x="-44.95308" stroke="null">a</text>
    <text id="svg_6" class="st16 st17 st18" transform="matrix(0.9752999999999998,0,0,-1.0667,-183.1898,1507.7025000000003) " y="-203.97327" x="-44.95308" stroke="null">r</text>
    <text id="svg_7" class="st16 st17 st18" transform="matrix(0.9752999999999998,0,0,-1.0667,-176.46069999999997,1507.7025000000003) " y="-203.97327" x="-44.95308" stroke="null">t</text>
    <text id="svg_8" class="st16 st17 st18" transform="matrix(0.9752999999999998,0,0,-1.0667,-170.62319999999997,1507.7025000000003) " y="-203.97327" x="-44.95308" stroke="null"/>
    <text id="svg_9" class="st16 st17 st18" transform="matrix(0.9752999999999998,0,0,-1.0667,-165.6607,1507.7025000000003) " y="-203.97327" x="-44.95308" stroke="null">o</text>
    <text id="svg_10" class="st16 st17 st18" transform="matrix(0.9752999999999998,0,0,-1.0667,-155.419,1507.7025000000003) " y="-203.97327" x="-44.95308" stroke="null">f</text>
    <text id="svg_11" class="st16 st17 st18" transform="matrix(0.9752999999999998,0,0,-1.0667,-149.5805,1507.7025000000003) " y="-203.97327" x="-44.95308" stroke="null"/>
    <text id="svg_12" class="st16 st17 st18" transform="matrix(0.9752999999999998,0,0,-1.0667,-144.6169,1507.7025000000003) " y="-203.97327" x="-44.95308" stroke="null">I</text>
    <text id="svg_13" class="st16 st17 st18" transform="matrix(0.9752999999999998,0,0,-1.0667,-139.65339999999998,1507.7025000000003) " y="-203.97327" x="-44.95308" stroke="null">n</text>
    <text id="svg_14" class="st16 st17 st18" transform="matrix(0.9752999999999998,0,0,-1.0667,-129.41279999999998,1507.7025000000003) " y="-203.97327" x="-44.95308" stroke="null">t</text>
    <text id="svg_15" class="st16 st17 st18" transform="matrix(0.9752999999999998,0,0,-1.0667,-123.5742,1507.7025000000003) " y="-203.97327" x="-44.95308" stroke="null">h</text>
    <text id="svg_16" class="st16 st17 st18" transform="matrix(0.9752999999999998,0,0,-1.0667,-113.33149999999999,1507.7025000000003) " y="-203.97327" x="-44.95308" stroke="null">e</text>
    <text id="svg_17" class="st16 st17 st18" transform="matrix(0.9752999999999998,0,0,-1.0667,-103.9565,1507.7025000000003) " y="-203.97327" x="-44.95308" stroke="null">r</text>
    <text id="svg_18" class="st16 st17 st18" transform="matrix(0.9752999999999998,0,0,-1.0667,-97.22839999999998,1507.7025000000003) " y="-203.97327" x="-44.95308" stroke="null">g</text>
    <text id="svg_19" class="st16 st17 st18" transform="matrix(0.9752999999999998,0,0,-1.0667,-86.98769999999999,1507.7025000000003) " y="-203.97327" x="-44.95308" stroke="null">r</text>
    <text id="svg_20" class="st16 st17 st18" transform="matrix(0.9752999999999998,0,0,-1.0667,-80.2586,1507.7025000000003) " y="-203.97327" x="-44.95308" stroke="null">o</text>
    <text id="svg_21" class="st16 st17 st18" transform="matrix(0.9752999999999998,0,0,-1.0667,-70.01689999999999,1507.7025000000003) " y="-203.97327" x="-44.95308" stroke="null">u</text>
    <text id="svg_22" class="st16 st17 st18" transform="matrix(0.9752999999999998,0,0,-1.0667,-59.7752,1507.7025000000003) " y="-203.97327" x="-44.95308" stroke="null">p</text>
    <g transform="matrix(1.5934372,0,0,1.5934372,587.24042,1389.5341) " id="g3083" stroke="null">
     <g id="g3085" stroke="null">
      <g id="g3091" stroke="null">
       <g id="g3093" stroke="null">
        <linearGradient transform="translate(0,1.1368683772161603e-13) " gradientTransform="matrix(60.8157 -60.8157 -60.8157 -60.8157 -33103.1641 -91039.0469)" y2="-1017.8589" x2="-480.7509" y1="-1017.8589" x1="-481.7081" gradientUnits="userSpaceOnUse" id="path3101_1_">
         <stop stop-color="#E83600" offset="0"/>
         <stop stop-color="#FF6500" offset="1"/>
        </linearGradient>
        <path d="m-523.71457,268.04651l24.9,0l0,27.3l-24.9,0c0,-0.1 0,-27.3 0,-27.3z" class="st19" id="path3101" stroke="null"/>
       </g>
      </g>
     </g>
    </g>
    <g transform="matrix(1.5934372,0,0,1.5934372,587.24042,1389.5341) " id="g3103" stroke="null">
     <g id="svg_23" stroke="null">
      <g id="svg_24" stroke="null">
       <defs transform="translate(0,1.1368683772161603e-13) ">
        <rect height="358.1" width="330.6" y="-55.6" x="-626.8" id="SVGID_3_" stroke="null"/>
       </defs>
       <clipPath transform="translate(0,1.1368683772161603e-13) " id="SVGID_4_">
        <use id="svg_25" xlink:href="#SVGID_3_" stroke="null"/>
       </clipPath>
       <g class="st20" id="g3105" stroke="null">
        <path d="m-491.01457,286.74651l-16,0l0,17.5l16,0c0,0 0,-17.5 0,-17.5z" class="st16" id="path3111" stroke="null"/>
        <path d="m-484.71457,306.44651l-5.9,0l0,6.4l5.9,0l0,-6.4z" class="st16" id="path3113" stroke="null"/>
       </g>
      </g>
     </g>
    </g>
    <g transform="matrix(1.5934372,0,0,1.5934372,587.24042,1389.5341) " id="g3115" stroke="null">
     <g id="g3117" stroke="null">
      <g id="g3123" stroke="null">
       <g id="g3125" stroke="null">
        <linearGradient transform="translate(0,1.1368683772161603e-13) " gradientTransform="matrix(19.2672 -19.2672 -19.2672 -19.2672 -9970.1104 -29134.3535)" y2="-1007.252" x2="-512.5299" y1="-1007.252" x1="-513.4871" gradientUnits="userSpaceOnUse" id="path3133_1_">
         <stop stop-color="#E83600" offset="0"/>
         <stop stop-color="#FF6500" offset="1"/>
        </linearGradient>
        <path d="m-484.01457,294.14651l7.9,0l0,8.6l-7.9,0l0,-8.6z" class="st21" id="path3133" stroke="null"/>
       </g>
      </g>
     </g>
    </g>
    <g transform="matrix(1.5934372,0,0,1.5934372,587.24042,1389.5341) " id="g3135" stroke="null">
     <g id="svg_26" stroke="null">
      <g id="svg_27" stroke="null">
       <defs transform="translate(0,1.1368683772161603e-13) ">
        <rect height="358.1" width="330.6" y="-55.6" x="-626.8" id="SVGID_5_" stroke="null"/>
       </defs>
       <clipPath transform="translate(0,1.1368683772161603e-13) " id="SVGID_6_">
        <use id="svg_28" xlink:href="#SVGID_5_" stroke="null"/>
       </clipPath>
       <g class="st22" id="g3137" stroke="null">
        <path d="m-471.61457,308.34651l-3.4,0l0,3.8l3.4,0l0,-3.8z" class="st16" id="path3143" stroke="null"/>
       </g>
      </g>
     </g>
    </g>
    <text id="svg_29" class="st16 st17 st23 st24" transform="matrix(0.9752999999999998,0,0,-1.0667,-47.0732,1527.5118000000002) " y="-203.97327" x="-44.95308" stroke="null">c</text>
    <text id="svg_30" class="st16 st17 st23 st24" transform="matrix(0.9752999999999998,0,0,-1.0667,16.9852,1527.5118000000002) " y="-203.97327" x="-44.95308" stroke="null">a</text>
    <text id="svg_31" class="st16 st17 st23 st24" transform="matrix(0.9752999999999998,0,0,-1.0667,81.0425,1527.5118000000002) " y="-203.97327" x="-44.95308" stroke="null">r</text>
    <text id="svg_32" class="st16 st17 st23 st24" transform="matrix(0.9752999999999998,0,0,-1.0667,127.01539999999997,1527.5118000000002) " y="-203.97327" x="-44.95308" stroke="null">e</text>
    <text id="svg_33" class="st16 st17 st23 st24" transform="matrix(0.9752999999999998,0,0,-1.0667,191.0716,1527.5118000000002) " y="-203.97327" x="-44.95308" stroke="null">e</text>
    <text id="svg_34" class="st16 st17 st23 st24" transform="matrix(0.9752999999999998,0,0,-1.0667,255.1289,1527.5118000000002) " y="-203.97327" x="-44.95308" stroke="null">r</text>
    <text id="svg_35" class="st16 st17 st23 st24" transform="matrix(0.9752999999999998,0,0,-1.0667,301.1008,1527.5118000000002) " y="-203.97327" x="-44.95308" stroke="null"/>
    <text id="svg_36" class="st16 st17 st23 st24" transform="matrix(0.9752999999999998,0,0,-1.0667,335.0133,1527.5118000000002) " y="-203.97327" x="-44.95308" stroke="null">l</text>
    <text id="svg_37" class="st16 st17 st23 st24" transform="matrix(0.9752999999999998,0,0,-1.0667,368.9279,1527.5118000000002) " y="-203.97327" x="-44.95308" stroke="null">e</text>
    <text id="svg_38" class="st16 st17 st23 st24" transform="matrix(0.9752999999999998,0,0,-1.0667,432.9852,1527.5118000000002) " y="-203.97327" x="-44.95308" stroke="null">v</text>
    <text id="svg_39" class="st16 st17 st23 st24" transform="matrix(0.9752999999999998,0,0,-1.0667,497.0435,1527.5118000000002) " y="-203.97327" x="-44.95308" stroke="null">e</text>
    <text id="svg_40" class="st16 st17 st23 st24" transform="matrix(0.9752999999999998,0,0,-1.0667,561.1008,1527.5118000000002) " y="-203.97327" x="-44.95308" stroke="null">l</text>
    <text id="svg_41" class="st16 st17 st23 st24" transform="matrix(0.9752999999999998,0,0,-1.0667,595.0154,1527.5118000000002) " y="-203.97327" x="-44.95308" stroke="null">s</text>
   </g>
  </g>
 </g>
</svg>
