<?xml version="1.0" encoding="utf-8"?>
<!-- Generator: Adobe Illustrator 21.0.2, SVG Export Plug-In . SVG Version: 6.00 Build 0)  -->
<svg version="1.1"
	 id="svg2" inkscape:export-filename="C:\Users\sscerbatiuc\Desktop\Career levels-2\Final\CLevels.png" inkscape:export-xdpi="57.820419" inkscape:export-ydpi="57.820419" inkscape:version="0.91 r13725" sodipodi:docname="CLevels.svg" xmlns:cc="http://creativecommons.org/ns#" xmlns:dc="http://purl.org/dc/elements/1.1/" xmlns:inkscape="http://www.inkscape.org/namespaces/inkscape" xmlns:osb="http://www.openswatchbook.org/uri/2009/osb" xmlns:rdf="http://www.w3.org/1999/02/22-rdf-syntax-ns#" xmlns:sodipodi="http://sodipodi.sourceforge.net/DTD/sodipodi-0.dtd" xmlns:svg="http://www.w3.org/2000/svg"
	 xmlns="http://www.w3.org/2000/svg" xmlns:xlink="http://www.w3.org/1999/xlink" x="0px" y="0px" viewBox="0 0 462 516.4"
	 style="enable-background:new 0 0 462 516.4;" xml:space="preserve">
<style type="text/css">
	.st0{opacity:0.8667;fill:#FF6500;enable-background:new    ;}
	.st1{fill:#8BAE9A;}
	.st2{fill:#BB4620;}
	.st3{fill:#FBDE58;}
	.st4{fill:#AC8551;}
	.st5{fill:#F5F5F5;}
	.st6{fill:#4C4D4E;}
	.st7{fill:#806341;}
	.st8{fill:#5E6061;}
	.st9{fill:#373737;}
	.st10{fill:#545557;}
	.st11{fill:#454547;}
	.st12{fill:#323131;}
	.st13{fill:#907046;}
	.st14{fill:#F8F8F8;}
	.st15{fill:#FBD8B5;}
	.st16{fill:#8BAD9A;}
	.st17{fill:#DFDFDD;}
	.st18{fill:#E3C1A0;}
	.st19{fill:#43251E;}
	.st20{fill:#89B498;}
	.st21{fill:#81A991;}
	.st22{fill:#876943;}
	.st23{fill:#553224;}
	.st24{fill:#FBD6B1;}
	.st25{fill:#EC6180;}
	.st26{fill:#2E2D2D;}
	.st27{fill:#7A7B7C;}
</style>
<sodipodi:namedview  bordercolor="#666666" borderopacity="1" gridtolerance="10" guidetolerance="10" id="namedview4" inkscape:current-layer="g10" inkscape:cx="1367.7272" inkscape:cy="1109.7718" inkscape:guide-bbox="true" inkscape:pageopacity="1" inkscape:pageshadow="2" inkscape:window-height="1017" inkscape:window-maximized="1" inkscape:window-width="1920" inkscape:window-x="-8" inkscape:window-y="-8" inkscape:zoom="0.35355339" objecttolerance="10" pagecolor="#ffffff" showgrid="true" showguides="true" units="mm">
	<inkscape:grid  enabled="true" id="grid5839" spacingx="19.5" spacingy="19.6" type="xygrid" visible="false"></inkscape:grid>
	<sodipodi:guide  id="guide6375" orientation="0,2979.9213" position="0,1300.79122199"></sodipodi:guide>
	<sodipodi:guide  id="guide6377" orientation="0,2979.9213" position="0,803.933187455"></sodipodi:guide>
	<sodipodi:guide  id="guide6379" orientation="2104.7244,0" position="1841.69262237,0"></sodipodi:guide>
	<sodipodi:guide  id="guide6381" orientation="2104.7244,0" position="1138.22863746,0"></sodipodi:guide>
	<sodipodi:guide  id="guide8954" orientation="0,1" position="868.85748,1079.045"></sodipodi:guide>
	<sodipodi:guide  id="guide8956" orientation="0,1" position="2086.5,1807.4534"></sodipodi:guide>
	<sodipodi:guide  id="guide8958" orientation="0,1" position="2275.8232,1803.2"></sodipodi:guide>
	<sodipodi:guide  id="guide8960" orientation="0,1" position="2345.5,1776.5"></sodipodi:guide>
	<sodipodi:guide  id="guide8962" orientation="0,1" position="1493.75,1749.25"></sodipodi:guide>
	<sodipodi:guide  id="guide8964" orientation="0,1" position="916.5,1724.8"></sodipodi:guide>
</sodipodi:namedview>
<defs>
	
	
		<inkscape:perspective  id="perspective4983" inkscape:persp3d-origin="1489.9606 : 701.5748 : 1" inkscape:vp_x="0 : 1052.3622 : 1" inkscape:vp_y="0 : 1000 : 0" inkscape:vp_z="2979.9212 : 1052.3622 : 1" sodipodi:type="inkscape:persp3d">
		</inkscape:perspective>
</defs>
<g id="g10" transform="matrix(1.25,0,0,-1.25,0,2104.7244)" inkscape:groupmode="layer" inkscape:label="10520-NMWDEW">
	<g id="g46" transform="matrix(-2.3112921,7.6329835e-4,-8.1560719e-4,-2.2153257,964.29873,862.9567)">
		<g id="path48_1_" inkscape:connector-curvature="0" sodipodi:nodetypes="cccccc">
			<polygon class="st0" points="257.5,-183.6 257.5,-340.1 337.5,-370.4 417.5,-340 417.5,-183.6 			"/>
		</g>
	</g>
	<g id="g4882" transform="matrix(-0.57000255,4.7356195e-4,4.7356195e-4,0.57000255,1165.5016,197.50555)">
		<g id="g4253" transform="matrix(0.19744443,0,0,-0.19744443,372.69836,1706.6111)">
			<path id="path16-9" inkscape:connector-curvature="0" class="st1" d="M6155.6-2065.9c0,21-20.4,38-45.5,38l-671.6,0
				c-25.1,0-45.5-17-45.5-38s20.3-38,45.5-38l671.6,0C6135.2-2104,6155.6-2086.9,6155.6-2065.9"/>
			<path id="path18-12" inkscape:connector-curvature="0" class="st2" d="M5451.3-2541.4c0,20.2,14.6,36.6,34.8,36.6
				c20.2,0,34.8-16.4,34.9-36.6c0-25.4-30.6-36.2-23.4-60.3C5472.6-2590.9,5451.3-2569.8,5451.3-2541.4"/>
			<path id="path20-3" inkscape:connector-curvature="0" class="st3" d="M5467.8-2533.9c0,12.6,10.2,22.9,22.8,22.9
				c12.6,0,22.9-10.2,22.9-22.8s-10.2-22.9-22.8-22.9C5478-2556.8,5467.8-2546.5,5467.8-2533.9"/>
			<path id="path22-9" inkscape:connector-curvature="0" class="st4" d="M5646.6-2548.1l-156.7,11.7l0.7,9.7l156.4-9.1
				L5646.6-2548.1"/>
			<path id="path24-7" inkscape:connector-curvature="0" class="st2" d="M5491.4-2520.8c7.3-0.5,16.4-5.7,15.9-12.2
				s-10.3-10.3-17.6-9.7c-7.3,0.5-12.3,5.4-11.8,11.9C5478.5-2524.3,5484.1-2520.3,5491.4-2520.8"/>
			<path id="path26-00" inkscape:connector-curvature="0" class="st4" d="M5839.6-2192.2c0-62.4-50.6-112.9-112.9-112.9h-22.1
				c-62.4,0-112.9,50.6-112.9,112.9l0,128.2h248v-128.2"/>
			<path id="path28-3" inkscape:connector-curvature="0" class="st5" d="M5481.7-2410c-0.4-0.3-37.7-35.5-19.6-80l7.2,2.9
				c-16.1,39.6,17.4,71,17.7,71.4L5481.7-2410"/>
			<path id="path30-54" inkscape:connector-curvature="0" class="st6" d="M5533.1-2413.8l-55,47.8l-23.4-26.9l55-47.8L5533.1-2413.8
				"/>
			<path id="path32-0" inkscape:connector-curvature="0" class="st7" d="M5821-2192.2c0-62.4-50.6-112.9-112.9-112.9H5686
				c-62.4,0-112.9,50.6-112.9,112.9l0,128.2h248v-128.2"/>
			<path id="path34-6" inkscape:connector-curvature="0" class="st8" d="M5990.9-2285.1c0,0-426.3,355.6-539.8,89.7
				c-113.5-265.9,419.9-357.8,419.9-357.8L5990.9-2285.1"/>
			<path id="path36-68" inkscape:connector-curvature="0" class="st6" d="M5990.9-2285.1c47.5-29.7-71.6-284.6-119.9-268.1
				C5819.2-2535.4,5941.2-2254,5990.9-2285.1"/>
			<path id="path38-21" inkscape:connector-curvature="0" class="st9" d="M5981.2-2306c36.7-13.1-66-233.2-100.8-225.3
				C5851.1-2524.6,5944.5-2292.8,5981.2-2306"/>
			<path id="path40-14" inkscape:connector-curvature="0" class="st10" d="M5598.4-2096.7c-43.8,0-83.6-13-114.1-46
				c4.1,0.2,8.2,0.2,12.4,0.2c118,0,271.5-64.9,437.2-182.7c9.9,14.5,19.9,26.3,29.1,33.7c-1,1-1.4,2.2-0.9,3.5
				c0.7,1.9,2,2.7,4.1,2.7c0.5,0,1.1-0.1,1.8-0.2c-2,1-4,2.2-3.7,4.5c0.3,1.8,3.4,3.1,5.7,3.1c0.2,0,0.5,0,0.7,0
				c0.2-0.1,0.4-0.1,0.6-0.1c-0.2,0.1-0.4,0.1-0.6,0.1c-1.9,0.5-4,2.9-3.7,4.7c0.3,1.9,2.4,2.6,4.5,2.6c0.4,0,0.9,0,1.3-0.1
				c-0.2,0.1-0.4,0.3-0.6,0.5c-0.4,0.2-0.7,0.5-1,0.8C5912.4-2224,5735.4-2096.7,5598.4-2096.7"/>
			<path id="path42-66" inkscape:connector-curvature="0" class="st11" d="M5963-2291.4c-9.3-7.4-19.2-19.2-29.1-33.7
				c4.1-2.9,8.3-5.9,12.4-8.9c11.8,17.4,23,28.6,31.7,28.6c1.1,0,2.1-0.2,3.2-0.5c4.5-1.6,6.9-6.3,7.6-13.3
				c3.9-1.8,8.1-3.8,12.6-6.2c0.7,7.5,0.7,14.3,0,20.1c-14.3,6.2-24.5,8.1-25.9,8.4C5971.7-2296,5965.5-2294.1,5963-2291.4"/>
			<path id="path44-86" inkscape:connector-curvature="0" class="st12" d="M5978-2305.4c-8.7,0-19.9-11.2-31.7-28.6l0,0
				c6.9,10.2,13.7,18.3,19.8,23.2l0,0c5.8-1.7,13.5-4.4,22.7-8.5c-0.7,7-3.1,11.7-7.6,13.3C5980.2-2305.6,5979.1-2305.4,5978-2305.4
				"/>
			<path id="path46-64" inkscape:connector-curvature="0" class="st4" d="M5730.8-2192.2c0-62.4-50.6-112.9-112.9-112.9h-22.1
				c-62.4,0-112.9,50.6-112.9,112.9v128.2l248,0v-128.2"/>
			<path id="path48-55" inkscape:connector-curvature="0" class="st13" d="M5709-2192.2c0-62.4-50.6-112.9-112.9-112.9H5574
				c-62.4,0-112.9,50.6-112.9,112.9v128.2l248,0v-128.2"/>
			<path id="path50-0" inkscape:connector-curvature="0" class="st14" d="M6137.7-2479.4l-29.3-2.9c-1.3,17.5-3.7,33.3-7.1,47.6
				l29,2.7C6133.8-2446.4,6136.3-2462.2,6137.7-2479.4"/>
			<path id="path52-91" inkscape:connector-curvature="0" class="st15" d="M5970.7-2277.8c0.2,0,0.4-0.1,0.6-0.1
				C5971.1-2277.9,5970.9-2277.9,5970.7-2277.8"/>
			<path id="path54-9" inkscape:connector-curvature="0" class="st15" d="M6101.4-2434.6c-28.2,120-121.5,136.7-126,137.7
				c-5,1.2-15,4.4-13.3,9c0.9,2.3,2.7,3,5.9,2.5c-2,1-4,2.2-3.7,4.5c0.3,2,4.1,3.3,6.4,3c0.2-0.1,0.4-0.1,0.6-0.1
				c-0.2,0.1-0.4,0.1-0.6,0.1c-1.9,0.5-4,2.9-3.7,4.7c0.3,2.4,3.7,2.9,6.1,2.5c-2,1-3.4,2.3-3,4.5c0.7,4.7,9.6,1.7,14.8-0.2
				c4.8-1.7,113.7-28.2,145.5-165.6L6101.4-2434.6"/>
			<path id="path56-62" inkscape:connector-curvature="0" class="st14" d="M6156.2-2487.7l-229.5-94.9c-14.8,36.4-40,59.7-51.7,69.1
				c3.4,47.6,56.6,175,91.2,202.7C5996.2-2319.6,6077.6-2354.6,6156.2-2487.7"/>
			<path id="path58-36" inkscape:connector-curvature="0" class="st14" d="M6156.2-2487.7l-229.5-94.9c-14.8,36.4-40,59.7-51.7,69.1
				c3.4,47.6,56.6,175,91.2,202.7C5996.2-2319.6,6077.6-2354.6,6156.2-2487.7"/>
			<path id="path60-9" inkscape:connector-curvature="0" class="st16" d="M6078.6-2375.7c3.4-5.9,6.6-12.2,9.5-18.9l0,0
				C6085.2-2387.9,6082-2381.6,6078.6-2375.7C6078.7-2375.7,6078.7-2375.7,6078.6-2375.7"/>
			<path id="path62-8" inkscape:connector-curvature="0" class="st17" d="M6123-2432.6l-3.2-0.3c4.9-6.5,9.8-13.4,14.7-20.7
				c-0.2,1.3-0.4,2.5-0.6,3.8C6130.3-2443.8,6126.7-2438.1,6123-2432.6"/>
			<path id="path64-2" inkscape:connector-curvature="0" class="st18" d="M6078.7-2375.8c3.4-5.9,6.5-12.2,9.5-18.9
				c10.4-11.2,20.9-23.9,31.6-38.2l3.2,0.3C6108-2410,6093-2391.2,6078.7-2375.8"/>
			<path id="path66-0" inkscape:connector-curvature="0" class="st17" d="M6088.2-2394.6L6088.2-2394.6
				c15.1-16.4,30.7-35.9,46.4-58.9l0,0c-4.9,7.2-9.8,14.1-14.7,20.7l0,0C6109.1-2418.6,6098.5-2405.9,6088.2-2394.6
				C6088.2-2394.7,6088.2-2394.6,6088.2-2394.6"/>
			<path id="path68-8" inkscape:connector-curvature="0" class="st19" d="M6051.6-2492.9l1.4,13.2l-13.3,9.5l10.6,115.9l-31.8,33.6
				l-28.1-33.6l32.8-121.1l-4.1-17.3l8.6-6.9L6051.6-2492.9"/>
			<path id="path70-4" inkscape:connector-curvature="0" class="st15" d="M5631.3-2559.3c-4,3.9-10.8,10.4-6.8,13.2
				c1.9,1.3,3.7,0.7,5.4-0.7c-1.5,2-2.5,5.1-0.5,6.5c1.7,1.2,5.2,0.2,6.2-1.6c-1.6,1.7-2.4,6.3-0.5,7.5c1.9,1.3,3.9,0.1,5.7-1.3
				c-1.9,2.7-2.1,4.6-0.4,6.4c3.4,3.6,10.7-3.9,14-7.9s74-98.6,225.3-35.8l10.6-27.4C5723.7-2667.3,5635.4-2563.2,5631.3-2559.3"/>
			<path id="path72-9" inkscape:connector-curvature="0" class="st14" d="M5926.6-2582.5c-12.7-8-24.8-13.8-36.3-17.8l-10.6,27.4
				c18.3,7.7,23.4,11.2,35.9,18L5926.6-2582.5"/>
			<path id="path74-7" inkscape:connector-curvature="0" class="st15" d="M5926.6-2582.5c0,0,70.8-256.6,233.4-100
				c0,0,43.9,68.5-3.8,194.9C5990.5-2511,5926.6-2582.5,5926.6-2582.5"/>
			<path id="path76-6" inkscape:connector-curvature="0" class="st19" d="M5989.8-2832.8c0,0-59.9,159.4,147.6,188.2l-5.6,51.2
				c0,0,28-11.1,25.6,13.7c-2.4,24.8-26.5,4.5-26.5,4.5s3.1,61.8,25.3,87.5c-1.7,1.5,150.9-216.4,41.6-221c0,0,2.4-50-59.9-76.4
				C6073.3-2812.6,6016.3-2741.8,5989.8-2832.8"/>
			<path id="path78-5" inkscape:connector-curvature="0" class="st19" d="M6078.4-2607.5c2.6-6.2,7.4-10.1,10.6-8.8
				c3.2,1.4,3.7,7.6,1.1,13.8s-7.4,10.1-10.6,8.8C6076.3-2595.2,6075.8-2601.3,6078.4-2607.5"/>
			<path id="path80-60" inkscape:connector-curvature="0" class="st19" d="M5974.9-2655.3c2.6-6.2,7.4-10.1,10.6-8.8
				c3.2,1.4,3.7,7.6,1.1,13.8s-7.4,10.1-10.6,8.8C5972.7-2642.9,5972.2-2649.1,5974.9-2655.3"/>
			<path id="path82-6" inkscape:connector-curvature="0" class="st19" d="M6057.8-2589.5c0,0-31.1-24.5-78.2-35.1
				c0,0-16.2,37.2,19.6,54.8C6039.1-2550.2,6057.8-2589.5,6057.8-2589.5"/>
			<path id="path84-59" inkscape:connector-curvature="0" class="st12" d="M5877-2515.1c2.7-2.3,6-5.2,9.6-8.7l0,0
				C5883-2520.3,5879.7-2517.4,5877-2515.1"/>
			<path id="path86-4" inkscape:connector-curvature="0" class="st17" d="M5966.1-2310.8c-34.5-27.7-87.8-155.1-91.2-202.7
				c0.6-0.5,1.3-1.1,2-1.7c2.7-2.3,6-5.2,9.6-8.7c0.2,28.9,6.9,133.2,89.8,209.6C5972.5-2312.8,5969-2311.6,5966.1-2310.8
				L5966.1-2310.8"/>
			<path id="path88-65" inkscape:connector-curvature="0" class="st7" d="M5620-2239.2c0,19.3-15.7,35-35,35s-35-15.7-35-35
				c0-19.3,15.7-35,35-35S5620-2258.5,5620-2239.2"/>
			<path id="path90-0" inkscape:connector-curvature="0" class="st6" d="M5585-2284.3c-19.8,0-35.8,16-35.8,35.8
				c0,19.8,16,35.8,35.8,35.8s35.8-16,35.8-35.8C5620.7-2268.3,5604.7-2284.3,5585-2284.3"/>
		</g>
	</g>
	<g id="g4271" transform="matrix(0.11972873,0,0,-0.11972873,533.21749,1040.4929)">
		<path id="path16-2" inkscape:connector-curvature="0" class="st20" d="M-3432.7-2027.7h-671.6c-25.1,0-45.5-17-45.5-38
			s20.4-38,45.5-38h22.5v40h378.7v-40h270.5c25.1,0,45.5,17,45.5,38C-3387.2-2044.7-3407.6-2027.7-3432.7-2027.7"/>
		<path id="path18-8" inkscape:connector-curvature="0" class="st2" d="M-4091.8-2528.5c0.3,20.2,15.2,36.4,35.4,36.1
			c20.2-0.3,34.6-16.9,34.3-37.1c-0.4-25.4-31.1-35.7-24.4-60C-4071.3-2578.4-4092.3-2557-4091.8-2528.5"/>
		<path id="path20-7" inkscape:connector-curvature="0" class="st3" d="M-4075.3-2521.3c0.2,12.6,10.6,22.7,23.2,22.5
			c12.6-0.2,22.7-10.6,22.5-23.2c-0.2-12.6-10.6-22.7-23.2-22.5C-4065.4-2544.3-4075.5-2534-4075.3-2521.3"/>
		<path id="path22-42" inkscape:connector-curvature="0" class="st4" d="M-3898.7-2552.1l-154.6,28l1.7,9.6l154.6-25.5
			L-3898.7-2552.1"/>
		<path id="path24-98" inkscape:connector-curvature="0" class="st2" d="M-4050.2-2508.7c7.2-1.3,15.7-7.3,14.6-13.8
			c-1.2-6.5-11.3-9.1-18.5-7.9c-7.2,1.3-11.7,6.6-10.5,13.1C-4063.5-2510.9-4057.4-2507.4-4050.2-2508.7"/>
		<path id="path26-57" inkscape:connector-curvature="0" class="st4" d="M-3703.2-2192c0-62.4-50.6-112.9-112.9-112.9h-22.1
			c-62.4,0-112.9,50.6-112.9,112.9v128.2h248V-2192"/>
		<path id="path28-83" inkscape:connector-curvature="0" class="st5" d="M-4061.1-2409.8c-0.4-0.3-37.7-35.5-19.6-80l7.2,2.9
			c-16.1,39.6,17.4,71,17.7,71.4L-4061.1-2409.8"/>
		<path id="path30-03" inkscape:connector-curvature="0" class="st6" d="M-4009.7-2413.6l-55,47.8l-23.4-26.9l55-47.8
			L-4009.7-2413.6"/>
		<path id="path32-70" inkscape:connector-curvature="0" class="st7" d="M-3721.8-2192c0-62.4-50.6-112.9-112.9-112.9h-22.1
			c-62.4,0-112.9,50.6-112.9,112.9v128.2h248V-2192"/>
		<path id="path34-1" inkscape:connector-curvature="0" class="st8" d="M-3551.9-2284.9c0,0-426.3,355.6-539.8,89.7
			c-113.5-265.9,419.9-357.8,419.9-357.8L-3551.9-2284.9"/>
		<path id="path36-1" inkscape:connector-curvature="0" class="st6" d="M-3551.9-2284.9c47.5-29.7-71.6-284.6-119.9-268
			C-3723.6-2535.2-3601.6-2253.8-3551.9-2284.9"/>
		<path id="path38-96" inkscape:connector-curvature="0" class="st9" d="M-3561.6-2305.8c36.7-13.1-66-233.2-100.8-225.3
			C-3691.7-2524.4-3598.3-2292.6-3561.6-2305.8"/>
		<path id="path40-8" inkscape:connector-curvature="0" class="st21" d="M-3551.9-2284.8L-3551.9-2284.8L-3551.9-2284.8
			 M-3551.9-2284.9L-3551.9-2284.9L-3551.9-2284.9 M-3551.8-2284.9L-3551.8-2284.9L-3551.8-2284.9 M-3551.8-2284.9
			C-3551.8-2284.9-3551.8-2285-3551.8-2284.9L-3551.8-2284.9 M-3551.8-2285C-3551.7-2285-3551.7-2285-3551.8-2285
			C-3551.7-2285-3551.7-2285-3551.8-2285 M-3551.7-2285L-3551.7-2285L-3551.7-2285 M-3551.7-2285L-3551.7-2285L-3551.7-2285
			 M-3551.6-2285C-3551.6-2285.1-3551.6-2285.1-3551.6-2285C-3551.6-2285.1-3551.6-2285.1-3551.6-2285 M-3551.6-2285.1
			c3.4-2.2,5.9-5.7,7.7-10.1C-3545.6-2290.8-3548.2-2287.3-3551.6-2285.1 M-3543.9-2295.2L-3543.9-2295.2L-3543.9-2295.2
			 M-3543.9-2295.3L-3543.9-2295.3C-3543.8-2295.3-3543.9-2295.3-3543.9-2295.3 M-3543.8-2295.3
			C-3543.8-2295.3-3543.8-2295.4-3543.8-2295.3C-3543.8-2295.4-3543.8-2295.3-3543.8-2295.3 M-3543.8-2295.4L-3543.8-2295.4
			L-3543.8-2295.4 M-3543.8-2295.5L-3543.8-2295.5L-3543.8-2295.5"/>
		<path id="path42-63" inkscape:connector-curvature="0" class="st10" d="M-3812-2126.2v-65.8c0-4-0.2-8-0.6-11.9
			c64.5-30.1,133-70.7,203.7-121c17.4,25.4,34.8,42.4,48.7,42.4c3,0,5.8-0.8,8.3-2.4l0,0l0,0l0,0l0,0l0,0
			C-3555.1-2282.2-3680.2-2178.6-3812-2126.2"/>
		<path id="path44-2" inkscape:connector-curvature="0" class="st11" d="M-3560.2-2282.5c-13.9,0-31.3-17-48.7-42.4
			c4.1-2.9,8.3-5.9,12.4-8.9c11.8,17.4,23,28.6,31.7,28.6c1.1,0,2.1-0.2,3.2-0.5c10.9-3.9,9.5-26,1.3-54.9c3.3-2.5,6.7-5.1,10-7.7
			c8.9,30.8,12.3,57.6,6.5,72.9l0,0v0.1l0,0l0,0l0,0l0,0l0,0l0,0l0,0l0,0c-1.7,4.4-4.3,7.9-7.7,10.1l0,0c0,0,0,0-0.1,0l0,0l0,0l0,0
			l0,0l0,0l0,0l0,0l0,0l0,0l0,0l0,0l0,0C-3554.5-2283.3-3557.3-2282.5-3560.2-2282.5"/>
		<path id="path46-9" inkscape:connector-curvature="0" class="st12" d="M-3564.8-2305.2c-8.7,0-19.9-11.2-31.7-28.6
			c12-8.7,24.1-17.7,36.2-26.9c8.2,28.9,9.6,51-1.3,54.9C-3562.6-2305.4-3563.7-2305.2-3564.8-2305.2"/>
		<path id="path48-23" inkscape:connector-curvature="0" class="st4" d="M-3812-2192c0-62.4-50.6-112.9-112.9-112.9h-22.1
			c-62.4,0-112.9,50.6-112.9,112.9v128.2h248V-2192"/>
		<path id="path50-40" inkscape:connector-curvature="0" class="st13" d="M-3833.8-2192c0-62.4-50.6-112.9-112.9-112.9h-22.1
			c-62.4,0-112.9,50.6-112.9,112.9v128.2h248V-2192"/>
		<path id="path52-96" inkscape:connector-curvature="0" class="st22" d="M-3957.8-2204c-19.3,0-35-15.7-35-35s15.7-35,35-35
			s35,15.7,35,35S-3938.5-2204-3957.8-2204"/>
		<path id="path54-024" inkscape:connector-curvature="0" class="st6" d="M-3957.8-2284.1c-19.8,0-35.8,16-35.8,35.8
			s16,35.8,35.8,35.8s35.8-16,35.8-35.8S-3938-2284.1-3957.8-2284.1"/>
		<path id="path56-0" inkscape:connector-curvature="0" class="st23" d="M-3328.5-2854.1c0,0,92.9-75.3,152.1-7.9
			c78.4,89.1-92.9,175.8,23.8,242.2c-85.7,36.9-154.6-45.8-101.6-118.1C-3177.1-2843-3285.2-2867.3-3328.5-2854.1"/>
		<path id="path58-59" inkscape:connector-curvature="0" class="st24" d="M-3551.3-2794.3c-19.6,81.9,21.1,161.9,94.9,179.5
			c73.7,17.6,152.6-33.7,172.2-115.7c19.6-81.9-24.3-162.6-98.1-180.3C-3510.3-2941.4-3531.7-2876.3-3551.3-2794.3"/>
		<path id="path60-02" inkscape:connector-curvature="0" class="st23" d="M-3327.2-2820.1c0,0-122.4,0.5-217.7-43
			c31.4-85.4,132.6-128.1,239.8-59.8c127.4,81.1,12.1,247.2-31.4,282.8c-11.2-45-7.1-92.8-7.1-92.8s23.5,19.2,28.7-11.8
			c3.5-21.4-25.2-13.9-25.2-13.9L-3327.2-2820.1"/>
		<path id="path62-04" inkscape:connector-curvature="0" class="st23" d="M-3406-2759.9c-2.9,12.2-0.3,19.8,4.8,21
			c5.1,1.2,10.9-4.4,13.8-16.6c2.9-12.2,0.3-19.8-4.8-21S-3403-2772-3406-2759.9"/>
		<path id="path64-9" inkscape:connector-curvature="0" class="st23" d="M-3525.8-2788.5c-2.9,12.2-0.3,19.8,4.8,21
			s10.9-4.4,13.8-16.6c2.9-12.2,0.3-19.8-4.8-21S-3522.9-2800.7-3525.8-2788.5"/>
		<path id="path66-5" inkscape:connector-curvature="0" class="st25" d="M-3434.3-2695.3c-4.4,18.4-22.9,29.7-41.3,25.3
			c-18.4-4.4-29.7-22.9-25.3-41.3L-3434.3-2695.3"/>
		<path id="path68-26" inkscape:connector-curvature="0" class="st24" d="M-3447.6-2656.8l-32.9,41.5l-17.5,67.9l62.1-32.6
			l32.9-41.5L-3447.6-2656.8"/>
		<path id="path70-9" inkscape:connector-curvature="0" class="st26" d="M-3397.7-2526l-38.2-54l-62.1,32.6l17.5-67.9l-67-25.3
			l-83.4,125l-36,10.5c7.3,48,49.3,148.8,81.4,185.8l75.1-77.2L-3397.7-2526"/>
		<path id="path72-23" inkscape:connector-curvature="0" class="st14" d="M-3435.9-2580l7.5,10.6l-86.2,43.1l21.8-93.6l12.4,4.7
			l-17.5,67.9L-3435.9-2580"/>
		<path id="path74-4" inkscape:connector-curvature="0" class="st14" d="M-3480.4-2615.3l-12.4-4.7l-32.8,33.5l19,4.2l13.8,15.1
			L-3480.4-2615.3"/>
		<path id="path76-1" inkscape:connector-curvature="0" class="st14" d="M-3435.9-2580l7.5,10.6l-25.2,40.1l-8.5-17.6l-17.9-9.9
			L-3435.9-2580"/>
		<path id="path78-4" inkscape:connector-curvature="0" class="st27" d="M-3522.8-2502.6c-2.8,3.6-8,4.2-11.6,1.4s-4.2-8-1.4-11.6
			s8-4.2,11.6-1.3C-3520.6-2511.4-3520-2506.2-3522.8-2502.6"/>
		<path id="path80-0" inkscape:connector-curvature="0" class="st27" d="M-3559.1-2452.4c-4,2.1-9,0.5-11.1-3.5s-0.5-9,3.5-11.1
			c4.1-2.1,9-0.5,11.1,3.5S-3555.1-2454.5-3559.1-2452.4"/>
		<path id="path82-9" inkscape:connector-curvature="0" class="st27" d="M-3601.1-2416.1c-4.1,2.1-9,0.5-11.1-3.5
			c-2.1-4-0.5-9,3.5-11.1s9-0.5,11.1,3.5C-3595.5-2423.2-3597.1-2418.2-3601.1-2416.1"/>
		<path id="path84-6" inkscape:connector-curvature="0" class="st24" d="M-3563.3-2305.9c0,0-40,17.1-46.3-14.6
			c-6.4-31.7,36.7-23.8,36.7-23.8L-3563.3-2305.9"/>
		<path id="path86-96" inkscape:connector-curvature="0" class="st14" d="M-3564.2-2348.1l-10,1.6l5.5,44.7l10.4-1.5L-3564.2-2348.1
			"/>
		<path id="path88" inkscape:connector-curvature="0" class="st26" d="M-3397.7-2526c0,0,78.5,203.8-164.9,224.7l-7-49.9
			c0,0,171.5,2,140.2-138.7L-3397.7-2526"/>
		<path id="path90-53" inkscape:connector-curvature="0" class="st27" d="M-3542.8-2338.9c-2.5-0.1-4.5-2.2-4.5-4.7
			c0.1-2.5,2.2-4.5,4.8-4.5c2.5,0.1,4.5,2.2,4.5,4.7C-3538.1-2340.9-3540.2-2338.9-3542.8-2338.9"/>
		<path id="path92-06" inkscape:connector-curvature="0" class="st27" d="M-3558.3-2336.6c-2.5-0.1-4.5-2.2-4.5-4.7
			c0.1-2.5,2.2-4.5,4.7-4.5c2.5,0.1,4.5,2.2,4.5,4.7S-3555.7-2336.6-3558.3-2336.6"/>
		<path id="path94-0" inkscape:connector-curvature="0" class="st24" d="M-3892.1-2577.7c0,0-42.5,9.3-29.2,38.8
			c13.2,29.5,45.2-3.4,45.2-3.4L-3892.1-2577.7"/>
		<path id="path96-29" inkscape:connector-curvature="0" class="st14" d="M-3868.3-2542.8l-9.1,4.5l-21.5-39.6l9.3-4.8
			L-3868.3-2542.8"/>
		<path id="path98-36" inkscape:connector-curvature="0" class="st26" d="M-3547.5-2640.6c0,0-155.7-55.3-346.7,58.6l23.2,44.7
			c0,0,149.1-108.6,301.3-64.8L-3547.5-2640.6"/>
		<path id="path100-0" inkscape:connector-curvature="0" class="st27" d="M-3855.1-2562.6c-2,1.5-2.4,4.4-0.9,6.5
			c1.6,2,4.4,2.4,6.5,0.9c2-1.5,2.4-4.4,0.9-6.5C-3850.2-2563.7-3853-2564.1-3855.1-2562.6"/>
		<path id="path102-88" inkscape:connector-curvature="0" class="st27" d="M-3869-2555.4c-2,1.5-2.4,4.4-0.9,6.5
			c1.5,2,4.4,2.4,6.5,0.9c2-1.5,2.4-4.4,0.9-6.5C-3864.1-2556.6-3867-2557-3869-2555.4"/>
	</g>
</g>
</svg>
