<?xml version="1.0" encoding="utf-8"?>
<!-- Generator: Adobe Illustrator 21.0.2, SVG Export Plug-In . SVG Version: 6.00 Build 0)  -->
<svg version="1.1"
	 id="svg2" inkscape:export-filename="C:\Users\sscerbatiuc\Desktop\Career levels-2\Final\CLevels.png" inkscape:export-xdpi="57.820419" inkscape:export-ydpi="57.820419" inkscape:version="0.91 r13725" sodipodi:docname="CLevels.svg" xmlns:cc="http://creativecommons.org/ns#" xmlns:dc="http://purl.org/dc/elements/1.1/" xmlns:inkscape="http://www.inkscape.org/namespaces/inkscape" xmlns:osb="http://www.openswatchbook.org/uri/2009/osb" xmlns:rdf="http://www.w3.org/1999/02/22-rdf-syntax-ns#" xmlns:sodipodi="http://sodipodi.sourceforge.net/DTD/sodipodi-0.dtd" xmlns:svg="http://www.w3.org/2000/svg"
	 xmlns="http://www.w3.org/2000/svg" xmlns:xlink="http://www.w3.org/1999/xlink" x="0px" y="0px" viewBox="0 0 462.3 536.3"
	 style="enable-background:new 0 0 462.3 536.3;" xml:space="preserve">
<style type="text/css">
	.st0{opacity:0.8667;fill:#E83600;enable-background:new    ;}
	.st1{fill:#734D38;}
	.st2{fill:#56392B;}
	.st3{fill:#F5F5F5;}
	.st4{fill:#37261E;}
	.st5{fill:#FADAAC;}
	.st6{fill:#3A1E16;}
	.st7{fill:#D3942E;}
	.st8{fill:#D7E8DA;}
	.st9{fill:#F8F8F8;}
	.st10{fill:#9BBFA6;}
	.st11{fill:#EEEDED;}
	.st12{fill:#2E2D2D;}
	.st13{fill:#FBD8B5;}
	.st14{fill:#FBD6B1;}
	.st15{fill:#7A7B7C;}
	.st16{fill:#4C3F3A;}
	.st17{fill:#98BDA4;}
	.st18{fill:#90B49E;}
	.st19{fill:#2A2928;}
	.st20{fill:#52423B;}
	.st21{fill:#EC6180;}
</style>
<sodipodi:namedview  bordercolor="#666666" borderopacity="1" gridtolerance="10" guidetolerance="10" id="namedview4" inkscape:current-layer="g10" inkscape:cx="1367.7272" inkscape:cy="1109.7718" inkscape:guide-bbox="true" inkscape:pageopacity="1" inkscape:pageshadow="2" inkscape:window-height="1017" inkscape:window-maximized="1" inkscape:window-width="1920" inkscape:window-x="-8" inkscape:window-y="-8" inkscape:zoom="0.35355339" objecttolerance="10" pagecolor="#ffffff" showgrid="true" showguides="true" units="mm">
	<inkscape:grid  enabled="true" id="grid5839" spacingx="19.5" spacingy="19.6" type="xygrid" visible="false"></inkscape:grid>
	<sodipodi:guide  id="guide6375" orientation="0,2979.9213" position="0,1300.79122199"></sodipodi:guide>
	<sodipodi:guide  id="guide6377" orientation="0,2979.9213" position="0,803.933187455"></sodipodi:guide>
	<sodipodi:guide  id="guide6379" orientation="2104.7244,0" position="1841.69262237,0"></sodipodi:guide>
	<sodipodi:guide  id="guide6381" orientation="2104.7244,0" position="1138.22863746,0"></sodipodi:guide>
	<sodipodi:guide  id="guide8954" orientation="0,1" position="868.85748,1079.045"></sodipodi:guide>
	<sodipodi:guide  id="guide8956" orientation="0,1" position="2086.5,1807.4534"></sodipodi:guide>
	<sodipodi:guide  id="guide8958" orientation="0,1" position="2275.8232,1803.2"></sodipodi:guide>
	<sodipodi:guide  id="guide8960" orientation="0,1" position="2345.5,1776.5"></sodipodi:guide>
	<sodipodi:guide  id="guide8962" orientation="0,1" position="1493.75,1749.25"></sodipodi:guide>
	<sodipodi:guide  id="guide8964" orientation="0,1" position="916.5,1724.8"></sodipodi:guide>
</sodipodi:namedview>
<defs>
	
	
		<inkscape:perspective  id="perspective4983" inkscape:persp3d-origin="1489.9606 : 701.5748 : 1" inkscape:vp_x="0 : 1052.3622 : 1" inkscape:vp_y="0 : 1000 : 0" inkscape:vp_z="2979.9212 : 1052.3622 : 1" sodipodi:type="inkscape:persp3d">
		</inkscape:perspective>
</defs>
<g id="g10" transform="matrix(1.25,0,0,-1.25,0,2104.7244)" inkscape:groupmode="layer" inkscape:label="10520-NMWDEW">
	<g id="g50" transform="matrix(-2.3107707,7.915626e-4,-8.0716634e-4,-2.2740946,1426.0534,1316.711)">
		<g id="path52_1_" inkscape:connector-curvature="0" sodipodi:nodetypes="cccccc">
			<polygon class="st0" points="457.2,-131.7 457.2,27.5 617.2,27.5 617.1,-131.6 537.2,-161.2 			"/>
		</g>
	</g>
	<g id="g4202" transform="matrix(0.11997945,0,0,-0.11997937,931.11721,1358.4663)">
		<path id="path16-03" inkscape:connector-curvature="0" class="st1" d="M-7226.4-1874.3l2.4,240.8l-314.2,7.6l-1.3-241.7
			L-7226.4-1874.3z M-7221.5-1395.3l-315.5-2.7l-1-181.2l314.4-12.2L-7221.5-1395.3z M-7583.5-1237.7h47.4l-0.5-106.4l315.6-9.5
			l1.2,115.9h51.5l-11.8-904.7c0.5-17.2,0.5-34.4,0.1-51.6c3.1-1.2,4.2-2.3-0.1-3c-0.7-33.8-2.6-67.7-3.9-101.4
			c-1.2-4.1-3.3-1.8-5.5-1.9c0.1,7.5,1.2,13.9-1,19.1c0,1.7-4.4-1.7-6.5,0c0,1.7,0,5.1,0,6.8c-3.3,1.7-6.5-1.7-9.8,0
			s-1.1,8.5-3.3,10.2c-2.2,5.1-3.3-3.4-3.3-8.5c-2.2,1.7,0-3.4-2.2-3.4c-4.4,0-8.7,0-12,6.8c-1.1,1.7-4.4,0-6.5,0
			c0,20.4-0.1,42.4,4.2,62.8c0.5,2.7,0.8,5.4,1,8.3c-39.6-0.5-79.4-0.3-119.2,0.1c-28,0.6-53.9,0.2-83.5,1.9
			c-28.4,1.9-55.9,5.8-77.7,4.8c-4,0.6-2.9,2.1-2.8,3.9c7.9,1,21.9-0.5,30.3,0.9c3-0.2-2.8,3.4,0.3,4.9c3-0.2,9.1-0.5,12.1-0.6
			c3.3,2.3-2.6,5,0.7,7.3c3.4,2.2,15.5-0.4,18.7,1c9.4,0.9-5.9,2.9-15,3.7c3.5,1.4-6.4,0.5-6.2,2c-0.3,3.2,1.4,6.6,13.6,8
			c3.1,0.6,0.4,3.3,0.6,4.9c18.8-1.6,35-2.6,54.8-2.8c19.3-0.4,38.7-1.2,57.2-2.8c31-2.4,68.4,1.2,99-1.4c4.7-0.4,11.1,0.3,17,0.5
			c0.2,3.4,0.6,6.7,1.2,9.8c0.6,2.9-0.6,7-0.7,10.5h-0.1l1.6,218.2l-312.7,22.7c0,0-2.5-118.9-2.7-120.6c0,0-0.7-0.9-1-3.8
			c-0.1-1-0.7-0.9-1.3-0.9c0.6,0,0.6,0,1.2-0.1c-1.3-0.9-0.3-2.9-1-3.8c0.6,0,0.6,0,1.2-0.1c-1.4-1.8-0.4-3.9-1.2-5.8
			c0.6,0,0.6,0,1.2-0.1c-0.1-1-0.2-1.9,0.4-2c0.6,0,0.6,0,1.2-0.1c0.5-1-0.9-2.9,0.3-2.9c-0.6,0-0.6,0-1.2,0.1
			c-0.4-3.9-0.1-6.8,0.2-9.8c1.6-7.9-0.7-17.5-2.8-26c-0.1-1-1.4-1.8-2.5-0.8l-0.3-2.9c-0.2-1.9-1.9-0.8-2.1-2.7
			c-2.3-7.6-3.1-15.3-3.8-23l-0.9-11.4l-0.6-5.6c-0.1-0.9-0.2-1.8-0.4-2.6c-0.1-0.4-0.1-0.8-0.2-1c0-0.1-0.1-0.3-0.1-0.3
			c0,0.7-0.1,1.4-0.4,2.1c0.3-1.8,0.1-2.7,0-1.9c-0.1,0.2-0.2,0.5-0.2,0.9l-0.4,2.3c-0.2,1.6-0.2,3.3,0.3,5.1
			c-0.6,0-1.8,0.1-1.7,1.1c-0.1,5.7,1.8,12.4-0.3,15.4c-0.5,1-2.2,2.1-1.9,5l-0.3-2.9c-0.6,0-1.8,0.1-1.8,0.1
			c-0.2,3.9-0.3,8.8-0.5,12.7c0,0-1.2,0.1-1.8,0.1l0.2,1.9c-4,2.2-4.5-8.4-5.6-13.2c-0.6,0-1.8,0.1-2.4,0.2l0.2,1.9l-1.2,0.1
			c-0.6-5.8-1.1-10.6-1.6-16.4c0.1,1,0.3,2.9,0.4,3.9c-0.6,0-1.2,0.1-1.1,1c-0.4-3.9-0.2-8.7-1.8-12.5c-0.7-0.9-2.4,0.1-2.8,3.1
			c0.3,2.9,0.4,4.9,0.7,7.8l-1.2,0.1c-0.2-1.9,0.1-4.9-0.6-6.8c-0.7-0.9-1.6,2.1-2.3,1.1c-0.1-1-0.2-2-0.9-2.9
			c0.3,2.9,1.2,6.8,0.9,9.7c-0.5,1-1,2-2.2,2.1c1.1,4.8-0.3,8.8-3,11.9c-0.8,0.8-0.4,3.7,0,6.3c-1.2,16.5,1.8,33.6-0.7,49.2
			c-0.5,1-0.9,4.5-1.4,5.5c-0.7,5.9,0,9.5,0.6,17.4L-7583.5-1237.7"/>
		<path id="path18-22" inkscape:connector-curvature="0" class="st2" d="M-7493.4-1389.8c-8.9,10.8-11.7,23.8-0.1,23.8
			s22.2-15.8,27.6-31.5l-21.6-0.2C-7488.9-1395.5-7490.8-1392.9-7493.4-1389.8"/>
		<path id="path20-99" inkscape:connector-curvature="0" class="st2" d="M-7274-1394c-10.9,8.8-16.3,21-5,23.3
			c11.2,2.3,24.7-10.8,33.2-24.9l-26.1-0.2C-7272.5-1395.2-7273.2-1394.6-7274-1394"/>
		<path id="path22-5" inkscape:connector-curvature="0" class="st3" d="M-7667.7-1422.9c-44.6,4.3-59.9,11.1-59.9,11.1l7.5,112.2
			l118.8-7.5l-4.7-116C-7606-1422.9-7623.1-1427.1-7667.7-1422.9"/>
		<path id="path24-38" inkscape:connector-curvature="0" class="st4" d="M-7729.5-1407.3c0,0-4.1-56.1,55.2-62.4
			c59.2-6.2,67.5,38.9,70.5,60.2l-2.2,0.6c0,0-4.7-65.2-67.6-56.7c-58.1,7.8-53.3,58.3-53.3,58.3H-7729.5"/>
		<path id="path26-2" inkscape:connector-curvature="0" class="st1" d="M-7606-1422.9c0,0,4.8,27.1,4.7,35.2
			c-0.2,11.5-8.4,11.8-10.9,2.8c-2.5-9-0.5-17.8-6.4-17.7c-5.8,0.2-0.3,21-4.4,22.5c-4.1,1.5-8-11.2-13.1-11.3
			c-5.1-0.1-2.4,17.5-11.6,23.7c-5.7,3.9-16.5,2-20.6-11.7c-4.1-13.7-1.1-20.2-8.3-19.6c-7.2,0.6-2.9,30.2-8.9,32s-1.7-29-10.3-29
			c-8.6,0-7.6,39.3-16,40s-20-12.7-17.7-55.7c0,0,1.9,5.8,58.3,0.9C-7613.5-1415.8-7606-1422.9-7606-1422.9"/>
		<path id="path28-8" inkscape:connector-curvature="0" class="st2" d="M-7667.7-1422.9c-44.6,4.3-61.8,11.1-61.8,11.1v0.1
			c0.3,0.7,6,7.2,58.3,2.7c57.7-5,65.2-14,65.2-14S-7623.1-1427.1-7667.7-1422.9"/>
		<path id="path30-4" inkscape:connector-curvature="0" class="st4" d="M-7720.1-1411.6c0,0,38.3-11.9,103.1-10.3
			C-7617-1421.9-7655.3-1408.6-7720.1-1411.6"/>
		<path id="path32-6" inkscape:connector-curvature="0" class="st1" d="M-7603.5-1359.3l-78.6,4.4l0.4,43.5l79.9-7.6L-7603.5-1359.3
			"/>
		<path id="path34-7" inkscape:connector-curvature="0" class="st5" d="M-7698.4-1611.2c-13.5,94.4,5.6,158.3,11.1,158.3
			c5.2,0,5.3-3.9,4.7-5.7c1.1,3.1,1.8,5.4,5.2,5.4c2.9,0,5.3-2.9,4.5-5.6c1.2,2.7,2.3,4.3,5.4,4.3c3.8-0.8,4.6-2.2,3.9-4.2
			c-0.1-0.3-0.3-0.6-0.4-0.9c0.2,0.3,0.3,0.6,0.4,0.9c1.1,2.6,2.9,4.4,6,4.4c7.2,0,1.5-14.9,1.3-17.4c0,0-13.7-76.6-1.7-138.1
			c8.4-43.3,23.6-69.2,60-81.5l-6.1-38.9C-7662.1-1712.6-7690.1-1669-7698.4-1611.2"/>
		<path id="path36-20" inkscape:connector-curvature="0" class="st5" d="M-7663.5-1458.6c-0.1-0.3-0.2-0.6-0.4-0.9
			C-7663.8-1459.2-7663.6-1458.9-7663.5-1458.6"/>
		<path id="path38-45" inkscape:connector-curvature="0" class="st3" d="M-7546.9-1738.5c-21.6,0.5-40.6,3.4-57.1,8.4l6.1,38.9
			c14.3-4.8,32-7.5,53.8-8.3L-7546.9-1738.5"/>
		<path id="path40-3" inkscape:connector-curvature="0" class="st6" d="M-7247.8-1520.6l-18.6,110.5c0,0,45.4-5.1,10.3,20.7
			c-36.4,26.8-35.8,4.8-35.8,4.8l5.6-110.7c0,0-79.8,14.9-201.7-3.8l-3.8,88.6c0,0,58.6-30.5,13.6,22.1
			c-30.1,35.2-31.9,2.2-31.9,2.2l-19.3-142.2C-7529.5-1528.5-7424.2-1544-7247.8-1520.6"/>
		<path id="path42-43" inkscape:connector-curvature="0" class="st5" d="M-7227.1-1772.2c0,0-16.8-364-232.5-207.9
			c0,0-81.1,63.8-90,240.7C-7286.3-1675.4-7227.1-1772.2-7227.1-1772.2"/>
		<path id="path44-47" inkscape:connector-curvature="0" class="st6" d="M-7370-2223.2c24,156-82.4,70.5-157.5,163.5
			c-44.4,55-13.5,105.8-12,108c-101.9,6-10,212.2-10,212.2s173.6,36,262,17.8c24-51.6,15-117.6,15-117.6s-25.9,21.1-34.2-3.1
			c-10.8-31.4,23.7-31.2,23.7-31.2l-28.5-75.2C-7230.4-2062.7-7370-2223.2-7370-2223.2"/>
		<path id="path46-6" inkscape:connector-curvature="0" class="st3" d="M-7227.1-1772.2l-20.8,251.6c0,0-110.2,16.2-281.7-7.8
			l-20-211C-7549.6-1739.5-7337.4-1739.4-7227.1-1772.2"/>
		<path id="path48-48" inkscape:connector-curvature="0" class="st7" d="M-7156.3-2223l61.3-29.6l16.8,35.9c0,0-17.9,13-6.6,34
			c14.5,26.8,33.7,58.7,33.7,58.7s6.2,12.9-3.4,17.7c-9.6,4.9-17.2-7.8-17.2-7.8s-22.4-49.8-27.6-59.9c-5.3-10.1-15.8-23-36.2-10.7
			L-7156.3-2223"/>
		<path id="path50-6" inkscape:connector-curvature="0" class="st5" d="M-7064.3-2134.4c0,0,10.6-3.7,7.5-12.4c-2-3.7-7.1-1-7.1-1
			s5.9-4.1,4-8.8c-2.8-4.3-6.6-3.3-9.3-3.2c1.9-1.3,7.2-1.7,5.6-7.1c-2.6-4.9-6.6-4.7-9.1-4.8c2.4-0.1,4.4-8.8-6-7.9
			c-45,14.7-25.9,55.6-17.7,75.3c54.2,158.3-10.8,230-90.8,306.1l29.3,29.2C-6966.3-1900.6-7064.3-2134.4-7064.3-2134.4"/>
		<path id="path52-55" inkscape:connector-curvature="0" class="st3" d="M-7231.7-1768.6l-2.8,51.1c30.2-15.4,55.5-33.8,76.6-51.6
			l-29.3-29.2C-7211.6-1777.7-7231.7-1768.6-7231.7-1768.6"/>
		<path id="path54-0" inkscape:connector-curvature="0" class="st3" d="M-7156.3-2223l-10.4-29.6l51.3-29.1l20.4,29.1L-7156.3-2223"
			/>
		<path id="path56-21" inkscape:connector-curvature="0" class="st2" d="M-7114.9-2282.3c0,0,5.4,5.8,7,9.4c2.2,5.1-1,8.3-4.7,5.8
			c-3.7-2.5-4.8-7-7.3-5.8s3.3,9.8,1.8,11.3s-3.3-4.5-5.5-3.5c-2.3,1,0,9.4-2.8,14c-1.7,2.9-6.8,4.3-11.3-1s-4.5-8.8-7.5-7
			s4.8,14,2.5,16s-6.5-12.5-10.3-10.8s4.5,19,1,21s-12.4,0-15.9-19.6c0,0,0.9-5.2,25.1-17.4
			C-7118.4-2282.2-7114.9-2282.3-7114.9-2282.3"/>
	</g>
	<g id="g5524" transform="matrix(1.6672601,0,0,1.6672589,-934.91527,-854.90455)">
		<path id="path122-6" inkscape:connector-curvature="0" class="st8" d="M719.8,1292.5c0,0.9-0.8,1.7-1.7,1.7H718
			c-0.1,0.7-0.8,1.2-1.5,1.2c-0.8,0-1.5-0.7-1.5-1.5c-1-0.1-1.8-0.9-1.8-1.9s0.7-1.8,1.7-1.9c0.3-0.6,1-0.9,1.7-0.9
			c1,0,1.9,0.8,1.9,1.8C719.2,1291.1,719.8,1291.7,719.8,1292.5"/>
		<g id="g9416">
			<path id="path30-3" inkscape:connector-curvature="0" class="st9" d="M715.7,1322.8c2,4.9,0.1,8.9-2.4,11.7
				c4.9-0.2,7.6,1.2,8.3,2.1c2.1-2.9,3.4-8.2,1.9-11.6C722.3,1323.8,718.2,1321.9,715.7,1322.8"/>
			<path id="path32-8" inkscape:connector-curvature="0" class="st10" d="M714.2,1334.5c-0.1,0-0.3,0-0.4,0
				C713.9,1334.5,714,1334.5,714.2,1334.5c1.7,0,3.2,0.2,4.3,0.5l0,0C717.3,1334.7,715.9,1334.5,714.2,1334.5"/>
			<path id="path34-71" inkscape:connector-curvature="0" class="st11" d="M716.4,1322.7c-0.2,0-0.5,0.1-0.7,0.2l0,0
				c0.6,1.4,0.8,2.8,0.8,4.1c0,3.1-1.5,5.6-3.2,7.6c0.1,0,0.3,0,0.4,0c0.1,0,0.3,0,0.4,0c1.7,0,3.2,0.2,4.3,0.5
				c1.9-2.3,3.3-5.3,3.1-7.9C720.9,1325.8,718.6,1323.4,716.4,1322.7"/>
			<path id="path36-6" inkscape:connector-curvature="0" class="st9" d="M715,1322.3c-0.3,5.3-3.7,8-7.2,9.5c4.5,2,6.4,4.4,6.6,5.5
				c3.1-1.7,6.6-5.9,6.7-9.7C720.5,1326,717.6,1322.6,715,1322.3"/>
			<path id="path40-5" inkscape:connector-curvature="0" class="st12" d="M727.8,1323.7l1.1-4.7l-1.2-0.2l-1,4.7L727.8,1323.7
				L727.8,1323.7z M727.8,1317.8l2.4,0.5l-1.8,6.7l-2-0.7l-1.4,6.5l-13-3.2l4.1-18.8l13.2,2.2L727.8,1317.8"/>
			<path id="path42-6" inkscape:connector-curvature="0" class="st13" d="M728.1,1322.3C728.2,1322.3,728.2,1322.3,728.1,1322.3
				C728.2,1322.3,728.2,1322.3,728.1,1322.3"/>
			<path id="path56-92" inkscape:connector-curvature="0" class="st14" d="M774.2,1332.5c0,0,2.1,1.9,0.4,3.1
				c-1.7,1.2-2.4-1.5-2.4-1.5L774.2,1332.5"/>
			<path id="path58-1" inkscape:connector-curvature="0" class="st9" d="M771.8,1333.7l0.4,0.5l2.5-1.5l-0.4-0.6L771.8,1333.7"/>
			<path id="path60-75" inkscape:connector-curvature="0" class="st12" d="M756.7,1328.7c0,0,9.9-10.2,17.8,3.6l-2.8,1.8
				c0,0-4.5-10.2-12-4.5L756.7,1328.7"/>
			<path id="path62-12" inkscape:connector-curvature="0" class="st15" d="M772.7,1330.3c0.1,0.2,0,0.3-0.2,0.4s-0.3,0-0.4-0.2
				c-0.1-0.2,0-0.3,0.2-0.4C772.5,1330.1,772.7,1330.1,772.7,1330.3"/>
			<path id="path64-69" inkscape:connector-curvature="0" class="st15" d="M773.3,1331.2c0.1,0.2,0,0.3-0.2,0.4s-0.3,0-0.4-0.2
				c-0.1-0.2,0-0.3,0.2-0.4S773.2,1331,773.3,1331.2"/>
			<path id="path66-30" inkscape:connector-curvature="0" class="st15" d="M773.9,1332c0.1,0.2,0,0.3-0.2,0.4s-0.3,0-0.4-0.2
				c-0.1-0.2,0-0.3,0.2-0.4C773.6,1331.8,773.8,1331.9,773.9,1332"/>
			<path id="path68-7" inkscape:connector-curvature="0" class="st14" d="M762.2,1347.1c1.7-6.2-1.2-12.3-6.8-13.8
				c-5.5-1.5-11.6,2.2-13.3,8.4c-1.7,6.2,1.5,12.4,7,13.9C758.8,1358.1,760.5,1353.3,762.2,1347.1"/>
			<path id="path70-7" inkscape:connector-curvature="0" class="st16" d="M745.2,1348.5c0,0,8.6,0.2,15.7,3.7
				c-2.6,6.4-9.7,9.4-17.7,4c-9.5-6.4-0.3-18.8,3-21.4c0.7,3.4,0.3,7,0.3,7s-1.7-1.5-2.2,0.8c-0.3,1.6,1.9,1.1,1.9,1.1L745.2,1348.5
				"/>
			<path id="path72-2" inkscape:connector-curvature="0" class="st16" d="M745.2,1351.1c0,0-7.2,5.5-11.5,0.2
				c-5.7-6.9,7.4-13.1-1.2-18.4c6.6-2.6,11.6,3.8,7.4,9.2C733.8,1349.9,741.9,1352,745.2,1351.1"/>
			<path id="path74-2" inkscape:connector-curvature="0" class="st14" d="M750.6,1335v-4l2.2-4.9l2.1,4.9v4H750.6"/>
			<path id="path76-2" inkscape:connector-curvature="0" class="st12" d="M750.6,1331l-5.2-1.7l0.9-11.4l-1.8-5.7h15.9l-1.6,5.7
				l0.9,11.6l-4.8,1.4l-2.1-4.9L750.6,1331"/>
			<path id="path78-0" inkscape:connector-curvature="0" class="st9" d="M754.9,1331l0.9-0.3l-3.1-6.6l-3.1,6.6l1,0.3l2.2-4.9
				L754.9,1331"/>
			<path id="path80-3" inkscape:connector-curvature="0" class="st9" d="M750.6,1331l-1-0.3l-0.4-3.5l1.3,0.6l1.5-0.2L750.6,1331"/>
			<path id="path82-58" inkscape:connector-curvature="0" class="st9" d="M754.9,1331l0.9-0.3l0.4-3.6l-1.3,0.6l-1.5-0.3L754.9,1331
				"/>
			<path id="path84-30" inkscape:connector-curvature="0" class="st15" d="M753.4,1322.3c0-0.3-0.3-0.6-0.6-0.6s-0.6,0.3-0.6,0.6
				c0,0.3,0.3,0.6,0.6,0.6C753.1,1323,753.4,1322.7,753.4,1322.3"/>
			<path id="path86-6" inkscape:connector-curvature="0" class="st15" d="M753.4,1318.6c0-0.3-0.3-0.6-0.6-0.6s-0.6,0.3-0.6,0.6
				c0,0.3,0.3,0.6,0.6,0.6C753.1,1319.2,753.4,1318.9,753.4,1318.6"/>
			<path id="path88-4" inkscape:connector-curvature="0" class="st15" d="M753.4,1314.8c0-0.3-0.3-0.6-0.6-0.6s-0.6,0.3-0.6,0.6
				c0,0.3,0.3,0.6,0.6,0.6C753.2,1315.4,753.4,1315.2,753.4,1314.8"/>
			<path id="path90-32" inkscape:connector-curvature="0" class="st14" d="M730,1320.3c0,0-2.8,0-2.4,2.1c0.4,2.1,2.8,0.5,2.8,0.5
				L730,1320.3"/>
			<path id="path92-4" inkscape:connector-curvature="0" class="st9" d="M731,1322.8l-0.6,0.2l-0.4-2.8h0.7L731,1322.8"/>
			<path id="path94-1" inkscape:connector-curvature="0" class="st12" d="M748.5,1329.8c0,0-2.4-12.4-18.1-10l0.3,3.3
				c0,0,10.7-3,14.8,6.3L748.5,1329.8"/>
			<path id="path96-5" inkscape:connector-curvature="0" class="st15" d="M733.1,1319.9c-0.2,0-0.3,0.2-0.2,0.4
				c0,0.2,0.2,0.3,0.4,0.2c0.2,0,0.3-0.2,0.2-0.4C733.4,1320,733.2,1319.9,733.1,1319.9"/>
			<path id="path98-0" inkscape:connector-curvature="0" class="st15" d="M732,1320c-0.2,0-0.3,0.2-0.2,0.4c0,0.2,0.2,0.3,0.4,0.2
				c0.2,0,0.3-0.2,0.2-0.4C732.3,1320.1,732.2,1320,732,1320"/>
			<path id="path100-10" inkscape:connector-curvature="0" class="st15" d="M731,1320.1c-0.2,0-0.3,0.2-0.2,0.4
				c0,0.2,0.2,0.3,0.4,0.2c0.2,0,0.3-0.2,0.2-0.4C731.3,1320.2,731.2,1320.1,731,1320.1"/>
			<path id="path102-8" inkscape:connector-curvature="0" class="st17" d="M751.5,1286.7c-11,0-19.8,1.1-19.8,2.6
				c0,1.4,9,2.6,20.2,2.7c0.1,0,0.2,0,0.3,0c11,0,19.8-1.1,19.8-2.6c0-1.4-9-2.6-20.2-2.7C751.8,1286.7,751.6,1286.7,751.5,1286.7"
				/>
			<path id="path104-1" inkscape:connector-curvature="0" class="st14" d="M746.3,1310.8l-1.4-8.5l-8.8-1.2c0,0-2.2-4-0.6-4.9
				c1.8-1,2.1,3.1,2.1,3.1l9.5,0.2l3.4,10.5L746.3,1310.8"/>
			<path id="path106-9" inkscape:connector-curvature="0" class="st12" d="M736.1,1301.2l-2.8-0.9l0.1-0.4l1.6,0.1
				c0,0-1.3-1.6-0.6-3.9c1.1-3.6,3.1,1,3.2,3.2c0,0-0.2-2.9-1.4-2.3C734.5,1298.1,736.1,1301.2,736.1,1301.2"/>
			<path id="path108-4" inkscape:connector-curvature="0" class="st14" d="M754.2,1311.2l6-10.7l3-8.9c0,0,4.2-1.9,4.9-0.2
				c0.8,1.9-3.3,1.9-3.3,1.9l-2.2,8.2l-3.4,9.7H754.2"/>
			<path id="path110-3" inkscape:connector-curvature="0" class="st12" d="M763.2,1291.6l1.1-2.7l0.5,0.2l-0.3,1.4
				c0,0,1.6-1,3.8-0.1c3.5,1.4-1.2,3-3.5,2.9c0,0,3,0,2.4-1.2C766.4,1290.3,763.2,1291.6,763.2,1291.6"/>
			<path id="path112-7" inkscape:connector-curvature="0" class="st12" d="M761,1307.3l-16.2-0.9l1.1,6h13.5L761,1307.3"/>
			<path id="path114-6" inkscape:connector-curvature="0" class="st18" d="M745.6,1310.6l0.3,1.7l0,0L745.6,1310.6L745.6,1310.6"/>
			<path id="path116-7" inkscape:connector-curvature="0" class="st18" d="M759.6,1311.8l-0.2,0.5l0,0L759.6,1311.8L759.6,1311.8"/>
			<path id="path118-7" inkscape:connector-curvature="0" class="st19" d="M745.6,1310.6l0.3,1.7h13.5l0.2-0.5L745.6,1310.6"/>
			<path id="path120-2" inkscape:connector-curvature="0" class="st8" d="M727.9,1290.9c0,0.9-0.7,1.6-1.6,1.6c-0.1,0-0.1,0-0.2,0
				c-0.3,0.3-0.7,0.5-1.1,0.5c-0.9,0-1.6-0.7-1.6-1.6c0-0.3,0.1-0.6,0.3-0.9c-0.2-0.2-0.3-0.5-0.3-0.7c0-0.7,0.5-1.2,1.2-1.2
				c0.2,0,0.4,0,0.5,0.1c0.2-0.2,0.5-0.3,0.8-0.3c0.7,0,1.3,0.6,1.3,1.3C727.6,1289.9,727.9,1290.4,727.9,1290.9"/>
			<path id="path764-2" inkscape:connector-curvature="0" class="st20" d="M751.1,1344.7c0-1-0.3-1.6-0.8-1.6
				c-0.4,0-0.8,0.6-0.8,1.6s0.3,1.6,0.8,1.6C750.8,1346.2,751.1,1345.7,751.1,1344.7"/>
			<path id="path766-8-0" inkscape:connector-curvature="0" class="st20" d="M759.2,1346.1c0-1-0.3-1.6-0.8-1.6
				c-0.4,0-0.8,0.6-0.8,1.6s0.3,1.6,0.8,1.6C758.8,1347.7,759.2,1347.1,759.2,1346.1"/>
			<path id="path768-6" inkscape:connector-curvature="0" class="st21" d="M750.9,1339.4c-0.2-0.6,0.8-1.5,2.3-2
				c1.5-0.4,2.8-0.3,3,0.4L750.9,1339.4"/>
		</g>
	</g>
</g>
</svg>
