<?xml version="1.0" encoding="utf-8"?>
<!-- Generator: Adobe Illustrator 21.0.2, SVG Export Plug-In . SVG Version: 6.00 Build 0)  -->
<svg version="1.1"
	 id="svg2" inkscape:export-filename="C:\Users\sscerbatiuc\Desktop\Career levels-2\Final\CLevels.png" inkscape:export-xdpi="57.820419" inkscape:export-ydpi="57.820419" inkscape:version="0.91 r13725" sodipodi:docname="CLevels.svg" xmlns:cc="http://creativecommons.org/ns#" xmlns:dc="http://purl.org/dc/elements/1.1/" xmlns:inkscape="http://www.inkscape.org/namespaces/inkscape" xmlns:osb="http://www.openswatchbook.org/uri/2009/osb" xmlns:rdf="http://www.w3.org/1999/02/22-rdf-syntax-ns#" xmlns:sodipodi="http://sodipodi.sourceforge.net/DTD/sodipodi-0.dtd" xmlns:svg="http://www.w3.org/2000/svg"
	 xmlns="http://www.w3.org/2000/svg" xmlns:xlink="http://www.w3.org/1999/xlink" x="0px" y="0px" viewBox="0 0 462.8 557.4"
	 style="enable-background:new 0 0 462.8 557.4;" xml:space="preserve">
<style type="text/css">
	.st0{opacity:0.8667;fill:#FF6500;enable-background:new    ;}
	.st1{fill:#44281E;}
	.st2{fill:#36221A;}
	.st3{fill:#FBD8B5;}
	.st4{fill:#F8F8F8;}
	.st5{fill:#DEDDDB;}
	.st6{fill:#799887;}
	.st7{fill:#3A383A;}
	.st8{fill:#52423B;}
	.st9{fill:#FBD6B1;}
	.st10{fill:#2E2D2D;}
	.st11{fill:#7A7B7C;}
	.st12{fill:#EC6180;}
	.st13{fill:#81A992;}
	.st14{fill:#2A2928;}
</style>
<sodipodi:namedview  bordercolor="#666666" borderopacity="1" gridtolerance="10" guidetolerance="10" id="namedview4" inkscape:current-layer="g10" inkscape:cx="1367.7272" inkscape:cy="1109.7718" inkscape:guide-bbox="true" inkscape:pageopacity="1" inkscape:pageshadow="2" inkscape:window-height="1017" inkscape:window-maximized="1" inkscape:window-width="1920" inkscape:window-x="-8" inkscape:window-y="-8" inkscape:zoom="0.35355339" objecttolerance="10" pagecolor="#ffffff" showgrid="true" showguides="true" units="mm">
	<inkscape:grid  enabled="true" id="grid5839" spacingx="19.5" spacingy="19.6" type="xygrid" visible="false"></inkscape:grid>
	<sodipodi:guide  id="guide6375" orientation="0,2979.9213" position="0,1300.79122199"></sodipodi:guide>
	<sodipodi:guide  id="guide6377" orientation="0,2979.9213" position="0,803.933187455"></sodipodi:guide>
	<sodipodi:guide  id="guide6379" orientation="2104.7244,0" position="1841.69262237,0"></sodipodi:guide>
	<sodipodi:guide  id="guide6381" orientation="2104.7244,0" position="1138.22863746,0"></sodipodi:guide>
	<sodipodi:guide  id="guide8954" orientation="0,1" position="868.85748,1079.045"></sodipodi:guide>
	<sodipodi:guide  id="guide8956" orientation="0,1" position="2086.5,1807.4534"></sodipodi:guide>
	<sodipodi:guide  id="guide8958" orientation="0,1" position="2275.8232,1803.2"></sodipodi:guide>
	<sodipodi:guide  id="guide8960" orientation="0,1" position="2345.5,1776.5"></sodipodi:guide>
	<sodipodi:guide  id="guide8962" orientation="0,1" position="1493.75,1749.25"></sodipodi:guide>
	<sodipodi:guide  id="guide8964" orientation="0,1" position="916.5,1724.8"></sodipodi:guide>
</sodipodi:namedview>
<defs>
	
	
		<inkscape:perspective  id="perspective4983" inkscape:persp3d-origin="1489.9606 : 701.5748 : 1" inkscape:vp_x="0 : 1052.3622 : 1" inkscape:vp_y="0 : 1000 : 0" inkscape:vp_z="2979.9212 : 1052.3622 : 1" sodipodi:type="inkscape:persp3d">
		</inkscape:perspective>
</defs>
<g id="g10" transform="matrix(1.25,0,0,-1.25,0,2104.7244)" inkscape:groupmode="layer" inkscape:label="10520-NMWDEW">
	<g id="g9240">
		<g>
			<g id="path56_1_" inkscape:connector-curvature="0" sodipodi:nodetypes="cccccc">
				<polygon class="st0" points="369.4,1616.5 369.2,1237.7 0,1237.9 0.1,1616.5 184.8,1683.8 				"/>
			</g>
			<g id="g6074_1_" transform="matrix(1.0240894,0,0,1.0240863,-34.434237,-2.664874)">
				<g id="g5862_1_" transform="matrix(0.94880496,0,0,0.94880496,73.238377,58.277975)">
					<path id="path16-8_1_" inkscape:connector-curvature="0" class="st1" d="M2.9,1497.9c0-5.9-5-10.8-11.1-10.7H-11
						c-0.5,0-1-0.4-1-0.9l-0.1-8c0-1,0.8-1.8,1.9-1.8c1,0,1.9,0.8,1.9,1.8v3.5c9.2-0.1,16.7,7.2,16.8,16.1H2.9"/>
					<path id="path18-1_1_" inkscape:connector-curvature="0" class="st2" d="M4.8,1487.7c-0.9,1.7-2.1,3.2-3.6,4.5
						c-1-1.6-2.4-2.9-4.1-3.7c1.4-1.2,2.6-2.7,3.3-4.5C2,1485,3.5,1486.2,4.8,1487.7"/>
					<path id="path20-1_1_" inkscape:connector-curvature="0" class="st3" d="M-1.2,1539c10.5,0,19.1-8.3,19.1-18.6v-10.8h-38.2
						v10.8C-20.3,1530.7-11.7,1539-1.2,1539"/>
					<path id="path22-4_1_" inkscape:connector-curvature="0" class="st1" d="M-9.3,1491.6c6.1,0,11.1-4.8,11.1-10.8v-2.7
						c0-0.5,0.4-0.9,1-0.9H11c1,0,1.9,0.8,1.9,1.8s-0.8,1.8-1.9,1.8H7.3c0,9-7.5,16.2-16.7,16.2v-5.4"/>
					<path id="path24-8_1_" inkscape:connector-curvature="0" class="st4" d="M-20.3,1509.6V1493c0-0.9,0.7-1.6,1.7-1.6h34.9
						c0.9,0,1.7,0.7,1.7,1.6v16.5L-20.3,1509.6"/>
					<path id="path26-5_1_" inkscape:connector-curvature="0" class="st1" d="M1.1,1509.6h6.7l-2.4-2.3l2.4-11.7l-3.4-3l-3.4,3
						l2.4,11.7L1.1,1509.6"/>
					<path id="path28-7_1_" inkscape:connector-curvature="0" class="st4" d="M17.9,1504.1h2.3v5.5h-2.3V1504.1z"/>
					<path id="path30-34_1_" inkscape:connector-curvature="0" class="st1" d="M-4,1519.4c0.4,0,0.6,0.3,0.6,0.6
						c0,0.6,0.5,1.1,1.2,1.1c0.6,0,1.2-0.5,1.2-1.1c0-0.3,0.3-0.6,0.6-0.6c0.4,0,0.6,0.3,0.6,0.6c0,1.3-1.1,2.4-2.5,2.4
						s-2.5-1.1-2.5-2.4C-4.7,1519.7-4.4,1519.4-4,1519.4L-4,1519.4"/>
					<path id="path32-4_1_" inkscape:connector-curvature="0" class="st1" d="M11.3,1519.4c0.4,0,0.6,0.3,0.6,0.6
						c0,0.6,0.5,1.1,1.2,1.1c0.6,0,1.2-0.5,1.2-1.1c0-0.3,0.3-0.6,0.6-0.6c0.4,0,0.6,0.3,0.6,0.6c0,1.3-1.1,2.4-2.5,2.4
						s-2.5-1.1-2.5-2.4C10.7,1519.7,11,1519.4,11.3,1519.4L11.3,1519.4"/>
					<path id="path34-78_1_" inkscape:connector-curvature="0" class="st1" d="M1.5,1519.2c0,0.1,0.1,0.2,0.3,0.2h7.4
						c0.1,0,0.2-0.1,0.3-0.2l0,0l0,0c-0.2-2-1.9-3.6-4-3.6S1.6,1517.1,1.5,1519.2L1.5,1519.2L1.5,1519.2"/>
					<path id="path36-41_1_" inkscape:connector-curvature="0" class="st3" d="M-21,1509.6v-5.5c-6.2,0-11.2-4.9-11.2-10.9
						c0-1.5-1.3-2.7-2.8-2.7s-2.8,1.2-2.8,2.7C-37.9,1502.2-30.3,1509.6-21,1509.6"/>
					<path id="path38-7_1_" inkscape:connector-curvature="0" class="st3" d="M20.2,1504.1v5.5c6.2,0,11.2,4.9,11.2,10.9
						c0,1.5,1.3,2.7,2.8,2.7s2.8-1.2,2.8-2.7C37.1,1511.4,29.5,1504.1,20.2,1504.1"/>
					<path id="path40-42_1_" inkscape:connector-curvature="0" class="st5" d="M-20.3,1504.1h4.3l-4.3-2.5V1504.1"/>
					<path id="path42-1_1_" inkscape:connector-curvature="0" class="st4" d="M-21,1504.1h0.8v5.5H-21V1504.1z"/>
					<path id="path44-7_1_" inkscape:connector-curvature="0" class="st5" d="M17.9,1509.6l1.5-5.5h-1.5V1509.6"/>
					<path id="path46-29_1_" inkscape:connector-curvature="0" class="st1" d="M13.6,1546c-0.1,0-0.2,0-0.3,0c0.1-0.3,0.2-0.6,0.2-1
						c0-1.3-1-2.3-2.3-2.3H-6.3c-7.7,0-14-6.1-14-13.6v-19.6c5.5,0,9.9,4.2,10.2,9.4v8.7c0,0.8,0.7,1.5,1.5,1.5c0,0,22,0,22.1,0
						c4.8,0,8.7,3.8,8.7,8.4C22.3,1542.3,18.4,1546,13.6,1546"/>
					<path id="path48-53_1_" inkscape:connector-curvature="0" class="st3" d="M-8.1,1519.9c0,1.5-1.2,2.6-2.7,2.6s-2.7-1.2-2.7-2.6
						c0-1.5,1.2-2.6,2.7-2.6S-8.1,1518.4-8.1,1519.9"/>
					<path id="path50-48_1_" inkscape:connector-curvature="0" class="st2" d="M-7.1,1491.4c1-0.2,2-0.6,2.9-1H6.6
						c0.2,0.3,0.4,0.7,0.5,1H-7.1"/>
					<path id="path52-545_1_" inkscape:connector-curvature="0" class="st6" d="M-33.9,1462.7c0.1,8.7,7.3,15.8,16.3,15.9
						c0.7,0,0.7,1,0,1c-4.6,0-9-1.8-12.2-4.9s-5-7.5-5.1-11.9C-35,1462.1-34,1462.1-33.9,1462.7L-33.9,1462.7"/>
					<path id="path54-39_1_" inkscape:connector-curvature="0" class="st6" d="M-22.3,1475.8c-3.9-1.4-7-4.2-8.6-8
						c-0.2-0.6,0.7-0.8,1-0.3c1.4,3.4,4.3,6.1,7.9,7.3C-21.4,1475.1-21.6,1476-22.3,1475.8L-22.3,1475.8"/>
					<path id="path56-93_1_" inkscape:connector-curvature="0" class="st6" d="M-22,1482c-7-1.5-12.7-6.6-15-13.3
						c-0.2-0.6,0.8-0.9,1-0.3c2.1,6.3,7.6,11.1,14.2,12.6C-21.1,1481.2-21.4,1482.2-22,1482L-22,1482"/>
				</g>
				<path id="path58-4_1_" inkscape:connector-curvature="0" class="st7" d="M129.9,1490.8l-4,4c-0.3,0.3-0.7,0.5-1.1,0.5
					s-0.8-0.1-1-0.4c-0.1-0.1-0.2-0.1-0.2-0.2l-3.8-3.9c-0.5-0.5-0.6-1.1-0.4-1.7c0.3-0.6,0.9-1.1,1.6-1.1c0.4,0,0.8,0.2,1.1,0.5
					l1.2,1.2v-15.4H98.6c-0.4,0-0.8-0.1-1.1-0.4c-0.4-0.3-0.6-0.7-0.6-1.2V1458H68.7c-0.4,0-0.8-0.1-1.1-0.4
					c-0.4-0.3-0.6-0.7-0.6-1.2v-14.7H38c-0.4,0-0.8-0.1-1.1-0.4c-0.4-0.3-0.6-0.7-0.6-1.2v-12.8h3.2v11.1h29.1
					c0.9,0,1.6,0.8,1.6,1.6v14.7h28.2c0.9,0,1.6,0.8,1.6,1.6v14.7h24.5c0.9,0,1.6,0.8,1.6,1.6v17l1.2-1.2c0.3-0.3,0.7-0.5,1.1-0.5
					l0,0c0.6,0,1.3,0.5,1.5,1.1C130.5,1489.7,130.3,1490.3,129.9,1490.8"/>
			</g>
			<g id="g6376_1_" transform="matrix(1,0,0,0.94962059,0,68.825455)">
				<path id="path28-92_1_" inkscape:connector-curvature="0" class="st8" d="M235.2,1398.5l5.4,7.7c0.4,0.6,1,0.9,1.6,0.9
					c0.5,0,1-0.3,1.4-0.7c0.1-0.1,0.2-0.3,0.3-0.4l5.3-7.4c0.6-0.9,0.8-2.1,0.5-3.3c-0.4-1.2-1.2-2.1-2.1-2.1
					c-0.6,0-1.1,0.3-1.5,0.9l-1.6,2.3v-31.5h33.8c0.6,0,1.1-0.3,1.5-0.8c0.5-0.6,0.8-1.4,0.8-2.4v-30.2h38.9c0.6,0,1.1-0.3,1.5-0.8
					c0.5-0.6,0.8-1.4,0.8-2.4v-30.2h40c0.6,0,1.1-0.3,1.5-0.8c0.5-0.6,0.8-1.4,0.8-2.4v-26.5h-4.5v23.4h-40c-1.2,0-2.2,1.4-2.2,3.1
					v30.2h-38.9c-1.2,0-2.2,1.4-2.2,3.1v30.2h-33.8c-1.2,0-2.2,1.4-2.2,3.1v34.6l-1.6-2.3c-0.4-0.6-1-0.9-1.5-0.9l0,0
					c-0.9,0-1.8,0.9-2.1,2.1C234.4,1396.4,234.6,1397.6,235.2,1398.5"/>
				<g id="g6339_1_" transform="translate(0,6.4)">
					<g id="g5752_1_" transform="matrix(1.5432537,0,0,1.5432537,-1022.9695,-778.68056)">
						<path id="path30-7_1_" inkscape:connector-curvature="0" class="st9" d="M838.4,1426.5c0,0-1.5,2.1,0.2,2.9
							c1.8,0.8,1.9-1.8,1.9-1.8L838.4,1426.5"/>
						<path id="path32-74_1_" inkscape:connector-curvature="0" class="st4" d="M840.9,1427.1l-0.2,0.6l-2.5-0.9l0.2-0.6
							L840.9,1427.1"/>
						<path id="path34-79_1_" inkscape:connector-curvature="0" class="st10" d="M853.5,1419.9c0,0-10.8-7.4-15.3,6.5l2.8,1.1
							c0,0,2.2-10,10-6.2L853.5,1419.9"/>
						<path id="path36-21_1_" inkscape:connector-curvature="0" class="st11" d="M839,1425.1c0,0.1,0.1,0.3,0.2,0.3
							c0.1,0,0.3-0.1,0.3-0.2s-0.1-0.3-0.2-0.3C839.2,1424.8,839.1,1424.9,839,1425.1"/>
						<path id="path38-49_1_" inkscape:connector-curvature="0" class="st11" d="M838.7,1425.9c0,0.1,0.1,0.3,0.2,0.3
							c0.1,0,0.3-0.1,0.3-0.2s-0.1-0.3-0.2-0.3C838.9,1425.7,838.7,1425.8,838.7,1425.9"/>
						<path id="path40-43_1_" inkscape:connector-curvature="0" class="st9" d="M850.3,1434.3c-1.2-5.7,1.8-11.2,7-12.3
							c5.2-1.1,10.6,2.7,11.7,8.4c1.2,5.7-2.1,11.3-7.2,12.3C852.9,1444.6,851.5,1440.1,850.3,1434.3"/>
						<path id="path42-65_1_" inkscape:connector-curvature="0" class="st8" d="M865.9,1436.6c0,0-8.5-0.3-15.3,2.5
							c2,6,8.9,9.2,16.6,4.7c9.1-5.4,1.4-17.2-1.5-19.8c-0.9,3.1-0.7,6.4-0.7,6.4s1.7-1.3,2,0.9c0.2,1.5-1.8,0.9-1.8,0.9
							L865.9,1436.6"/>
						<path id="path44-6_1_" inkscape:connector-curvature="0" class="st8" d="M865.7,1439c0,0,6.3,5.4,10.6,0.9
							c5.7-6-6.1-12.4,2.2-16.8c-5.9-2.8-10.9,2.8-7.3,8C876.3,1438.5,868.7,1440,865.7,1439"/>
						<path id="path46-7_1_" inkscape:connector-curvature="0" class="st8" d="M860.5,1432.2c-0.2-0.9,0-1.4,0.4-1.5
							s0.7,0.3,0.9,1.2c0.2,0.9,0,1.4-0.4,1.5C861.1,1433.5,860.7,1433.1,860.5,1432.2"/>
						<path id="path48-0_1_" inkscape:connector-curvature="0" class="st8" d="M852.1,1434c-0.2-0.9,0-1.4,0.4-1.5s0.7,0.3,0.9,1.2
							c0.2,0.9,0,1.4-0.4,1.5C852.7,1435.2,852.3,1434.8,852.1,1434"/>
						<path id="path50-24_1_" inkscape:connector-curvature="0" class="st12" d="M858.7,1427.7c-0.3-1.3-1.5-2.1-2.8-1.9
							s-2.1,1.5-1.9,2.8L858.7,1427.7"/>
						<path id="path52-9_1_" inkscape:connector-curvature="0" class="st9" d="M860.2,1424.4l-0.7-3.6l-2.8-4l-1,4.8l0.7,3.6
							L860.2,1424.4"/>
						<path id="path54-02_1_" inkscape:connector-curvature="0" class="st10" d="M859.4,1420.8l4.4-2.4l-2.9-10.1l0.6-5.4l-14.3,2.9
							l2.5,4.8l1.4,10.6l4.6,0.4l1-4.8L859.4,1420.8"/>
						<path id="path56-28_1_" inkscape:connector-curvature="0" class="st4" d="M855.6,1421.6l-0.9-0.1l1.6-6.5l4,5.4l-0.8,0.5
							l-2.8-4L855.6,1421.6"/>
						<path id="path58-6_1_" inkscape:connector-curvature="0" class="st4" d="M859.4,1420.8l0.8-0.5l-0.3-3.3l-1.1,0.8l-1.4,0.1
							L859.4,1420.8"/>
						<path id="path60-11_1_" inkscape:connector-curvature="0" class="st4" d="M855.6,1421.6l-0.9-0.1l-1-3.1l1.3,0.3l1.3-0.5
							L855.6,1421.6"/>
						<path id="path62-6_1_" inkscape:connector-curvature="0" class="st11" d="M855.3,1413.5c-0.1-0.3,0.1-0.6,0.4-0.7
							c0.3-0.1,0.6,0.1,0.7,0.4c0.1,0.3-0.1,0.6-0.4,0.7C855.7,1414,855.4,1413.8,855.3,1413.5"/>
						<path id="path64-698_1_" inkscape:connector-curvature="0" class="st11" d="M854.6,1410.1c-0.1-0.3,0.1-0.6,0.4-0.7
							c0.3-0.1,0.6,0.1,0.7,0.4c0.1,0.3-0.1,0.6-0.4,0.7C855,1410.6,854.7,1410.4,854.6,1410.1"/>
						<path id="path66-2_1_" inkscape:connector-curvature="0" class="st11" d="M853.9,1406.7c-0.1-0.3,0.1-0.6,0.4-0.7
							c0.3-0.1,0.6,0.1,0.7,0.4c0.1,0.3-0.1,0.6-0.4,0.7S854,1407,853.9,1406.7"/>
						<path id="path68-3_1_" inkscape:connector-curvature="0" class="st9" d="M875.7,1411.3c0,0,2.6,0.4,1.8,2.2
							c-0.7,1.8-2.6,0-2.6,0L875.7,1411.3"/>
						<path id="path70-3_1_" inkscape:connector-curvature="0" class="st4" d="M874.5,1413.4l0.6,0.3l0.8-2.5l-0.6-0.1L874.5,1413.4
							"/>
						<path id="path72-3_1_" inkscape:connector-curvature="0" class="st10" d="M861.2,1419.3c0,0,0.4-13,14.3-8.5l-0.8,2.9
							c0,0-8.9-4.5-10.9,4.6L861.2,1419.3"/>
						<path id="path74-20_1_" inkscape:connector-curvature="0" class="st11" d="M873.9,1410.7c0.1,0.1,0.2,0.2,0.1,0.4
							c-0.1,0.1-0.2,0.2-0.4,0.1c-0.1-0.1-0.2-0.2-0.1-0.4C873.6,1410.7,873.8,1410.7,873.9,1410.7"/>
						<path id="path76-41_1_" inkscape:connector-curvature="0" class="st11" d="M874.8,1411c0.1,0.1,0.2,0.2,0.1,0.4
							c-0.1,0.1-0.2,0.2-0.4,0.1c-0.1-0.1-0.2-0.2-0.1-0.4C874.5,1411,874.7,1410.9,874.8,1411"/>
						<path id="path78-3_1_" inkscape:connector-curvature="0" class="st9" d="M859.6,1401.4l0.5-7.9l7.9-1.8c0,0,1.7-3.9,0.2-4.5
							c-1.7-0.8-1.7,3-1.7,3l-8.7,1l-2.2,9.9L859.6,1401.4"/>
						<path id="path80-8_1_" inkscape:connector-curvature="0" class="st10" d="M868,1391.7l2.5-1l-0.1-0.4l-1.5,0.3
							c0,0,1.1-1.5,0.2-3.6c-1.3-3.2-2.8,1.1-2.6,3.2c0,0,0-2.7,1.1-2.2C869.3,1388.7,868,1391.7,868,1391.7"/>
						<path id="path82-8_1_" inkscape:connector-curvature="0" class="st9" d="M852.4,1403.1l-7.9-8l-4.9-7.1c0,0-4.2-0.6-4.4,1
							c-0.3,1.9,3.4,0.9,3.4,0.9l4,6.7l5.5,7.7L852.4,1403.1"/>
						<path id="path84-39_1_" inkscape:connector-curvature="0" class="st10" d="M839.5,1388l-1.6-2.1l-0.4,0.3l0.6,1.2
							c0,0-1.6-0.5-3.4,0.9c-2.8,2.1,1.8,2.4,3.8,1.7c0,0-2.6,0.7-2.4-0.4C836.4,1387.6,839.5,1388,839.5,1388"/>
						<path id="path86-33_1_" inkscape:connector-curvature="0" class="st10" d="M845.7,1401.3l14.4-3.8l0.1,5.6l-12.2,2.5
							L845.7,1401.3"/>
						<path id="path88-63_1_" inkscape:connector-curvature="0" class="st13" d="M860.2,1401.5v1.6V1401.5L860.2,1401.5
							 M847.8,1405.2l0.2,0.4l0,0L847.8,1405.2L847.8,1405.2"/>
						<path id="path90-5_1_" inkscape:connector-curvature="0" class="st14" d="M860.2,1401.5v1.6l-12.2,2.5l-0.2-0.4L860.2,1401.5"
							/>
						<path id="path92-43_1_" inkscape:connector-curvature="0" class="st4" d="M896.8,1355.8L896.8,1355.8c0.2,0,0.4,0.2,0.4,0.4
							c0,0,0,0.4-0.1,1.2c0,0.2-0.2,0.4-0.4,0.3c-0.2,0-0.4-0.2-0.3-0.4c0.1-0.7,0.1-1.1,0.1-1.1
							C896.5,1356,896.6,1355.8,896.8,1355.8"/>
						<path id="path94-4_1_" inkscape:connector-curvature="0" class="st4" d="M879.5,1384.5c0.1,0,0.3,0.1,0.3,0.2
							c0.1,0.2,0,0.4-0.1,0.5c-0.7,0.4-1.3,0.7-2,1.1c-0.2,0.1-0.4,0-0.5-0.2s0-0.4,0.2-0.5C878.1,1385.3,878.7,1384.9,879.5,1384.5
							C879.4,1384.5,879.4,1384.5,879.5,1384.5L879.5,1384.5z M883.2,1382c0.1,0,0.2,0.1,0.3,0.1c0.1,0.2,0.1,0.4-0.1,0.5
							c-0.6,0.5-1.2,0.9-1.9,1.3c-0.2,0.1-0.4,0.1-0.5-0.1s-0.1-0.4,0.1-0.5c0.6-0.4,1.2-0.8,1.8-1.3
							C883.1,1382.1,883.2,1382,883.2,1382L883.2,1382z M886.6,1379.1c0.1,0,0.2,0,0.3,0.1s0.1,0.4,0,0.5c-0.5,0.5-1.1,1.1-1.7,1.6
							c-0.2,0.1-0.4,0.1-0.5,0c-0.1-0.2-0.1-0.4,0-0.5c0.6-0.5,1.1-1,1.6-1.5C886.4,1379.1,886.5,1379.1,886.6,1379.1L886.6,1379.1z
							 M889.6,1375.7c0.1,0,0.2,0,0.2,0.1c0.2,0.1,0.2,0.4,0.1,0.5c-0.5,0.6-0.9,1.2-1.4,1.8c-0.1,0.2-0.4,0.2-0.5,0
							c-0.2-0.1-0.2-0.4,0-0.5c0.5-0.6,1-1.1,1.4-1.7C889.3,1375.7,889.4,1375.7,889.6,1375.7L889.6,1375.7z M892,1371.9
							c0.1,0,0.1,0,0.2,0c0.2,0.1,0.2,0.3,0.1,0.5c-0.4,0.7-0.8,1.3-1.2,1.9c-0.1,0.2-0.3,0.2-0.5,0.1s-0.2-0.3-0.1-0.5
							c0.4-0.6,0.8-1.3,1.2-1.9C891.8,1372,891.9,1371.9,892,1371.9z M894,1367.8L894,1367.8c0.3,0.1,0.4,0.3,0.3,0.5
							c-0.3,0.7-0.6,1.4-0.9,2.1c-0.1,0.2-0.3,0.3-0.5,0.2c-0.2-0.1-0.3-0.3-0.2-0.5c0.3-0.7,0.6-1.3,0.9-2
							C893.7,1367.9,893.8,1367.9,894,1367.8L894,1367.8z M895.5,1363.6L895.5,1363.6c0.3,0.1,0.4,0.3,0.4,0.5
							c-0.2,0.7-0.4,1.5-0.7,2.2c-0.1,0.2-0.3,0.3-0.5,0.2c-0.2-0.1-0.3-0.3-0.2-0.5c0.2-0.7,0.5-1.4,0.7-2.1
							C895.1,1363.7,895.3,1363.6,895.5,1363.6L895.5,1363.6z M896.5,1359.2L896.5,1359.2c0.3,0,0.4,0.2,0.4,0.4
							c-0.1,0.7-0.3,1.5-0.4,2.2c0,0.2-0.2,0.3-0.5,0.3c-0.2,0-0.3-0.2-0.3-0.5c0.2-0.7,0.3-1.5,0.4-2.2
							C896.1,1359.3,896.3,1359.2,896.5,1359.2"/>
						<path id="path96-56_1_" inkscape:connector-curvature="0" class="st4" d="M875.4,1386.5c0.1,0,0.3,0.1,0.4,0.2
							c0.1,0.2,0,0.4-0.2,0.5c-0.4,0.1-0.7,0.3-1.1,0.4c-0.2,0.1-0.4,0-0.5-0.2s0-0.4,0.2-0.5c0.3-0.1,0.7-0.3,1-0.4
							C875.3,1386.5,875.4,1386.5,875.4,1386.5"/>
					</g>
				</g>
			</g>
		</g>
	</g>
</g>
</svg>
