<?xml version="1.0" encoding="utf-8"?>
<!-- Generator: Adobe Illustrator 21.0.2, SVG Export Plug-In . SVG Version: 6.00 Build 0)  -->
<svg version="1.1"
	 id="svg2" inkscape:export-filename="C:\Users\sscerbatiuc\Desktop\Career levels-2\Final\CLevels.png" inkscape:export-xdpi="57.820419" inkscape:export-ydpi="57.820419" inkscape:version="0.91 r13725" sodipodi:docname="CLevels.svg" xmlns:cc="http://creativecommons.org/ns#" xmlns:dc="http://purl.org/dc/elements/1.1/" xmlns:inkscape="http://www.inkscape.org/namespaces/inkscape" xmlns:osb="http://www.openswatchbook.org/uri/2009/osb" xmlns:rdf="http://www.w3.org/1999/02/22-rdf-syntax-ns#" xmlns:sodipodi="http://sodipodi.sourceforge.net/DTD/sodipodi-0.dtd" xmlns:svg="http://www.w3.org/2000/svg"
	 xmlns="http://www.w3.org/2000/svg" xmlns:xlink="http://www.w3.org/1999/xlink" x="0px" y="0px" viewBox="0 0 462.4 579.6"
	 style="enable-background:new 0 0 462.4 579.6;" xml:space="preserve">
<style type="text/css">
	.st0{opacity:0.8667;fill:#E83600;enable-background:new    ;}
	.st1{fill:#F5F5F5;}
	.st2{fill:#FBD6B1;}
	.st3{fill:#3B393D;}
	.st4{fill:#4F463B;}
	.st5{fill:#52423B;}
	.st6{fill:#EC6180;}
	.st7{fill:#7A7B7C;}
	.st8{fill:#2F2D2F;}
	.st9{fill:#6A5F50;}
	.st10{fill:#BB4620;}
	.st11{fill:#FBC545;}
	.st12{fill:#FDFCD9;}
	.st13{fill:#A8CCB2;}
	.st14{fill:#91A3A8;}
	.st15{fill:#78919C;}
	.st16{fill:#708A94;}
	.st17{fill:#9CADB2;}
	.st18{fill:#4B6B7D;}
	.st19{fill:#C83523;}
	.st20{fill:#BB3122;}
	.st21{fill:#D5DEDF;}
	.st22{fill:#F8F8F8;}
	.st23{fill:#FBD8B5;}
	.st24{fill:#211C1D;}
	.st25{fill:#6E8A97;}
	.st26{fill:#DFDFDD;}
	.st27{fill:#233B4C;}
	.st28{fill:#AEBCBF;}
	.st29{fill:#F9A72C;}
</style>
<sodipodi:namedview  bordercolor="#666666" borderopacity="1" gridtolerance="10" guidetolerance="10" id="namedview4" inkscape:current-layer="g10" inkscape:cx="1367.7272" inkscape:cy="1109.7718" inkscape:guide-bbox="true" inkscape:pageopacity="1" inkscape:pageshadow="2" inkscape:window-height="1017" inkscape:window-maximized="1" inkscape:window-width="1920" inkscape:window-x="-8" inkscape:window-y="-8" inkscape:zoom="0.35355339" objecttolerance="10" pagecolor="#ffffff" showgrid="true" showguides="true" units="mm">
	<inkscape:grid  enabled="true" id="grid5839" spacingx="19.5" spacingy="19.6" type="xygrid" visible="false"></inkscape:grid>
	<sodipodi:guide  id="guide6375" orientation="0,2979.9213" position="0,1300.79122199"></sodipodi:guide>
	<sodipodi:guide  id="guide6377" orientation="0,2979.9213" position="0,803.933187455"></sodipodi:guide>
	<sodipodi:guide  id="guide6379" orientation="2104.7244,0" position="1841.69262237,0"></sodipodi:guide>
	<sodipodi:guide  id="guide6381" orientation="2104.7244,0" position="1138.22863746,0"></sodipodi:guide>
	<sodipodi:guide  id="guide8954" orientation="0,1" position="868.85748,1079.045"></sodipodi:guide>
	<sodipodi:guide  id="guide8956" orientation="0,1" position="2086.5,1807.4534"></sodipodi:guide>
	<sodipodi:guide  id="guide8958" orientation="0,1" position="2275.8232,1803.2"></sodipodi:guide>
	<sodipodi:guide  id="guide8960" orientation="0,1" position="2345.5,1776.5"></sodipodi:guide>
	<sodipodi:guide  id="guide8962" orientation="0,1" position="1493.75,1749.25"></sodipodi:guide>
	<sodipodi:guide  id="guide8964" orientation="0,1" position="916.5,1724.8"></sodipodi:guide>
</sodipodi:namedview>
<defs>
	
	
		<inkscape:perspective  id="perspective4983" inkscape:persp3d-origin="1489.9606 : 701.5748 : 1" inkscape:vp_x="0 : 1052.3622 : 1" inkscape:vp_y="0 : 1000 : 0" inkscape:vp_z="2979.9212 : 1052.3622 : 1" sodipodi:type="inkscape:persp3d">
		</inkscape:perspective>
</defs>
<g id="g10" transform="matrix(1.25,0,0,-1.25,0,2104.7244)" inkscape:groupmode="layer" inkscape:label="10520-NMWDEW">
	<g id="g9453">
		<g>
			<g id="g58_1_" transform="matrix(-2.3087714,8.5504563e-4,-8.1501452e-4,-2.4825087,2349.1847,862.80719)">
				<g id="path60_1_" inkscape:connector-curvature="0" sodipodi:nodetypes="cccccc">
					<polygon class="st0" points="857.6,-143.6 857.6,-303.3 937.6,-330.4 1017.6,-303.2 1017.6,-143.6 					"/>
				</g>
			</g>
			<g id="g8966_1_" transform="matrix(1,0,0,0.99999656,0,23.204272)">
				<g id="g5828_1_" transform="matrix(0.82041123,0,0,0.82041123,347.46807,230.20071)">
					<g id="g8156_1_" transform="matrix(-0.16675949,0,0,0.16675949,2345.6884,1055.6389)">
						<path id="path94_1_" inkscape:connector-curvature="0" class="st1" d="M15972.3,3331.6l-4.7,1.7l-3-24.5l4.9-0.2
							L15972.3,3331.6"/>
						<g id="g8120_1_" transform="translate(-1.2711864,0.10593225)">
							<path id="path32-9_1_" inkscape:connector-curvature="0" class="st2" d="M15880.4,3356.9c0,0-20.7,6.5-12.8,20.5
								c7.9,14.1,21.6-2.9,21.6-2.9L15880.4,3356.9"/>
							<g id="g8086_1_" transform="translate(37.153068,-11.385618)">
								<g id="g7927_1_" transform="translate(-0.75842103,1.9428305)">
									<path id="path24-3_1_" inkscape:connector-curvature="0" class="st2" d="M15986,3301.5l-21.3-56.9l-4.4-63.3
										c0,0-22.9-16.9-29.6-8c-7.6,10.2,17.4,15.8,17.4,15.8l0.5,59.4l13.3,58.2L15986,3301.5"/>
									<path id="path26_1_" inkscape:connector-curvature="0" class="st2" d="M16023.9,3287.6l-20.6-57.2l-3.4-60.6
										c0,0-22.8-17.2-29.5-8.3c-7.7,10.1,17.2,16,17.2,16l-0.5,56.6l12.6,58.3L16023.9,3287.6"/>
									<path id="path28-2_1_" inkscape:connector-curvature="0" class="st3" d="M15960.3,3181.2l-3-18.1l-3.2,0.5l-0.3,8.9
										c0,0-8.2-8.2-23.1-5.8c-23.5,3.9,3.3,20.2,17.5,22.2c0,0-18-4-13.1-10.4C15942.6,3168.7,15960.3,3181.2,15960.3,3181.2"/>
									<path id="path30_1_" inkscape:connector-curvature="0" class="st3" d="M16000,3169.8l-2.8-18.1l-3.2,0.5l-0.4,8.9
										c0,0-8.1-8.3-23.1-6c-23.5,3.6,3.1,20.2,17.2,22.4c0,0-18-4.2-13-10.5C15982.4,3157.1,16000,3169.8,16000,3169.8"/>
									<path id="path36-2_1_" inkscape:connector-curvature="0" class="st3" d="M15973.8,3418c0,0-17.9-107.3-127.6-54.7l9.6,23.2
										c0,0,68.7-47.1,95.2,26.3L15973.8,3418"/>
									<path id="path42_1_" inkscape:connector-curvature="0" class="st4" d="M15835.9,3397.7l15.6-3.9l-13-34.4l217.1-21.7
										l1.2-3.3l-230.1,15.9L15835.9,3397.7"/>
									<path id="path44-3_1_" inkscape:connector-curvature="0" class="st2" d="M15926.1,3504.9c2.2-40.9,32.2-72.5,69-70.5
										s66.4,36.8,64.2,77.7c-2.2,40.9-33.8,72.4-70.6,70.4C15924.9,3579,15923.9,3545.7,15926.1,3504.9"/>
									<path id="path46_1_" inkscape:connector-curvature="0" class="st5" d="M16027,3547.9c0,0-52.9-16.1-103.3-9
										c2.8,44.1,40,76.9,99.4,60c70.6-20.1,39.8-113.5,24.5-136.1c-11.4,19.4-16.1,42.2-16.1,42.2s13.6-5.7,11.7,9.5
										c-1.3,10.4-13.7,3-13.7,3L16027,3547.9"/>
									<path id="path48-4_1_" inkscape:connector-curvature="0" class="st5" d="M16029.7,3553.4c0,0,32.9,47.9,69.8,24.7
										c48.8-30.7-19-94.7,44.6-109.5c-34.8-29-78.4-0.1-63.7,41C16101.8,3569.2,16048.1,3565.6,16029.7,3553.4"/>
									<path id="path50_1_" inkscape:connector-curvature="0" class="st5" d="M15938.8,3505.7c0.3-6.1,2.6-9.3,5.2-9.1
										s4.5,3.6,4.1,9.6c-0.3,6.1-2.6,9.3-5.2,9.1C15940.4,3515.2,15938.5,3511.7,15938.8,3505.7"/>
									<path id="path52-4_1_" inkscape:connector-curvature="0" class="st5" d="M15997.2,3508.8c0.3-6.1,2.6-9.3,5.2-9.1
										c2.6,0.1,4.5,3.6,4.1,9.6c-0.3,6.1-2.6,9.3-5.2,9.1C15998.8,3518.3,15996.9,3514.9,15997.2,3508.8"/>
									<path id="path54_1_" inkscape:connector-curvature="0" class="st6" d="M15994.3,3474.9c0.5-9.2-6.5-17-15.7-17.5
										s-17,6.5-17.5,15.7L15994.3,3474.9"/>
									<path id="path56-2_1_" inkscape:connector-curvature="0" class="st2" d="M15986.3,3447.1l-1.5-25.7l11.9-31.9l15.7,30.3
										l1.5,25.7L15986.3,3447.1"/>
									<path id="path58_1_" inkscape:connector-curvature="0" class="st3" d="M15984.8,3421.4l-33.7-8.6l1.5-73l-13.9-35.6
										l102-6.1l-8.2,36.9l16.7,71.4l-36.9,13.3l-15.7-30.3L15984.8,3421.4"/>
									<path id="path60-3_1_" inkscape:connector-curvature="0" class="st1" d="M16012.3,3419.7l5.9-2.1l-22.4-41.2l-17.4,43.4
										l6.2,1.6l11.9-31.9L16012.3,3419.7"/>
									<path id="path62-7_1_" inkscape:connector-curvature="0" class="st1" d="M15984.8,3421.4l-6.2-1.6l-3.8-22.5l8.8,3.6
										l9.7-2.2L15984.8,3421.4"/>
									<path id="path64-3_1_" inkscape:connector-curvature="0" class="st1" d="M16012.3,3419.7l6.5-2.2l0.5-22.9l-8.3,4.6l-9.9-1
										L16012.3,3419.7"/>
									<path id="path66-6_1_" inkscape:connector-curvature="0" class="st7" d="M15999.3,3366c-0.1-2.2-2-3.9-4.3-3.8
										c-2.2,0.1-3.9,2-3.8,4.2c0.1,2.2,2,3.9,4.2,3.8S15999.4,3368.2,15999.3,3366"/>
									<path id="path72_1_" inkscape:connector-curvature="0" class="st3" d="M16037.2,3270.9l-98,11.3l4.8,21.7l91.5-5.5
										L16037.2,3270.9"/>
									<path id="path76_1_" inkscape:connector-curvature="0" class="st8" d="M15941.7,3293.2l2.3,10.6l91.5-5.5l0.2-3.7
										L15941.7,3293.2"/>
									<path id="path80_1_" inkscape:connector-curvature="0" class="st4" d="M16095.1,3320.3l-32.4,1.8l-1.9-5.3l36.1,0.5
										L16095.1,3320.3"/>
									<path id="path82_1_" inkscape:connector-curvature="0" class="st1" d="M16059.2,3409.4l-5.7-87.2c0,0,51.7-4.1,52.3-1.4
										c0.5,2.7-4.5,90.2-4.5,90.2L16059.2,3409.4"/>
									<path id="path84_1_" inkscape:connector-curvature="0" class="st9" d="M15911,3348.1l16.1,0.2l-4.4-36.6l137.4,18.5l2-2.9
										l-147.9-27.4L15911,3348.1"/>
									<path id="path86_1_" inkscape:connector-curvature="0" class="st10" d="M16103.8,3256.3c-0.7-26.8-21.4-46.7-27.2-46.6
										c-5.8,0.2-25.4,21.1-24.7,48c0.7,26.8,12.9,48.3,27.3,47.9C16093.5,3305.2,16104.5,3283.1,16103.8,3256.3"/>
									<path id="path88-8_1_" inkscape:connector-curvature="0" class="st11" d="M16095.1,3264.5c-0.6-20.8-14.3-37.8-18.1-37.7
										s-16.6,17.9-16.1,38.6c0.6,20.8,8.7,37.4,18.1,37.2C16088.5,3302.3,16095.7,3285.3,16095.1,3264.5"/>
									<path id="path90_1_" inkscape:connector-curvature="0" class="st12" d="M16089,3281.2c-0.3-9.8-8.7-19.2-11-19.1
										c-2.3,0.1-10.2,9.8-10,19.7c0.3,9.8,5.2,17.7,11,17.5C16084.8,3299.1,16089.2,3291,16089,3281.2"/>
									<path id="path92_1_" inkscape:connector-curvature="0" class="st2" d="M15929.7,3318.9c0,0-24.3,0.5-20.3,18.1
										c4.1,17.6,24.2,3.7,24.2,3.7L15929.7,3318.9"/>
									<path id="path96_1_" inkscape:connector-curvature="0" class="st3" d="M16049.3,3406.4c0,0,13.8-112.1-116.8-91.3l3.1,28
										c0,0,89.5-28.3,95,59.3L16049.3,3406.4"/>
									<path id="path98_1_" inkscape:connector-curvature="0" class="st7" d="M15945.8,3317.2c-1.4,0.4-2.2,1.8-1.8,3.2
										s1.8,2.2,3.2,1.8s2.2-1.8,1.8-3.2S15947.2,3316.8,15945.8,3317.2"/>
									<path id="path100_1_" inkscape:connector-curvature="0" class="st7" d="M15937.1,3318.1c-1.4,0.4-2.2,1.8-1.8,3.2
										s1.8,2.2,3.2,1.8s2.2-1.8,1.8-3.2C15939.9,3318.5,15938.5,3317.7,15937.1,3318.1"/>
									<path id="path106_1_" inkscape:connector-curvature="0" class="st1" d="M16082.4,3179.1c-0.8,0.8-1.8,1.6-2.8,2.1
										c-5.6,3-12.5,0.9-15.5-4.7c-1.7-3.1-1.7-6.7-0.5-9.7c-1.7-0.7-3.1-2-4.1-3.8c-2.2-4.1-0.6-9.2,3.5-11.4
										c1.4-0.7,2.9-1,4.4-1c0.3-2.7,1.8-5.2,4.4-6.5c4.1-2.2,9.2-0.6,11.4,3.5c0.2,0.3,0.3,0.6,0.4,0.9c4.5-1.2,9.4,0.8,11.7,5.1
										c1.8,3.3,1.5,7.1-0.3,10.1c0.3,0.4,0.5,0.8,0.8,1.2c2.7,5,0.8,11.2-4.2,13.9C16088.6,3180.4,16085.3,3180.4,16082.4,3179.1
										"/>
								</g>
							</g>
						</g>
					</g>
				</g>
				<path id="path16-04_1_" inkscape:connector-curvature="0" class="st13" d="M59.1,1566.7c-0.1,1.3-1.2,2.4-2.5,2.4
					c-0.3,0-0.6-0.1-0.8-0.1c-0.5,1.2-1.7,2.1-3.2,2.1c-0.2,0-0.3,0-0.5,0l0,0c0,2.7-2.1,4.8-4.8,4.8s-4.8-2.1-4.8-4.8
					c-1.9,0-3.4-1.5-3.4-3.4c0-0.3,0-0.7,0.1-1H59.1"/>
				<path id="path18-7_1_" inkscape:connector-curvature="0" class="st13" d="M20.3,1554.1c3.1,0,5.6-2.2,6.2-5.1
					c0.7,0.7,1.7,1.2,2.8,1.2c2.1,0,3.8-1.6,3.9-3.7H13.9c-0.1,0.4-0.1,0.8-0.1,1.2C13.9,1551.2,16.7,1554.1,20.3,1554.1"/>
				<path id="path20-0_1_" inkscape:connector-curvature="0" class="st13" d="M38.5,1525.8c2.6,0,4.7-1.8,5.2-4.3
					c0.6,0.6,1.4,1,2.4,1c1.8,0,3.2-1.4,3.3-3.1H33.2c-0.1,0.3-0.1,0.7-0.1,1C33.2,1523.4,35.6,1525.8,38.5,1525.8"/>
				<path id="path22-0_1_" inkscape:connector-curvature="0" class="st13" d="M23.6,1588.7c2.6,0,4.7-1.8,5.2-4.3
					c0.6,0.6,1.4,1,2.4,1c1.8,0,3.2-1.4,3.3-3.1H18.3c-0.1,0.3-0.1,0.7-0.1,1C18.3,1586.4,20.7,1588.7,23.6,1588.7"/>
				<path id="path24-2_1_" inkscape:connector-curvature="0" class="st13" d="M112.8,1595.9c2.6,0,4.7-1.8,5.2-4.3
					c0.6,0.6,1.4,1,2.4,1c1.8,0,3.2-1.4,3.3-3.1h-16.2c-0.1,0.3-0.1,0.7-0.1,1C107.5,1593.5,109.8,1595.9,112.8,1595.9"/>
				<path id="path98-97_1_" inkscape:connector-curvature="0" class="st13" d="M32.9,1493.8c-0.1,1.3-1.2,2.4-2.5,2.4
					c-0.3,0-0.6-0.1-0.8-0.1c-0.5,1.2-1.7,2.1-3.2,2.1c-0.2,0-0.3,0-0.5,0l0,0c0,2.7-2.1,4.8-4.8,4.8s-4.8-2.1-4.8-4.8
					c-1.9,0-3.4-1.5-3.4-3.4c0-0.3,0-0.7,0.1-1H32.9"/>
			</g>
			<g id="g6009_1_" transform="matrix(0.99048065,0,0,0.99047583,11.492238,-23.027827)">
				<path id="path156_1_" inkscape:connector-curvature="0" class="st14" d="M284.9,1408.7c-2.6,0-4.8,0.8-4.8,1.8s2.1,1.8,4.8,1.8
					c2.6,0,4.8-0.8,4.8-1.8C289.6,1409.5,287.5,1408.7,284.9,1408.7"/>
				<g id="g5537_1_" transform="matrix(0.52095683,0,0,0.52095683,1103.0078,485.93562)">
					<g id="g5479_1_">
						<path id="path42-9_1_" inkscape:connector-curvature="0" class="st15" d="M-1550.9,1895.9c0-1.3,1-2.3,2.3-2.3s2.3,1,2.3,2.3
							s-1,2.3-2.3,2.3C-1549.9,1898.2-1550.9,1897.2-1550.9,1895.9"/>
						<path id="path44-93_1_" inkscape:connector-curvature="0" class="st15" d="M-1581.6,1934.2c0-1.3,1-2.3,2.3-2.3s2.3,1,2.3,2.3
							s-1,2.3-2.3,2.3S-1581.6,1935.4-1581.6,1934.2"/>
						<path id="path50-61_1_" inkscape:connector-curvature="0" class="st15" d="M-1433.9,1856.5c0-0.6,0.5-1.1,1.1-1.1
							s1.1,0.5,1.1,1.1s-0.5,1.1-1.1,1.1S-1433.9,1857.1-1433.9,1856.5"/>
						<path id="path52-1_1_" inkscape:connector-curvature="0" class="st15" d="M-1593.7,1810.8c0-0.6,0.5-1.1,1.1-1.1
							s1.1,0.5,1.1,1.1s-0.5,1.1-1.1,1.1S-1593.7,1811.4-1593.7,1810.8"/>
						<path id="path58-0_1_" inkscape:connector-curvature="0" class="st15" d="M-1666.6,1728.1c0-3,6.3-5.4,14.2-5.4
							c7.8,0,14.2,2.4,14.2,5.4s-6.3,5.4-14.2,5.4C-1660.2,1733.5-1666.6,1731.1-1666.6,1728.1"/>
						<path id="path60-96_1_" inkscape:connector-curvature="0" class="st15" d="M-1597.4,1738.9c0-1.6,3.3-2.8,7.4-2.8
							s7.4,1.3,7.4,2.8s-3.3,2.8-7.4,2.8C-1594.1,1741.7-1597.4,1740.4-1597.4,1738.9"/>
						<path id="path66-122_1_" inkscape:connector-curvature="0" class="st15" d="M-1611.3,1708.9c0-4.5,9.6-8.1,21.4-8.1
							s21.4,3.6,21.4,8.1s-9.6,8.1-21.4,8.1S-1611.3,1713.4-1611.3,1708.9"/>
						<path id="path68-34_1_" inkscape:connector-curvature="0" class="st15" d="M-1627.8,1764.6c0-4.2,8.9-7.6,19.9-7.6
							s19.9,3.4,19.9,7.6s-8.9,7.6-19.9,7.6S-1627.8,1768.8-1627.8,1764.6"/>
						<path id="path72-1_1_" inkscape:connector-curvature="0" class="st16" d="M-1652.4,1722.7c7.8,0,14.2,2.4,14.2,5.4
							s-6.3,5.4-14.2,5.4c-7.8,0-14.2-2.4-14.2-5.4S-1660.2,1722.7-1652.4,1722.7"/>
						<path id="path74-3_1_" inkscape:connector-curvature="0" class="st16" d="M-1590,1736.1c4.1,0,7.4,1.3,7.4,2.8
							s-3.3,2.8-7.4,2.8s-7.4-1.3-7.4-2.8S-1594.1,1736.1-1590,1736.1"/>
						<path id="path80-9_1_" inkscape:connector-curvature="0" class="st16" d="M-1607.9,1757c11,0,19.9,3.4,19.9,7.6
							s-8.9,7.6-19.9,7.6s-19.9-3.4-19.9-7.6S-1618.9,1757-1607.9,1757"/>
						<path id="path88-3_1_" inkscape:connector-curvature="0" class="st17" d="M-1500.3,1764c18.8,0,34,3.7,34,8.2
							c0,4.6-15.2,8.2-34,8.2s-34-3.7-34-8.2S-1519.1,1764-1500.3,1764"/>
						<path id="path90-16_1_" inkscape:connector-curvature="0" class="st18" d="M-1530.6,1868.4c0.4-22.5,18.9-40.4,41.4-40.1
							c22.5,0.4,40.4,18.9,40.1,41.4c-0.4,22.5-18.9,40.4-41.4,40.1C-1513,1909.4-1531,1890.9-1530.6,1868.4"/>
						<path id="path92-45_1_" inkscape:connector-curvature="0" class="st19" d="M-1451.7,1849.2l-2.3,1.6c0,0-4.2-2-5-6.9l2.2-1.7
							C-1456.8,1842.2-1455.9,1847.7-1451.7,1849.2"/>
						<path id="path94-10_1_" inkscape:connector-curvature="0" class="st20" d="M-1456.8,1842.2c0,0,4.5,1.8,5.1,7
							C-1451.7,1849.2-1456.9,1847.7-1456.8,1842.2"/>
						<path id="path96-1_1_" inkscape:connector-curvature="0" class="st21" d="M-1470.8,1821.9c3.4-1.7,7.3-2,10.8-0.8
							c3.7,1.3,6.7,4.1,8.3,7.7c3.3,7.4-2.3,13.5-4.1,15.2c0.7,1.5,1.8,2.6,2.8,3.3c3.8-3.4,9.2-11.4,5.2-20.3
							c-2.1-4.7-6-8.3-10.8-10c-1.8-0.6-3.7-1-5.6-1c-2.9,0-5.8,0.6-8.6,2L-1470.8,1821.9"/>
						<path id="path98-06_1_" inkscape:connector-curvature="0" class="st22" d="M-1519.4,1833.2l0.9,5.7c0,0-2.4,0.1-6.7,0.7
							l-0.8-5.5C-1523.8,1833.8-1521.6,1833.5-1519.4,1833.2"/>
						<path id="path100-06_1_" inkscape:connector-curvature="0" class="st23" d="M-1571.6,1849.4c0.1,0.7,1.4,0.5,1.4,0.5
							c17.4-4.7,37.7-9.4,45-10.3l-0.8-5.5c-24.4,3.2-42.3,8.2-44.7,8.7c0,0-1,0.2-1,0.8c0,0.8,0.7,0.7,1.1,0.7
							c-0.5,0.1-1.6,0.6-1.4,1.2c0.2,0.9,1.1,0.7,1.5,0.7l0,0c-0.4,0-1.4,0.2-1.3,1c0.1,0.7,1.1,0.8,1.5,0.7
							C-1570.7,1848-1571.8,1848-1571.6,1849.4"/>
						<path id="path102-3_1_" inkscape:connector-curvature="0" class="st23" d="M-1519.8,1837.8c0,0,3.4,59.8,45.8,38.6
							c0,0,7.8-14.9,6.1-43.2C-1503.2,1828.5-1519.8,1837.8-1519.8,1837.8"/>
						<path id="path104-9_1_" inkscape:connector-curvature="0" class="st24" d="M-1507.8,1859.4c-0.5-1.6-1.6-2.8-2.6-2.5
							s-1.3,1.8-0.9,3.5c0.5,1.6,1.6,2.8,2.6,2.5C-1507.8,1862.6-1507.4,1861.1-1507.8,1859.4"/>
						<path id="path106-91_1_" inkscape:connector-curvature="0" class="st24" d="M-1486.9,1853.5c-0.5-1.6-1.6-2.8-2.6-2.5
							s-1.3,1.8-0.9,3.5c0.5,1.6,1.6,2.8,2.6,2.5C-1486.9,1856.7-1486.5,1855.1-1486.9,1853.5"/>
						<path id="path108-2_1_" inkscape:connector-curvature="0" class="st24" d="M-1502.6,1904.5c0,0-32.7-35.1,29.2-42.1l-1.5-9.6
							c0,0,5.8,2.5,5.6-2.7c-0.3-5.3-5.6-1.1-5.6-1.1s1.2-12,7.3-15.8c-0.2-0.4,22.2,39.5,3.9,37c0,0,3.7,13.1-8.4,20
							C-1485.1,1897.6-1501.8,1881.9-1502.6,1904.5"/>
						<path id="path110-0_1_" inkscape:connector-curvature="0" class="st25" d="M-1461.2,1886.7l3.3,2c-2.9,4.6-6.8,8.6-11.3,11.6
							l-2.1-3.2C-1467.3,1894.5-1463.8,1890.9-1461.2,1886.7z M-1458.2,1880.5l3.6,1.3c-0.6,1.6-1.2,3.1-2,4.6l-3.4-1.8
							C-1459.3,1883.3-1458.7,1881.9-1458.2,1880.5"/>
						<path id="path112-5_1_" inkscape:connector-curvature="0" class="st19" d="M-1467.8,1833.2c0,0-30.5-5-52,4.6
							c0,0-1.6,0.8-1.2,2.1c0.3,1.1,1.5,1.2,1.5,1.2s18.2-8.4,53-5.5c0,0,0.6-0.3,0.3-1.4
							C-1466.5,1833.3-1467.8,1833.2-1467.8,1833.2"/>
						<path id="path114-8_1_" inkscape:connector-curvature="0" class="st23" d="M-1459,1865.2L-1459,1865.2L-1459,1865.2"/>
						<path id="path116-5_1_" inkscape:connector-curvature="0" class="st23" d="M-1459.4,1863.6
							C-1459.4,1863.6-1459.3,1863.6-1459.4,1863.6C-1459.3,1863.6-1459.4,1863.6-1459.4,1863.6"/>
						<path id="path118-8_1_" inkscape:connector-curvature="0" class="st6" d="M-1508.7,1850.1c0,0,9.6-1.1,15.2-3.8
							c0,0-0.6-7.9-9.5-5.9C-1511.9,1842.3-1508.7,1850.1-1508.7,1850.1"/>
						<path id="path120-9_1_" inkscape:connector-curvature="0" class="st24" d="M-1474.2,1801.3l-1.5-12.9l2-17c0,0-17.9-6.7-14,1
							c3.7,7.1,10.9,2.2,10.9,2.2l-3.8,12.9l-0.1,10.2c0,0-19.1-1.5-35.3,2.9l-0.7-8.4l3.1-16.4c0,0-17.2-6.7-12.9,1.5
							c2.4,4.5,9,2.1,9,2.1l-3.5,12.3l-0.4,13.8L-1474.2,1801.3"/>
						<path id="path122-8_1_" inkscape:connector-curvature="0" class="st22" d="M-1519.8,1837.8l-1.5-32.4c0,0,19.4-5.4,47.2-4.1
							l6.4,32C-1467.8,1833.2-1499.9,1829.8-1519.8,1837.8"/>
						<path id="path124-3_1_" inkscape:connector-curvature="0" class="st26" d="M-1505.8,1804.9l4.6,4.2l-4.6,18.6l1.7,2.1
							l-0.7,1.5l-3.8,0.7l-1.1-1.7l1.2-2.2l-2.3-18.8L-1505.8,1804.9"/>
						<path id="path126-9_1_" inkscape:connector-curvature="0" class="st24" d="M-1508.5,1832.1l-1.1-1.7l1.2-2.2l-3.4-18.4
							l4.9-4.5l4.6,4.2l-3.5,18.2l1.7,2.1l-0.7,1.5L-1508.5,1832.1"/>
						<path id="path128-8_1_" inkscape:connector-curvature="0" class="st23" d="M-1469,1827.3c8.4-15.1-0.1-19.1-13-28.5
							c0,0-1.1-1-0.6-1.5c0.7-0.6,1.5,0.1,1.8,0.5c-0.3-0.3-0.9-1.1-0.3-1.6s1.3,0.2,1.6,0.5l0,0c-0.2-0.3-0.8-1.3-0.2-1.9
							c0.5-0.4,1-0.1,1.3,0.3c0,0.1,0.1,0.1,0.1,0.1l-0.1-0.1c-0.3-0.4-0.5-0.9-0.1-1.3s1.6,0.6,1.6,0.6c1.9,1.8,29.6,15.6,9.1,38.9
							L-1469,1827.3"/>
						<path id="path130-1_1_" inkscape:connector-curvature="0" class="st22" d="M-1469,1827.3l1.2,5.9c1.9-2.2,3.4-4.3,4.5-6.3
							l-4.3-2.3C-1468,1825.5-1468.5,1826.4-1469,1827.3"/>
						<path id="path132-5_1_" inkscape:connector-curvature="0" class="st27" d="M-1452.9,1840.7L-1452.9,1840.7
							c-0.3,0.5-0.7,1-1,1.4l0,0C-1453.6,1841.7-1453.2,1841.2-1452.9,1840.7"/>
						<path id="path134-0_1_" inkscape:connector-curvature="0" class="st28" d="M-1452.9,1840.7l3.5,2.5c-0.4,0.6-0.8,1.1-1.1,1.6
							l-3.4-2.6C-1453.6,1841.7-1453.2,1841.2-1452.9,1840.7"/>
						<path id="path136-2_1_" inkscape:connector-curvature="0" class="st27" d="M-1450.8,1835.5L-1450.8,1835.5
							c-0.1,0.6-0.3,1.2-0.5,1.7l0,0C-1451,1836.7-1450.9,1836.1-1450.8,1835.5"/>
						<path id="path138-2_1_" inkscape:connector-curvature="0" class="st28" d="M-1450.8,1835.5l4.3,0.4c-0.1,0.7-0.3,1.4-0.5,2.1
							l-4.2-0.7C-1451,1836.7-1450.9,1836.1-1450.8,1835.5"/>
						<path id="path140-9_1_" inkscape:connector-curvature="0" class="st27" d="M-1451.2,1830c0.2,0.5,0.3,1.1,0.4,1.6l0,0
							C-1450.9,1831.1-1451,1830.5-1451.2,1830L-1451.2,1830"/>
						<path id="path142-7_1_" inkscape:connector-curvature="0" class="st28" d="M-1447,1828.9c0.2,0.7,0.4,1.4,0.5,2.1l-4.3,0.6
							c-0.1-0.5-0.2-1.1-0.4-1.6L-1447,1828.9"/>
						<path id="path144-2_1_" inkscape:connector-curvature="0" class="st27" d="M-1454.6,1824.4c0.5,0.5,0.9,0.9,1.3,1.5l0,0
							C-1453.8,1825.4-1454.2,1824.9-1454.6,1824.4L-1454.6,1824.4"/>
						<path id="path146-9_1_" inkscape:connector-curvature="0" class="st28" d="M-1450.7,1822.4c0.4,0.4,0.7,0.8,1,1.3l-3.7,2.2
							c-0.4-0.5-0.8-1-1.3-1.5L-1450.7,1822.4"/>
						<path id="path148-2_1_" inkscape:connector-curvature="0" class="st27" d="M-1458.4,1821.8c0.4,0.2,0.9,0.5,1.3,0.7l0,0
							C-1457.5,1822.2-1457.9,1822-1458.4,1821.8L-1458.4,1821.8"/>
						<path id="path150_1_" inkscape:connector-curvature="0" class="st28" d="M-1456.8,1817.7c0.5,0.2,0.9,0.5,1.4,0.7l-1.6,4
							c-0.4-0.3-0.9-0.5-1.3-0.7L-1456.8,1817.7"/>
						<path id="path152_1_" inkscape:connector-curvature="0" class="st27" d="M-1467.3,1820.6L-1467.3,1820.6
							c-0.4,0.1-0.8,0.2-1.2,0.3l0,0C-1468.1,1820.8-1467.7,1820.7-1467.3,1820.6"/>
						<path id="path154_1_" inkscape:connector-curvature="0" class="st28" d="M-1467.4,1816.3l0.2,4.3c-0.4,0.1-0.8,0.2-1.2,0.3
							l-0.4-4.4C-1468.4,1816.4-1467.9,1816.3-1467.4,1816.3"/>
						<path id="path158_1_" inkscape:connector-curvature="0" class="st24" d="M-1570.5,1774.4c1.4,0,2.5,1.1,2.5,2.5v122.5
							c0,1.4-1.1,2.5-2.5,2.5s-2.5-1.1-2.5-2.5v-122.5C-1572.9,1775.5-1571.8,1774.4-1570.5,1774.4"/>
						<path id="path160_1_" inkscape:connector-curvature="0" class="st23" d="M-1575,1848.8c0-0.7,1.1-1.2,2.5-1.2s2.6,0.5,2.6,1.1
							c0,0.7-1.1,1.2-2.5,1.2C-1573.8,1850-1575,1849.5-1575,1848.8"/>
						<path id="path162_1_" inkscape:connector-curvature="0" class="st23" d="M-1575,1847.1c0-0.7,1.1-1.2,2.5-1.2s2.6,0.5,2.6,1.1
							c0,0.7-1.1,1.2-2.5,1.2C-1573.8,1848.3-1575,1847.8-1575,1847.1"/>
						<path id="path164_1_" inkscape:connector-curvature="0" class="st23" d="M-1574.8,1845.4c0-0.7,1.1-1.2,2.5-1.2
							s2.6,0.5,2.6,1.1c0,0.7-1.1,1.2-2.5,1.2C-1573.6,1846.6-1574.8,1846-1574.8,1845.4"/>
						<path id="path166_1_" inkscape:connector-curvature="0" class="st23" d="M-1574.6,1843.7c0-0.7,1.1-1.2,2.6-1.2
							c1.4,0,2.6,0.5,2.6,1.1c0,0.7-1.1,1.2-2.5,1.2C-1573.4,1844.8-1574.6,1844.3-1574.6,1843.7"/>
						<path id="path168_1_" inkscape:connector-curvature="0" class="st23" d="M-1565.3,1848.4c0,0-0.7,4.9-5.7,4.3c0,0-1.5,0-1.4-1
							c0.2-1.7,3.9-0.6,4.4-2.5L-1565.3,1848.4"/>
						<path id="path170_1_" inkscape:connector-curvature="0" class="st19" d="M-1631.9,1855.7c20.5-7.6,40.9,7.6,61.4,0
							c0,14.1,0,28.2,0,42.3c-20.5,7.6-40.9-7.6-61.4,0C-1631.9,1884-1631.9,1869.8-1631.9,1855.7"/>
					</g>
					<g id="g5533_1_" transform="matrix(-1,0,0,1,4384.7638,0)">
						<path id="path172_1_" inkscape:connector-curvature="0" class="st29" d="M5990.9,1876.2h2l0.4-2h-2L5990.9,1876.2z
							 M5987,1876.2l0.4-2h-2.7l0.7-3.9h2.7l0.5-3h3.9l-0.5,3h2l0.5-3h3.9l-0.5,3h3.3l-0.7,3.9h-3.3l-0.4,2h3.3l-0.7,3.9h-3.3
							l-0.5,3h-3.9l0.5-3h-2l-0.5,3h-3.9l0.5-3h-2.7l0.7-3.9H5987"/>
						<path id="path174_1_" inkscape:connector-curvature="0" class="st29" d="M5982,1883.4c-1.7,0.8-3,1.3-5.1,3.8h-5.2v-16.5h-2.7
							v-3.9h11.7v3.9h-2.9v10.8l2.9-1.4L5982,1883.4"/>
					</g>
				</g>
			</g>
		</g>
	</g>
</g>
</svg>
